<svg width="62" height="62" viewBox="0 0 62 62" fill="none" xmlns="http://www.w3.org/2000/svg">
<g clip-path="url(#clip0)">
<path d="M55.1373 21.1602C55.2445 21.0918 55.3372 21.0029 55.4101 20.8986C55.483 20.7943 55.5346 20.6767 55.562 20.5525C55.5894 20.4282 55.5921 20.2998 55.5699 20.1746C55.5477 20.0493 55.5011 19.9296 55.4326 19.8224C55.1925 19.447 53.0471 16.7852 49.3258 14.0542C48.2938 13.2965 47.1452 14.8569 48.1794 15.6163C54.0315 19.9118 53.7946 22.0175 55.1373 21.1602Z" fill="#003966"/>
<path d="M31.0048 9.68746C39.8517 9.68746 42.3314 13.433 43.1737 11.4867C43.2243 11.3699 43.2513 11.2443 43.2533 11.1171C43.2554 10.9899 43.2323 10.8636 43.1855 10.7453C43.1387 10.627 43.069 10.5191 42.9805 10.4277C42.8919 10.3363 42.7863 10.2633 42.6695 10.2128C22.4687 1.4687 10.6683 18.1993 7.20757 20.5065C7.1017 20.577 7.01076 20.6677 6.93994 20.7734C6.86913 20.8791 6.81982 20.9977 6.79485 21.1225C6.76988 21.2472 6.76972 21.3757 6.79439 21.5005C6.81905 21.6253 6.86806 21.744 6.93862 21.8499C8.9799 24.9127 15.8532 9.68746 31.0048 9.68746Z" fill="#003966"/>
<path d="M40.1653 15.6229C44.2808 17.4858 48.3741 20.7836 50.5813 23.6374C51.3617 24.6525 52.8993 23.4733 52.1172 22.4564C48.8286 18.1753 40.6929 11.6249 31.0055 11.6249C18.2776 11.6249 14.8433 21.4472 8.39416 23.743C8.24011 23.7979 8.10246 23.8909 7.99404 24.0133C7.88563 24.1358 7.80998 24.2837 7.77415 24.4433C7.73831 24.6028 7.74347 24.7689 7.78912 24.9259C7.83478 25.083 7.91945 25.2259 8.03524 25.3414C10.1181 27.4183 12.7801 29.7405 16.7313 31.2158C22.5317 33.3817 30.6935 33.1945 35.9939 32.3656C37.2596 32.1676 36.9626 30.2544 35.6945 30.4513C33.6264 30.7642 31.54 30.9413 29.4487 30.9814C27.7606 30.8919 26.1266 30.3555 24.7138 29.4272C23.301 28.4989 22.1602 27.2119 21.4081 25.6979C18.7864 20.4956 21.7618 16.4115 21.9883 15.8758C26.5456 13.2429 31.9629 13.0125 36.798 14.3845C38.5338 16.0818 39.5696 18.3686 39.7004 20.7928C39.8313 23.217 39.0478 25.6021 37.5049 27.4764C37.4238 27.5745 37.3629 27.6876 37.3256 27.8092C37.2883 27.9308 37.2753 28.0586 37.2873 28.1853C37.2994 28.3119 37.3363 28.4349 37.3959 28.5473C37.4555 28.6597 37.5367 28.7593 37.6348 28.8403C39.4477 30.3382 43.9081 22.2991 40.1653 15.6229ZM23.202 30.7381C17.359 30.0455 13.7446 28.008 10.4379 24.9625C13.4952 23.3894 15.8612 20.5643 18.8441 18.0975C17.4551 22.8933 19.4125 27.979 23.202 30.7381Z" fill="#003966"/>
<path d="M30.0311 14.5311C28.5941 14.5311 27.1894 14.9572 25.9946 15.7556C24.7997 16.554 23.8685 17.6887 23.3186 19.0163C22.7687 20.3439 22.6248 21.8048 22.9051 23.2142C23.1855 24.6236 23.8774 25.9182 24.8936 26.9343C25.9097 27.9504 27.2043 28.6424 28.6137 28.9228C30.0231 29.2031 31.4839 29.0592 32.8116 28.5093C34.1392 27.9594 35.2739 27.0281 36.0723 25.8333C36.8706 24.6385 37.2968 23.2338 37.2968 21.7968C37.2946 19.8705 36.5284 18.0237 35.1663 16.6616C33.8042 15.2995 31.9574 14.5333 30.0311 14.5311ZM33.9061 18.8905C33.9061 20.8136 30.9999 20.8117 30.9999 18.8905C30.9999 16.9674 33.9061 16.9694 33.9061 18.8905ZM30.0311 27.1249C29.3247 27.1322 28.6239 26.9989 27.9695 26.7328C27.315 26.4668 26.72 26.0732 26.2191 25.575C25.7182 25.0769 25.3213 24.4841 25.0516 23.8311C24.7819 23.1782 24.6447 22.4781 24.6481 21.7717C24.6515 21.0652 24.7953 20.3665 25.0712 19.7161C25.3471 19.0658 25.7496 18.4768 26.2552 17.9834C26.7609 17.4901 27.3596 17.1022 28.0165 16.8424C28.6735 16.5825 29.3756 16.4559 30.0819 16.47C29.759 16.785 29.5025 17.1614 29.3274 17.5772C29.1523 17.9929 29.0622 18.4394 29.0624 18.8905C29.0624 22.2186 33.3885 23.5526 35.2624 20.7873C35.4104 21.5582 35.3863 22.3523 35.192 23.1129C34.9976 23.8734 34.6377 24.5817 34.138 25.1871C33.6383 25.7924 33.0111 26.28 32.3012 26.615C31.5913 26.95 30.8161 27.1241 30.0311 27.1249Z" fill="#003966"/>
<path d="M47.4824 50.9629C48.0202 52.1227 49.7821 51.3171 49.2402 50.1479L42.1974 34.9555C41.8684 34.2619 41.6801 33.5101 41.6432 32.7433C41.6064 31.9765 41.7218 31.2101 41.9828 30.4882C42.2439 29.7663 42.6453 29.1032 43.1639 28.5373C43.6826 27.9713 44.3082 27.5138 45.0047 27.1909C45.7011 26.8681 46.4546 26.6864 47.2217 26.6564C47.9888 26.6264 48.7542 26.7486 49.4737 27.016C50.1933 27.2834 50.8528 27.6907 51.4141 28.2143C51.9754 28.738 52.4274 29.3676 52.744 30.0669L55.7664 36.5866C56.3052 37.7491 58.0638 36.9354 57.5242 35.7717L54.5017 29.2519C53.8767 27.912 52.883 26.778 51.6368 25.9824C50.3906 25.1869 48.9436 24.7629 47.4652 24.76C41.8318 24.76 38.0602 30.6387 40.4396 35.7705L47.4824 50.9629Z" fill="#003966"/>
<path d="M53.0228 35.2762L50.9857 30.8814C50.7717 30.4198 50.4689 30.0047 50.0945 29.6601C49.7201 29.3155 49.2815 29.0479 48.8037 28.8728C47.8387 28.5191 46.7728 28.5632 45.8404 28.9955C44.908 29.4277 44.1855 30.2126 43.8318 31.1775C43.4781 32.1425 43.5222 33.2084 43.9544 34.1408L45.9911 38.5354C46.0992 38.7685 46.2954 38.9491 46.5366 39.0376C46.7778 39.126 47.0443 39.115 47.2774 39.007L52.5509 36.5624C52.6663 36.509 52.7701 36.4333 52.8563 36.3397C52.9425 36.2461 53.0094 36.1365 53.0532 36.0171C53.0971 35.8976 53.1169 35.7707 53.1117 35.6436C53.1065 35.5165 53.0763 35.3916 53.0228 35.2762ZM47.3419 36.8417L45.7126 33.326C45.5036 32.8609 45.4864 32.3321 45.6646 31.8544C45.8429 31.3766 46.2023 30.9884 46.665 30.774C47.1276 30.5595 47.6561 30.5361 48.1359 30.7087C48.6157 30.8814 49.0081 31.2362 49.228 31.6963L50.8575 35.212L47.3419 36.8417Z" fill="#003966"/>
<path d="M49.4095 42.6325L54.1181 40.4499C55.2799 39.9113 54.4671 38.1527 53.3034 38.692L48.5947 40.8747C47.4322 41.414 48.2468 43.1713 49.4095 42.6325Z" fill="#003966"/>
<path d="M50.6326 46.2383C51.0133 46.2383 50.7877 46.2298 55.748 43.9656C56.9096 43.4271 56.097 41.6684 54.9333 42.2078L50.2246 44.3904C49.2882 44.8245 49.5969 46.2383 50.6326 46.2383Z" fill="#003966"/>
<path d="M2.54455 36.9374C1.60267 32.4929 1.72691 27.8885 2.90711 23.5012C3.23927 22.2635 1.36922 21.7601 1.03584 22.9987C-0.223633 27.6787 -0.356673 32.5905 0.647618 37.3318C0.908211 38.5854 2.80539 38.1929 2.54455 36.9374Z" fill="#003966"/>
<path d="M37.3624 59.373C33.0841 60.3395 28.6415 60.3156 24.3739 59.3031C23.1266 59.0115 22.6845 60.8984 23.9336 61.19C28.4863 62.2694 33.2255 62.2942 37.7893 61.2627C39.0388 60.9806 38.6138 59.0915 37.3624 59.373Z" fill="#003966"/>
<path d="M52.9203 9.07927C38.0821 -5.75871 12.9594 -1.91604 3.33823 16.9981C2.75698 18.14 4.48377 19.0196 5.06527 17.8765C10.0661 8.04488 20.0035 1.93728 30.9998 1.93728C47.025 1.93728 60.0623 14.9747 60.0623 30.9998C60.0623 43.1411 52.385 54.1166 40.9589 58.3101C39.7558 58.7517 40.4228 60.57 41.6266 60.1289C63.1519 52.2285 68.7634 24.9222 52.9203 9.07927Z" fill="#003966"/>
<path d="M18.7547 41.8754L13.5626 47.0674L8.37062 41.8754C7.46496 40.9701 6.09406 42.3383 7.00057 43.2454L12.1926 48.4374L7.00057 53.6294C6.81889 53.8111 6.71682 54.0575 6.71682 54.3145C6.71682 54.5714 6.81889 54.8178 7.00057 54.9995C7.18225 55.1812 7.42866 55.2832 7.68559 55.2832C7.94253 55.2832 8.18894 55.1812 8.37062 54.9995L13.5626 49.8075C18.9063 55.0055 18.7155 55.2832 19.4397 55.2832C19.6311 55.2827 19.818 55.2256 19.977 55.1191C20.136 55.0125 20.2599 54.8613 20.3331 54.6845C20.4063 54.5077 20.4256 54.3132 20.3885 54.1255C20.3515 53.9377 20.2597 53.7651 20.1247 53.6294L14.9327 48.4374L20.1247 43.2454C21.0304 42.3397 19.6619 40.9685 18.7547 41.8754Z" fill="#003966"/>
<path d="M24.64 51.9712C24.2511 53.1917 26.0964 53.7816 26.4861 52.5596C29.2805 43.7945 22.6964 34.875 13.5625 34.875C9.96675 34.8791 6.51944 36.3093 3.97686 38.8519C1.43428 41.3944 0.0040704 44.8417 0 48.4375C0 59.368 12.2607 65.6786 21.1396 59.6871C22.2013 58.9706 21.119 57.3637 20.0559 58.081C12.4163 63.236 1.9375 57.7771 1.9375 48.4375C1.94096 45.3554 3.16685 42.4006 5.34621 40.2212C7.52557 38.0418 10.4804 36.816 13.5625 36.8125C21.3862 36.8125 27.0371 44.4522 24.64 51.9712Z" fill="#003966"/>
<path d="M23.638 55.1542C22.5279 55.1542 22.5263 56.8333 23.638 56.8333C24.7496 56.8333 24.7496 55.1542 23.638 55.1542Z" fill="#003966"/>
<path d="M46.5001 12.7229C46.5001 11.6128 44.8209 11.6113 44.8209 12.7229C44.8209 13.8346 46.5001 13.8344 46.5001 12.7229Z" fill="#003966"/>
</g>
<defs>
<clipPath id="clip0">
<rect width="62" height="62" fill="white"/>
</clipPath>
</defs>
</svg>
