<svg width="62" height="62" viewBox="0 0 62 62" fill="none" xmlns="http://www.w3.org/2000/svg">
<g clip-path="url(#clip0)">
<path d="M54.2699 36.605C53.027 35.0594 51.2959 33.982 49.3603 33.5493L38.7502 31.1917C38.7381 26.9276 38.7773 27.1153 38.7195 26.8869C39.7788 25.8193 40.5994 24.539 41.127 23.1306C44.1956 22.5443 44.1907 19.288 44.476 18.6737C44.638 18.0293 44.5654 17.3483 44.2712 16.7525C43.977 16.1567 43.4805 15.685 42.8704 15.4219C43.2767 13.6902 43.9453 10.3601 41.9166 6.53116C41.3171 5.39942 39.6038 6.30483 40.2046 7.43827C40.7599 8.47516 41.1236 9.60369 41.2784 10.7697C37.4994 8.31111 33.8731 12.5937 31.0002 12.5937C28.1272 12.5937 24.5045 8.29852 20.7131 10.7756C21.5566 4.3126 28.6459 0.0525219 35.0689 2.74879C35.3059 2.84835 35.5727 2.8497 35.8107 2.75254C36.0486 2.65538 36.2382 2.46766 36.3378 2.2307C36.4374 1.99373 36.4387 1.72691 36.3415 1.48895C36.2444 1.25099 36.0567 1.06137 35.8197 0.961815C33.7309 0.0831922 31.4413 -0.20615 29.1997 0.125232C26.958 0.456613 24.8501 1.39604 23.1049 2.84143C16.7493 8.08043 19.1427 15.174 19.131 15.4215C16.2655 16.666 17.9591 19.8746 17.9642 20.4053C18.1397 21.0893 18.5066 21.709 19.022 22.1917C19.5374 22.6745 20.1797 23.0001 20.8737 23.1306C21.4016 24.5373 22.2228 25.8155 23.2827 26.8804C23.2615 26.9602 23.2506 27.0424 23.2502 27.125V31.1917C14.6555 33.5214 10.7764 32.8076 7.73043 36.6045C4.5246 40.6016 6.32417 43.844 5.81267 61.0312C5.81267 61.2881 5.91474 61.5345 6.09641 61.7162C6.27809 61.8979 6.52449 62 6.78142 62C7.03835 62 7.28476 61.8979 7.46643 61.7162C7.64811 61.5345 7.75017 61.2881 7.75017 61.0312V42.0605C7.74275 40.5157 8.26617 39.0152 9.23283 37.8101C10.1995 36.6051 11.5507 35.7686 13.0604 35.4407L24.429 32.9145C25.6919 32.6338 24.9994 31.03 25.1877 28.3855C28.6168 30.4979 33.2753 30.5773 36.8127 28.3966V31.9687C36.8127 32.1891 36.8878 32.403 37.0258 32.5749C37.1637 32.7469 37.3561 32.8666 37.5713 32.9145L48.94 35.4407C50.4496 35.7686 51.8009 36.6051 52.7675 37.8101C53.7342 39.0152 54.2576 40.5157 54.2502 42.0605V61.0312C54.2502 62.3119 56.1877 62.3138 56.1877 61.0312C55.667 43.5487 57.4692 40.5935 54.2699 36.605ZM31.0279 28.0611C23.7744 28.0611 22.3576 21.3473 22.297 21.2604C22.1497 21.2241 20.261 21.5806 19.8414 19.9284C19.6372 18.6766 19.108 18.0449 19.5556 17.4693C19.9706 16.9365 20.5718 17.1883 21.4625 17.1236C20.8633 14.1915 20.8052 14.0611 20.7158 13.3754C23.8128 9.63382 26.9331 14.5312 31.0002 14.5312C35.0908 14.5312 38.1745 9.62437 41.2804 13.3713C41.122 14.6693 40.7996 15.5479 40.7615 16.0868L40.6877 17.1238C41.4385 17.1835 42.0354 16.9446 42.4435 17.4696C42.8916 18.0454 42.364 18.6644 42.1577 19.9286C41.7317 21.6072 39.9139 21.2089 39.7021 21.2606C39.6311 21.3488 38.2712 28.0611 31.0279 28.0611Z" fill="white"/>
<path d="M47.4688 44.5625C47.2118 44.5625 46.9654 44.6646 46.7837 44.8462C46.6021 45.0279 46.5 45.2743 46.5 45.5312V61.0312C46.5 61.2882 46.6021 61.5346 46.7837 61.7163C46.9654 61.8979 47.2118 62 47.4688 62C47.7257 62 47.9721 61.8979 48.1538 61.7163C48.3354 61.5346 48.4375 61.2882 48.4375 61.0312V45.5312C48.4375 45.2743 48.3354 45.0279 48.1538 44.8462C47.9721 44.6646 47.7257 44.5625 47.4688 44.5625Z" fill="white"/>
<path d="M14.5313 44.5625C14.2744 44.5625 14.028 44.6646 13.8463 44.8462C13.6646 45.0279 13.5626 45.2743 13.5626 45.5312V61.0312C13.5626 61.2882 13.6646 61.5346 13.8463 61.7163C14.028 61.8979 14.2744 62 14.5313 62C14.7882 62 15.0346 61.8979 15.2163 61.7163C15.398 61.5346 15.5001 61.2882 15.5001 61.0312V45.5312C15.5001 45.2743 15.398 45.0279 15.2163 44.8462C15.0346 44.6646 14.7882 44.5625 14.5313 44.5625Z" fill="white"/>
<path d="M31 34.875C31.2569 34.875 31.5033 34.7729 31.685 34.5912C31.8667 34.4096 31.9688 34.1632 31.9688 33.9062C31.9688 32.6254 30.0312 32.6236 30.0312 33.9062C30.0312 34.1632 30.1333 34.4096 30.315 34.5912C30.4967 34.7729 30.7431 34.875 31 34.875Z" fill="white"/>
<path d="M39.7188 3.875C39.7188 3.61807 39.6167 3.37167 39.435 3.18999C39.2533 3.00831 39.0069 2.90625 38.75 2.90625C38.4931 2.90625 38.2467 3.00831 38.065 3.18999C37.8833 3.37167 37.7812 3.61807 37.7812 3.875C37.7812 5.15581 39.7188 5.15762 39.7188 3.875Z" fill="white"/>
<path d="M31 61.9999C31.535 61.9999 31.9688 61.5662 31.9688 61.0311C31.9688 60.4961 31.535 60.0624 31 60.0624C30.465 60.0624 30.0312 60.4961 30.0312 61.0311C30.0312 61.5662 30.465 61.9999 31 61.9999Z" fill="white"/>
<path d="M20.3438 54.25C20.8788 54.25 21.3125 53.8163 21.3125 53.2812C21.3125 52.7462 20.8788 52.3125 20.3438 52.3125C19.8087 52.3125 19.375 52.7462 19.375 53.2812C19.375 53.8163 19.8087 54.25 20.3438 54.25Z" fill="white"/>
<path d="M41.6562 41.6562C42.1913 41.6562 42.625 41.2225 42.625 40.6875C42.625 40.1525 42.1913 39.7188 41.6562 39.7188C41.1212 39.7188 40.6875 40.1525 40.6875 40.6875C40.6875 41.2225 41.1212 41.6562 41.6562 41.6562Z" fill="white"/>
<path d="M29.0625 48.4374C29.0625 49.7182 31 49.7201 31 48.4374C31 47.1548 29.0625 47.1548 29.0625 48.4374Z" fill="white"/>
<path d="M29.0625 44.5624C29.0625 45.8432 31 45.8451 31 44.5624C31 43.2798 29.0625 43.2798 29.0625 44.5624Z" fill="white"/>
<path d="M31.9688 47.4687C31.9688 48.7495 33.9062 48.7513 33.9062 47.4687C33.9062 46.1861 31.9688 46.1861 31.9688 47.4687Z" fill="white"/>
<path d="M20.3438 38.75C20.8788 38.75 21.3125 38.3163 21.3125 37.7812C21.3125 37.2462 20.8788 36.8125 20.3438 36.8125C19.8087 36.8125 19.375 37.2462 19.375 37.7812C19.375 38.3163 19.8087 38.75 20.3438 38.75Z" fill="white"/>
<path d="M41.6562 45.5313H37.7109C37.6539 45.1352 37.5616 44.7451 37.4352 44.3655C38.1496 43.865 40.2654 43.4894 39.6164 42.1917C38.9712 40.9008 37.4425 42.3469 36.5664 42.6337C36.3705 42.3527 36.1537 42.0869 35.9179 41.8384L39.0716 37.1077C39.1437 37.0019 39.1941 36.8829 39.2198 36.7575C39.2456 36.6321 39.2463 36.5028 39.2218 36.3771C39.1973 36.2515 39.1482 36.1319 39.0772 36.0254C39.0062 35.9188 38.9148 35.8274 38.8083 35.7564C38.7018 35.6854 38.5823 35.6362 38.4566 35.6116C38.331 35.5871 38.2017 35.5877 38.0763 35.6134C37.9509 35.6391 37.8318 35.6895 37.7259 35.7615C37.6201 35.8335 37.5296 35.9258 37.4596 36.033L34.3932 40.6325C33.6466 40.1984 32.8235 39.9121 31.9688 39.7891C31.8381 38.8919 32.4576 36.8125 31 36.8125C29.5453 36.8125 30.1645 38.8736 30.0312 39.7891C29.8476 39.8155 29.6665 39.8497 29.4878 39.8908L27.0054 35.3769C26.9441 35.2655 26.8614 35.1672 26.7621 35.0876C26.6628 35.0081 26.5488 34.9489 26.4266 34.9134C26.3045 34.878 26.1765 34.8669 26.0501 34.8809C25.9236 34.8948 25.8012 34.9336 25.6897 34.9949C25.5782 35.0562 25.4799 35.1389 25.4004 35.2381C25.3208 35.3374 25.2616 35.4514 25.2262 35.5736C25.1907 35.6958 25.1796 35.8237 25.1936 35.9502C25.2076 36.0766 25.2463 36.1991 25.3076 36.3106L27.666 40.5986C27.4115 40.7425 27.1665 40.9026 26.9326 41.0779C26.7509 40.8334 26.8047 40.9486 23.7877 38.9128C23.6818 38.8407 23.5628 38.7903 23.4374 38.7645C23.312 38.7388 23.1827 38.7381 23.0571 38.7626C22.9314 38.7871 22.8118 38.8362 22.7053 38.9072C22.5987 38.9782 22.5073 39.0695 22.4363 39.1761C22.3653 39.2826 22.3161 39.4021 22.2915 39.5278C22.267 39.6534 22.2676 39.7827 22.2933 39.9081C22.3191 40.0335 22.3694 40.1526 22.4414 40.2584C22.5134 40.3643 22.6057 40.4548 22.7129 40.5248L25.5768 42.434C25.3535 42.7317 25.1551 43.0473 24.9835 43.3775C24.4671 43.2253 23.0035 41.9204 22.3836 43.1605C21.7504 44.4266 23.7547 44.7997 24.3412 45.2224C24.3216 45.3246 24.304 45.4275 24.2891 45.5313H20.3438C20.0868 45.5313 19.8404 45.6333 19.6587 45.815C19.4771 45.9967 19.375 46.2431 19.375 46.5C19.375 46.7569 19.4771 47.0033 19.6587 47.185C19.8404 47.3667 20.0868 47.4688 20.3438 47.4688H24.2891C24.3715 48.0452 24.5284 48.6085 24.7559 49.1445C23.7884 49.9989 21.6043 50.6496 22.4496 51.8895C22.5385 52.0201 22.658 52.1268 22.7977 52.2006C22.9373 52.2743 23.0929 52.3127 23.2508 52.3125C23.7605 52.3125 23.8656 52.0352 25.7628 50.8028C26.0718 51.1773 26.4198 51.5179 26.801 51.8187L24.3684 55.6701C24.3005 55.7776 24.2544 55.8975 24.2328 56.0229C24.2112 56.1483 24.2145 56.2767 24.2425 56.4008C24.2706 56.5249 24.3227 56.6422 24.3961 56.7462C24.4695 56.8501 24.5626 56.9385 24.6702 57.0065C24.7778 57.0744 24.8976 57.1205 25.023 57.1421C25.1484 57.1637 25.2768 57.1604 25.4009 57.1324C25.525 57.1043 25.6423 57.0521 25.7463 56.9788C25.8502 56.9054 25.9386 56.8123 26.0066 56.7047L28.4769 52.7925C28.9764 52.9938 29.4982 53.1342 30.0312 53.2109V57.1563C30.0312 57.4132 30.1333 57.6596 30.315 57.8413C30.4967 58.0229 30.7431 58.125 31 58.125C31.2569 58.125 31.5033 58.0229 31.685 57.8413C31.8667 57.6596 31.9688 57.4132 31.9688 57.1563V53.2109C32.3728 53.1527 32.7707 53.0578 33.1575 52.9273C37.0755 57.6196 36.9499 58.125 37.7819 58.125C37.9641 58.1245 38.1426 58.0726 38.2967 57.9753C38.4509 57.878 38.5745 57.7392 38.6534 57.5749C38.7323 57.4106 38.7633 57.2273 38.7428 57.0462C38.7224 56.8651 38.6513 56.6934 38.5377 56.5508L34.9197 52.0282C35.1942 51.833 35.4539 51.6178 35.6966 51.3843C39.4124 53.2032 39.3142 53.2813 39.718 53.2813C40.7396 53.2813 41.0602 51.8998 40.152 51.4458L36.9074 49.8232C37.3193 49.0951 37.5917 48.2967 37.7109 47.4688H41.6562C41.9132 47.4688 42.1596 47.3667 42.3413 47.185C42.5229 47.0033 42.625 46.7569 42.625 46.5C42.625 46.2431 42.5229 45.9967 42.3413 45.815C42.1596 45.6333 41.9132 45.5313 41.6562 45.5313ZM31 51.3438C30.042 51.3438 29.1055 51.0597 28.309 50.5274C27.5124 49.9952 26.8916 49.2387 26.525 48.3536C26.1583 47.4686 26.0624 46.4946 26.2493 45.555C26.4362 44.6154 26.8975 43.7524 27.575 43.075C28.2524 42.3975 29.1154 41.9362 30.055 41.7493C30.9946 41.5624 31.9685 41.6584 32.8536 42.025C33.7387 42.3916 34.4952 43.0124 35.0274 43.809C35.5597 44.6055 35.8438 45.542 35.8438 46.5C35.8423 47.7842 35.3315 49.0154 34.4235 49.9235C33.5154 50.8315 32.2842 51.3423 31 51.3438Z" fill="white"/>
</g>
<defs>
<clipPath id="clip0">
<rect width="62" height="62" fill="white"/>
</clipPath>
</defs>
</svg>
