<svg width="62" height="62" viewBox="0 0 62 62" fill="none" xmlns="http://www.w3.org/2000/svg">
<path d="M39.7172 26.9514C38.4362 26.9514 38.4347 28.8889 39.7172 28.8889C42.9195 28.8889 44.5609 26.3413 44.5609 23.0764C44.5609 16.9361 37.7797 16.9501 37.7797 22.1077C37.7797 23.3884 39.7172 23.3904 39.7172 22.1077C39.7172 19.4557 42.6234 19.6059 42.6234 23.0764C42.6234 24.2416 42.3402 26.9514 39.7172 26.9514Z" fill="white"/>
<path d="M41.6547 46.5C39.8568 46.502 38.1331 47.2171 36.8618 48.4884C35.5905 49.7597 34.8754 51.4834 34.8734 53.2812V61.0312C34.8734 62.3119 36.8109 62.3139 36.8109 61.0312V53.2812C36.8109 51.9966 37.3212 50.7646 38.2296 49.8562C39.138 48.9478 40.37 48.4375 41.6547 48.4375C42.9393 48.4375 44.1713 48.9478 45.0797 49.8562C45.9881 50.7646 46.4984 51.9966 46.4984 53.2812V61.0312C46.4984 62.3119 48.4359 62.3139 48.4359 61.0312V53.2812C48.4339 51.4834 47.7188 49.7597 46.4475 48.4884C45.1762 47.2171 43.4525 46.502 41.6547 46.5Z" fill="white"/>
<path d="M16.4687 32.9375H18.4048C19.6857 32.9375 19.6873 31 18.4048 31H16.4687C16.2118 31 15.9654 31.1021 15.7837 31.2837C15.6021 31.4654 15.5 31.7118 15.5 31.9687C15.5 32.2257 15.6021 32.4721 15.7837 32.6538C15.9654 32.8354 16.2118 32.9375 16.4687 32.9375Z" fill="white"/>
<path d="M21.3109 38.7499V40.6874C21.3109 41.9681 23.2484 41.9701 23.2484 40.6874V38.7499C23.2484 37.4693 21.3109 37.4673 21.3109 38.7499Z" fill="white"/>
<path d="M16.7509 37.0962C16.6159 37.2318 16.5241 37.4044 16.487 37.5922C16.4499 37.7799 16.4692 37.9744 16.5425 38.1512C16.6157 38.328 16.7396 38.4792 16.8986 38.5858C17.0576 38.6923 17.2445 38.7494 17.4359 38.7499C18.1231 38.7499 18.2849 38.1878 20.0585 36.5287C20.9641 35.623 19.5956 34.2521 18.6884 35.1586L16.7509 37.0962Z" fill="white"/>
<path d="M17.4375 41.6562C16.667 41.6571 15.9283 41.9636 15.3834 42.5085C14.8386 43.0533 14.5321 43.792 14.5312 44.5625V46.7486C14.5312 47.5609 13.3846 47.7464 13.1279 46.9763L11.6644 42.5862L12.8286 37.9293C12.9481 37.452 12.9571 36.9537 12.855 36.4723C12.753 35.9909 12.5426 35.5392 12.2397 35.1513C11.9369 34.7635 11.5497 34.4497 11.1074 34.234C10.6651 34.0183 10.1795 33.9062 9.68747 33.9063C8.4913 33.9063 8.83194 35.0163 5.87422 42.2848C5.68047 42.8006 5.79127 42.3926 8.71872 55.3291V61.0312C8.71872 61.2882 8.82078 61.5346 9.00246 61.7163C9.18413 61.8979 9.43054 62 9.68747 62C9.94439 62 10.1908 61.8979 10.3725 61.7163C10.5542 61.5346 10.6562 61.2882 10.6562 61.0312V55.2188C10.6562 55.0102 10.8006 55.7729 7.79089 42.6917L10.3014 35.9968C10.5569 36.1336 10.7594 36.3518 10.8767 36.6168C10.9941 36.8818 11.0196 37.1784 10.9491 37.4595C9.72609 42.5612 9.58078 42.4607 9.73711 42.9314L11.2897 47.5889C12.2392 50.4374 16.4687 49.7516 16.4687 46.7486V44.5625C16.4687 43.2804 18.4062 43.2819 18.4062 44.5625C18.2901 45.4961 19.1028 50.092 15.6937 54.6375C15.3086 55.1509 15.5746 55.1721 15.95 61.1056C16.0484 62.3844 17.98 62.2342 17.8818 60.9569L17.4617 55.5013C21.0542 50.4598 20.2294 45.4949 20.3437 44.5625C20.3428 43.792 20.0363 43.0533 19.4915 42.5085C18.9467 41.9636 18.208 41.6571 17.4375 41.6562Z" fill="white"/>
<path d="M55.4509 20.0443C56.584 15.2275 56.4141 10.8646 54.9725 7.75893C53.8651 5.37339 52.0802 3.92995 49.9041 3.63896C47.7691 -0.375418 43.0003 -0.388496 38.5355 0.428766C37.2734 0.659692 37.6251 2.56595 38.8843 2.33454C48.7847 0.521887 47.516 5.46227 49.2366 5.52488C51.3911 5.6031 52.5894 7.2266 53.2152 8.57474C54.4566 11.2492 54.5843 15.268 53.565 19.6006C52.4036 24.538 49.8565 29.6744 46.1835 34.4962C44.5145 33.7619 43.209 32.7415 42.2064 31.3912C41.4435 30.3629 39.8863 31.5163 40.6509 32.5462C41.8672 34.1846 43.5073 35.4516 45.5298 36.322V40.1039C43.7982 40.9957 37.8301 43.8778 32.0103 44.4591C34.8672 40.3678 33.5618 43.9553 33.9048 36.8125C33.9048 36.6652 33.8713 36.52 33.8067 36.3876C33.7422 36.2553 33.6483 36.1395 33.5322 36.0489C32.8849 35.5434 32.5029 36.041 28.3644 36.9571C27.8207 37.0938 27.2481 37.0587 26.7251 36.8568C26.2021 36.6548 25.7545 36.2958 25.4438 35.8292C26.5781 35.0946 28.488 34.8471 28.0377 33.5817C27.3389 31.6163 26.6414 30.2365 23.6957 30.4099C23.2113 29.0029 23.2982 28.5519 22.7875 28.2377L20.5593 26.8667C22.983 23.645 23.2482 23.6577 23.2482 23.0764V17.7559C26.2745 18.9106 28.8912 18.154 35.842 18.4062C37.1229 18.4062 37.1245 16.4687 35.842 16.4687H26.8653C26.6837 16.3405 19.1313 17.2653 18.4464 5.87568C21.4047 7.41357 26.314 5.7294 31.516 4.2167C32.7463 3.85572 32.2001 1.99814 30.9711 2.35743C25.3022 4.13387 19.7403 5.75156 18.3264 3.26405C17.9197 2.38891 16.5692 2.60688 16.4959 3.63339C16.1794 8.03612 17.4815 14.0054 21.3115 16.7222V22.745L18.3672 26.5308C18.2836 26.6382 18.2236 26.7621 18.1911 26.8943C18.1586 27.0265 18.1543 27.1641 18.1786 27.2981C18.2028 27.432 18.255 27.5594 18.3318 27.6718C18.4086 27.7842 18.5082 27.8792 18.6241 27.9506L21.4583 29.6943C21.9265 30.7795 21.8508 32.5995 23.1366 32.4142C25.2629 32.1077 25.5846 32.6334 25.9148 33.4281C24.6444 34.2345 22.8779 34.4269 23.2475 35.6584C23.5901 36.8059 24.3624 37.7768 25.4033 38.3689C26.4442 38.961 27.6734 39.1285 28.8348 38.8366L31.9677 38.0533V41.2994C27.7443 46.3699 24.2177 53.9348 24.2177 61.0313C24.2177 62.312 26.1552 62.314 26.1552 61.0313C26.1552 55.2188 28.5928 49.9479 30.6899 46.4887C37.1628 46.2793 43.9691 43.0809 46.2141 41.9335C55.4124 54.6254 50.4338 62 53.2797 62C53.5366 62 53.7831 61.8979 53.9647 61.7162C54.1464 61.5346 54.2485 61.2881 54.2485 61.0312C54.2485 53.9351 53.1075 47.9852 47.4672 40.3662V36.0038C51.4419 30.8714 54.2006 25.3595 55.4509 20.0443Z" fill="white"/>
<path d="M35.8438 1.93748C35.8438 0.656675 33.9062 0.654859 33.9062 1.93748C33.9062 3.22011 35.8438 3.22011 35.8438 1.93748Z" fill="white"/>
</svg>
