<svg width="62" height="62" viewBox="0 0 62 62" fill="none" xmlns="http://www.w3.org/2000/svg">
<g clip-path="url(#clip0)">
<path d="M61.2637 20.0442C62.3967 15.2274 62.2268 10.8645 60.7852 7.75885C59.6778 5.37331 57.8929 3.92987 55.7168 3.63888C53.5824 -0.374286 48.8145 -0.388938 44.3482 0.428687C43.0888 0.658765 43.4357 2.56635 44.697 2.33446C54.5877 0.52423 53.3462 5.4628 55.0494 5.5248C57.2039 5.60302 58.4021 7.22653 59.0279 8.57466C60.2694 11.2491 60.397 15.2679 59.3777 19.6005C58.2163 24.538 55.6692 29.6743 51.9962 34.4961C50.3272 33.7618 49.0217 32.7415 48.0191 31.3912C47.2562 30.3628 45.699 31.5162 46.4636 32.5461C47.6802 34.1849 49.3208 35.4524 51.3436 36.3226C51.4063 40.7213 51.1983 40.8166 51.5374 41.2687C61.3862 54.4001 56.2075 61.9999 59.0939 61.9999C59.3508 61.9999 59.5972 61.8978 59.7789 61.7162C59.9606 61.5345 60.0626 61.2881 60.0626 61.0312C60.0626 53.9351 58.9217 47.9851 53.2814 40.3661V36.0019C57.2552 30.87 60.0135 25.3589 61.2637 20.0442Z" fill="white"/>
<path d="M45.5313 26.9515C44.2504 26.9515 44.2488 28.889 45.5313 28.889C51.9211 28.889 51.6725 18.3438 46.7822 18.3438C43.6186 18.3438 42.6225 23.0765 44.5626 23.0765C44.8195 23.0765 45.0659 22.9744 45.2476 22.7927C45.4292 22.611 45.5313 22.3646 45.5313 22.1077C45.5313 19.4519 48.4376 19.6126 48.4376 23.0765C48.4376 24.2416 48.1543 26.9515 45.5313 26.9515Z" fill="white"/>
<path d="M47.4688 46.5C45.6709 46.502 43.9472 47.2171 42.6759 48.4884C41.4046 49.7597 40.6895 51.4834 40.6875 53.2812V61.0312C40.6875 62.3119 42.625 62.3139 42.625 61.0312V53.2812C42.625 51.9966 43.1353 50.7646 44.0437 49.8562C44.9521 48.9478 46.1841 48.4375 47.4688 48.4375C48.7534 48.4375 49.9854 48.9478 50.8938 49.8562C51.8022 50.7646 52.3125 51.9966 52.3125 53.2812V61.0312C52.3125 62.3119 54.25 62.3139 54.25 61.0312V53.2812C54.248 51.4834 53.5329 49.7597 52.2616 48.4884C50.9903 47.2171 49.2666 46.502 47.4688 46.5Z" fill="white"/>
<path d="M48.0621 41.6312C45.3633 42.767 41.5669 44.0874 37.8243 44.4597C40.3612 40.8257 39.6068 43.6491 39.7188 36.8125C39.7188 36.5556 39.6167 36.3092 39.4351 36.1275C39.2534 35.9458 39.007 35.8437 38.75 35.8437H31.4844C30.8423 35.843 30.2267 35.5876 29.7727 35.1336C29.3187 34.6795 29.0633 34.064 29.0625 33.4219V29.0625C29.0625 28.1693 28.1633 28.1042 26.3737 26.8665C28.7977 23.644 29.0625 23.6575 29.0625 23.0762V17.7566C29.6359 17.9742 30.2288 18.1364 30.8332 18.2409C32.0967 18.4617 32.4288 16.553 31.1669 16.3325C26.3539 15.491 24.5523 10.7541 24.259 5.8763C26.9927 7.29746 30.9971 6.07768 37.3286 4.21732C38.5579 3.8567 38.0144 1.99803 36.7837 2.35804C31.4416 3.92706 25.6223 5.87182 24.1385 3.26346C23.7319 2.38832 22.3814 2.60617 22.3081 3.6328C21.9915 8.03565 23.2938 14.0059 27.125 16.723V22.7445L24.1806 26.5307C24.0971 26.6381 24.0371 26.762 24.0046 26.8942C23.9722 27.0264 23.9679 27.164 23.9922 27.2979C24.0164 27.4319 24.0686 27.5592 24.1454 27.6716C24.2222 27.784 24.3218 27.879 24.4377 27.9504L27.125 29.6038V33.4219C27.1263 34.5776 27.586 35.6857 28.4033 36.503C29.2206 37.3203 30.3286 37.78 31.4844 37.7812H37.7813V41.2993C36.8872 42.3893 36.061 43.5333 35.3073 44.7248C35.1927 44.8012 35.0956 44.9012 35.0227 45.0182C34.9498 45.1351 34.9027 45.2663 34.8846 45.4029C32.0407 50.0646 30.0313 55.5492 30.0313 61.0312C30.0313 61.2882 30.1334 61.5346 30.315 61.7163C30.4967 61.8979 30.7431 62 31 62C31.257 62 31.5034 61.8979 31.6851 61.7163C31.8667 61.5346 31.9688 61.2882 31.9688 61.0312C31.9688 55.218 34.4068 49.947 36.5039 46.4879C40.9716 46.3417 45.6284 44.7573 48.8134 43.4171C49.9954 42.9195 49.2426 41.1342 48.0621 41.6312Z" fill="white"/>
<path d="M35.9677 13.0882C35.4618 13.9895 32.9375 18.5749 32.9375 20.3437C32.9375 21.3715 33.3458 22.3571 34.0725 23.0838C34.7992 23.8105 35.7848 24.2187 36.8125 24.2187C37.8402 24.2187 38.8258 23.8105 39.5525 23.0838C40.2792 22.3571 40.6875 21.3715 40.6875 20.3437C40.6875 18.5749 38.1632 13.9895 37.6573 13.0882C37.573 12.9382 37.4504 12.8133 37.3019 12.7264C37.1535 12.6394 36.9845 12.5936 36.8125 12.5936C36.6405 12.5936 36.4715 12.6394 36.3231 12.7264C36.1746 12.8133 36.052 12.9382 35.9677 13.0882ZM36.8125 22.2812C36.2988 22.2806 35.8064 22.0763 35.4432 21.7131C35.0799 21.3499 34.8756 20.8574 34.875 20.3437C34.875 19.6852 35.7752 17.6212 36.8125 15.6083C37.8497 17.6206 38.75 19.6846 38.75 20.3437C38.7494 20.8574 38.5451 21.3499 38.1818 21.7131C37.8186 22.0763 37.3262 22.2806 36.8125 22.2812Z" fill="white"/>
<path d="M17.4366 35.3734V8.71875C17.4358 7.94823 17.1293 7.20952 16.5845 6.66468C16.0396 6.11984 15.3009 5.81337 14.5304 5.8125H6.78039C6.00987 5.81337 5.27116 6.11984 4.72632 6.66468C4.18148 7.20952 3.87501 7.94823 3.87414 8.71875V35.3741C-3.81676 41.7334 0.711658 54.25 10.6581 54.25C20.5105 54.25 25.1967 41.7634 17.4366 35.3734ZM10.4448 52.3101C2.34751 52.1196 -1.26423 41.6427 5.42475 36.6187C6.15918 36.0669 5.67129 36.0875 5.81225 19.375H8.71789C9.99882 19.375 10.0004 17.4375 8.71789 17.4375H5.81164V15.5H10.6554C11.9363 15.5 11.9379 13.5625 10.6554 13.5625H5.81164V11.625H8.71789C9.99882 11.625 10.0004 9.6875 8.71789 9.6875H5.81164C5.87037 9.42545 5.48469 7.75 6.78039 7.75H14.5304C14.7872 7.75029 15.0335 7.85245 15.2151 8.03406C15.3967 8.21567 15.4989 8.46191 15.4991 8.71875C15.6445 36.8776 15.1493 36.0647 15.886 36.6187C22.7246 41.7552 18.7959 52.5105 10.4448 52.3101Z" fill="white"/>
<path d="M13.5626 37.4683V22.2812C13.5626 22.0243 13.4606 21.7779 13.2789 21.5962C13.0972 21.4146 12.8508 21.3125 12.5939 21.3125H8.71887C8.46194 21.3125 8.21554 21.4146 8.03386 21.5962C7.85219 21.7779 7.75012 22.0243 7.75012 22.2812V37.4683C1.21711 40.5743 3.48968 50.375 10.6564 50.375C17.813 50.375 20.1036 40.5785 13.5626 37.4683ZM10.6564 48.4375C5.24784 48.4375 3.92356 40.8432 9.04268 39.0275C10.2662 38.5935 9.44749 37.7829 9.68762 23.25H11.6251C11.8707 38.1176 11.0866 38.6078 12.2701 39.0275C17.3871 40.8423 16.0667 48.4375 10.6564 48.4375Z" fill="white"/>
<path d="M0.96875 54.2499C0.96875 55.5307 2.90625 55.5326 2.90625 54.2499C2.90625 52.9673 0.96875 52.9673 0.96875 54.2499Z" fill="white"/>
<path d="M5.81248 55.2188C4.53168 55.2188 4.52986 57.1562 5.81248 57.1562C7.09329 57.1562 7.09511 55.2188 5.81248 55.2188Z" fill="white"/>
<path d="M14.5312 56.1874C14.5312 57.4682 16.4687 57.4701 16.4687 56.1874C16.4687 54.9048 14.5312 54.9048 14.5312 56.1874Z" fill="white"/>
<path d="M9.6875 57.1562C9.6875 58.437 11.625 58.4388 11.625 57.1562C11.625 55.8736 9.6875 55.8736 9.6875 57.1562Z" fill="white"/>
<path d="M19.375 53.2812C18.0942 53.2812 18.0924 55.2188 19.375 55.2188C20.6558 55.2188 20.6576 53.2812 19.375 53.2812Z" fill="white"/>
<path d="M40.6877 2.90625C41.9685 2.90625 41.9703 0.96875 40.6877 0.96875C39.4051 0.96875 39.4051 2.90625 40.6877 2.90625Z" fill="white"/>
</g>
<defs>
<clipPath id="clip0">
<rect width="62" height="62" fill="white"/>
</clipPath>
</defs>
</svg>
