<svg width="80" height="80" viewBox="0 0 80 80" fill="none" xmlns="http://www.w3.org/2000/svg">
<path d="M55.8579 25.7656C46.4021 31.5621 39.5867 38.8828 36.8195 42.1362L29.7145 36.5701C29.5264 36.4348 25.6261 39.8975 25.7297 40.0053L38.6693 53.1605C38.7644 53.2683 38.8954 53.3169 39.0371 53.3169C39.0624 53.3169 39.1026 53.3169 39.1364 53.3085C39.3056 53.2704 39.4493 53.1563 39.5127 52.9872C41.5971 47.6579 48.4802 36.5003 57.27 28.4081C57.4265 28.2601 57.4814 28.0276 57.3948 27.8267C57.3926 27.8246 55.989 25.6853 55.8579 25.7656Z" fill="#069D88"/>
<path d="M64.3433 14.1219C44.7511 14.1219 41.4364 6.68492 41.4068 6.61516C41.2631 6.25156 40.9079 6.00846 40.5063 6C40.5063 6 40.4978 6 40.4894 6C40.1004 6 39.741 6.24311 39.5846 6.59825C39.5613 6.67647 36.1748 14.1219 16.6565 14.1219C16.1111 14.1219 15.6799 14.5637 15.6799 15.0964V48.4209C15.6799 62.0623 39.1111 72.4842 40.1025 72.9218C40.2336 72.9789 40.3583 73 40.4999 73C40.6289 73 40.7684 72.9789 40.8931 72.9218C41.893 72.4842 65.32 62.0623 65.32 48.4209V15.0964C65.3158 14.5637 64.8824 14.1219 64.3433 14.1219ZM59.9294 46.4824C59.9294 57.1558 41.5844 65.3221 40.8043 65.6603C40.7092 65.7089 40.5972 65.7258 40.4978 65.7258C40.39 65.7258 40.2907 65.7089 40.1892 65.6603C39.4176 65.3221 21.0663 57.1558 21.0663 46.4824V20.3982C21.0663 19.9775 21.4066 19.6308 21.8315 19.6308C37.1134 19.6308 39.7622 13.8048 39.7875 13.7477C39.908 13.4665 40.1871 13.2763 40.4936 13.2763C40.4978 13.2763 40.5063 13.2763 40.5063 13.2763C40.8191 13.2805 41.0961 13.4708 41.2081 13.7604C41.2335 13.8132 43.8294 19.6308 59.1641 19.6308C59.589 19.6308 59.9273 19.9775 59.9273 20.3982L59.9294 46.4824Z" fill="#069D88"/>
</svg>
