<svg width="62" height="62" viewBox="0 0 62 62" fill="none" xmlns="http://www.w3.org/2000/svg">
<g clip-path="url(#clip0)">
<path d="M30.7882 46.5231C29.5383 46.8016 29.9562 48.6926 31.2086 48.4145C40.2019 46.3712 40.0199 46.5654 40.3689 46.2482C51.2932 36.1706 51.3229 36.654 51.3418 35.8668C51.3672 34.7942 49.1661 33.6713 47.4668 33.6713C45.2011 33.6713 45.2826 34.2684 37.3989 39.7688L32.127 40.6475C29.1441 39.1066 15.4984 32.4549 15.4984 35.8438C15.4984 36.1007 15.6005 36.3471 15.7822 36.5288C15.9638 36.7105 16.2102 36.8126 16.4672 36.8126C19.9216 36.8126 28.5016 40.9279 31.5162 42.5136C32.0234 42.7807 31.94 42.5755 37.939 41.6432C38.2912 41.5843 45.2338 36.5409 45.2459 36.5287C45.7083 36.0662 46.3034 35.7594 46.9484 35.6512C47.5934 35.5429 48.2561 35.6386 48.8441 35.9248L39.2559 44.6414L30.7882 46.5231Z" fill="#003966"/>
<path d="M54.6529 45.4918C53.3989 45.7605 53.8062 47.6556 55.059 47.3862C55.8477 47.2173 56.6668 47.2576 57.4351 47.503C58.2034 47.7484 58.8942 48.1905 59.439 48.7853L44.3386 52.3383L44.7822 54.2242C61.5267 50.1472 61.5295 50.6212 61.9064 49.8173C62.53 48.486 59.063 44.5453 54.6529 45.4918Z" fill="#003966"/>
<path d="M26.5106 35.6258C27.2097 36.197 28.5251 37.2015 30.4203 38.6115C31.448 39.3757 32.6058 37.8226 31.5768 37.0569C26.9093 33.5846 24.9659 31.454 19.5902 30.2202C19.3398 30.1627 19.0768 30.207 18.8591 30.3435C18.6414 30.4799 18.4868 30.6972 18.4293 30.9476C17.9853 32.8819 21.4598 31.4989 26.5106 35.6258Z" fill="#003966"/>
<path d="M0.968102 33.9062C1.76127 33.9062 7.38607 31.9836 11.7026 31.6309C12.9783 31.5265 12.8232 29.5949 11.5452 29.6998C8.13467 29.9783 7.01516 30.4394 0.738266 31.9963C0.508098 32.0525 0.30649 32.1911 0.171572 32.3858C0.0366537 32.5806 -0.0222195 32.818 0.00608714 33.0532C0.0343938 33.2885 0.147918 33.5052 0.325187 33.6623C0.502457 33.8195 0.731182 33.9063 0.968102 33.9062Z" fill="#003966"/>
<path d="M50.6806 53.9767C49.4655 53.5729 48.851 55.4092 50.0677 55.8149C51.9217 56.602 53.6975 56.5071 54.4335 58.2836C54.6345 58.7687 54.6945 59.3007 54.6064 59.8184L35.3918 53.6697C46.9206 48.4285 42.1689 50.8519 59.5486 41.5423C61.7201 40.3845 56.3943 35.6254 51.4209 38.1122C50.275 38.6852 51.1406 40.4189 52.2875 39.8452C53.1225 39.4273 54.0606 39.2602 54.9884 39.3641C55.9163 39.468 56.7943 39.8383 57.5162 40.4304L44.1328 47.5683L33.6956 52.3125H28.3121L8.16554 42.7191C7.81436 42.5519 8.19181 42.6578 0.969177 42.625C-0.311511 42.625 -0.313448 44.5625 0.969177 44.5625H7.53016C28.8911 54.697 27.6781 54.25 28.0928 54.25H30.848L54.9226 61.9539C56.5211 62.4662 56.9086 59.1955 56.2235 57.5422C55.0538 54.7186 52.2282 54.6859 50.6806 53.9767Z" fill="#003966"/>
<path d="M16.4672 30.0312C16.4672 28.7504 14.5297 28.7486 14.5297 30.0312C14.5297 31.3139 16.4672 31.3139 16.4672 30.0312Z" fill="#003966"/>
<path d="M50.375 24.2188C49.0942 24.2188 49.0924 26.1562 50.375 26.1562C51.6577 26.1562 51.6577 24.2188 50.375 24.2188Z" fill="#003966"/>
<path d="M19.375 0.968734C19.375 -0.312075 17.4375 -0.313891 17.4375 0.968734C17.4375 2.25136 19.375 2.25136 19.375 0.968734Z" fill="#003966"/>
<path d="M5.8125 47.4687V61.0312C5.8125 62.3122 7.75 62.3137 7.75 61.0312V47.4687C7.75 46.1878 5.8125 46.1862 5.8125 47.4687Z" fill="#003966"/>
<path d="M7.75 28.0938C7.75144 26.8096 8.26223 25.5784 9.17029 24.6703C10.0784 23.7622 11.3096 23.2514 12.5938 23.25H30.0313C31.3155 23.2514 32.5466 23.7622 33.4547 24.6703C34.3628 25.5784 34.8736 26.8096 34.875 28.0938V35.8438C34.875 37.1247 36.8125 37.1263 36.8125 35.8438V28.0938C36.8103 26.4638 36.222 24.889 35.1548 23.6569C34.0877 22.4248 32.613 21.6177 31 21.3829V16.4688C31 16.2118 30.8979 15.9654 30.7163 15.7837C30.5346 15.6021 30.2882 15.5 30.0313 15.5H25.1875V5.8125H36.5252C41.6781 10.9053 39.7657 10.8487 44.2817 6.49462C44.4606 6.31418 44.5615 6.07067 44.5625 5.81657C44.5636 5.56247 44.4648 5.31812 44.2874 5.13619C39.4109 0.277547 39.5932 0 38.8711 0H22.2813C21.0006 0 20.9986 1.9375 22.2813 1.9375H38.4627L42.2351 5.80669L40.7175 7.33707C37.6443 4.31675 37.6461 3.875 36.9336 3.875H14.5313C13.2491 3.875 13.2507 1.9375 14.5313 1.9375C15.8118 1.9375 15.8139 0 14.5313 0C13.7605 1.14856e-08 13.0212 0.306193 12.4762 0.851221C11.9312 1.39625 11.625 2.13546 11.625 2.90625C11.625 3.67704 11.9312 4.41625 12.4762 4.96128C13.0212 5.50631 13.7605 5.8125 14.5313 5.8125H17.4375V15.5H12.5938C12.3368 15.5 12.0904 15.6021 11.9087 15.7837C11.7271 15.9654 11.625 16.2118 11.625 16.4688V21.3829C10.012 21.6177 8.53731 22.4248 7.47017 23.6569C6.40303 24.889 5.81466 26.4638 5.8125 28.0938C5.8125 29.3747 7.75 29.3763 7.75 28.0938ZM19.375 5.8125H23.25V15.5H19.375V5.8125ZM13.5625 17.4375H29.0625V21.3125H13.5625V17.4375Z" fill="#003966"/>
<path d="M34.875 59.0937V61.0312C34.875 62.3122 36.8125 62.3137 36.8125 61.0312V59.0937C36.8125 57.8128 34.875 57.8112 34.875 59.0937Z" fill="#003966"/>
<path d="M47.8032 28.6722C49.0088 28.2432 48.3621 26.4161 47.1537 26.8468C46.4227 27.1062 45.6402 27.1863 44.8719 27.0805C44.1035 26.9746 43.3718 26.6859 42.7383 26.2385C42.1047 25.7912 41.5877 25.1983 41.2309 24.5097C40.874 23.821 40.6877 23.0568 40.6875 22.2812C40.6875 20.4212 43.4018 16.1192 45.5279 13.2341C46.9055 15.1128 49.7238 19.1677 50.2869 21.6245C50.573 22.8728 52.4622 22.442 52.1759 21.1916C51.3317 17.5111 46.5 11.2918 46.295 11.0288C46.2044 10.9128 46.0885 10.8189 45.9562 10.7543C45.8239 10.6897 45.6786 10.6561 45.5313 10.6561C45.3841 10.6561 45.2388 10.6897 45.1064 10.7543C44.9741 10.8189 44.8582 10.9128 44.7676 11.0288C44.1516 11.8179 38.75 18.8372 38.75 22.2812C38.75 27.0281 43.4575 30.2189 47.8032 28.6722Z" fill="#003966"/>
<path d="M45.5312 24.2187C46.8398 24.2187 46.4361 22.5669 46.5 22.2812C46.7625 22.2225 48.4375 22.6082 48.4375 21.3125C48.4375 20.0039 46.7857 20.4077 46.5 20.3437V19.375C46.5 18.0941 44.5625 18.0925 44.5625 19.375V20.3437C44.3 20.4025 42.625 20.0168 42.625 21.3125C42.625 22.621 44.2768 22.2173 44.5625 22.2812C44.6212 22.5438 44.2355 24.2187 45.5312 24.2187Z" fill="#003966"/>
</g>
<defs>
<clipPath id="clip0">
<rect width="62" height="62" fill="white"/>
</clipPath>
</defs>
</svg>
