<svg width="62" height="62" viewBox="0 0 62 62" fill="none" xmlns="http://www.w3.org/2000/svg">
<g clip-path="url(#clip0)">
<path d="M58.1062 44.4023L52.3125 43.2435C52.3029 42.1318 52.335 42.0736 52.2821 41.863C53.5079 41.0047 54.4186 39.7684 54.8748 38.3432C55.123 35.654 57.6828 31.3037 54.2266 27.0459C49.0479 20.6659 39.2419 26.0408 40.8482 33.685C41.7322 37.784 41.7673 40.1094 44.5755 41.9484C44.5512 42.1009 44.5672 42.1009 44.5625 43.2432L38.7689 44.4019C37.6719 44.6238 36.6852 45.2177 35.9757 46.0832C35.2662 46.9487 34.8774 48.0327 34.875 49.1519V61.0312C34.875 62.3119 36.8125 62.3138 36.8125 61.0312V58.125H39.7188V61.0312C39.7188 62.3119 41.6562 62.3138 41.6562 61.0312V52.7565C41.6562 51.4757 39.7188 51.4738 39.7188 52.7565V56.1875H36.8125V49.1519C36.814 48.4805 37.0473 47.8301 37.473 47.3108C37.8987 46.7916 38.4907 46.4353 39.1489 46.3022L42.6565 45.6006C43.0431 49.3618 46.9282 51.9125 50.6641 50.3649C51.6377 49.9748 52.4848 49.3237 53.1123 48.4832C53.7397 47.6427 54.1231 46.6453 54.2203 45.601L57.7262 46.3022C58.3844 46.4353 58.9763 46.7917 59.402 47.3109C59.8277 47.8302 60.061 48.4805 60.0625 49.1519V56.1875H57.1562V52.7565C57.1562 51.4757 55.2188 51.4738 55.2188 52.7565V61.0312C55.2188 62.3119 57.1562 62.3138 57.1562 61.0312V58.125H60.0625V61.0312C60.0625 62.3119 62 62.3138 62 61.0312V49.1519C61.9976 48.0328 61.6087 46.9489 60.8992 46.0835C60.1897 45.218 59.2031 44.6241 58.1062 44.4023ZM52.7223 28.2672C53.4324 29.1422 53.8915 30.1937 54.0503 31.3094C51.7544 30.0715 50.3772 31.444 48.4375 31.444C46.4663 31.444 45.0068 30.016 42.6855 31.3873C43.3801 26.4093 49.4383 24.2213 52.7223 28.2672ZM43.7308 37.8431L42.8723 33.8773C43.1333 33.4203 43.5449 33.0682 44.0368 32.881C44.5286 32.6938 45.0702 32.6832 45.569 32.851C47.7619 33.5534 49.1105 33.5534 51.306 32.851C51.7721 32.6952 52.2761 32.6941 52.7429 32.8479C53.2097 33.0017 53.6144 33.3021 53.8966 33.7045L53.0006 37.8431C51.5726 42.2166 45.1607 42.222 43.7308 37.8431ZM45.698 47.746C45.0149 47.0769 44.6111 46.1735 44.5681 45.2183L45.7212 44.9882C46.8481 44.7629 46.4115 43.3808 46.5 42.818C47.7701 43.1673 49.1128 43.1527 50.375 42.776C50.4681 43.3823 50.0223 44.7619 51.1538 44.9882L52.3067 45.2183C52.1439 48.513 48.0769 50.1248 45.698 47.746Z" fill="#003966"/>
<path d="M19.9532 44.9903L14.5309 43.7854V42.8544C18.4282 40.6747 17.2192 36.534 17.4371 33.9062C17.4371 33.6493 17.3351 33.4029 17.1534 33.2212C16.9717 33.0396 16.7253 32.9375 16.4684 32.9375H6.78087C6.52394 32.9375 6.27754 33.0396 6.09586 33.2212C5.91419 33.4029 5.81212 33.6493 5.81212 33.9062C6.02876 36.5197 4.82484 40.6766 8.71837 42.8544V43.7854L3.29604 44.9903C2.35888 45.1939 1.52007 45.7131 0.919995 46.4612C0.319923 47.2093 -0.00499493 48.1408 -0.000378729 49.0998V61.0312C-0.000378729 62.3119 1.93712 62.3139 1.93712 61.0312V56.1875H3.87462V61.0312C3.87462 62.3119 5.81212 62.3139 5.81212 61.0312V52.7565C5.81212 51.4757 3.87462 51.4738 3.87462 52.7565V54.25H1.93712V49.0998C1.93465 48.5821 2.11003 48.0794 2.43391 47.6756C2.75779 47.2719 3.21053 46.9916 3.71635 46.8817L6.78087 46.2008C6.83149 46.2622 6.21658 49.0155 11.2288 51.2592C11.3533 51.315 11.4882 51.3438 11.6246 51.3438C11.7611 51.3438 11.896 51.315 12.0205 51.2592C16.9594 49.0482 16.4347 46.2417 16.4684 46.2008L19.5329 46.8817C20.0387 46.9916 20.4914 47.2719 20.8153 47.6756C21.1392 48.0794 21.3146 48.5821 21.3121 49.0998V54.25H19.3746V52.7565C19.3746 51.4757 17.4371 51.4738 17.4371 52.7565V61.0312C17.4371 62.3119 19.3746 62.3139 19.3746 61.0312V56.1875H21.3121V61.0312C21.3121 62.3119 23.2496 62.3139 23.2496 61.0312V49.0998C23.2542 48.1408 22.9293 47.2093 22.3292 46.4612C21.7292 45.7131 20.8904 45.1939 19.9532 44.9903ZM7.74962 37.7812V34.875H15.4996V37.7812C15.4996 42.9526 7.74962 42.9432 7.74962 37.7812ZM11.6246 49.2994C7.87762 47.3719 8.8741 46.0467 8.71837 45.7702C9.23544 45.569 10.6559 45.6854 10.6559 44.5625V43.5181C11.2978 43.6189 11.9515 43.6189 12.5934 43.5181V44.5625C12.5934 45.6887 13.9935 45.5612 14.5309 45.7702C14.5309 45.7702 15.3795 47.368 11.6246 49.2994Z" fill="#003966"/>
<path d="M4.84375 42.625C6.12444 42.625 6.12638 40.6875 4.84375 40.6875C4.33008 40.6869 3.83762 40.4826 3.4744 40.1193C3.11118 39.7561 2.90686 39.2637 2.90625 38.75V34.875C2.90625 32.5626 3.82483 30.345 5.45991 28.7099C7.095 27.0748 9.31264 26.1562 11.625 26.1562C13.9374 26.1562 16.155 27.0748 17.7901 28.7099C19.4252 30.345 20.3438 32.5626 20.3438 34.875V38.75C20.3431 39.2637 20.1388 39.7561 19.7756 40.1193C19.4124 40.4826 18.9199 40.6869 18.4062 40.6875C17.1256 40.6875 17.1236 42.625 18.4062 42.625C19.4336 42.6238 20.4186 42.2152 21.145 41.4888C21.8715 40.7623 22.2801 39.7774 22.2812 38.75V34.875C22.2812 32.0488 21.1585 29.3383 19.1601 27.3399C17.1617 25.3415 14.4512 24.2188 11.625 24.2188C8.79879 24.2188 6.08833 25.3415 4.08989 27.3399C2.09146 29.3383 0.96875 32.0488 0.96875 34.875V38.75C0.969904 39.7774 1.37853 40.7623 2.10499 41.4888C2.83144 42.2152 3.81639 42.6238 4.84375 42.625Z" fill="#003966"/>
<path d="M31.9688 0.968734C31.9688 -0.312075 30.0312 -0.313891 30.0312 0.968734C30.0312 2.25136 31.9688 2.25136 31.9688 0.968734Z" fill="#003966"/>
<path d="M31.0002 29.0625C32.281 29.0625 32.2829 27.125 31.0002 27.125C29.7176 27.125 29.7176 29.0625 31.0002 29.0625Z" fill="#003966"/>
<path d="M25.1875 36.8124C25.1875 38.0932 27.125 38.0951 27.125 36.8124C27.125 35.5298 25.1875 35.5298 25.1875 36.8124Z" fill="#003966"/>
<path d="M20.3438 19.375C19.063 19.375 19.0612 21.3125 20.3438 21.3125C21.6246 21.3125 21.6264 19.375 20.3438 19.375Z" fill="#003966"/>
<path d="M41.6565 8.71875C42.9373 8.71875 42.9391 6.78125 41.6565 6.78125C40.3739 6.78125 40.3739 8.71875 41.6565 8.71875Z" fill="#003966"/>
<path d="M30.0313 14.5312C28.7505 14.5312 28.7487 16.4688 30.0313 16.4688C31.3139 16.4688 31.3139 14.5312 30.0313 14.5312Z" fill="#003966"/>
<path d="M31 11.625C31 11.3681 30.8979 11.1217 30.7163 10.94C30.5346 10.7583 30.2882 10.6562 30.0312 10.6562C29.7743 10.6562 29.5279 10.7583 29.3462 10.94C29.1646 11.1217 29.0625 11.3681 29.0625 11.625C29.0625 12.9058 31 12.9076 31 11.625Z" fill="#003966"/>
<path d="M33.9062 14.5312C33.9062 13.2504 31.9688 13.2486 31.9688 14.5312C31.9688 15.8139 33.9062 15.8139 33.9062 14.5312Z" fill="#003966"/>
<path d="M20.3438 5.8125C21.6246 5.8125 21.6264 3.875 20.3438 3.875C19.063 3.875 19.0612 5.8125 20.3438 5.8125Z" fill="#003966"/>
<path d="M30.0316 24.2187C30.0316 25.4994 31.9691 25.5013 31.9691 24.2187V20.2733C32.3732 20.2152 32.7711 20.1202 33.1579 19.9897L37.0251 24.8242C37.8252 25.8242 39.3392 24.6154 38.5381 23.6132L34.92 19.0906C35.1946 18.8955 35.4543 18.6803 35.697 18.4468C39.4128 20.2657 39.3147 20.3437 39.7184 20.3437C40.7391 20.3437 41.0614 18.9632 40.1524 18.5083L36.9078 16.8856C37.3196 16.1576 37.5921 15.3591 37.7113 14.5312H41.6566C42.9375 14.5312 42.9391 12.5937 41.6566 12.5937H37.7113C37.6542 12.1977 37.562 11.8076 37.4355 11.4281L39.1836 10.5539C40.3296 9.98098 39.4641 8.24753 38.3171 8.82103L36.5668 9.69617C36.3709 9.41513 36.1541 9.14923 35.9182 8.9007L39.5564 3.44362C40.2669 2.37799 38.6556 1.30147 37.9444 2.36891L34.3935 7.69497C33.647 7.26085 32.8239 6.9745 31.9691 6.85156V4.8437C31.9691 3.56301 30.0316 3.56108 30.0316 4.8437V6.85156C29.8479 6.87796 29.6669 6.9121 29.4881 6.95328L27.0057 2.43939C26.3881 1.31697 24.6898 2.24915 25.308 3.37302L27.6664 7.66107C27.4119 7.8049 27.1669 7.96499 26.9329 8.14036C26.7513 7.89587 26.8051 8.01103 23.788 5.9752C22.7224 5.26426 21.646 6.87578 22.7133 7.5872L25.5772 9.49649C25.3539 9.79416 25.1555 10.1097 24.9838 10.4398L23.6836 9.78978C22.5381 9.21724 21.6699 10.9491 22.8171 11.5226L24.3415 12.2848C24.3219 12.387 24.3044 12.4899 24.2895 12.5937H20.3441C19.0634 12.5937 19.0615 14.5312 20.3441 14.5312H24.2895C24.3718 15.1076 24.5288 15.6709 24.7563 16.2069L22.7046 17.6058C21.639 18.3323 22.7475 19.9214 23.7961 19.2066L25.7632 17.8654C26.0722 18.2399 26.4202 18.5804 26.8013 18.8813L24.3688 22.7326C23.6851 23.8153 25.322 24.8518 26.0069 23.7673L28.4773 19.8551C28.9767 20.0563 29.4986 20.1967 30.0316 20.2733V24.2187ZM26.1566 13.5625C26.1566 12.6044 26.4407 11.668 26.9729 10.8714C27.5052 10.0749 28.2617 9.45402 29.1467 9.08741C30.0318 8.7208 31.0057 8.62488 31.9453 8.81177C32.8849 8.99867 33.748 9.45999 34.4254 10.1374C35.1028 10.8148 35.5641 11.6779 35.751 12.6175C35.9379 13.5571 35.842 14.531 35.4754 15.4161C35.1088 16.3012 34.488 17.0576 33.6914 17.5899C32.8949 18.1221 31.9584 18.4062 31.0004 18.4062C29.7162 18.4048 28.485 17.894 27.5769 16.9859C26.6688 16.0778 26.1581 14.8467 26.1566 13.5625Z" fill="#003966"/>
<path d="M38.4737 37.4898C38.6518 37.3073 38.7509 37.0621 38.7496 36.8072C38.7483 36.5522 38.6466 36.308 38.4666 36.1274L35.5604 33.2212C34.6547 32.3159 33.2832 33.6841 34.1903 34.5913L35.4428 35.8437H30.0316C28.7509 35.8437 28.749 37.7812 30.0316 37.7812H35.4428L34.1903 39.0337C34.0554 39.1694 33.9636 39.342 33.9265 39.5297C33.8894 39.7175 33.9087 39.912 33.9819 40.0888C34.0552 40.2656 34.1791 40.4168 34.3381 40.5233C34.497 40.6298 34.684 40.687 34.8754 40.6875C35.3603 40.6875 35.3461 40.6927 38.4737 37.4898Z" fill="#003966"/>
</g>
<defs>
<clipPath id="clip0">
<rect width="62" height="62" fill="white"/>
</clipPath>
</defs>
</svg>
