<svg width="62" height="62" viewBox="0 0 62 62" fill="none" xmlns="http://www.w3.org/2000/svg">
<g clip-path="url(#clip0)">
<path d="M20.2227 24.2188C18.942 24.2188 18.94 26.1563 20.2227 26.1563C24.5436 26.1563 27.4813 22.2813 31 22.2813C34.5208 22.2813 37.4543 26.1563 41.7773 26.1563C43.0583 26.1563 43.0598 24.2188 41.7773 24.2188C40.0193 24.2188 38.4473 23.328 36.7815 22.3847C32.0019 19.6775 30.0932 19.6238 25.219 22.3847C23.5536 23.328 21.9809 24.2188 20.2227 24.2188Z" fill="#003966"/>
<path d="M54.25 23.25H51.3438C46.3305 23.25 38.0598 15.3479 28.8413 16.6232C27.5755 16.7986 27.8334 18.7159 29.1071 18.5425C37.1583 17.4267 44.8029 24.3774 50.375 25.1205V37.2147C48.2142 38.408 39.2024 43.1568 31.9688 43.5651V28.0938C31.9688 26.8128 30.0312 26.8113 30.0312 28.0938V43.5651C22.7976 43.1568 13.7859 38.408 11.625 37.2147V25.1182C14.5608 24.7149 18.089 22.6058 22.0294 20.8218C23.196 20.2936 22.3987 18.5278 21.2302 19.0568C17.1205 20.9177 13.2214 23.25 10.6562 23.25H7.75C5.69457 23.25 3.72333 24.0665 2.26992 25.5199C0.816516 26.9733 0 28.9446 0 31C0 33.0554 0.816516 35.0267 2.26992 36.4801C3.72333 37.9335 5.69457 38.75 7.75 38.75H10.3981C12.1297 39.7329 22.6972 45.5312 31 45.5312C39.3028 45.5312 49.8704 39.7329 51.6019 38.75H54.25C56.3054 38.75 58.2767 37.9335 59.7301 36.4801C61.1835 35.0267 62 33.0554 62 31C62 28.9446 61.1835 26.9733 59.7301 25.5199C58.2767 24.0665 56.3054 23.25 54.25 23.25ZM9.6875 36.8125H7.75C6.20843 36.8125 4.73 36.2001 3.63994 35.1101C2.54989 34.02 1.9375 32.5416 1.9375 31C1.9375 29.4584 2.54989 27.98 3.63994 26.8899C4.73 25.7999 6.20843 25.1875 7.75 25.1875H9.6875V36.8125ZM54.25 36.8125H52.3125V25.1875H54.25C55.7916 25.1875 57.27 25.7999 58.3601 26.8899C59.4501 27.98 60.0625 29.4584 60.0625 31C60.0625 32.5416 59.4501 34.02 58.3601 35.1101C57.27 36.2001 55.7916 36.8125 54.25 36.8125Z" fill="#003966"/>
<path d="M13.5625 27.125C13.5625 27.3819 13.6646 27.6283 13.8462 27.81C14.0279 27.9917 14.2743 28.0937 14.5312 28.0937C14.7882 28.0937 15.0346 27.9917 15.2163 27.81C15.3979 27.6283 15.5 27.3819 15.5 27.125C15.5 25.8442 13.5625 25.8424 13.5625 27.125Z" fill="#003966"/>
<path d="M14.5312 31.9688C15.0663 31.9688 15.5 31.535 15.5 31C15.5 30.465 15.0663 30.0312 14.5312 30.0312C13.9962 30.0312 13.5625 30.465 13.5625 31C13.5625 31.535 13.9962 31.9688 14.5312 31.9688Z" fill="#003966"/>
<path d="M14.5312 35.8438C15.0663 35.8438 15.5 35.41 15.5 34.875C15.5 34.34 15.0663 33.9062 14.5312 33.9062C13.9962 33.9062 13.5625 34.34 13.5625 34.875C13.5625 35.41 13.9962 35.8438 14.5312 35.8438Z" fill="#003966"/>
<path d="M48.4375 27.125C48.4375 25.8442 46.5 25.8424 46.5 27.125C46.5 28.4058 48.4375 28.4076 48.4375 27.125Z" fill="#003966"/>
<path d="M25.1876 19.375C26.4684 19.375 26.4702 17.4375 25.1876 17.4375C23.9068 17.4375 23.905 19.375 25.1876 19.375Z" fill="#003966"/>
<path d="M48.4375 31C48.4375 29.7192 46.5 29.7174 46.5 31C46.5 32.2826 48.4375 32.2826 48.4375 31Z" fill="#003966"/>
<path d="M47.4686 35.8438C48.7494 35.8438 48.7512 33.9062 47.4686 33.9062C46.186 33.9062 46.186 35.8438 47.4686 35.8438Z" fill="#003966"/>
</g>
<defs>
<clipPath id="clip0">
<rect width="62" height="62" fill="white"/>
</clipPath>
</defs>
</svg>
