<svg width="80" height="80" viewBox="0 0 80 80" fill="none" xmlns="http://www.w3.org/2000/svg">
<path fill-rule="evenodd" clip-rule="evenodd" d="M53.8537 45.8932C56.994 42.8795 59.4537 39.254 59.4537 31.019V26.0901C59.4537 13.4735 50.7079 6 39.9997 6C29.2875 6 20.5418 13.4735 20.5418 26.0901V31.019C20.5418 39.254 23.0015 42.8795 26.1459 45.8932C19.744 47.4714 11.1963 52.5566 11.1963 61.4062V74H68.8034V61.4063C68.8033 52.5566 60.2516 47.4715 53.8537 45.8932ZM37.9901 43.2596C34.6786 43.2596 31.6919 41.7825 29.6676 39.4508C27.9842 37.5127 26.9613 34.9829 26.9613 32.2294V27.8167C26.9613 27.5405 26.9761 27.2735 27.0111 27.0093C26.9801 26.7412 26.9653 26.4661 26.9653 26.1872V23.2747C26.9653 21.8042 27.8871 21.6923 29.9236 20.8931C31.2741 20.4469 32.9252 20.1168 34.7285 19.9037C36.4012 19.7056 38.2004 19.6058 39.9997 19.6058C41.7991 19.6058 43.5983 19.7056 45.2736 19.9037C47.0743 20.1166 48.7294 20.4469 50.0798 20.8931C50.1916 20.9402 50.3008 20.9779 50.4047 21.0211C52.2121 21.7071 53.0382 21.8864 53.0382 23.2747V26.1872C53.0382 26.4784 53.0233 26.7574 52.9924 27.0323C53.0233 27.2884 53.0382 27.5486 53.0382 27.8167V32.2294C53.0382 34.7619 52.1743 37.0976 50.7267 38.963C48.7064 41.5724 45.5458 43.2598 42.0092 43.2598H37.9901V43.2596ZM50.3507 64.7002C47.3371 64.7002 44.8936 62.2567 44.8936 59.2429C44.8936 56.2293 47.3371 53.7858 50.3507 53.7858C53.3644 53.7858 55.8079 56.2293 55.8079 59.2429C55.808 62.2567 53.3644 64.7002 50.3507 64.7002Z" fill="#069D88"/>
<path d="M39.9997 50.9258C39.9868 50.9258 39.9741 50.9255 39.9612 50.925C38.2414 50.8605 34.0336 50.4632 32.106 48.1757C31.7409 47.7423 31.7961 47.095 32.2295 46.7297C32.6631 46.3645 33.3105 46.4199 33.6754 46.8532C34.6277 47.9835 37.0489 48.756 39.9997 48.8728C42.9475 48.756 45.369 47.9831 46.3249 46.852C46.6906 46.4192 47.3378 46.3648 47.7711 46.7308C48.2039 47.0967 48.2582 47.744 47.8923 48.1768C45.9597 50.4636 41.7559 50.8606 40.0381 50.9251C40.0253 50.9255 40.0126 50.9258 39.9997 50.9258Z" fill="#003966"/>
<path d="M41.0255 43.2596V73.9812C41.0255 73.9879 41.0255 73.9932 41.0241 74H38.9755C38.9742 73.9932 38.9742 73.9879 38.9742 73.9812V43.2596C38.9742 42.6936 39.4324 42.2339 39.9999 42.2339C40.5674 42.2339 41.0255 42.6936 41.0255 43.2596Z" fill="#EFF6FF"/>
<path fill-rule="evenodd" clip-rule="evenodd" d="M27.0113 27.0093C26.9764 27.2731 26.9609 27.5407 26.9609 27.816V32.2297C26.9609 34.9872 27.9847 37.512 29.6679 39.4512C31.6923 41.7821 34.6786 43.2597 37.9907 43.2597H39.9996H42.0085C45.5456 43.2597 48.7064 41.5726 50.7269 38.9625C52.1735 37.097 53.0383 34.7621 53.0383 32.2295V27.8159C53.0383 27.5483 53.0228 27.2885 52.9919 27.0324C52.5771 30.7442 27.4147 30.7365 27.0113 27.0093Z" fill="#F2F2F2"/>
<path fill-rule="evenodd" clip-rule="evenodd" d="M59.4533 31.0196V26.1794H55.8542V30.8994C55.8542 38.249 52.802 42.1351 50.2966 45.7111C49.9941 46.1415 49.2108 47.5145 51.1383 48.0459C57.5374 49.6244 65.2048 54.7944 65.2048 62.2409V74H68.8039V61.4069C68.8039 52.5564 60.2523 47.4718 53.8531 45.8933C56.9944 42.8798 59.4533 39.2535 59.4533 31.0196Z" fill="#003966"/>
<path fill-rule="evenodd" clip-rule="evenodd" d="M59.4533 26.0901C59.4533 13.4736 50.7078 6 39.9998 6C39.6507 6 39.3056 6.0077 38.9642 6.02324C48.4699 7.12466 55.8543 14.3773 55.8543 25.966V26.1793H59.4533V26.0901Z" fill="#003966"/>
<path fill-rule="evenodd" clip-rule="evenodd" d="M45.2743 19.904C43.5988 19.7063 41.7993 19.6053 39.9997 19.6053C38.2003 19.6053 36.4007 19.7061 34.7291 19.904C32.9256 20.1173 31.2736 20.4469 29.9239 20.8931C27.8878 21.6921 26.9647 21.8044 26.9647 23.2744V26.1793V26.187C26.9647 26.4663 26.9803 26.7416 27.0112 27.0092C27.4146 30.7363 30.5443 33.1177 34.0426 33.0789C36.9436 33.0518 37.7657 32.3691 38.6772 31.2328C39.0185 30.81 39.511 30.5967 39.9997 30.6006C40.4923 30.5967 40.9848 30.81 41.3261 31.2328C42.2375 32.3691 43.0597 33.0518 45.9608 33.0789C49.4512 33.1177 52.5771 30.744 52.9921 27.0325C53.0232 26.7571 53.0386 26.4778 53.0386 26.187V26.1793V23.2744C53.0386 21.886 52.2125 21.7075 50.4052 21.0211C50.3005 20.9785 50.1919 20.9397 50.0794 20.8931C48.7298 20.4471 47.0737 20.1174 45.2743 19.904Z" fill="#FFEEE6"/>
<path d="M57.2789 74V66.6157C57.2789 66.0493 57.7385 65.5896 58.305 65.5896C58.8714 65.5896 59.3311 66.0493 59.3311 66.6157V74H57.2789Z" fill="#003966"/>
<path d="M20.102 74V66.6157C20.102 66.0493 20.5617 65.5896 21.1281 65.5896C21.6945 65.5896 22.1542 66.0493 22.1542 66.6157V74H20.102Z" fill="#003966"/>
<path d="M50.4044 22.0472C50.1968 22.0472 49.9874 21.9845 49.806 21.854C49.3459 21.5231 49.2413 20.8818 49.5721 20.4217L51.073 18.3351C51.404 17.8749 52.0451 17.7704 52.5054 18.1012C52.9655 18.4321 53.07 19.0734 52.7393 19.5335L51.2384 21.6201C51.0378 21.899 50.7235 22.0472 50.4044 22.0472Z" fill="#003966"/>
<path d="M29.7385 21.8145C29.4197 21.8145 29.1052 21.6663 28.9046 21.3875L27.4037 19.3009C27.0729 18.8408 27.1775 18.1996 27.6376 17.8686C28.0975 17.5378 28.739 17.6423 29.07 18.1025L30.5709 20.1891C30.9017 20.6492 30.7971 21.2904 30.337 21.6214C30.1557 21.7518 29.9461 21.8145 29.7385 21.8145Z" fill="#003966"/>
<path d="M39.9997 20.6316C39.4328 20.6316 38.9736 20.1722 38.9736 19.6054V16.5067C38.9736 15.94 39.433 15.4806 39.9997 15.4806C40.5665 15.4806 41.0258 15.94 41.0258 16.5067V19.6054C41.0258 20.1722 40.5665 20.6316 39.9997 20.6316Z" fill="#003966"/>
<path d="M34.7281 20.9305C34.2476 20.9305 33.8186 20.5915 33.7225 20.1023L33.1485 17.1857C33.0389 16.6297 33.4009 16.0902 33.9572 15.9807C34.5144 15.8716 35.0527 16.2335 35.162 16.7894L35.736 19.706C35.8456 20.2621 35.4836 20.8016 34.9273 20.911C34.8604 20.9241 34.7937 20.9305 34.7281 20.9305Z" fill="#003966"/>
<path d="M45.2752 20.9305C45.2094 20.9305 45.1429 20.9241 45.0759 20.911C44.5199 20.8016 44.1578 20.2621 44.2673 19.706L44.8413 16.7894C44.9507 16.2333 45.4902 15.8717 46.0461 15.9807C46.6022 16.0902 46.9643 16.6297 46.8548 17.1857L46.2808 20.1023C46.1847 20.5914 45.7555 20.9305 45.2752 20.9305Z" fill="#003966"/>
<path d="M34.6748 28.9546C34.1079 28.9546 33.6487 28.4952 33.6487 27.9285V27.5213C33.6487 26.9546 34.1081 26.4952 34.6748 26.4952C35.2415 26.4952 35.7009 26.9546 35.7009 27.5213V27.9285C35.701 28.4952 35.2416 28.9546 34.6748 28.9546Z" fill="#003966"/>
<path d="M36.1771 25.5262C36.1295 25.5262 36.0816 25.5229 36.0331 25.5161L32.7172 25.0508C32.1559 24.972 31.7648 24.4532 31.8437 23.892C31.9224 23.3307 32.442 22.9392 33.0023 23.0185L36.3183 23.4838C36.8795 23.5626 37.2707 24.0814 37.1918 24.6426C37.12 25.1554 36.6806 25.5262 36.1771 25.5262Z" fill="#003966"/>
<path d="M45.3015 28.9546C44.7347 28.9546 44.2754 28.4952 44.2754 27.9285V27.5213C44.2754 26.9546 44.7348 26.4952 45.3015 26.4952C45.8682 26.4952 46.3276 26.9546 46.3276 27.5213V27.9285C46.3276 28.4952 45.8682 28.9546 45.3015 28.9546Z" fill="#003966"/>
<path d="M43.8031 25.5262C43.2996 25.5262 42.8602 25.1554 42.7883 24.6426C42.7094 24.0814 43.1006 23.5626 43.6618 23.4839L46.9777 23.0185C47.5383 22.9397 48.0578 23.3307 48.1364 23.892C48.2153 24.4533 47.8242 24.972 47.2629 25.0508L43.947 25.5161C43.8986 25.5229 43.8507 25.5262 43.8031 25.5262Z" fill="#003966"/>
<path d="M59.4533 27.2055H53.0386C52.4717 27.2055 52.0125 26.7461 52.0125 26.1794C52.0125 25.6127 52.4719 25.1533 53.0386 25.1533H59.4533C60.0201 25.1533 60.4794 25.6127 60.4794 26.1794C60.4794 26.7461 60.0201 27.2055 59.4533 27.2055Z" fill="#F2F2F2"/>
<path d="M26.9648 27.2055H20.6355C20.0686 27.2055 19.6094 26.7461 19.6094 26.1794C19.6094 25.6127 20.0688 25.1533 20.6355 25.1533H26.9648C27.5316 25.1533 27.9909 25.6127 27.9909 26.1794C27.9909 26.7461 27.5316 27.2055 26.9648 27.2055Z" fill="#F2F2F2"/>
<path fill-rule="evenodd" clip-rule="evenodd" d="M50.3508 53.7858C47.3375 53.7858 44.8941 56.2291 44.8941 59.2426C44.8941 62.2561 47.3375 64.6995 50.3508 64.6995C53.3642 64.6995 55.8076 62.2561 55.8076 59.2426C55.8076 56.2291 53.3644 53.7858 50.3508 53.7858Z" fill="#EFF6FF"/>
<path d="M52.2202 58.2166H51.3771V57.3733C51.3771 56.8066 50.9177 56.3472 50.351 56.3472C49.7843 56.3472 49.3249 56.8066 49.3249 57.3733V58.2166H48.4817C47.9148 58.2166 47.4556 58.676 47.4556 59.2427C47.4556 59.8094 47.915 60.2688 48.4817 60.2688H49.3249V61.108C49.3249 61.6747 49.7843 62.1341 50.351 62.1341C50.9177 62.1341 51.3771 61.6747 51.3771 61.108V60.2688H52.2202C52.7871 60.2688 53.2463 59.8094 53.2463 59.2427C53.2463 58.676 52.7871 58.2166 52.2202 58.2166Z" fill="#069D88"/>
<path fill-rule="evenodd" clip-rule="evenodd" d="M52.9919 27.0326C53.023 26.7573 53.0384 26.478 53.0384 26.1871V26.1794V23.2745C53.0384 21.8861 52.2123 21.7076 50.405 21.0212L50.0792 20.8932C50.0093 20.8738 49.9435 20.8506 49.8776 20.8273C50.2151 21.1182 50.3779 21.4944 50.3779 22.1149V25.0198V25.0275C50.3779 25.3184 50.3624 25.5977 50.3314 25.873C49.9204 29.5846 46.7943 31.9582 43.3039 31.9194C42.7493 31.9156 42.2722 31.8845 41.8535 31.8342C42.6291 32.6059 43.6142 33.0559 45.9606 33.0792C49.4511 33.1178 52.577 30.7442 52.9919 27.0326Z" fill="#FFDFCF"/>
<path fill-rule="evenodd" clip-rule="evenodd" d="M50.7271 38.9625C52.1737 37.097 53.0386 34.7621 53.0386 32.2295V27.8159C53.0386 27.5483 53.023 27.2885 52.9921 27.0324C52.7671 29.0221 51.7705 30.6277 50.351 31.6826V32.4776C50.351 35.0064 49.49 37.3451 48.0434 39.2105C46.4726 41.235 44.2194 42.705 41.6364 43.2596H42.0086C45.5457 43.2597 48.7065 41.5726 50.7271 38.9625Z" fill="#F2F2F2"/>
<path d="M41.33 40.5549H38.6656C38.0988 40.5549 37.6395 40.0955 37.6395 39.5288C37.6395 38.9621 38.0989 38.5027 38.6656 38.5027H41.33C41.8968 38.5027 42.3561 38.9621 42.3561 39.5288C42.3561 40.0955 41.8968 40.5549 41.33 40.5549ZM41.33 37.1265H38.6656C38.0988 37.1265 37.6395 36.6671 37.6395 36.1004C37.6395 35.5336 38.0989 35.0742 38.6656 35.0742H41.33C41.8968 35.0742 42.3561 35.5336 42.3561 36.1004C42.3562 36.6669 41.8968 37.1265 41.33 37.1265Z" fill="#F2F2F2"/>
<path d="M33.9649 34.1055C31.7918 34.1055 29.6997 33.2665 28.2136 31.7958C26.7465 30.3437 25.9385 28.3518 25.9385 26.1871V23.2744C25.9385 21.294 27.2601 20.7994 28.7904 20.2266C29.0232 20.1395 29.2759 20.0449 29.549 19.9377C29.5664 19.931 29.584 19.9245 29.6018 19.9186C35.0449 18.1206 44.9584 18.1206 50.4012 19.9186C50.419 19.9245 50.4368 19.931 50.4541 19.9377C50.7271 20.0449 50.98 20.1395 51.2127 20.2266C52.743 20.7993 54.0646 21.294 54.0646 23.2744V26.1871C54.0646 28.3518 53.2565 30.3437 51.7895 31.7958C50.3035 33.2664 48.2111 34.1055 46.0373 34.1055C46.008 34.1055 45.979 34.1054 45.9499 34.105C42.8533 34.076 41.6935 33.3312 40.5254 31.8748C40.3986 31.7178 40.2113 31.6267 40.0128 31.6267C40.0084 31.6267 40.004 31.6268 39.9995 31.6268C39.9954 31.627 39.9907 31.6268 39.9863 31.6267C39.79 31.6267 39.6041 31.7179 39.4754 31.8773C38.3093 33.3312 37.1494 34.076 34.052 34.105C34.0232 34.1054 33.994 34.1055 33.9649 34.1055ZM30.2719 21.8587C29.9982 21.9659 29.7442 22.061 29.5099 22.1487C27.991 22.7171 27.991 22.7592 27.991 23.2743V26.187C27.991 27.8229 28.5672 29.258 29.6574 30.3368C30.7616 31.4296 32.3285 32.053 33.9654 32.053C33.9877 32.053 34.0099 32.0529 34.0321 32.0526C36.7244 32.0274 37.2078 31.4248 37.8769 30.5906C38.3996 29.943 39.1667 29.5742 39.9863 29.5742H40.0133C40.8354 29.5742 41.6038 29.9429 42.1246 30.5881C42.7956 31.4248 43.279 32.0275 45.9703 32.0526C45.9925 32.0529 46.0149 32.053 46.0371 32.053C47.6751 32.053 49.2419 31.4296 50.3461 30.3368C51.4362 29.2579 52.0125 27.8228 52.0125 26.187V23.2743C52.0125 22.7592 52.0125 22.7171 50.4935 22.1487C50.259 22.061 50.0053 21.9659 49.7316 21.8587C44.7186 20.2135 35.2845 20.2136 30.2719 21.8587Z" fill="#EFF6FF"/>
</svg>
