<svg width="62" height="62" viewBox="0 0 62 62" fill="none" xmlns="http://www.w3.org/2000/svg">
<g clip-path="url(#clip0)">
<path d="M25.1873 47.2192V53.7656C22.6701 55.7382 20.3611 57.963 18.2963 60.4051C17.4626 61.39 18.9615 62.6187 19.7752 61.6568C24.9307 55.5659 27.1248 55.4432 27.1248 54.2499V47.2192C27.1248 45.9384 25.1873 45.9367 25.1873 47.2192Z" fill="#003966"/>
<path d="M13.5624 24.2187C13.5624 22.9378 11.6249 22.9362 11.6249 24.2187V29.1822C6.508 36.544 6.35869 34.4329 11.8962 37.8611L14.2317 45.6483C15.0943 48.5266 18.8075 50.6887 19.3373 48.8439C19.3724 48.7216 19.3832 48.5935 19.3688 48.4671C19.3545 48.3407 19.3154 48.2183 19.2538 48.1069C19.1921 47.9956 19.1092 47.8975 19.0096 47.8183C18.9101 47.739 18.7959 47.6801 18.6736 47.645C18.0625 47.4714 17.5051 47.1464 17.0531 46.7C16.601 46.2536 16.269 45.7004 16.0877 45.0915C13.4607 36.6496 13.7914 36.7261 13.2048 36.382L10.1268 34.5777L13.3797 30.0609C13.7011 29.615 13.5019 29.6472 13.5624 24.2187Z" fill="#003966"/>
<path d="M10.3794 17.2095C12.0105 15.8354 7.92403 15.3117 7.04017 6.62247C10.3205 8.58988 14.0287 7.94433 20.8039 6.02523C21.0511 5.95519 21.2604 5.78981 21.3857 5.56547C21.511 5.34114 21.542 5.07622 21.4719 4.82901C21.4019 4.5818 21.2365 4.37253 21.0122 4.24726C20.7878 4.12198 20.5229 4.09095 20.2757 4.16099C15.8896 5.40354 9.55432 7.381 6.72436 3.89495C6.60104 3.73935 6.43292 3.62537 6.24272 3.56841C6.05253 3.51144 5.84943 3.51425 5.66088 3.57644C5.47233 3.63864 5.30742 3.75722 5.18845 3.91616C5.06947 4.07511 5.00216 4.26675 4.99562 4.46518C4.98606 4.77494 4.81095 12.1052 9.01436 17.093C9.09634 17.1902 9.19668 17.2704 9.30966 17.3289C9.42263 17.3874 9.54602 17.4231 9.67278 17.4339C9.79954 17.4448 9.92719 17.4305 10.0484 17.392C10.1697 17.3535 10.2822 17.2914 10.3794 17.2095Z" fill="#003966"/>
<path d="M56.1566 19.375C56.4491 12.9616 54.5072 5.40463 48.3305 4.67613C44.8237 -2.16857 35.1229 -0.0224296 27.7242 2.0134C27.6004 2.0461 27.4843 2.10302 27.3826 2.18087C27.2809 2.25872 27.1957 2.35596 27.1318 2.46695C27.068 2.57795 27.0268 2.70051 27.0106 2.82753C26.9944 2.95456 27.0035 3.08354 27.0375 3.20701C27.0715 3.33047 27.1296 3.44598 27.2085 3.54685C27.2874 3.64772 27.3855 3.73194 27.4971 3.79466C27.6088 3.85737 27.7317 3.89733 27.8589 3.91221C27.9861 3.9271 28.115 3.91662 28.2381 3.88139C34.8056 2.07431 44.1245 -0.18518 46.8067 5.98442C47.3404 7.21159 49.1534 5.80278 51.4977 8.42931C53.4691 10.6382 54.4442 14.595 54.2162 19.375H4.84375C4.58682 19.375 4.34042 19.477 4.15874 19.6587C3.97706 19.8404 3.875 20.0868 3.875 20.3437V24.2187C3.875 25.4996 5.8125 25.5012 5.8125 24.2187V21.3125H15.6666C15.5123 21.7508 15.4653 22.2197 15.5294 22.6799C15.5935 23.1402 15.767 23.5784 16.0353 23.9578C16.3035 24.3372 16.6588 24.6469 17.0713 24.8608C17.4838 25.0748 17.9416 25.1868 18.4062 25.1875H33.6556C32.9939 26.2792 32.303 28.9626 33.9062 28.9626C34.1632 28.9626 34.4096 28.8605 34.5913 28.6788C34.7729 28.4971 34.875 28.2507 34.875 27.9938C34.875 25.0429 37.4135 24.4419 38.7742 26.0836C40.4574 28.1145 40.287 34.875 35.2625 34.875C33.9816 34.875 33.98 36.8125 35.2625 36.8125C42.072 36.8125 42.7673 28.4123 40.522 25.1875C44.6234 25.1867 53.1998 25.1901 53.4199 25.1839C52.3692 29.9743 49.9427 36.8838 44.3708 44.575C41.0082 43.2442 38.6138 41.7697 37.5904 40.391C36.8252 39.361 35.2715 40.5174 36.0346 41.5459C37.5668 43.6097 40.8464 45.2572 43.5938 46.3508C43.6691 54.5972 43.4248 54.3845 43.8095 54.8594C48.5734 60.7446 47.9233 62.0002 49.1564 62.0002C49.3241 61.9997 49.4888 61.9557 49.6343 61.8726C49.7799 61.7894 49.9015 61.67 49.9872 61.5259C50.0729 61.3818 50.1198 61.2179 50.1233 61.0503C50.1267 60.8827 50.0867 60.717 50.0071 60.5695C48.717 58.22 47.219 55.9908 45.5312 53.9086V46.2688C51.9734 37.5659 54.5157 29.7482 55.5107 24.6415C56.2979 24.2328 56.958 23.616 57.4189 22.8582C57.8799 22.1004 58.1241 21.2307 58.125 20.3437C58.125 19.0266 56.4581 19.4414 56.1566 19.375ZM53.2812 23.25H18.4062C17.1241 23.25 17.1257 21.3125 18.4062 21.3125H56.0215C55.8205 21.8787 55.4493 22.3689 54.9586 22.7158C54.468 23.0627 53.8821 23.2493 53.2812 23.25Z" fill="#003966"/>
<path d="M23.2499 47.8332V28.0937C23.2499 26.8128 21.3124 26.8112 21.3124 28.0937V47.8332C21.3173 49.669 20.6683 51.4466 19.4818 52.8474C18.2952 54.2482 16.6486 55.1807 14.837 55.4778L5.81244 56.9815V31.9687C5.81244 30.6878 3.87494 30.6862 3.87494 31.9687C4.00282 59.2417 3.56628 58.3126 4.21752 58.8637C4.83897 59.39 4.69354 59.0041 15.1556 57.3884C17.4199 57.0169 19.4781 55.8513 20.9612 54.1005C22.4444 52.3496 23.2558 50.1279 23.2499 47.8332Z" fill="#003966"/>
<path d="M5.8125 28.0937C5.8125 26.8129 3.875 26.8111 3.875 28.0937C3.875 29.3745 5.8125 29.3764 5.8125 28.0937Z" fill="#003966"/>
<path d="M24.2188 4.84375C24.7538 4.84375 25.1875 4.41003 25.1875 3.875C25.1875 3.33997 24.7538 2.90625 24.2188 2.90625C23.6837 2.90625 23.25 3.33997 23.25 3.875C23.25 4.41003 23.6837 4.84375 24.2188 4.84375Z" fill="#003966"/>
</g>
<defs>
<clipPath id="clip0">
<rect width="62" height="62" fill="white"/>
</clipPath>
</defs>
</svg>
