<svg width="62" height="62" viewBox="0 0 62 62" fill="none" xmlns="http://www.w3.org/2000/svg">
<g clip-path="url(#clip0)">
<path d="M61.0314 60.0626H58.1251V12.048C60.6439 12.9594 60.6067 13.0155 60.9103 13.0155C61.9844 13.0155 62.2585 11.5127 61.2468 11.1385C29.6681 -0.465552 31.3028 -0.176501 30.6636 0.060601L23.6644 2.65322C22.4638 3.09812 23.1333 4.91464 24.3374 4.46962L31.0001 2.00185L56.1876 11.3304V60.0626H5.81261V11.3303L17.0706 7.16057C18.2715 6.71591 17.6004 4.89793 16.3977 5.34416L0.753551 11.1381C-0.448062 11.5829 0.223403 13.3999 1.42635 12.9545L3.87511 12.048V60.0626H0.968856C-0.312074 60.0626 -0.313648 62.0001 0.968856 62.0001H61.0314C62.3123 62.0001 62.3139 60.0626 61.0314 60.0626Z" fill="#003966"/>
<path d="M30.2865 38.1725C29.5226 37.0603 29.2703 35.5847 27.5814 35.1153C25.8135 34.6245 24.847 35.8572 22.8432 36.815L20.9371 33.4413C20.5551 32.7757 19.9254 32.2883 19.1853 32.0853C18.4453 31.8824 17.655 31.9803 16.9869 32.3578C16.3188 32.7353 15.8271 33.3618 15.6192 34.1004C15.4112 34.8391 15.5038 35.63 15.8768 36.3006L19.0936 41.9937C19.368 42.4803 19.767 42.8851 20.2496 43.1665C20.7322 43.4478 21.281 43.5957 21.8397 43.5948C23.2035 43.5948 23.6749 42.8989 27.8053 40.6875H52.3125V42.625H26.1563C24.8754 42.625 24.8738 44.5625 26.1563 44.5625H27.125V57.1562C27.125 58.4372 29.0625 58.4388 29.0625 57.1562V44.5625H31V57.1562C31 58.4372 32.9375 58.4388 32.9375 57.1562V44.5625H44.5625V57.1562C44.5625 58.4372 46.5 58.4388 46.5 57.1562V44.5625H48.4375V57.1562C48.4375 58.4372 50.375 58.4388 50.375 57.1562V44.5625H53.2813C53.5382 44.5625 53.7846 44.4604 53.9663 44.2788C54.148 44.0971 54.25 43.8507 54.25 43.5938V39.7188C54.25 38.4102 52.5982 38.8139 52.3125 38.75V25.1875C52.3114 24.1601 51.9027 23.1752 51.1763 22.4487C50.4498 21.7223 49.4649 21.3137 48.4375 21.3125H36.8125C35.7852 21.3137 34.8002 21.7223 34.0738 22.4487C33.3473 23.1752 32.9387 24.1601 32.9375 25.1875V31C32.9375 32.2809 34.875 32.2825 34.875 31V25.1875C34.8756 24.6738 35.08 24.1814 35.4432 23.8182C35.8064 23.4549 36.2989 23.2506 36.8125 23.25H48.4375C48.9512 23.2506 49.4437 23.4549 49.8069 23.8182C50.1701 24.1814 50.3744 24.6738 50.375 25.1875V38.75H38.75V32.9375C38.75 32.9053 38.7483 32.8736 38.7452 32.8421L44.2455 27.8419C45.1932 26.9799 43.8913 25.5457 42.9421 26.4081L32.2858 36.0956C31.3362 36.9593 32.6491 38.3831 33.5893 37.5294L36.8125 34.5991V38.75H30.4057C30.427 38.5498 30.3854 38.3479 30.2865 38.1725ZM21.5102 41.6116C20.6642 41.3763 20.8789 40.9819 17.5632 35.3474C17.4802 35.2001 17.4372 35.0336 17.4384 34.8645C17.4397 34.6954 17.4851 34.5296 17.5702 34.3834C17.6553 34.2373 17.7771 34.116 17.9236 34.0315C18.0701 33.947 18.2361 33.9023 18.4052 33.9018C19.2907 33.9018 19.1802 34.4547 21.6329 38.6113C21.7593 38.835 21.9694 38.9993 22.2169 39.0682C22.4644 39.137 22.7292 39.1046 22.9529 38.9783C26.2289 37.2254 26.3912 36.7964 27.0625 36.982C27.6514 37.1457 27.7154 37.6635 28.1231 38.2823C21.8332 41.8366 22.1546 41.7908 21.5102 41.6117V41.6116Z" fill="#003966"/>
<path d="M15.1488 29.15C12.9343 30.7282 11.625 33.4929 11.625 36.8125C11.7838 45.2202 11.2526 45.9279 12.1463 47.4688H9.6875V31.9688C9.6875 30.6879 7.75 30.6863 7.75 31.9688V52.3125C7.75 53.6211 9.40184 53.2173 9.6875 53.2813V57.1563C9.6875 58.4372 11.625 58.4388 11.625 57.1563V53.2813H17.4375V57.1563C17.4375 58.4372 19.375 58.4388 19.375 57.1563V53.2813C19.6375 53.2226 21.3125 53.6082 21.3125 52.3125V49.4063H23.25V57.1563C23.25 58.4372 25.1875 58.4388 25.1875 57.1563V48.4375C25.1875 48.1806 25.0854 47.9342 24.9038 47.7525C24.7221 47.5709 24.4757 47.4688 24.2188 47.4688H15.5C14.9863 47.4682 14.4939 47.2639 14.1307 46.9006C13.7674 46.5374 13.5631 46.045 13.5625 45.5313V44.5625H17.4375C18.7184 44.5625 18.72 42.625 17.4375 42.625H13.5625V36.8125C13.5625 33.4588 15.1647 30.8413 17.7439 29.9816C18.6373 29.6834 18.4062 29.0634 18.4062 25.1875C18.4069 24.6739 18.6112 24.1814 18.9744 23.8182C19.3376 23.455 19.8301 23.2506 20.3438 23.25H24.2188V25.1875C24.2179 25.958 23.9114 26.6967 23.3665 27.2416C22.8217 27.7864 22.083 28.0929 21.3125 28.0938C20.004 28.0938 20.4077 29.7456 20.3438 30.0313C20.3438 31.3122 22.2812 31.3138 22.2812 30.0313V29.9344C23.3746 29.7096 24.357 29.1147 25.0628 28.25C25.7687 27.3853 26.1549 26.3037 26.1562 25.1875V23.25C27.0538 23.25 27.911 21.5335 28.1652 20.7712C28.583 19.5178 28.6924 17.6349 26.8413 15.7838C26.7513 15.6938 26.6445 15.6224 26.527 15.5737C26.4094 15.5251 26.2835 15.5 26.1562 15.5C26.029 15.5 25.9031 15.5251 25.7855 15.5737C25.668 15.6224 25.5612 15.6938 25.4712 15.7838C24.0281 17.2268 21.408 15.5 19.375 15.5C11.9114 15.5 8.54522 25.4359 15.1488 29.15ZM19.375 49.4063V51.3438H9.6875V49.4063H19.375ZM19.375 17.4375C20.845 17.4375 23.6908 19.0999 26.0004 17.7974C26.9945 19.3187 26.1783 20.7158 25.7155 21.3125H20.3438C19.3164 21.3137 18.3314 21.7223 17.605 22.4488C16.8785 23.1752 16.4699 24.1602 16.4688 25.1875V27.6578C11.1074 25.0822 13.7572 17.4375 19.375 17.4375Z" fill="#003966"/>
<path d="M21.3125 4.84373C21.3125 3.56293 19.375 3.56111 19.375 4.84373C19.375 6.12454 21.3125 6.12636 21.3125 4.84373Z" fill="#003966"/>
</g>
<defs>
<clipPath id="clip0">
<rect width="62" height="62" fill="white"/>
</clipPath>
</defs>
</svg>
