<svg width="80" height="80" viewBox="0 0 80 80" fill="none" xmlns="http://www.w3.org/2000/svg">
<path d="M28.4883 22H21.3016L21 22.369V41.8412L21.1589 42.0516H23.9104L25.821 42.9708C25.821 42.9708 27.8216 43.0365 27.8877 42.9708C27.9538 42.9052 28.7048 42.5052 28.7048 42.5052L29 41.8412V22.3691L28.4883 22Z" fill="#003966" fill-opacity="0.2"/>
<path d="M25 22H21.3016L21 22.3588V41.2857L21.1588 41.4902H23.9102L25 42V22Z" fill="#003966" fill-opacity="0.2"/>
<path d="M25.0001 41.819C22.967 39.9763 21 41.819 21 41.819V55.5726L21.3016 56H28.4285L29 55.5726C29 52.9745 29 42.4085 29 41.819C29.0001 41.819 27.0331 43.6617 25.0001 41.819V41.819Z" fill="#BDBDBD"/>
<path d="M25 41.8191C25.0001 41.8192 24.9998 41.819 25 41.8191C22.9672 39.9764 21 41.8187 21 41.8187V55.5726L21.3016 56H25V41.8191Z" fill="#BDBDBD"/>
<path d="M12.2661 18H9.73387C9.32857 18 9 18.3791 9 18.8467V56.3589L9.58629 57H12.5377L13 56.3589V18.8467C12.9999 18.3791 12.6713 18 12.2661 18V18Z" fill="#003966"/>
<path d="M70.2662 18H67.7339C67.3286 18 67 18.3786 67 18.8456V56.3111L67.4893 57H70.23L71 56.3111V18.8456C71 18.3786 70.6714 18 70.2662 18V18Z" fill="#003966"/>
<path d="M11.1947 18.8467C11.1947 18.3791 11.5552 18 12 18H9.80531C9.36055 18 9 18.3791 9 18.8467V56.3589L9.64336 57H11.838L11.1947 56.3589V18.8467Z" fill="#003966"/>
<path d="M69.1947 18.8456C69.1947 18.3786 69.5552 18 70 18H67.8053C67.3606 18 67 18.3786 67 18.8456V56.3111L67.5369 57H69.7316L69.1947 56.3111V18.8456Z" fill="#003966"/>
<path d="M30.0114 18H20.9886C20.4426 18 20 18.4172 20 18.9319V21.0681C20 21.5828 20.4426 22 20.9886 22H30.0114C30.5574 22 31 21.5828 31 21.0681V18.9319C31 18.4172 30.5574 18 30.0114 18Z" fill="#003966" fill-opacity="0.2"/>
<path d="M24.1014 21.0681V18.9319C24.1014 18.4172 24.5037 18 25 18H20.8986C20.4023 18 20 18.4172 20 18.9319V21.0681C20 21.5828 20.4023 22 20.8986 22H25C24.5037 22 24.1014 21.5828 24.1014 21.0681Z" fill="#003966" fill-opacity="0.2"/>
<path d="M43.4883 22H36.3016L36 22.369V41.8412L36.1589 42.0516H38.9104L40.821 42.9708C40.821 42.9708 42.8216 43.0365 42.8877 42.9708C42.9538 42.9052 43.7048 42.5052 43.7048 42.5052L44 41.8412V22.3691L43.4883 22Z" fill="#003966" fill-opacity="0.2"/>
<path d="M40 22H36.3016L36 22.3588V41.2857L36.1588 41.4902H38.9102L40 42V22Z" fill="#003966" fill-opacity="0.2"/>
<path d="M40.0001 41.819C37.967 39.9763 36 41.819 36 41.819V55.5726L36.3016 56H43.4285L44 55.5726C44 52.9745 44 42.4085 44 41.819C44.0001 41.819 42.0331 43.6617 40.0001 41.819Z" fill="#BDBDBD"/>
<path d="M40 41.8194C39.9999 41.8192 39.9997 41.8191 39.9996 41.819C37.9668 39.9763 36 41.819 36 41.819V55.5726L36.3016 56H40V41.8194Z" fill="#BDBDBD"/>
<path d="M44.1013 18H35.8987C35.4024 18 35 18.4172 35 18.9319V21.0681C35 21.5828 35.4024 22 35.8987 22H44.1013C44.5976 22 45 21.5828 45 21.0681V18.9319C45 18.4172 44.5976 18 44.1013 18Z" fill="#003966" fill-opacity="0.2"/>
<path d="M39.1014 21.0681V18.9319C39.1014 18.4172 39.5037 18 40 18H35.8986C35.4023 18 35 18.4172 35 18.9319V21.0681C35 21.5828 35.4023 22 35.8986 22H40C39.5037 22 39.1014 21.5828 39.1014 21.0681V21.0681Z" fill="#003966" fill-opacity="0.2"/>
<path d="M58.4884 22H51.3016L51 22.369V41.8412L51.1589 42.0516H53.9105L55.8211 42.9708C55.8211 42.9708 57.8217 43.0365 57.8878 42.9708C57.9539 42.9052 58.7048 42.5052 58.7048 42.5052L59 41.8412V22.3691L58.4884 22Z" fill="#003966" fill-opacity="0.2"/>
<path d="M55 22H51.3016L51 22.3588V41.2857L51.1588 41.4902H53.9102L55 42V22Z" fill="#003966" fill-opacity="0.2"/>
<path d="M55.0001 41.819C52.967 39.9763 51 41.819 51 41.819V55.5726L51.3016 56H58.4285L59 55.5726C59 52.9745 59 42.4085 59 41.819C59 41.819 57.0331 43.6617 55.0001 41.819Z" fill="#828282"/>
<path d="M55 41.8194C54.9999 41.8192 54.9997 41.8191 54.9996 41.819C52.9668 39.9763 51 41.819 51 41.819V55.5726L51.3016 56H55V41.8194Z" fill="#828282"/>
<path d="M59.0114 18H49.9886C49.4426 18 49 18.4172 49 18.9319V21.0681C49 21.5828 49.4426 22 49.9886 22H59.0114C59.5574 22 60 21.5828 60 21.0681V18.9319C60 18.4172 59.5574 18 59.0114 18Z" fill="#003966" fill-opacity="0.2"/>
<path d="M53.9216 21.0681V18.9319C53.9216 18.4172 54.4044 18 55 18H50.0784C49.4828 18 49 18.4172 49 18.9319V21.0681C49 21.5828 49.4828 22 50.0784 22H55C54.4044 22 53.9216 21.5828 53.9216 21.0681Z" fill="#003966" fill-opacity="0.2"/>
<path d="M9 56V60.7563L9.80706 62H69.8894L71 60.7563V56H9Z" fill="#003966"/>
<path d="M20.1764 56H9V60.7563L9.82362 62H21L20.1764 60.7563V56Z" fill="#003966"/>
<path d="M66.6809 32.1265H13.3191C12.7212 32.1265 12.2365 31.6418 12.2365 31.0438C12.2365 30.4459 12.7212 29.9612 13.3191 29.9612H66.6809C67.2788 29.9612 67.7635 30.4459 67.7635 31.0438C67.7635 31.6418 67.2788 32.1265 66.6809 32.1265Z" fill="#069D88"/>
<path d="M74.1307 61H5.86933C4.837 61 4 61.7795 4 62.7412V66.2588C4 67.2205 4.837 68 5.86933 68H74.1307C75.1631 68 76 67.2204 76 66.2588V62.7412C76 61.7795 75.1631 61 74.1307 61Z" fill="#069D88"/>
<path d="M15.123 66.2588V62.7412C15.123 61.7795 15.9634 61 17 61H5.87701C4.84044 61 4 61.7795 4 62.7412V66.2588C4 67.2205 4.84044 68 5.87701 68H17C15.9634 68 15.123 67.2204 15.123 66.2588Z" fill="#069D88"/>
</svg>
