<svg width="62" height="62" viewBox="0 0 62 62" fill="none" xmlns="http://www.w3.org/2000/svg">
<g clip-path="url(#clip0)">
<path d="M49.7923 37.9962L48.5992 33.797C56.3548 14.4966 49.2774 0.962579 42.0983 2.00132C39.8354 -0.363519 36.5666 -0.629925 32.129 1.18466C30.9436 1.66904 31.6751 3.46365 32.8621 2.97806C40.1641 -0.0073821 40.4063 4.38081 41.9706 3.99828C48.2525 2.45833 53.5426 15.9151 46.9512 32.7006C41.6701 31.9679 41.295 28.5835 39.9332 29.9374C39.751 30.1185 39.6482 30.3646 39.6475 30.6215C39.6467 30.8785 39.748 31.1251 39.9292 31.3073C41.7749 33.1639 44.0921 34.2807 46.8234 34.636L47.8568 38.2733C39.2204 46.3532 35.1004 45.3009 35.9183 47.2641C35.9672 47.3815 36.0388 47.4882 36.129 47.578C36.2191 47.6678 36.326 47.7389 36.4437 47.7873C36.5613 47.8358 36.6874 47.8606 36.8146 47.8603C36.9418 47.86 37.0677 47.8347 37.1852 47.7858C42.6118 45.5251 47.3583 41.386 49.0141 39.8465C64.1333 51.7454 57.8963 61.9998 61.0313 61.9998C61.2883 61.9998 61.5347 61.8977 61.7163 61.716C61.898 61.5343 62.0001 61.2879 62.0001 61.031C62.0001 50.8798 57.6741 44.0699 49.7923 37.9962Z" fill="white"/>
<path d="M42.2712 22.1595C40.5943 16.257 34.0732 18.1189 35.4835 23.081C35.8335 24.313 37.6977 23.7851 37.3472 22.5513C36.6275 20.0184 39.4536 19.3312 40.4076 22.689C40.9857 24.7241 40.6991 26.6345 38.671 27.2108C37.4379 27.5611 37.9674 29.4245 39.2005 29.0744C42.2809 28.1993 43.1636 25.2999 42.2712 22.1595Z" fill="white"/>
<path d="M34.1758 39.7462C35.1698 42.5555 34.9715 44.5552 36.4315 44.1407C36.5539 44.1059 36.6682 44.0474 36.768 43.9684C36.8677 43.8895 36.9509 43.7916 37.0129 43.6805C37.0748 43.5694 37.1143 43.4472 37.129 43.3208C37.1437 43.1944 37.1334 43.0664 37.0986 42.944L35.7747 38.2847C35.7399 38.1623 35.6814 38.048 35.6024 37.9482C35.5235 37.8485 35.4257 37.7652 35.3145 37.7033C35.2034 37.6414 35.0812 37.6019 34.9548 37.5872C34.8284 37.5725 34.7004 37.5828 34.578 37.6176C27.9528 39.2901 27.2277 40.214 25.7479 39.3891C25.4696 39.2349 25.2246 39.0271 25.0272 38.7777C24.8297 38.5283 24.6837 38.2422 24.5975 37.9359C23.3685 34.1215 23.6348 33.3281 22.7371 33.075L20.2194 32.365C22.2164 26.7836 22.3353 30.3276 20.3162 22.8685C23.261 23.125 24.9701 22.0682 32.6072 20.0504C33.8413 19.6998 33.3096 17.8366 32.0777 18.1868L23.4086 20.6496C17.8424 22.1256 14.34 18.1357 12.4496 12.751C15.8464 13.4475 19.9332 10.4337 26.1808 6.5723C27.2714 5.89829 26.252 4.25057 25.1619 4.92434C19.0991 8.6717 13.8811 12.4952 11.6177 10.2706C10.9873 9.54043 9.74802 10.119 9.95799 11.1263C10.8655 15.4796 13.7163 20.8276 18.1703 22.4052L19.815 28.1935C17.347 34.707 16.7635 33.2327 21.6898 34.792C22.6611 37.4419 22.4369 39.7613 24.804 41.0809C25.3034 41.3612 25.8535 41.5396 26.4224 41.6058C26.9913 41.672 27.5677 41.6247 28.1182 41.4665L34.1758 39.7462Z" fill="white"/>
<path d="M48.377 45.507C47.4864 45.5102 46.6051 45.689 45.7837 46.033C44.9622 46.377 44.2165 46.8796 43.5894 47.5119C42.9622 48.1443 42.4658 48.894 42.1286 49.7184C41.7914 50.5427 41.62 51.4254 41.6241 52.316L41.6563 61.0347C41.661 62.3265 43.5985 62.3147 43.5938 61.0275L43.5616 52.3087C43.5562 51.0241 44.0613 49.7899 44.9659 48.8777C45.8705 47.9655 47.1004 47.45 48.385 47.4446C49.6696 47.4392 50.9038 47.9444 51.816 48.8489C52.7282 49.7535 53.2437 50.9834 53.2491 52.268L53.2813 60.9868C53.2822 61.2431 53.3847 61.4886 53.5663 61.6695C53.7478 61.8504 53.9937 61.952 54.25 61.952C54.2622 61.9466 55.2222 61.9091 55.2188 60.9796L55.1866 52.2609C55.1771 50.4629 54.4549 48.7421 53.1783 47.4759C51.9017 46.2098 50.175 45.5017 48.377 45.507Z" fill="white"/>
<path d="M33.0817 51.4971L32.9863 51.2677C33.6324 47.662 35.0742 45.8195 33.5521 43.8702C32.673 42.744 30.549 42.0361 30.0928 43.2536C27.0587 51.4912 27.0469 51.0489 27.1437 51.5337C29.2062 60.4023 28.5969 62.0003 30.0302 62.0001C30.1737 62.0002 30.3153 61.9686 30.445 61.9073C30.5747 61.846 30.6892 61.7568 30.7802 61.6459C30.8712 61.535 30.9364 61.4053 30.9711 61.2662C31.0059 61.127 31.0093 60.9819 30.9812 60.8412L29.0978 51.4249L31.6139 44.7155C32.9459 45.43 31.9935 46.6672 31.0289 51.1093C30.8924 51.6542 31.0895 51.5876 33.0118 56.374C33.0979 56.5808 33.2529 56.7514 33.4506 56.8567C33.6482 56.9621 33.8763 56.9957 34.096 56.9518C35.375 56.6963 34.6845 55.0711 34.875 52.5551C34.875 50.928 36.8125 50.9273 36.8125 52.5551C36.8125 58.3714 37.0469 58.4585 35.1587 60.3467C34.253 61.2522 35.6217 62.6232 36.5287 61.7167C39.0736 59.1713 38.75 58.214 38.75 52.5547C38.75 48.7819 33.9964 48.3722 33.0817 51.4971Z" fill="white"/>
<path d="M25.1875 31.9688C26.4683 31.9688 26.4701 30.0312 25.1875 30.0312C23.9067 30.0312 23.9049 31.9688 25.1875 31.9688Z" fill="white"/>
<path d="M0.968734 38.75C-0.312075 38.75 -0.313891 40.6875 0.968734 40.6875C2.25136 40.6875 2.25136 38.75 0.968734 38.75Z" fill="white"/>
<path d="M4.8438 40.6875C6.12461 40.6875 6.12643 38.75 4.8438 38.75C3.56118 38.75 3.56118 40.6875 4.8438 40.6875Z" fill="white"/>
<path d="M8.71873 40.6875C9.99954 40.6875 10.0014 38.75 8.71873 38.75C7.43793 38.75 7.43611 40.6875 8.71873 40.6875Z" fill="white"/>
<path d="M19.375 43.5938C19.375 44.8746 21.3125 44.8764 21.3125 43.5938C21.3125 42.3112 19.375 42.3112 19.375 43.5938Z" fill="white"/>
<path d="M29.0625 31.9688C30.3433 31.9688 30.3451 30.0312 29.0625 30.0312C27.7817 30.0312 27.7799 31.9688 29.0625 31.9688Z" fill="white"/>
<path d="M41.6562 39.7187C41.6562 38.4379 39.7188 38.4361 39.7188 39.7187C39.7188 41.0014 41.6562 41.0014 41.6562 39.7187Z" fill="white"/>
<path d="M37.7812 36.8126C37.7812 38.0934 39.7188 38.0952 39.7188 36.8126C39.7188 35.5299 37.7812 35.5299 37.7812 36.8126Z" fill="white"/>
<path d="M34.875 33.9063C34.875 35.1871 36.8125 35.1889 36.8125 33.9063C36.8125 32.6237 34.875 32.6237 34.875 33.9063Z" fill="white"/>
<path d="M32.9377 32.9375C34.2185 32.9375 34.2203 31 32.9377 31C31.6551 31 31.6551 32.9375 32.9377 32.9375Z" fill="white"/>
<path d="M29.0625 4.84375C30.3433 4.84375 30.3451 2.90625 29.0625 2.90625C27.7817 2.90625 27.7799 4.84375 29.0625 4.84375Z" fill="white"/>
<path d="M7.75 36.8125H16.4688C17.7494 36.8125 17.7514 34.875 16.4688 34.875H7.75C7.23633 34.8744 6.74387 34.6701 6.38065 34.3068C6.01743 33.9436 5.81311 33.4512 5.8125 32.9375C5.8125 30.3731 9.6875 30.3764 9.6875 32.9375C9.6875 33.1944 9.78956 33.4408 9.97124 33.6225C10.1529 33.8042 10.3993 33.9062 10.6562 33.9062C12.6915 33.9062 11.4434 29.0625 7.75 29.0625C6.72229 29.0625 5.73666 29.4708 5.00996 30.1975C4.28326 30.9242 3.875 31.9098 3.875 32.9375C3.875 33.9652 4.28326 34.9508 5.00996 35.6775C5.73666 36.4042 6.72229 36.8125 7.75 36.8125Z" fill="white"/>
<path d="M16.4687 42.625H7.75C6.9836 42.625 6.23441 42.8523 5.59717 43.2781C4.95993 43.7038 4.46326 44.309 4.16997 45.0171C3.87668 45.7252 3.79994 46.5043 3.94946 47.256C4.09898 48.0077 4.46803 48.6981 5.00996 49.24C5.55189 49.782 6.24235 50.151 6.99403 50.3005C7.7457 50.4501 8.52484 50.3733 9.2329 50.08C9.94096 49.7867 10.5462 49.2901 10.9719 48.6528C11.3977 48.0156 11.625 47.2664 11.625 46.5C11.625 45.2193 9.6875 45.2174 9.6875 46.5C9.6875 49.0644 5.8125 49.0611 5.8125 46.5C5.81311 45.9863 6.01743 45.4939 6.38065 45.1307C6.74387 44.7674 7.23633 44.5631 7.75 44.5625H16.4687C17.7494 44.5625 17.7514 42.625 16.4687 42.625Z" fill="white"/>
<path d="M20.3438 38.75H12.5938C11.3131 38.75 11.3112 40.6875 12.5938 40.6875H20.3438C21.6245 40.6875 21.6264 38.75 20.3438 38.75Z" fill="white"/>
</g>
<defs>
<clipPath id="clip0">
<rect width="62" height="62" fill="white"/>
</clipPath>
</defs>
</svg>
