<svg width="62" height="62" viewBox="0 0 62 62" fill="none" xmlns="http://www.w3.org/2000/svg">
<g clip-path="url(#clip0)">
<path d="M23.2888 3.51713C38.7889 -0.807128 36.6135 5.45306 38.5803 5.52486C40.892 5.60963 42.6083 7.55076 43.2893 10.8519C43.5481 12.1063 45.446 11.7166 45.1868 10.4605C44.3775 6.53709 42.1801 4.03456 39.2484 3.63943C36.3774 -1.75953 28.6648 0.00662138 22.7681 1.65095C21.5336 1.99534 22.0537 3.86152 23.2888 3.51713Z" fill="white"/>
<path d="M31 46.5C29.2021 46.5021 27.4785 47.2172 26.2072 48.4884C24.9359 49.7597 24.2208 51.4834 24.2188 53.2813V61.0313C24.2188 61.2882 24.3208 61.5346 24.5025 61.7163C24.6842 61.8979 24.9306 62 25.1875 62C25.4444 62 25.6908 61.8979 25.8725 61.7163C26.0542 61.5346 26.1562 61.2882 26.1562 61.0313V53.2813C26.1562 51.9966 26.6666 50.7646 27.575 49.8562C28.4833 48.9478 29.7154 48.4375 31 48.4375C32.2846 48.4375 33.5167 48.9478 34.425 49.8562C35.3334 50.7646 35.8438 51.9966 35.8438 53.2813V61.0313C35.8438 61.2882 35.9458 61.5346 36.1275 61.7163C36.3092 61.8979 36.5556 62 36.8125 62C37.0694 62 37.3158 61.8979 37.4975 61.7163C37.6792 61.5346 37.7812 61.2882 37.7812 61.0313V53.2813C37.7792 51.4834 37.0641 49.7597 35.7928 48.4884C34.5215 47.2172 32.7979 46.5021 31 46.5Z" fill="white"/>
<path d="M21.9245 44.4962C24.0393 41.9137 22.9341 44.5325 23.25 36.8125C23.25 36.5556 23.1479 36.3092 22.9663 36.1275C22.7846 35.9459 22.5382 35.8438 22.2813 35.8438H15.0156C14.3735 35.8431 13.758 35.5877 13.3039 35.1336C12.8499 34.6796 12.5945 34.064 12.5938 33.4219V29.0625C12.5938 28.1692 11.6944 28.1041 9.90548 26.8665C13.3507 22.0452 12.4977 25.486 12.5944 17.7567C15.4745 18.8532 17.3291 18.2267 28.0944 18.4063C29.375 18.4063 29.377 16.4688 28.0944 16.4688H16.1744C10.4207 16.368 8.13884 11.5791 7.79202 5.87672C10.0323 7.03922 13.0942 6.341 15.8299 5.64059C17.0719 5.3226 16.5911 3.44625 15.3494 3.76364C6.36845 6.0626 8.52864 2.38971 6.62674 2.73349C6.41452 2.77525 6.22212 2.88617 6.07964 3.04889C5.93716 3.21162 5.85263 3.41698 5.83927 3.63286C5.52382 8.04757 6.79421 13.9864 10.6563 16.7271V22.7442L7.71186 26.5303C7.6283 26.6378 7.56831 26.7617 7.53583 26.8939C7.50335 27.0261 7.49909 27.1636 7.52333 27.2976C7.54758 27.4315 7.59978 27.5589 7.67654 27.6713C7.7533 27.7837 7.85289 27.8787 7.96882 27.9501L10.6563 29.6038V33.4219C10.6575 34.5777 11.1172 35.6858 11.9345 36.503C12.7518 37.3203 13.8598 37.78 15.0156 37.7813H21.3125V42.2381C16.9729 46.9352 13.5625 54.0541 13.5625 61.0319C13.5625 61.2888 13.6646 61.5352 13.8462 61.7169C14.0279 61.8986 14.2743 62.0006 14.5313 62.0006C14.7882 62.0006 15.0346 61.8986 15.2163 61.7169C15.3979 61.5352 15.5 61.2888 15.5 61.0319C15.5 54.8486 18.2641 49.6291 20.4285 46.4896C29.0262 46.3157 33.8087 44.0525 35.6117 42.9732C44.8774 55.7011 39.8009 62 42.625 62C42.8819 62 43.1283 61.898 43.31 61.7163C43.4917 61.5346 43.5938 61.2882 43.5938 61.0313C43.5938 53.9636 42.5151 48.9367 36.6188 41.075C35.3154 39.3366 34.3984 43.8394 21.9245 44.4962Z" fill="white"/>
<path d="M37.574 14.2822L36.4772 18.4062C31.9154 18.6145 30.5963 17.8998 30.2343 19.094L27.0049 29.7502C26.633 30.9778 28.4857 31.5446 28.8592 30.3121L31.8802 20.3437H37.2221C38.5106 20.3437 38.1795 18.7286 39.4463 14.7801C39.4802 14.6568 39.4894 14.528 39.4733 14.4011C39.4571 14.2742 39.416 14.1518 39.3523 14.0409C39.2886 13.93 39.2036 13.8328 39.1022 13.7549C39.0007 13.677 38.8848 13.62 38.7612 13.5871C38.6376 13.5542 38.5087 13.5462 38.382 13.5634C38.2553 13.5806 38.1332 13.6227 38.0228 13.6873C37.9124 13.7519 37.8159 13.8378 37.7389 13.9399C37.6619 14.042 37.6058 14.1583 37.574 14.2822Z" fill="white"/>
<path d="M47.2871 29.8105L45.8968 31.9686C38.9733 32.0689 38.9075 31.7433 38.4032 32.262L34.636 36.137C33.7428 37.0559 35.1412 38.397 36.0251 37.4877L39.5071 33.9061H46.4251C47.313 33.9061 47.3717 33.0361 48.9156 30.8595C49.6089 29.7828 47.9812 28.7323 47.2871 29.8105Z" fill="white"/>
<path d="M54.3864 18.7825L51.4801 23.2984C51.3864 23.4447 51.3338 23.6136 51.3277 23.7872C51.3216 23.9609 51.3622 24.133 51.4454 24.2856C51.5285 24.4382 51.6512 24.5657 51.8004 24.6547C51.9497 24.7437 52.1201 24.791 52.2939 24.7916C53.2263 24.7916 53.1415 24.0203 56.0156 19.8312C56.7084 18.7541 55.0804 17.7038 54.3864 18.7825Z" fill="white"/>
<path d="M39.4564 22.2812C34.7846 22.491 33.4716 21.7726 33.1091 22.969C29.5433 35.6611 27.8215 37.7812 29.9258 37.7812C30.6934 37.7812 30.4041 37.5562 37.8705 30.0312C44.148 29.8828 44.6231 30.3676 45.1259 29.5869C49.4853 22.3226 50.977 21.619 49.9861 20.6274C40.1613 11.1508 42.7989 10.6838 39.4564 22.2812ZM43.783 28.0937C37.3877 28.1928 37.2697 27.8698 36.7667 28.3871L32.0087 33.2809L34.7548 24.2187H40.2013C41.5286 24.2187 41.1129 22.6698 43.024 16.4053L48.0637 21.445L43.783 28.0937Z" fill="white"/>
<path d="M49.3011 27.125C49.3011 28.4058 51.2386 28.4076 51.2386 27.125C51.2386 25.8442 49.3011 25.8424 49.3011 27.125Z" fill="white"/>
<path d="M40.6891 10.6562C40.6891 9.37543 38.7516 9.37361 38.7516 10.6562C38.7516 11.937 40.6891 11.9389 40.6891 10.6562Z" fill="white"/>
<path d="M19.375 4.84375C20.6559 4.84375 20.6577 2.90625 19.375 2.90625C18.0942 2.90625 18.0924 4.84375 19.375 4.84375Z" fill="white"/>
<path d="M27.0014 40.9169C27.4436 41.2117 27.9397 41.4164 28.4612 41.5194C28.9827 41.6224 29.5193 41.6215 30.0405 41.5169C30.5616 41.4123 31.0571 41.206 31.4984 40.9098C31.9398 40.6136 32.3184 40.2333 32.6127 39.7907C33.3214 38.7237 31.7086 37.6504 30.9988 38.7188C29.4743 41.014 25.9316 38.7067 27.4774 36.3796C27.6195 36.1656 27.6708 35.9039 27.62 35.652C27.5692 35.4002 27.4204 35.1788 27.2064 35.0367C25.487 33.8942 23.7931 38.7864 27.0014 40.9169Z" fill="white"/>
</g>
<defs>
<clipPath id="clip0">
<rect width="62" height="62" fill="white"/>
</clipPath>
</defs>
</svg>
