<svg width="62" height="62" viewBox="0 0 62 62" fill="none" xmlns="http://www.w3.org/2000/svg">
<g clip-path="url(#clip0)">
<path d="M32.6079 34.9607C31.3913 35.3063 31.8851 37.1801 33.1374 36.8243C36.2178 35.9492 37.1005 33.0498 36.2083 29.9099C34.5313 24.0077 28.0102 25.8696 29.4205 30.8314C29.7704 32.0633 31.6347 31.5357 31.2842 30.3017C30.5673 27.779 33.3888 27.0764 34.3445 30.4393C34.6629 31.5597 35.131 34.2438 32.6079 34.9607Z" fill="white"/>
<path d="M42.5644 53.2813C40.7746 53.2916 39.0621 54.0113 37.8022 55.2826C36.5423 56.5538 35.838 58.2727 35.8437 60.0625V61.0797C35.8437 62.3604 37.7812 62.3624 37.7812 61.0797V60.0586C37.7787 59.4247 37.9012 58.7964 38.1418 58.2099C38.3825 57.6234 38.7364 57.0901 39.1834 56.6405C39.6304 56.1909 40.1617 55.834 40.7468 55.59C41.332 55.346 41.9595 55.2199 42.5934 55.2188C45.2724 55.2188 47.4577 57.3676 47.4687 60.0141V61.0312C47.4687 62.3119 49.4062 62.3139 49.4062 61.0312V60.0102C49.3906 56.253 46.282 53.2584 42.5644 53.2813Z" fill="white"/>
<path d="M43.7296 45.7483L42.5361 41.548C44.7289 36.0901 45.8873 30.5478 45.8873 25.4988C45.8873 24.2181 43.9498 24.2161 43.9498 25.4988C43.9498 30.1879 42.8926 35.3437 40.8878 40.4509C38.959 40.1836 37.3365 39.489 35.9456 38.338C34.9593 37.5211 33.7221 39.0127 34.7105 39.8306C36.3966 41.2259 38.4298 42.0829 40.7602 42.3857L41.7937 46.0231C40.3988 47.3275 35.6101 51.5835 30.3058 53.7751C31.0062 51.0505 31.1679 51.1595 31.0356 50.6938C29.6398 46.1151 29.8646 45.7948 29.2517 45.4531C28.63 45.1064 28.7136 45.4128 21.5259 47.3532C20.9081 47.5278 20.2463 47.4502 19.6856 47.1376C19.1249 46.8249 18.7111 46.3027 18.5349 45.6853C17.3059 41.8709 17.5721 41.0775 16.6744 40.8244L14.1559 40.1148C16.143 34.5611 16.275 38.0888 14.2519 30.6146C17.2165 30.875 19.0086 29.7885 26.5441 27.8002C27.7777 27.4497 27.2465 25.5863 26.0145 25.9365L17.3449 28.3997C11.8188 29.8649 8.29931 25.9383 6.38821 20.5012C11.427 21.5328 19.4792 13.5686 27.1445 10.5904C28.3381 10.1266 27.6388 8.32017 26.4428 8.78432C18.2564 11.9653 8.77775 21.1863 5.5552 18.0207C4.92467 17.2904 3.68539 17.8693 3.89537 18.8766C3.97445 19.2553 5.85624 27.9443 12.1055 30.1505L13.7524 35.9436C11.2843 42.4571 10.7008 40.9828 15.6272 42.5421C16.6017 45.2013 16.3742 47.5114 18.7413 48.831C21.2413 50.2249 23.1207 48.6324 28.1127 47.4958L29.0915 50.9411C28.2226 53.7074 27.2622 58.2459 26.8371 60.8763C26.6325 62.1409 28.5445 62.4517 28.7496 61.1853C29.0516 59.3177 29.412 57.6283 29.7646 56.0535C34.4588 54.4265 39.3568 50.9391 42.9517 47.5957C54.7661 56.8657 51.8645 62.7266 54.4228 61.9591C54.5447 61.9225 54.6581 61.8622 54.7566 61.7818C54.8552 61.7013 54.9369 61.6022 54.9972 61.4902C55.0574 61.3781 55.095 61.2553 55.1078 61.1287C55.1205 61.0021 55.1083 60.8743 55.0716 60.7524C53.4003 55.1916 49.7917 50.4172 43.7296 45.7483Z" fill="white"/>
<path d="M30.9583 16.7497L33.9789 6.7813H39.3208C40.4433 6.7813 40.3397 5.34597 40.6545 4.56661C40.9838 3.32891 39.1116 2.82904 38.7822 4.06867L38.5763 4.84367C34.0145 5.05196 32.6954 4.33726 32.3335 5.53149L29.1041 16.1877C28.7321 17.4154 30.5849 17.9825 30.9583 16.7497Z" fill="white"/>
<path d="M38.1243 23.9254L41.6063 20.3438C48.3784 20.1938 48.8341 20.6829 49.3387 19.8997L51.0147 17.2972C51.7082 16.2206 50.0803 15.1697 49.3858 16.2482L47.996 18.4063C41.0724 18.5066 41.0069 18.1811 40.5024 18.6997L36.735 22.5747C35.8406 23.4949 37.2427 24.8323 38.1243 23.9254Z" fill="white"/>
<path d="M56.4853 5.2201L53.5791 9.73593C53.4854 9.88229 53.4327 10.0511 53.4266 10.2248C53.4205 10.3985 53.4612 10.5706 53.5443 10.7232C53.6275 10.8758 53.7501 11.0032 53.8994 11.0922C54.0486 11.1812 54.219 11.2285 54.3928 11.2291C55.3252 11.2291 55.2412 10.4568 58.1146 6.26877C58.8079 5.19128 57.1797 4.14139 56.4853 5.2201Z" fill="white"/>
<path d="M31.0983 22.9689C31.0546 23.1136 31.0453 23.2666 31.0713 23.4155C31.0972 23.5644 31.1576 23.7052 31.2476 23.8266C31.3377 23.948 31.4549 24.0467 31.5898 24.1148C31.7248 24.1828 31.8738 24.2184 32.025 24.2186C32.7926 24.2186 32.5033 23.9936 39.9697 16.4686H46.4106C47.343 16.4686 47.0055 16.0767 53.1148 7.32409C53.254 7.11858 53.3089 6.86749 53.2684 6.62264C53.2278 6.37778 53.0948 6.15783 52.8968 6.00816C45.0076 0.239499 45.1783 -0.24875 44.3033 0.052773C43.4337 0.352601 43.8275 0.756933 41.5557 8.7186H36.1353C34.7703 8.7186 35.2932 10.0022 31.0983 22.9689ZM42.3004 10.6561C42.514 10.6561 42.7216 10.5856 42.8909 10.4554C43.0602 10.3252 43.1818 10.1427 43.2367 9.93632L45.185 2.61015L50.9947 6.99956L45.8966 14.5316C39.4828 14.6308 39.369 14.3077 38.8661 14.825L34.1079 19.7188L36.854 10.6561H42.3004Z" fill="white"/>
<path d="M51.4004 13.5625C51.4004 14.8433 53.3379 14.8451 53.3379 13.5625C53.3379 12.2817 51.4004 12.2799 51.4004 13.5625Z" fill="white"/>
<path d="M41.4562 0.968856C41.4562 -0.311952 39.5187 -0.313769 39.5187 0.968856C39.5187 2.25148 41.4562 2.25148 41.4562 0.968856Z" fill="white"/>
</g>
<defs>
<clipPath id="clip0">
<rect width="62" height="62" fill="white"/>
</clipPath>
</defs>
</svg>
