<svg xmlns="http://www.w3.org/2000/svg" xmlns:xlink="http://www.w3.org/1999/xlink" viewBox="0 0 918.6 295.09"><defs><style>.cls-1{isolation:isolate;}.cls-2{fill:#b0d9c8;}.cls-3{fill:#fff;}.cls-4{fill:#043c5e;}.cls-5{fill:#00666a;}.cls-6{fill:#63c1c5;}.cls-26,.cls-7{fill:#01898c;}.cls-25,.cls-8{fill:#146088;}.cls-9{fill:#d4e2f5;}.cls-10{fill:#8aaedc;}.cls-11,.cls-29{fill:#a0c6ea;}.cls-12{fill:#5b8fcb;}.cls-13{fill:#6d99d1;}.cls-14{fill:#161731;}.cls-15{fill:#363636;}.cls-16{fill:#80aadb;}.cls-17,.cls-24{fill:#fbd9d7;}.cls-18{fill:#f8c5cd;}.cls-19{fill:#e7effa;}.cls-20{fill:#2d305b;}.cls-21{fill:#3b4271;}.cls-22{fill:#cee0f5;}.cls-23{fill:#4c84c4;}.cls-24,.cls-25,.cls-26,.cls-28,.cls-29{fill-rule:evenodd;}.cls-27{fill:#006c6c;}.cls-28,.cls-71{fill:#dbe8f8;}.cls-30{fill:#c4d8f2;}.cls-31{fill:#5289c7;}.cls-32,.cls-51,.cls-52,.cls-54,.cls-57,.cls-58,.cls-60,.cls-61,.cls-63{fill:none;}.cls-32,.cls-51,.cls-52,.cls-60,.cls-61{stroke:#fff;}.cls-32,.cls-51,.cls-52,.cls-54,.cls-57,.cls-58,.cls-60,.cls-61{stroke-linecap:round;stroke-linejoin:round;}.cls-33{fill:#d7e1f4;}.cls-34{fill:#a4bce3;}.cls-35{fill:#f0f5fc;}.cls-36{fill:#83a0d3;}.cls-37{fill:#bacdeb;}.cls-38{fill:#d3d1d4;}.cls-39{fill:#2b307e;}.cls-40{fill:#4b494a;}.cls-41{fill:#1f345b;}.cls-42{fill:#7c9ad0;}.cls-43{fill:#e5e5e4;}.cls-44{fill:#136aab;}.cls-45{fill:#8aced7;}.cls-46{fill:#089999;}.cls-47{fill:#1f90ca;}.cls-48{fill:#d1ddf2;}.cls-49{fill:#f8f7f7;}.cls-50{fill:#b7caea;}.cls-51{stroke-width:2.48px;}.cls-52{stroke-width:0.95px;}.cls-53{fill:#a9b2db;opacity:0.4;mix-blend-mode:multiply;}.cls-54{stroke:#073c5d;stroke-width:1.88px;}.cls-55{fill:#f6fbfe;}.cls-56{fill:#7a4e1e;}.cls-57{stroke:#afcfed;stroke-width:1.06px;}.cls-58,.cls-63{stroke:#36529d;}.cls-58{stroke-width:1.09px;}.cls-59{fill:#a9bfe5;}.cls-60,.cls-63{stroke-width:0.77px;}.cls-61{stroke-width:1.1px;}.cls-62{fill:#e4edf9;}.cls-63{stroke-miterlimit:10;}.cls-64{fill:#f49e87;}.cls-65{fill:#f6b68f;}.cls-66{fill:#baccdd;}.cls-67{fill:#232c54;}.cls-68{fill:#f5f5f0;}.cls-69{fill:url(#Áåçûìÿííûé_ãðàäèåíò_15);}.cls-70{fill:#f5b68f;}.cls-72{fill:#f4a086;}.cls-73{fill:#f4a088;}.cls-74{fill:#131c31;}.cls-75{fill:#182b48;}.cls-76{fill:#112c44;}.cls-77{fill:#0a3c5f;}.cls-78{fill:#96bad8;}.cls-79{fill:#242d58;}.cls-80{fill:#007575;}.cls-81{fill:#0c5454;}.cls-82{fill:#2e6e9f;}</style><radialGradient id="Áåçûìÿííûé_ãðàäèåíò_15" cx="499.61" cy="225.07" r="17.53" gradientUnits="userSpaceOnUse"><stop offset="0" stop-color="#f5a680"/><stop offset="1" stop-color="#f5b68f"/></radialGradient></defs><title>Asset 1</title><g class="cls-1"><g id="Layer_2" data-name="Layer 2"><g id="Ñëîé_1" data-name="Ñëîé 1"><path class="cls-2" d="M675.91,96.74s-39.34-42.86-26-81.56c48.46-8.7,66.37,43.87,66.37,43.87L713,109.83Z"/><path class="cls-3" d="M653.25,60.47l25.8-.2L649.63,16.11c.1-.31.19-.61.3-.92l.57-.09,15.75,23.66,6.19-23.15.66.17.58.16L667.2,40.17l26.25,39.42L705.62,39.3l.94,1.32L694.37,81,713,109l-.06.86-1.19-.42L679.9,61.55l-26.12.2Z"/><path class="cls-4" d="M703.7,95.08S697.64,46.9,726.33,31.4c57.77,33.13,19.7,109,19.7,109Z"/><path class="cls-5" d="M726.33,31.4l.66.39,3.16,65.69L757,73.81q.14.74.26,1.48l-27,23.82,1.23,25.66-1.35-1.45-2.4-50L707.66,55q.23-.65.48-1.3l19.49,17.89-1.91-39.8.62-.35Z"/><path class="cls-6" d="M177,129.45S172.59,25.54,100.79,0c-85.48,99.42,12.53,183.22,12.53,183.22Z"/><path class="cls-3" d="M100.79,0l-.88,1,35.66,117.24L65.83,87q0,1.28.09,2.54l70.52,31.63L146.74,155l1.9-1.6L128.13,86h0L156.21,51.7c-.38-.73-.76-1.46-1.16-2.19L127.33,83.34,102.14.51c-.45-.17-.89-.35-1.35-.51Z"/><path class="cls-7" d="M143.78,117.5S75.57,39.38,4.38,55.46c-24.93,84.15,64.7,126.22,64.7,126.22l90.61,4Z"/><path class="cls-5" d="M84,70.23,78.55,115.9,6.07,55.11c-.56.12-1.13.22-1.69.35-.1.33-.18.66-.27,1L42.93,89,.68,95.43c.05.4.11.8.17,1.2L1,97.69,45.26,91l64.69,54.26L36.17,158.86c.72.65,1.44,1.3,2.15,1.92l73.89-13.66,45.94,38.53,1.53.07-.51-2.19L80.64,117.66l5.48-46.24Z"/><path class="cls-2" d="M166.6,248.28A144.56,144.56,0,0,0,196.68,238l-61.3-71.54S51.2,146.22,18.1,194c28.66,65.88,91.9,72.65,137.39,67.72C156.38,255.59,160.42,249.69,166.6,248.28Z"/><path class="cls-3" d="M18.1,194c.18.42.37.83.56,1.24l115.77,18.5L87.22,256.7q1.28.39,2.56.75l47.53-43.24,45.22,7.23-2.3-2.68-88-14.07L63.52,165.55l-2.4.59,27.87,38L18.85,193c-.25.35-.51.68-.75,1Z"/><path class="cls-6" d="M521.66,115.66v55.5c6.06-6,14.69-11.16,24.11-10.22,13.8,1.38,25,10.76,26.56,24.55a29.84,29.84,0,0,1-29.64,33.27c-8.2,0-15.63-8.1-21-13.46v64.33a25.45,25.45,0,0,0,25.45,25.45H695.3a25.45,25.45,0,0,0,25.45-25.45v-154A25.45,25.45,0,0,0,695.3,90.21H547.12A25.45,25.45,0,0,0,521.66,115.66Z"/><path class="cls-4" d="M126.68,115.66v154a25.45,25.45,0,0,0,25.45,25.45H300.32a25.45,25.45,0,0,0,25.45-25.45V214.8a29.68,29.68,0,1,1,0-38.91V115.66a25.45,25.45,0,0,0-25.45-25.45H152.13A25.45,25.45,0,0,0,126.68,115.66Z"/><path class="cls-7" d="M719.38,115.66v58.27a30.13,30.13,0,1,0,0,45.61v50.09a25.45,25.45,0,0,0,25.45,25.45H893.15a25.45,25.45,0,0,0,25.45-25.45v-154a25.45,25.45,0,0,0-25.45-25.45H744.84A25.45,25.45,0,0,0,719.38,115.66Z"/><path class="cls-8" d="M575.09,186.4c-1.42-13-13.67-25.07-26.7-26.33A29.71,29.71,0,0,0,525.05,168V115.66A25.45,25.45,0,0,0,499.6,90.21H351.36a25.45,25.45,0,0,0-25.45,25.4l-.14,60.29a29.68,29.68,0,1,0,0,38.91l.13,54.89a25.45,25.45,0,0,0,25.45,25.39H499.6a25.45,25.45,0,0,0,25.45-25.45V211.49a29.81,29.81,0,0,0,50-25.1Z"/><rect class="cls-9" x="141.98" y="117.24" width="123.51" height="76.39" transform="translate(407.47 310.88) rotate(180)"/><rect class="cls-3" x="143.87" y="117.24" width="119.74" height="76.39" transform="translate(407.47 310.88) rotate(180)"/><path class="cls-8" d="M142.32,120.23H265.16a3,3,0,0,0,3-3h0a3,3,0,0,0-3-3H142.32a3,3,0,0,0-3,3h0A3,3,0,0,0,142.32,120.23Z"/><path class="cls-8" d="M142.32,196.9H265.16a3,3,0,0,0,3-3h0a3,3,0,0,0-3-3H142.32a3,3,0,0,0-3,3h0A3,3,0,0,0,142.32,196.9Z"/><path class="cls-9" d="M231.54,125.79H258a1.46,1.46,0,0,0,1.46-1.46h0a1.46,1.46,0,0,0-1.46-1.46h-26.5a1.46,1.46,0,0,0-1.46,1.46h0A1.46,1.46,0,0,0,231.54,125.79Z"/><path class="cls-9" d="M224.44,125.79h1.9a1.46,1.46,0,0,0,1.46-1.46h0a1.46,1.46,0,0,0-1.46-1.46h-1.9a1.46,1.46,0,0,0-1.46,1.46h0A1.46,1.46,0,0,0,224.44,125.79Z"/><path class="cls-9" d="M208.29,125.79h8.53a1.46,1.46,0,0,0,1.46-1.46h0a1.46,1.46,0,0,0-1.46-1.46h-8.53a1.46,1.46,0,0,0-1.46,1.46h0A1.46,1.46,0,0,0,208.29,125.79Z"/><path class="cls-10" d="M242.45,163.29a2.38,2.38,0,0,0-.35,2.28c.49.43.2-1.15.86-.06a.27.27,0,0,0,.38.09.28.28,0,0,0,0-.46c-.55-.5-.2-1,.08-1.56-.84.27-.84.27-1-.3.46-.08,1,.1,1.52-.19C242.93,162.78,242.93,162.78,242.45,163.29Zm2.85,6.75c-.82-.61-1.38-.26-2.08.33s-1.2,1.91-2.53,2.07c-2,.23-2.31,1.94-1.87,3.54a4.93,4.93,0,0,1,0,1.95c0,.28-.59.51-.18.83s.68,0,1-.14a23.61,23.61,0,0,1,4.27-1.17,3.74,3.74,0,0,1,2.51,1.64c.32,1.23,1.15,1.6,2.38,1.16,1.56-.56,2.41-1.91,3.36-3.1a3.17,3.17,0,0,0,.1-4c-.38-.62-1.22-1.1-1.09-2s-.74-1.61-.82-2.67c-.58.75-.45,1.47-.7,2.07-.13.31-.22.64-.65.6a1.73,1.73,0,0,1-1.1-1.83c.08-.22.17-.36-.11-.52A1.86,1.86,0,0,0,245.29,170Zm1.59-6.52c-.1.09-.51.18-.32.35.56.53.56,1.64,1.65,1.62.61,0,.82.33.81.91s1,1.33,1.45,1c.78-.62,1.19-.46,1.63.31a.49.49,0,0,0,.69.1c.16-.1.07-.24,0-.38a3.87,3.87,0,0,0-2.36-2.74c-.75-.24-1.47-.87-2.29-.05-.34.34-.58,0-.65-.39S247.37,163.58,246.88,163.52Zm-5-2.4c0-.33-.35-.44-.58-.58a.46.46,0,0,0-.71.27,3.49,3.49,0,0,1-1.73,1.72c-.63.39-.54.68-.41,1.2.26,1.11,1.19,1.15,2,1.24s.47-.82.86-1.18C242.06,163.06,241.12,161.92,241.84,161.12Zm-28.31,12c0,.84.06,1.53.77,1.7.45.11.75-.4.93-.79a19.1,19.1,0,0,0,1.11-4c.06-.28.17-.73-.23-.87s-.49.32-.63.59-.13.46-.36.52C213.39,170.61,214.48,172.49,213.53,173.09Zm19.64-12a18.2,18.2,0,0,1,2,3,2.41,2.41,0,0,0,.89,1.31c.27.16.65.53.79.1s.72-.95,0-1.38c-.92-.54-1-.83-.48-1.61,0-.05.06-.16,0-.2-.47-.57-.22-1.66-1.31-1.79-.3.64.41,1.15.21,1.79C234.42,162.25,234.33,160.92,233.17,161.07Zm10.31-1.54c.74-1.34.79-1.39,0-2.14-.54-.5-1.11-.89-.83-1.76a.3.3,0,0,0-.28-.39c-.29,0-.35.22-.35.44a7.31,7.31,0,0,0,1.73,4.78c.18.21.27.44.58.28s.3-.39.31-.65C244.66,159.35,244.14,159.38,243.47,159.53Zm2.59-14.2c.13,1.33-.15,1.81-1.4,2.39a1.62,1.62,0,0,0-.79.72c-.17.33.07.62.23.9s.32.14.36,0c.23-.77,1.1-.64,1.53-1.1s1.4-.17.94-1.19C246.69,146.5,247,145.71,246.07,145.33ZM215.58,131a4.72,4.72,0,0,0-2.08.27,1.33,1.33,0,0,0-.82,1.17c0,.5.56.56,1,.5C213.33,131.37,214.71,131.46,215.58,131ZM240.06,167c-.68-1-1.78-.28-2.55-.79-.1-.06-.28.07-.28.24s.08.27.11.27C238.25,166.6,239.06,167.57,240.06,167ZM246,144.65c.32,0,.77,0,.71-.44s-.52-.33-.82-.4-.44.23-.48.47C245.35,144.77,245.75,144.61,246,144.65Zm-17.88,15.51c-.11-.24-.07-.63-.37-.69s-.36.28-.38.51a.5.5,0,0,0,.36.57C228,160.61,228.1,160.41,228.13,160.16Zm13.29,7c-.06,0-.11-.09-.17-.1s-.11.05-.17.08.11.09.16.1S241.35,167.17,241.41,167.14Z"/><path class="cls-10" d="M243.75,141.13a13.22,13.22,0,0,1-.08,2.07c-.1.51,0,1.3-1,1.14-.47-.07-.8,1.57-.4,2a2.88,2.88,0,0,1,.74.93.43.43,0,0,1-.22.64c-.32.15-.43-.07-.56-.32-.45-.87-.9-1.77-2.13-1.66-.35,0-.27-.84-.79-.43a1.41,1.41,0,0,0-.5.81c0,.33.35.46.61.51.47.09.8.19.52.76a.44.44,0,0,0,.13.58c1.2,1-.27,3.68.66,4a2.74,2.74,0,0,1-2.88,1.79,1.14,1.14,0,0,0-1.26.57c-.4.52.23.67.35,1s.37.43.59.62a2,2,0,0,1,0,2.74c-.54.55-.95.68-1.47-.08-.26-.38-.67-1.14-1.19-.75a1.09,1.09,0,0,0,0,1.66c.06.06,0,.2.06.36-.64.06-.88-.24-.82-.82a4.49,4.49,0,0,0-.3-1.93c-.15-.43-.16-1.17-1-.91-.28.08-.35-.27-.44-.52a9.5,9.5,0,0,0-.65-1.6,1.22,1.22,0,0,0-2.25,0,4.19,4.19,0,0,1-.85,1.12,3,3,0,0,0-1.29,2.63c0,.18,0,.43-.09.52-.35.33-.18,1.15-.88,1.1s-.46-.71-.64-1.11c-.67-1.5-1.45-3-1.23-4.83-.67.43-.95.25-1.39-.27a3.18,3.18,0,0,0-2.66-1.4,4.92,4.92,0,0,1-4.37-1.79c-.14-.18-.29-.35-.54-.21a.4.4,0,0,0-.18.56c.46.69.93,1.38,1.45,2a.54.54,0,0,0,.72,0c.91-1,1.25.21,1.76.5.71.39,0,.88-.1,1.3-.44,1.41-1.81,1.75-2.87,2.42-.31.2-.76.21-1.05.52a1.1,1.1,0,0,1-1.31.18,6.56,6.56,0,0,0-.46-1.88c-.84-1.45-1.69-2.9-2.55-4.34-.14-.24-.25-.62-.62-.44s-.16.56,0,.82c.51.95.9,1.94,1.33,2.92.49,1.13.89,2.48,2.33,2.91-.08,1,.38,1.28,1.27,1,.47-.15,1-.06,1.48-.45a6.35,6.35,0,0,1-1.7,4.21c-.61.63-1.18,1.28-1.77,1.93a3.36,3.36,0,0,0-.55,3.65,2.73,2.73,0,0,1-1,3.44c-.59.49-1.36.93-.86,1.94.08.16,0,.55-.07.62-1.12.73-1.11,2.12-1.86,3.08a4.71,4.71,0,0,1-3.55,1.6c-.52.06-.72-.36-.79-.75a4.75,4.75,0,0,0-1-2.49.75.75,0,0,1-.14-.51,6,6,0,0,0-1-3.41,2,2,0,0,1,.18-1.89c.9-1.75.29-3.29-.69-4.64a2.16,2.16,0,0,1-.44-2.15c.28-.88.12-1.46-1-1.33-.1,0-.26,0-.3-.05-.76-1.17-1.64-.65-2.58-.26a3.56,3.56,0,0,1-4.63-1.75,3,3,0,0,0-.65-.87,1.58,1.58,0,0,1-.49-1.88c.39-1,1.2-5.52,2.41-6.09a.59.59,0,0,0,.34-.53,1.94,1.94,0,0,1,.94-1.61c.49-.36.8-1,0-1.36-.47-.23-.46-.61-.4-1a8.58,8.58,0,0,0,.17-1.07c0-.8.36-1.05,1.11-.83a3.13,3.13,0,0,0,.64.09c.86.06,1.2-.66.8-1.09-1.09-1.17-.27-1.4.79-1.68-.59-.52-1.13-.18-1.76-.16.14-.48.23-.89.37-1.28.07-.19.31-.39,0-.53a.37.37,0,0,0-.52.26,1,1,0,0,1-1.11.95c-.18,0-.23-.14-.21-.3.09-.61.28-1.13,1-1.2.42,0,.45-.34.35-.64s-.5-.6.17-.64c.47,0,1.1-.07,1.08.56,0,.93.8,1.33,1.07,2.05.12.33.45.23.62,0a1.89,1.89,0,0,1,1.17-.73c.42-.07.33-.4.22-.69a.51.51,0,0,1,.27-.73c.35-.14.44.06.45.38s.19.18.32.11.21-.38.13-.58-.17-.58-.54-.61a.54.54,0,0,0-.3.1c-.36.24-.78.47-1-.07s-.5-1.15.2-1.56a11.67,11.67,0,0,0,2.54-2.31,3.56,3.56,0,0,1,3.49-.75c.87.23,1.76.45,2.61.76.34.12.73.14.9.54.27.63.7.32,1.09.18a13.29,13.29,0,0,1,1.65-.58,19.84,19.84,0,0,0,3.86-.52c0-.41-.19-1,.29-1.19.72-.36,1.31.46,1.33.46,1.18.13,1.93-.68,2.81-1.25a3.36,3.36,0,0,1,1.24-.36c.33-.06.74.29,1-.15s-.67-.32-.43-.82c.27-.25.56,0,.78.08.68.34,1.32.78,2.15.48a.48.48,0,0,1,.39.14c1.45,1.47,3.4.94,5.13,1.27.18,0,.44,0,.52.09.75.88,1.73.52,2.54.33a5.26,5.26,0,0,1,3,0c1.34.51,2.78,0,4.1.78.65.39,1.71.1,2.58.13l.34.18.06-.13-.41,0c.73-.57,1.47,0,2.2,0,1.66.07,3.17.82,4.77,1.19.23.05.29.31.3.54l0,0a4.31,4.31,0,0,1-1.59-.35c-.21-.05-.46-.15-.62,0s0,.4.12.59a1,1,0,0,1-.79,1.47,5.54,5.54,0,0,0-.75.11c-.54.18-.77.59-.26.95,1,.69.85,1.66.88,2.74a6.79,6.79,0,0,1-2.12-2.08c-.34-.44.1-1,.13-1.47.05-.8.1-.8-.62-.55-.24.09-.41-.09-.61-.16s-.5-.2-.59,0c-.5,1.31-1.62.8-2.52.87s-1.64.76-1.53,1.56c.07.57.67.67,1.15.74a2.69,2.69,0,0,1,1.86.74l0,0c-.19,0-.38.09-.29.33a.49.49,0,0,0,.53.3ZM204,145.56a3.45,3.45,0,0,1-1.9-1c-.54-.63-2-.43-2.63,0-1.18.83-1.16,2.76-3,3a1.9,1.9,0,0,0,1.54.05,7.47,7.47,0,0,1,2.88-.52c.7,0,1.15.09,1,.93-.06.47.15.82.65.82s.76.38,1.14.55,1.22,1.18,1.6-.22a.53.53,0,0,1,.84-.21,6.11,6.11,0,0,0,3.1.63c1.27.11,1.31-.58,1.43-1.39.16-1.14-.7-.89-1.29-.88-1.06,0-1.88-.21-2.14-1.39-.06-.27-.1-.65-.53-.53s-.49.4-.32.78a.55.55,0,0,1-.31.8c-.33.1-.55-.26-.6-.52-.28-1.36-1.34-2.11-2.27-3-.19-.17-.37-.41-.64-.16s0,.44.09.66C202.84,144.58,203.53,144.76,204,145.56Zm7.39-.27c.47,0,.81,0,.92-.32s-.21-.5-.39-.72-.95-.3-1-.9c0-.22.29-.52-.13-.63a.59.59,0,0,0-.75.45c-.12.36-.38.54-.61.18s-.61-.65-.93-.27-1,.95-.77,1.69c.06.24.32.5.57.42A4,4,0,0,1,211.35,145.29Zm4.8,1.94c.66-.09.73-.5.53-1a6,6,0,0,0-1.06-2c-.27-.27-.47-.53-.07-.91.56-.54.06-.63-.36-.68s-.81.28-1.08.62-.05.8.19,1.08a2.38,2.38,0,0,1,.77,1.82C215,146.85,215.72,147,216.15,147.23Zm-10.31-9.93c-1-.39-1.15-.74-.55-1.66.1-.15.28-.27.21-.47a.32.32,0,0,0-.26-.14c-.38,0-1.53,1.52-1.31,1.73.56.54,0,.88-.1,1.33-.21.64-.95.75-1.22,1.32,1.57.36,2.3,0,2.55-1.34C205.24,137.64,205.53,137.49,205.84,137.3Z"/><path class="cls-10" d="M156,133.26c1.61-1,3.26-.11,4.84.07s3-.09,4.56.08c1,.11,2,0,2.74.75a.43.43,0,0,0,.41,0c.33-.21,1,.45,1-.18s-.6-.06-.88-.26a8.34,8.34,0,0,0-.76-.4l1-.19c-.7-.17-1.22-.94-2.22-.26,1-1.27,1.85-1.49,3-.95a1.75,1.75,0,0,0,2.67-1c.06-.18-.09-.46.24-.5a.21.21,0,0,1,.24.28c-.11.27.46.49.05.76a2.52,2.52,0,0,0-1.08,1.74c-.12.65-.81.33-1.23.7a1.44,1.44,0,0,0,1.64,0,.79.79,0,0,1,1.18-.15c.62-.65-1-1-.07-1.72.58-.44,1.25,0,1.83-.46-.4-.06-.8-.1-1.19-.18a.32.32,0,0,1-.27-.41c.05-.2.23-.35.41-.22.6.44.52-.08.63-.4a.46.46,0,0,1,.69-.3c.39.22.32.43-.1.57-.2.07-.1.23,0,.35s.2.07.34,0c.43-.19.73-1.12,1.38-.26.08.11.3-.16.27-.35-.07-.56.32-.73.71-.78,2.68-.31,5.34-.83,8.07-.37a16.78,16.78,0,0,0,4.79-.23,5.49,5.49,0,0,1,3.72.36c.6.37,1.21-.28,2,.11-2,.4-2.21,2.3-3.26,3.47a2.57,2.57,0,0,1-1.79.92c-1.39.08-2.44,1.06-3.78,1.29-.47.08-.82.87-1.2,1.35s-.56.67-1.08.58a1.29,1.29,0,0,1-1.19-.95,2.88,2.88,0,0,1,.06-2.12,5,5,0,0,0,.37-1.13c.33-1.52,0-1.84-1.51-1.67-.33,0-.78.13-.89-.22-.43-1.45-1.28-.39-1.65-.15a7,7,0,0,1-1.83.92c.86.55,2,.7,2.26,1.9,0,.15.25.25.37.38s.63.26.53.61-.53.33-.85.33-1-.45-.82.58c.09.47-1.38.86-1.79.4a1.78,1.78,0,0,0-1.54-.57c.4-.67,1.12-.19,1.48-.62.22-.26.84-.28.68-.72a1.29,1.29,0,0,0-.9-.71c-.42,0-1-.05-1.29.41a2.23,2.23,0,0,1-1.81,1c.1.36.63.31.61.79-.76.49-1.53-.37-2.36,0a10.37,10.37,0,0,0-2.27,1.29.87.87,0,0,0,.16,1.56c.81.38,1.86.57,1.69,1.86,0,.09.14.27.24.3a.41.41,0,0,0,.51-.3,1.9,1.9,0,0,1,1.25-1.39c.37-.15.35-.58.4-1,.14-1,1.12-1.88,1.88-1.66.4.11,1,.1.88,1-.12.67.45.62.86.27.76-.64.95-.2,1,.49,0,.54,0,1,.6,1.27a.56.56,0,0,1,.25.46,3.64,3.64,0,0,0,.42,2.29c.21.4,0,.89-.68.64a14.85,14.85,0,0,0-1.51-.37c.06-.59.9-.66.83-1.42-.54.25-1,.47-1.53.73s-1,.28-.88.91.78.06,1.31.4a4.36,4.36,0,0,1-2.46.91c-.72,0-1.4,0-1.83.83-.33.63-1.22.69-1.69,1.29a12.54,12.54,0,0,1-3,3.29c-.64.4-.24,1.23-.32,1.86,0,.32.2.86-.36.86s-.44-.5-.49-.86a1.31,1.31,0,0,0-2.1-.95,1,1,0,0,1-1,.2,1.91,1.91,0,0,0-2.35,1.52,4.88,4.88,0,0,0-.29,2.15c.08.47.18,1,.77,1.07s1.19.14,1.5-.57c.12-.26.22-.56.53-.66a.77.77,0,0,1,.74,0c.23.18,0,.4,0,.59s-.24.45-.32.69c-.2.57-.46,1.17.6,1.05.7-.07.84.39.82,1,0,1.69,0,1.68,1.53,1.93.1,0,.16.22.24.33l-.05.05c-1.79.32-1.79.32-2.88-1.41a1.62,1.62,0,0,0-1.1-.82c-.44-.09-1-.14-1.13-.71a.36.36,0,0,0-.42-.28c-1.11.32-1.94-.4-2.87-.75-.51-.19-.92-.65-.9-1,.08-1.28-.71-2.19-1.2-3.2-.32-.66-.31-1.47-.83-2-.46.17-.15.65-.46.85-.42-.09-.26-.45-.28-.7a1.89,1.89,0,0,0-.58-1.35,2.26,2.26,0,0,1-.43-2.87,10,10,0,0,1,1.38-2.18c.56-.53.24-1.32.3-2h0a4.57,4.57,0,0,0-.41-3.63,1.74,1.74,0,0,0-1.81-.62c-1.08.41-2.46-.17-3.32,1.2-.34.54-1.09-.2-1.53-.67s-.13-.82.32-1.16c.67-.5,1.59-.18,2.25-.74-.21-.44-.91.23-.91-.41C152.36,134.65,155.29,133.68,156,133.26Zm26.6-3.25c.51.1,1,.3,1.37-.21Zm-5.18,11.57.17-.1c-.05,0-.11-.1-.16-.1s-.12.06-.18.09Z"/><path class="cls-10" d="M169.21,159.53a.78.78,0,0,0,.82-.39,1.85,1.85,0,0,1,2.64-.76c.3.14.59.38.91.29a2.1,2.1,0,0,1,2.52,1,2.28,2.28,0,0,0,1.79,1.06,1.35,1.35,0,0,1,1.2,1.13c.34,1.58,1.71,2.11,3,2.45a10.77,10.77,0,0,1,2.59,1.25,1.25,1.25,0,0,1,.45,1.55,3.9,3.9,0,0,1-.65,1.13,2.91,2.91,0,0,0-.76,2.2,6.86,6.86,0,0,1-.46,2.34c-.18.72-2.56,1.85-2.52,2.69a5.39,5.39,0,0,1-1.15,2.74c-.35.6-1.22.87-1,1.8,0,.18-.28.37-.49.36-.89-.05-.88,1.07-1.62,1.21-.14,0-.07.25,0,.37a1,1,0,0,1-.07,1.29c-.08.1-.15.35-.1.39.92.85.19,1.92.41,2.85l0,0c-.54.47-1,.37-1.43-.18a5.15,5.15,0,0,1-1.66-3.5,14.46,14.46,0,0,0-.74-2.5,1.5,1.5,0,0,1,.14-1.35,1.32,1.32,0,0,0,.12-1.27c-.65-1.41-.35-2.87-.36-4.31a2.89,2.89,0,0,0-2-3.1,1.32,1.32,0,0,1-.92-1.19,5.16,5.16,0,0,0-1.53-2.79c-.16-.15-.43-.31-.36-.5.32-.92-.45-2,.67-2.86s.88-2.19.58-3.41Z"/><path class="cls-10" d="M245.29,170a1.86,1.86,0,0,1,2.55-1.26c.28.16.19.3.11.52a1.73,1.73,0,0,0,1.1,1.83c.43,0,.52-.28.65-.6.25-.6.12-1.32.7-2.07.08,1.06,1,1.66.82,2.67s.71,1.4,1.09,2a3.17,3.17,0,0,1-.1,4c-.95,1.19-1.79,2.53-3.36,3.1-1.23.44-2.06.07-2.38-1.16a3.74,3.74,0,0,0-2.51-1.64,23.61,23.61,0,0,0-4.27,1.17c-.34.1-.7.4-1,.14s.14-.54.18-.83a4.93,4.93,0,0,0,0-1.95c-.44-1.59-.1-3.3,1.87-3.54,1.33-.16,1.7-1.37,2.53-2.07S244.47,169.43,245.29,170Z"/><path class="cls-10" d="M246.88,163.52c.49.06.58.37.64.71s.3.73.65.39c.82-.82,1.54-.19,2.29.05a3.87,3.87,0,0,1,2.36,2.74c0,.14.13.29,0,.38a.49.49,0,0,1-.69-.1c-.44-.77-.85-.93-1.63-.31-.43.34-1.46-.41-1.45-1s-.19-.92-.81-.91c-1.09,0-1.09-1.09-1.65-1.62C246.37,163.7,246.78,163.62,246.88,163.52Z"/><path class="cls-10" d="M241.84,161.12c-.72.8.22,1.94-.57,2.67-.38.35-.07,1.27-.86,1.18s-1.74-.14-2-1.24c-.12-.53-.22-.81.41-1.2a3.49,3.49,0,0,0,1.73-1.72.46.46,0,0,1,.71-.27C241.48,160.69,241.79,160.79,241.84,161.12Z"/><path class="cls-10" d="M213.53,173.09c.95-.6-.14-2.48,1.6-2.9.23-.05.26-.33.36-.52s.18-.74.63-.59.29.59.23.87a19.1,19.1,0,0,1-1.11,4c-.18.39-.48.9-.93.79C213.59,174.62,213.54,173.93,213.53,173.09Z"/><path class="cls-10" d="M233.17,161.07c1.16-.15,1.26,1.18,2.16,1.23.2-.64-.52-1.15-.21-1.79,1.09.13.84,1.23,1.31,1.79,0,0,0,.15,0,.2-.52.78-.44,1.07.48,1.61.73.43.13,1,0,1.38s-.51.07-.79-.1a2.41,2.41,0,0,1-.89-1.31A18.2,18.2,0,0,0,233.17,161.07Z"/><path class="cls-10" d="M243.47,159.53c.66-.15,1.18-.18,1.14.58,0,.26,0,.52-.31.65s-.41-.07-.58-.28a7.31,7.31,0,0,1-1.73-4.78c0-.22.05-.46.35-.44a.3.3,0,0,1,.28.39c-.27.86.29,1.25.83,1.76C244.27,158.14,244.22,158.19,243.47,159.53Z"/><path class="cls-10" d="M246.07,145.33c.88.38.63,1.17.88,1.72.47,1-.59.82-.94,1.19s-1.3.33-1.53,1.1c0,.13-.28.13-.36,0s-.4-.57-.23-.9a1.62,1.62,0,0,1,.79-.72C245.91,147.14,246.2,146.66,246.07,145.33Z"/><path class="cls-10" d="M242.43,163.28c.19.58.19.58,1,.3-.28.55-.63,1.06-.08,1.56a.28.28,0,0,1,0,.46.27.27,0,0,1-.38-.09c-.66-1.09-.37.49-.86.06a2.38,2.38,0,0,1,.35-2.28Z"/><path class="cls-10" d="M215.58,131c-.87.43-2.25.34-1.88,2-.46.06-1,0-1-.5a1.33,1.33,0,0,1,.82-1.17A4.72,4.72,0,0,1,215.58,131Z"/><path class="cls-10" d="M240.06,167c-1,.61-1.81-.35-2.73-.28,0,0-.11-.18-.11-.27s.18-.31.28-.24C238.28,166.67,239.38,166,240.06,167Z"/><path class="cls-10" d="M246,144.65c-.26,0-.66.12-.58-.38,0-.23.15-.56.48-.47s.77.05.82.4S246.33,144.63,246,144.65Z"/><path class="cls-10" d="M176.65,186.53c.62,0,.7.74,1.22.9-.84.28-1.31.06-1.23-.88Z"/><path class="cls-10" d="M228.13,160.16c0,.25-.12.45-.39.4a.5.5,0,0,1-.36-.57c0-.23.06-.58.38-.51S228,159.92,228.13,160.16Z"/><path class="cls-10" d="M242.45,163.29c.48-.52.48-.52,1.51-.2-.55.29-1.06.11-1.52.19Z"/><path class="cls-10" d="M241.41,167.14c-.06,0-.12.08-.18.08s-.11-.06-.16-.1.11-.08.17-.08S241.35,167.1,241.41,167.14Z"/><path class="cls-10" d="M243.76,140.69c.25.15.25.3,0,.44h0c0-.15,0-.29,0-.44Z"/><path class="cls-10" d="M251.45,135.2l.08.11-.11-.08Z"/><path class="cls-10" d="M243.56,140.45l.2.24h0l-.23-.2Z"/><path class="cls-10" d="M157.77,141.14l-.09,0,.1,0Z"/><path class="cls-10" d="M243.52,140.5l.23.2c0,.15,0,.29,0,.44a.49.49,0,0,1-.53-.3C243.14,140.59,243.32,140.53,243.52,140.5Z"/><path class="cls-10" d="M244.19,133.46l.41,0-.06.13-.34-.18Z"/><path class="cls-10" d="M182.58,130l1.37-.21C183.58,130.31,183.09,130.11,182.58,130Z"/><path class="cls-10" d="M177.4,141.57l-.17-.11c.06,0,.12-.09.18-.09s.11.07.16.1Z"/><path class="cls-7" d="M176.77,131.23a9.27,9.27,0,1,0-18.54,0c0,5.12,9.27,16.73,9.27,16.73S176.77,136.34,176.77,131.23Z"/><circle class="cls-3" cx="167.5" cy="131.22" r="6.59"/><polygon class="cls-10" points="172.2 130.34 168.43 130.34 168.43 126.56 166.57 126.56 166.57 130.34 162.79 130.34 162.79 132.2 166.57 132.2 166.57 135.97 168.43 135.97 168.43 132.2 172.2 132.2 172.2 130.34"/><path class="cls-7" d="M218.23,155.73a9.27,9.27,0,1,0-18.54,0c0,5.12,9.27,16.73,9.27,16.73S218.23,160.85,218.23,155.73Z"/><circle class="cls-3" cx="208.96" cy="155.73" r="6.59"/><polygon class="cls-10" points="213.67 154.84 209.9 154.84 209.9 151.07 208.03 151.07 208.03 154.84 204.26 154.84 204.26 156.7 208.03 156.7 208.03 160.48 209.9 160.48 209.9 156.7 213.67 156.7 213.67 154.84"/><path class="cls-7" d="M248.62,132.24a9.27,9.27,0,0,0-18.54,0c0,5.12,9.27,16.73,9.27,16.73S248.62,137.36,248.62,132.24Z"/><circle class="cls-3" cx="239.35" cy="132.24" r="6.59"/><polygon class="cls-10" points="244.06 131.35 240.29 131.35 240.29 127.58 238.42 127.58 238.42 131.35 234.65 131.35 234.65 133.21 238.42 133.21 238.42 136.99 240.29 136.99 240.29 133.21 244.06 133.21 244.06 131.35"/><rect class="cls-8" x="177.88" y="247.82" width="4.47" height="10.27"/><path class="cls-8" d="M201.34,243a2.53,2.53,0,0,1-2.53,2.53H177.76l-1.51-.47c-3.8-1.21-13.51-4.37-14.16-5.39-.8-1.26-4.34-34.43-4.34-34.43h21.06a2.53,2.53,0,0,1,2.72,2.32l2.1,26.48a7,7,0,0,0,7,6.43h8.22A2.53,2.53,0,0,1,201.34,243Z"/><path class="cls-11" d="M188.7,248.8H174a3.91,3.91,0,0,1-3.91-3.91h22.53A3.91,3.91,0,0,1,188.7,248.8Z"/><path class="cls-12" d="M201.34,243a2.53,2.53,0,0,1-2.53,2.53H176.24v-5.06h22.57A2.53,2.53,0,0,1,201.34,243Z"/><path class="cls-11" d="M177.75,245.58h-8.22a12.1,12.1,0,0,1-12-11.09L155.43,208a2.53,2.53,0,0,1,5-.4l2.1,26.48a7,7,0,0,0,7,6.43h8.22a2.53,2.53,0,0,1,0,5.06Z"/><path class="cls-8" d="M178.35,266.3h3.33a0,0,0,0,1,0,0v5.94A1.66,1.66,0,0,1,180,273.9h0a1.66,1.66,0,0,1-1.66-1.66V266.3A0,0,0,0,1,178.35,266.3Z"/><path class="cls-13" d="M199.65,274.05a3.23,3.23,0,0,0-2.06-4.07l-15.07-5v-6.77h-5v6.84L162.64,270a3.23,3.23,0,0,0-2.06,4.07l19.53-6.42h0Z"/><circle class="cls-11" cx="198.29" cy="273.6" r="2.6"/><circle class="cls-11" cx="180.01" cy="274.79" r="2.34"/><path class="cls-13" d="M180.12,255.3h0a3.94,3.94,0,0,1,3.94,3.94v6.33a0,0,0,0,1,0,0h-7.88a0,0,0,0,1,0,0v-6.33A3.94,3.94,0,0,1,180.12,255.3Z"/><circle class="cls-11" cx="164.25" cy="273.6" r="2.6"/><path class="cls-14" d="M215.32,275.08c-2.69-.06-6.87-.41-10.2-.73l-.06-.05,0,0L201.3,274l-.05-3.14a17.3,17.3,0,0,0,5.66-.73s5.08,3.22,7,3.85A2,2,0,0,1,215.32,275.08Z"/><path class="cls-15" d="M205,274.34l-.61,1.16a11.41,11.41,0,0,1-3.1,0l0-1.55Z"/><path class="cls-14" d="M215.35,275.94a53.62,53.62,0,0,1-9-.37l-1.27-1.22c3.32.32,7.51.66,10.2.73A1.41,1.41,0,0,1,215.35,275.94Z"/><path class="cls-14" d="M205.25,275.27c-2.69-.06-6.87-.41-10.2-.73l-.06-.06,0,0-3.74-.37-.05-3.14a17.3,17.3,0,0,0,5.66-.73s5.08,3.22,7,3.85A2,2,0,0,1,205.25,275.27Z"/><path class="cls-14" d="M195,274.53l-.61,1.16a11.4,11.4,0,0,1-3.1,0l0-1.55Z"/><path class="cls-14" d="M205.29,276.13a53.69,53.69,0,0,1-9-.37l-1.27-1.22c3.32.32,7.51.66,10.2.73A1.41,1.41,0,0,1,205.29,276.13Z"/><path class="cls-11" d="M209,241c.77,8.71-1,25.94-1.59,30,0,0-3.45,1.21-6.26.21L199.51,243a1.21,1.21,0,0,0-.9-1.1l-14.24-3.73h-2.12l-2.68-10.59s14-1.93,14.36-.84C194,227,208.54,235.36,209,241Z"/><path class="cls-16" d="M199.65,245.43s-.08-2.78-.6-3.32-2.75-.5-2.75-.5l.93-3.15s-2.16-3.62-3.55-4a5,5,0,0,1-2.26-1.56l2.29.33s2.12,1.36,2.79,1.89a15.24,15.24,0,0,1,3.32,5.66c.83,2.6,1.45,9.15,1.52,12.22s1.26,18.62,1.26,18.62l-1.42-.4Z"/><path class="cls-11" d="M198.24,240c-.36,9.1-.26,26.88-.88,30.94,0,0-3.45,1.21-6.26.21L188.72,242a.86.86,0,0,0-.85-.8c-2.37,0-9.41-.31-11.7-2.54-2.72-2.64-2.2-11.11-2.2-11.11s9.47-1.88,9.87-.79C183.93,227,198.46,234.41,198.24,240Z"/><path class="cls-11" d="M190.95,197.57c6.33,2,4.36,21.63,3.69,22.13s-5.76-1.11-6-2.48S186,196,190.95,197.57Z"/><path class="cls-17" d="M191.81,220.76A49.24,49.24,0,0,0,208,222l-.28-2.78s-8.79-2-12.89-3.52C194,215.43,190.76,220.52,191.81,220.76Z"/><path class="cls-11" d="M190.7,220.83a39.5,39.5,0,0,0,15,1.91s.67-4,.3-4.6-10.29-2.8-14.52-3.48C190.06,214.42,186.53,219.46,190.7,220.83Z"/><path class="cls-7" d="M181.07,196.07a15.76,15.76,0,0,0-7.62,3.73s3.43,1.66.82,7.85l-.19,21.55a67.23,67.23,0,0,0,21.38-2.09s0-23.67-2.25-27.18C190.67,196,186.36,195.47,181.07,196.07Z"/><path class="cls-17" d="M183,193.33l-.7,3.78s1.09,2.68,3.08,2.68,2-2.68,2-2.68v-3.78Z"/><path class="cls-17" d="M191.38,186.3c0,4.7-1.55,8.5-6.24,8.5-3.45,0-6.24-3.81-6.24-8.5s2.79-8.5,6.24-8.5S191.38,181.6,191.38,186.3Z"/><path class="cls-17" d="M179.73,185.2s-1.73-.95-2.21,0,.72,3.92,2.21,3.29S179.73,185.2,179.73,185.2Z"/><path class="cls-14" d="M189.42,180a14.6,14.6,0,0,1,2,6.31,8.65,8.65,0,0,0-.26-8.21Z"/><path class="cls-18" d="M189.89,180.84s.56,1.29.66,1.58a32.59,32.59,0,0,1-6-.57c-1.89-.53-4.94.73-4.94.73l2.41-2.79Z"/><path class="cls-18" d="M187.38,194.44a4.49,4.49,0,0,1-2.57.34,5.82,5.82,0,0,0,2.57,1Z"/><path class="cls-14" d="M179.1,185.24s.48-3.92,2.45-4.24,5.6.16,7.46,0c3.46-.29,3.57-3.84,2.77-4.56-1.57-1.42-6.29-.62-8.37-.12s-6.62,1.75-5.88,8.88C177.52,185.2,178.51,184.23,179.1,185.24Z"/><path class="cls-14" d="M178.1,187.78a7.69,7.69,0,0,0,2.2,3.88s-1-2.56-1.16-3.1A1.46,1.46,0,0,1,178.1,187.78Z"/><path class="cls-16" d="M189.55,228.6s6.21,4.38,7.46,4.65l2.81-2.53-2.81-2S190,227.27,189.55,228.6Z"/><path class="cls-3" d="M182.55,195.87a55,55,0,0,1,4.19,9s3.33,23.77,3.49,24.88,5.22,3.64,5.22,3.64-7.24,8.31-10.6,8.9a24.19,24.19,0,0,0-8.61-1.74c-1.64,0-3.49-9.87-3.37-14.14s1.38-27.54,3.37-28.9A9.2,9.2,0,0,1,182.55,195.87Z"/><path class="cls-19" d="M176.55,198.17a7.82,7.82,0,0,1,3,5.48c.43,3.78.22,11,.75,11.61s8,3.48,8,3.48l-10.55-1.56Z"/><path class="cls-11" d="M175.27,198.1c-6.09,2.62-2.53,21.74-2,22.38,2.14,2.6,5.57-.38,5.7-1.78S180,196.06,175.27,198.1Z"/><path class="cls-3" d="M187.38,196.13s-.3,6.58-.65,8.7c0,0,3,22.75,3.29,23.45s7,4.2,7,4.2a10.59,10.59,0,0,1,2.76-2.33s-3.08-2.46-3.77-3.08c0,0,.94-26.2-4.57-29.33C190.65,197.27,188.78,196.05,187.38,196.13Z"/><path class="cls-17" d="M175.86,221.7a44.12,44.12,0,0,0,15.39.86l-.35-2.77s-8.38-1.81-12.3-3.18C177.74,216.31,174.86,221.49,175.86,221.7Z"/><path class="cls-11" d="M174.81,221.8a47,47,0,0,0,14.92,2.07s.28-4.58-.09-5.12-10.24-2.57-14.26-3.14C174,215.41,170.82,220.53,174.81,221.8Z"/><path class="cls-17" d="M196,219.88a4.13,4.13,0,0,0-2.65-.8c-1.33,0-4,.92-3.38,2.66a1.18,1.18,0,0,0,1.76.71c.34-.15.93-.79,1.28-.9a1.47,1.47,0,0,1,1.29.07,7,7,0,0,0,1.74.56c.48.08,1.37.26,1.54-.44S196.58,220.2,196,219.88Z"/><path class="cls-2" d="M227.88,218.51l-.05,0-.7-.4-.19-.11-.09-.05c-.5-.3-1-.61-1.45-.93l-.18-.13-.07-.05a16.35,16.35,0,0,1,.55-4l1.61,1.83L226,212a7.62,7.62,0,0,1,1.68-2.51L229,211l-.57-2.15a9.7,9.7,0,0,1,3-1.51A8.07,8.07,0,0,1,232,212l-1.64.36,1.55.19a12,12,0,0,1-.95,2.91A6.19,6.19,0,0,1,227.88,218.51Z"/><path class="cls-3" d="M230.57,210c0,.05-1.46,4-3.44,8.09l-.19-.11c2-4.08,3.41-8,3.43-8.06a.11.11,0,0,1,.14-.06A.11.11,0,0,1,230.57,210Z"/><path class="cls-7" d="M226.48,218.58h0l-.6.18-.16,0-.08,0c-.44.12-.88.23-1.31.32l-.17,0h-.07a12.5,12.5,0,0,1-1.82-2.53l1.88.09-2.2-.8a6.18,6.18,0,0,1-.41-2.37l1.53.12-1.47-.87a8.32,8.32,0,0,1,.84-2.56,5.92,5.92,0,0,1,2.85,2.23l-.72,1.15,1-.79a9.37,9.37,0,0,1,1,2.16A5.25,5.25,0,0,1,226.48,218.58Z"/><path class="cls-3" d="M223.45,212.26s1.33,3.07,2.42,6.5l-.16,0c-1.09-3.41-2.4-6.43-2.41-6.48a.09.09,0,0,1,0-.12A.08.08,0,0,1,223.45,212.26Z"/><polygon class="cls-20" points="228.9 223.27 224.07 223.27 223.57 218.25 229.4 218.25 228.9 223.27"/><path class="cls-21" d="M229.73,218.79h-6.49c-.22,0-.39-.24-.39-.55h0c0-.3.17-.55.39-.55h6.49c.22,0,.39.24.39.55h0C230.12,218.55,229.95,218.79,229.73,218.79Z"/><path class="cls-3" d="M221.72,223H201.27l3.15-16.41a.81.81,0,0,1,.79-.66H224a.81.81,0,0,1,.79,1Z"/><polygon class="cls-12" points="201.41 222.26 192.38 222.94 201.27 222.96 201.41 222.26"/><polygon class="cls-19" points="192.38 222.94 192.38 223.55 201.27 223.56 201.27 222.96 192.38 222.94"/><polygon class="cls-12" points="221.72 222.96 201.27 222.96 201.27 223.56 221.72 223.43 221.72 222.96"/><rect class="cls-10" x="170.03" y="224.33" width="3.73" height="52.21" transform="translate(343.79 500.88) rotate(180)"/><rect class="cls-10" x="185.27" y="224.33" width="3.73" height="52.21" transform="translate(374.28 500.88) rotate(180)"/><rect class="cls-13" x="233.68" y="224.33" width="3.73" height="51.48" transform="translate(471.1 500.14) rotate(180)"/><rect class="cls-13" x="248.93" y="224.33" width="3.73" height="51.48" transform="translate(501.59 500.14) rotate(180)"/><rect class="cls-13" x="223.81" y="223.28" width="32.83" height="2.11" transform="translate(480.46 448.66) rotate(180)"/><rect class="cls-10" x="162.96" y="223.28" width="62.2" height="2.11" transform="translate(388.12 448.66) rotate(180)"/><path class="cls-11" d="M310,275.94h0a1.45,1.45,0,0,0,1-1.73l-7.94-33.86-4.56,1.2,9.69,33.4A1.45,1.45,0,0,0,310,275.94Z"/><path class="cls-8" d="M296.6,276.22h0a1.45,1.45,0,0,0,1.24-1.6l-4-34.54-4.67.67L295,275A1.45,1.45,0,0,0,296.6,276.22Z"/><path class="cls-11" d="M261.54,274.4l6.83-30.66c1.53,0,3.2,0,4.78-.24l-8.79,31.6a1.45,1.45,0,0,1-2.82-.71Z"/><path class="cls-8" d="M277.74,246.25a.75.75,0,0,0,.31,0,13.17,13.17,0,0,0,4.75-3.83L277.63,275a1.45,1.45,0,0,1-2.88-.38Z"/><path class="cls-22" d="M266.15,245.52a2.38,2.38,0,0,0,2.38,2.39H288.4l1.43-.45c3.59-1.14,12.75-4.12,13.36-5.08.76-1.19,4.09-32.48,4.09-32.48H287.41a2.38,2.38,0,0,0-2.57,2.19l-2,25a6.62,6.62,0,0,1-6.57,6.07h-7.75A2.38,2.38,0,0,0,266.15,245.52Z"/><path class="cls-23" d="M266.15,245.52a2.38,2.38,0,0,0,2.38,2.39h21.29v-4.77H268.53A2.38,2.38,0,0,0,266.15,245.52Z"/><path class="cls-8" d="M288.4,247.91h7.75a11.42,11.42,0,0,0,11.32-10.46l2-25a2.38,2.38,0,0,0-4.75-.38l-2,25a6.62,6.62,0,0,1-6.57,6.07H288.4a2.39,2.39,0,1,0,0,4.77Z"/><path class="cls-17" d="M249.4,270.58h0s-1.18-24.26-1.11-27.59,16.39-7.81,16.39-7.81c1.39-8,3.45-.56,3.71.85s-11.81,4.73-12.63,6.88c-.62,1.62-1.65,16.62-2.12,23.9h0l-.35,5.83-3.87-.22Z"/><path class="cls-17" d="M261.41,272.48s-4.48-20.56-4.71-23.89,13.23-12.46,13.23-12.46c.64-8.08,7.79-3.43,8.18-2.06s-13.36,11.53-14,13.75c-.47,1.67.24,12.67.72,19.21.11,1.46.44,5.31.44,5.31Z"/><path class="cls-14" d="M281.52,202.4c-1.91,1-2.46-1.89-2.42-3.26s.26-2.74.19-4.11c-.1-2.2-1-4.24-3-5a11.09,11.09,0,0,0-6.26-.23c-1.67.41-4,1.38-4.76,3.16-.1.22.1.29.22.17a14.73,14.73,0,0,0-.13,5.51c.33,1.9,1.93,5.29-.41,6.44-.11.05-.21.28-.07.35a12.11,12.11,0,0,0,4.67.75,25.58,25.58,0,0,0,5.2,0,22.32,22.32,0,0,0,4.48-1.48,4.27,4.27,0,0,0,2.44-2.08C281.75,202.47,281.67,202.32,281.52,202.4Z"/><path class="cls-24" d="M275.58,206.57c-.67-.62-.44-3.69-.44-3.69s-5.23-1.84-4.48-.26a6,6,0,0,1,.25,3.76c-.19.53-1.81.68-1.81.68s-1,4.05,2.2,4.24,8.21-3.69,8.21-3.69a3,3,0,0,0-2.08-.57,2.84,2.84,0,0,1-1.85-.47Z"/><path class="cls-24" d="M278.08,193.73s.63,9.7-4.77,11-7.89-7.39-7.72-10.88,9.84-8.24,12.49-.13Z"/><path class="cls-24" d="M270.65,208s-2.89-.45-5.31,4.67c-1.59,3.36-5.46,12.08-6.07,12.83s-5.19,2.49-5.19,2.49l1,2.12s6.9-1.47,7.7-2.49S271.09,210.47,270.65,208Z"/><polygon class="cls-18" points="248.29 247.85 248.46 249.49 254.82 250.52 254.82 248.62 248.29 247.85"/><polygon class="cls-18" points="256.76 249.19 256.96 250.52 263.97 250.07 264.03 248.44 256.76 249.19"/><path class="cls-25" d="M282.35,219.33a20.07,20.07,0,0,1,3.63,9.44c.32,2.92.92,14.36-1.14,14.36-7.42,0-19-1-18.31,4.77-6.16,2.74-16.68,1.65-20.22-1.18-.94-13,18.89-11.08,20-15.23a59.19,59.19,0,0,0,1.36-11.9S279.11,220.37,282.35,219.33Z"/><path class="cls-26" d="M264.08,231.95c.29-1.56,2.76-10.81,2.66-11.17a13.41,13.41,0,0,0-1-2.23l0,0a9.72,9.72,0,0,1-1.14-3.95c-.13-2.62,1.15-4.23,2.58-5.93l2-1.59s-.82,1.69,1.28,3.11c3.77,2.54,6.93-3.12,6.93-3.12l2.66.35c-2.62,3.21.17,8.39.17,8.39,2.17,4,2.9,6.52,5.44,14.37C285.87,235.54,263.27,236.25,264.08,231.95Z"/><path class="cls-27" d="M277,219.44s-5.58,2-10.3,1.34a13.41,13.41,0,0,0-1-2.23C266,218.76,268,220.32,277,219.44Z"/><path class="cls-28" d="M276.62,206.83s-.95,19.9,1.74,29.19c0,0,6.19-.66,8.42-5.37C282.94,222.5,279,207,279,207Z"/><path class="cls-24" d="M277.11,196.34s2.5-1.33,2.07,1.45c-.3,1.91-1.68,1.76-2.46.54a1.4,1.4,0,0,1,.39-2Z"/><path class="cls-24" d="M276.36,231.81s-3.6,1.74-4.4,1.73a1.42,1.42,0,0,1-1.21-1.35s-.65-.68-.6-1.2a.94.94,0,0,1-.36-.88c0-.23.64-.28.86-.24.64.11,1.56.78,1.85.41s-.37-.91-.84-.87-2.25-.09-2-.84,2.11-.3,2.63-.33,2.89-.33,3.76.68S276.36,231.81,276.36,231.81Z"/><path class="cls-3" d="M273.84,234.75l-.48,0c0-.33.82-8,4.47-7.8,2.74.13,5.15,7.35,5.25,7.65l-.46.15c-.66-2-2.82-7.23-4.82-7.32C274.6,227.25,273.85,234.68,273.84,234.75Z"/><path class="cls-14" d="M243.26,275.28s.08.53.16.58a23.65,23.65,0,0,0,9.44-.86.84.84,0,0,0,.56-.71l0-.26Z"/><path class="cls-14" d="M253.31,272.24s.41,1.61.06,1.94-8.36,1.66-9.89,1.22,5.94-3,5.94-3Z"/><path class="cls-17" d="M249.42,272.42s-3.33,1.18-3,1.62,6.18-.14,6.91-1.4S249.42,272.42,249.42,272.42Z"/><path class="cls-14" d="M255.23,275.34s.08.52.16.58a23.65,23.65,0,0,0,9.44-.87.84.84,0,0,0,.56-.71l0-.26Z"/><path class="cls-14" d="M265.27,272.28s.41,1.61.06,1.94-8.36,1.67-9.89,1.23,5.94-3,5.94-3Z"/><path class="cls-17" d="M261.38,272.46s-3.33,1.18-3,1.62,6.18-.15,6.91-1.41S261.38,272.46,261.38,272.46Z"/><path class="cls-18" d="M266,197.49s2.34-4.39,2.94-4.66,7,2.37,8.9,3.36l-2.48-3.72L269,190.84l-3.31,2.52S265.55,196.82,266,197.49Z"/><path class="cls-18" d="M271.1,204.73s2.13.34,3.13-.31a7.94,7.94,0,0,1-3.19,1.37Z"/><path class="cls-14" d="M279.19,190.19a5.32,5.32,0,0,0-4.43-3.36,8.15,8.15,0,0,0-2.94,0,4.23,4.23,0,0,0-2.25,1.19,4.33,4.33,0,0,0-4.25.21,4.67,4.67,0,0,0-1.53,3.58c-.08,2.16,1,4.14.79,6.32a.12.12,0,0,0,.15.14c1-.42,1.24-1.43,1.47-2.5a6.85,6.85,0,0,1,2.84-3.93.21.21,0,0,0,.11,0,3.68,3.68,0,0,0,.93.7,17.82,17.82,0,0,0,2.5.87c.9.3,1.81.61,2.68,1s2,.78,2.47,1.79a.11.11,0,0,0,.13.05,3.42,3.42,0,0,1,1.09,0c.07,0,.16-.07.19-.14a8.58,8.58,0,0,0,.42-3.07A7.92,7.92,0,0,0,279.19,190.19Z"/><path class="cls-24" d="M280.66,207.56a6.89,6.89,0,0,1,3.61,3c1.39,3,4.45,13.06,3.61,15.36-1.22,3.34-11.52,5.87-11.52,5.87l-1.4-3.43s5.88-2.3,8.32-4.43a27.74,27.74,0,0,0-4.3-9.65C277.85,213.1,278.33,207.86,280.66,207.56Z"/><path class="cls-29" d="M268.39,207.62s-1.77.44-3.66,4.54-5.06,12.58-6.31,13.23a11.63,11.63,0,0,1-1.8.81l1.52,3.5s4-.39,5.11-1.44,5.2-12,5.63-13S268.39,207.62,268.39,207.62Z"/><path class="cls-29" d="M278.7,226.28a40.72,40.72,0,0,1,1.78,5s6.76-2.88,7.35-4.35.48-5.74-.9-9.89-2.6-10-8-10c0,0-2.23,4.14,0,8s4.11,7,3.75,8.49S278.7,226.28,278.7,226.28Z"/><path class="cls-28" d="M269.23,207s0,19.86-4.54,28.13a9.92,9.92,0,0,1-2.36-2.29s4-9.63,3.84-11.46-2.26-4.73-.63-9.65A8.49,8.49,0,0,1,269.23,207Z"/><path class="cls-3" d="M273.6,234.33c-.78.37-.72,7,.42,7.56s8.63.31,9.24,0,.36-7,0-7.56S274.63,233.85,273.6,234.33Z"/><path class="cls-30" d="M274.45,235.6s.12,3.86.6,4.83,5.87.36,6.62,0,1-4.41.56-4.83S274.87,235,274.45,235.6Z"/><circle class="cls-3" cx="278.46" cy="239.44" r="0.64"/><path class="cls-3" d="M276.75,227.11c-2.72,1.2-3.35,7.3-3.38,7.59l.48,0c0-.07.59-5.84,2.93-7.11C276.76,227.46,276.75,227.29,276.75,227.11Z"/><path class="cls-17" d="M254.95,230.62a6.31,6.31,0,0,1-3.45-.3c-.38-.21-.51-.48-.39-.64-.44-.1-1-.26-1.22-.66-.11-.21-.09-.35,0-.43-.42-.25-1-.65-.88-1.1.05-.26.35-.25.65-.18a.52.52,0,0,1,.07-.6,1.23,1.23,0,0,1,1.05-.1,8.67,8.67,0,0,1,1,.18c.21.08,1.24.36,1.32.17s-.75-.29-1-.36a1,1,0,0,1-.37-.22c-.26-.23-.4-.54-.24-.77.42-.57,3.65,1,3.66,1a2,2,0,0,1,1,1.77C256.16,229.39,256.16,230.21,254.95,230.62Z"/><path class="cls-31" d="M284.84,243.14s-11.23-.22-13.35.36-5.33,2-5,4.41l-2,.71s-.4-3.16,2.16-4.62,16-1.63,17.21-1.79a3.69,3.69,0,0,0,2-.94A2,2,0,0,1,284.84,243.14Z"/><path class="cls-32" d="M875.77,111.71"/><path class="cls-32" d="M875.77,103.23"/><polygon class="cls-33" points="790.72 220.68 731.77 246.83 768.32 272.51 829.76 238.78 790.72 220.68"/><path class="cls-34" d="M907.82,168.31h0s0-.07,0-.1v-.1h0V168l0-.1v-.1l0-.1,0-.09h0l0-.1,0-.1v0l0-.05,0-.09,0-.07h0l0-.09,0-.09,0,0v0l0,0,0-.09-.05-.09h0l-.06-.09-.06-.08,0-.06,0,0-.1-.13,0,0h0l-.14-.16,0,0,0,0-.05-.05-.09-.09,0,0,0,0,0,0-.09-.08-.07-.06h0l-.1-.08-.1-.08h0l-.1-.07-.11-.07h0l-.08,0-.11-.06,0,0h0l-.06,0-.11-.05-.59-.27-3.07,1.61.8.38.11.06.11.06.11.07,0,0,.17.11h0l.16.13,0,0,.15.13,0,0,.14.13,0,0,.13.14.06.07.08.09.08.11.05.07,0,.06.08.11,0,0,.1.16h0l.09.17v0l.08.17v0l.07.17v0l.06.17v0l0,.17v0l0,.17v0c0,.06,0,.11,0,.17v.09s0,.07,0,.1,0,.07,0,.11,0,.07,0,.11,0,.08,0,.11v.09l0,.16L896.58,230c0,.28-1.19,2.13-.92,2l2.87-2.32a3,3,0,0,0,1.09-1.88l8.08-58.39.1-.71v-.16h0v0s0-.07,0-.11,0-.06,0-.08Z"/><path class="cls-35" d="M902.6,166.75a3.84,3.84,0,0,1,2.28,3.62l-8.36,60.38c-.18,1.33-1.5,1.87-2.95,1.2L787.14,182.62a3.84,3.84,0,0,1-2.28-3.62l8.36-60.38c.18-1.33,1.5-1.87,2.95-1.2Z"/><path class="cls-36" d="M895,236.18l-.2-3.77-4,2.52-.95-1.74L785.8,184.93a6.67,6.67,0,0,0-5.07.36L737.59,209.2l0-.62L731,211.69l-1-.3.25,2.72a1.29,1.29,0,0,0,.82,1L839.46,265.5a6,6,0,0,0,4.8-.28l49.64-27.65c.76-.42,1.13-.92,1.11-1.41Z"/><path class="cls-37" d="M785.8,184.93a6.67,6.67,0,0,0-5.07.36L737.59,209.2l0-.62L731,211.69l-1-1,.25,3.41a1.29,1.29,0,0,0,.82,1L839.46,265.5a4.81,4.81,0,0,0,1.89.38l-1.76-27.64C840.35,237.82,785.8,184.93,785.8,184.93Z"/><path class="cls-22" d="M839.25,261.87,730.9,211.65c-1.25-.58-1.15-1.69.24-2.46l49.64-27.69a6,6,0,0,1,4.8-.35l108.35,50.22c1.25.58,1.15,1.69-.24,2.46L844,261.52A6,6,0,0,1,839.25,261.87Z"/><path class="cls-4" d="M787.56,191.11a.91.91,0,0,1-.7,0l-6.58-3c-.24-.11-.31-.27-.16-.35l4.17-2.32a.91.91,0,0,1,.7,0l6.58,3c.24.11.31.27.16.35Z"/><path class="cls-4" d="M795.45,200.63a.9.9,0,0,1-.71,0l-6.58-3c-.24-.11-.31-.27-.15-.35l4.17-2.33a.9.9,0,0,1,.7,0l6.58,3c.24.11.31.27.16.35Z"/><path class="cls-4" d="M791.86,204.82a.9.9,0,0,1-.7,0l-6.58-3c-.23-.11-.31-.27-.16-.35l4.17-2.33a.92.92,0,0,1,.7,0l6.58,3c.24.11.31.27.16.35Z"/><path class="cls-4" d="M781.68,206a.91.91,0,0,1-.7,0l-6.58-3c-.23-.11-.31-.27-.16-.35l4.17-2.33a.91.91,0,0,1,.7,0l6.58,3c.24.11.3.27.15.35Z"/><path class="cls-4" d="M763.88,204.32a.91.91,0,0,1-.7,0l-6.58-3c-.24-.11-.31-.27-.16-.35l4.89-2.73a.92.92,0,0,1,.7,0l6.58,3c.24.11.3.27.16.35Z"/><path class="cls-4" d="M775.22,209.58a1.16,1.16,0,0,1-.84-.11l-8.62-4c-.31-.14-.44-.33-.29-.41l4.89-2.73a1.18,1.18,0,0,1,.83.11l8.62,4c.31.14.44.33.29.41Z"/><path class="cls-4" d="M831.84,235.84a.89.89,0,0,1-.66-.07l-6.57-3c-.24-.11-.33-.26-.21-.33l1.81-1a.9.9,0,0,1,.66.07l6.57,3c.24.11.33.26.2.33Z"/><path class="cls-4" d="M840.63,240A.89.89,0,0,1,840,240l-6.57-3c-.24-.11-.33-.26-.21-.33l1.81-1a.9.9,0,0,1,.66.07l6.57,3c.24.11.33.26.2.33Z"/><path class="cls-4" d="M849.94,244.24a.89.89,0,0,1-.65-.08l-6.58-3c-.24-.11-.34-.26-.21-.32l1.74-1a.9.9,0,0,1,.65.08l6.58,3c.24.11.33.25.21.32Z"/><path class="cls-4" d="M844.06,238.17a.89.89,0,0,1-.65-.08l-6.58-3c-.24-.11-.34-.26-.21-.32l1.74-1a.9.9,0,0,1,.65.08l6.58,3c.24.11.33.25.21.32Z"/><path class="cls-4" d="M820.47,230.53a.91.91,0,0,1-.71,0L777,210.66c-.23-.11-.31-.27-.16-.35l4.89-2.73a.93.93,0,0,1,.7,0l42.8,19.83c.24.11.31.27.16.35Z"/><path class="cls-4" d="M774,208.21h-.07l-5-2.33s0,0,0,0l.3-.17h.07l5,2.33s0,0,0,0Z"/><path class="cls-4" d="M761.1,201.76h0l-2.13-1s0,0,0,0l.3-.17h0l2.13,1s0,0,0,0Z"/><path class="cls-4" d="M790.7,210.14a.91.91,0,0,1-.7,0l-6.58-3c-.23-.11-.31-.27-.16-.35l4.17-2.33a.92.92,0,0,1,.7,0l6.58,3c.24.11.31.27.16.35Z"/><path class="cls-4" d="M799.76,214.34a.91.91,0,0,1-.7,0l-6.58-3c-.24-.11-.31-.27-.16-.35l4.17-2.33a.92.92,0,0,1,.7,0l6.58,3c.23.11.3.27.15.35Z"/><path class="cls-4" d="M808.81,218.53a.91.91,0,0,1-.7,0l-6.58-3c-.23-.11-.3-.27-.16-.35l4.17-2.33a.91.91,0,0,1,.7,0l6.58,3c.23.11.3.27.15.35Z"/><path class="cls-4" d="M817.87,222.73a.91.91,0,0,1-.7,0l-6.58-3c-.24-.11-.31-.27-.16-.35L814.6,217a.91.91,0,0,1,.7,0l6.58,3c.24.11.3.27.16.35Z"/><path class="cls-4" d="M826.93,226.93a.92.92,0,0,1-.71,0l-6.58-3c-.23-.11-.3-.27-.16-.35l4.17-2.33a.91.91,0,0,1,.7,0l6.58,3c.24.11.31.27.16.35Z"/><path class="cls-4" d="M836,231.12a.91.91,0,0,1-.7,0l-6.58-3c-.24-.11-.31-.27-.16-.35l4.17-2.33a.91.91,0,0,1,.7,0l6.58,3c.24.11.31.27.16.35Z"/><path class="cls-4" d="M856.39,240.57a.91.91,0,0,1-.7,0l-17.92-8.3c-.24-.11-.31-.27-.16-.35l4.17-2.33a.91.91,0,0,1,.7,0l17.92,8.3c.24.11.31.27.16.35Z"/><path class="cls-4" d="M800.87,209a.89.89,0,0,1-.7,0l-6.58-3c-.24-.11-.31-.27-.16-.35l4.17-2.33a.91.91,0,0,1,.7,0l6.58,3c.24.11.3.27.16.35Z"/><path class="cls-4" d="M809.93,213.19a.9.9,0,0,1-.7,0l-6.58-3c-.23-.11-.31-.26-.15-.35l4.17-2.33a.91.91,0,0,1,.7,0l6.58,3c.23.11.31.27.16.35Z"/><path class="cls-4" d="M819,217.39a.91.91,0,0,1-.7,0l-6.58-3c-.23-.11-.31-.27-.16-.35l4.17-2.33a.92.92,0,0,1,.7,0l6.58,3c.23.11.31.27.16.35Z"/><path class="cls-4" d="M828,221.58a.9.9,0,0,1-.7,0l-6.58-3c-.24-.11-.31-.27-.16-.35l4.17-2.33a.91.91,0,0,1,.7,0l6.58,3c.24.11.31.27.16.35Z"/><path class="cls-4" d="M837.1,225.77a.9.9,0,0,1-.7,0l-6.58-3c-.24-.11-.31-.27-.16-.35l4.17-2.33a.9.9,0,0,1,.7,0l6.58,3c.23.11.31.27.16.35Z"/><path class="cls-4" d="M846.16,230a.9.9,0,0,1-.7,0l-6.58-3c-.24-.11-.31-.27-.16-.35l4.17-2.33a.91.91,0,0,1,.7,0l6.58,3c.24.11.3.27.16.35Z"/><path class="cls-4" d="M855.22,234.16a.9.9,0,0,1-.7,0l-6.58-3c-.23-.11-.31-.26-.15-.35L852,228.4a.9.9,0,0,1,.7,0l6.58,3c.23.11.3.27.16.35Z"/><path class="cls-4" d="M804.47,204.8a.91.91,0,0,1-.7,0l-6.58-3c-.23-.11-.3-.27-.15-.35L801.2,199a.91.91,0,0,1,.7,0l6.58,3c.24.11.31.27.16.35Z"/><path class="cls-4" d="M813.52,209a.91.91,0,0,1-.7,0l-6.58-3c-.24-.11-.31-.27-.16-.35l4.17-2.33a.91.91,0,0,1,.7,0l6.58,3c.23.11.3.27.16.35Z"/><path class="cls-4" d="M822.58,213.19a.91.91,0,0,1-.71,0l-6.58-3c-.23-.11-.31-.27-.15-.35l4.17-2.33a.91.91,0,0,1,.7,0l6.58,3c.24.11.31.27.16.35Z"/><path class="cls-4" d="M831.64,217.38a.9.9,0,0,1-.7,0l-6.58-3c-.24-.11-.31-.27-.16-.35l4.17-2.33a.91.91,0,0,1,.7,0l6.58,3c.24.11.3.27.16.35Z"/><path class="cls-4" d="M840.7,221.58a.9.9,0,0,1-.7,0l-6.58-3c-.24-.11-.31-.27-.15-.35l4.17-2.33a.91.91,0,0,1,.7,0l6.58,3c.23.11.3.27.16.35Z"/><path class="cls-4" d="M849.75,225.77a.91.91,0,0,1-.71,0l-6.58-3c-.23-.11-.31-.27-.15-.35l4.17-2.33a.91.91,0,0,1,.7,0l6.58,3c.24.11.31.27.16.35Z"/><path class="cls-4" d="M858.81,230a.9.9,0,0,1-.7,0l-6.58-3c-.24-.11-.31-.27-.15-.35l4.17-2.33a.91.91,0,0,1,.7,0l6.58,3c.23.11.3.27.16.35Z"/><path class="cls-4" d="M786.4,196.43a.91.91,0,0,1-.7,0l-11.15-5.17c-.24-.11-.31-.27-.16-.35l4.17-2.33a.91.91,0,0,1,.7,0l11.15,5.17c.24.11.31.27.16.35Z"/><path class="cls-4" d="M873.61,231a.91.91,0,0,1-.7,0l-11.15-5.17c-.23-.11-.31-.27-.16-.35l4.17-2.32a.91.91,0,0,1,.7,0l11.15,5.17c.24.11.31.27.16.35Z"/><path class="cls-4" d="M782.8,200.63a.9.9,0,0,1-.7,0l-13.3-6.16c-.24-.11-.31-.27-.16-.35l4.17-2.33a.91.91,0,0,1,.7,0l13.3,6.16c.24.11.31.27.16.35Z"/><path class="cls-4" d="M772.63,201.78a.91.91,0,0,1-.7,0l-8.87-4.11c-.24-.11-.31-.27-.16-.35l4.17-2.33a.91.91,0,0,1,.7,0l8.87,4.11c.24.11.31.27.16.35Z"/><path class="cls-4" d="M796.61,195.3a.91.91,0,0,1-.7,0l-6.57-3c-.24-.11-.31-.27-.16-.35l4.17-2.32a.91.91,0,0,1,.7,0l6.57,3c.24.11.31.27.16.35Z"/><path class="cls-4" d="M805.63,199.48a.91.91,0,0,1-.7,0l-6.58-3c-.24-.11-.31-.27-.16-.35l4.17-2.32a.91.91,0,0,1,.7,0l6.58,3c.24.11.31.27.16.35Z"/><path class="cls-4" d="M814.68,203.67a.9.9,0,0,1-.7,0l-6.58-3c-.24-.11-.31-.27-.16-.35l4.17-2.32a.9.9,0,0,1,.7,0l6.58,3c.24.11.31.27.15.35Z"/><path class="cls-4" d="M823.74,207.87a.91.91,0,0,1-.7,0l-6.57-3c-.24-.11-.31-.27-.16-.35l4.17-2.32a.91.91,0,0,1,.7,0l6.57,3c.24.11.31.27.16.35Z"/><path class="cls-4" d="M832.8,212.06a.9.9,0,0,1-.7,0l-6.58-3c-.24-.11-.31-.27-.16-.35l4.17-2.32a.91.91,0,0,1,.7,0l6.58,3c.24.11.3.27.15.35Z"/><path class="cls-4" d="M841.86,216.26a.91.91,0,0,1-.7,0l-6.58-3c-.23-.11-.3-.27-.15-.35l4.17-2.32a.9.9,0,0,1,.7,0l6.58,3c.23.11.31.27.15.35Z"/><path class="cls-4" d="M850.92,220.45a.91.91,0,0,1-.7,0l-6.58-3c-.24-.11-.31-.27-.16-.35l4.17-2.32a.91.91,0,0,1,.7,0l6.58,3c.24.11.31.27.16.35Z"/><path class="cls-4" d="M860,224.65a.9.9,0,0,1-.7,0l-6.58-3c-.23-.11-.3-.27-.15-.35l4.17-2.32a.9.9,0,0,1,.7,0l6.58,3c.23.11.3.27.15.35Z"/><path class="cls-4" d="M865.3,228.44a1.08,1.08,0,0,0-.38-.1.58.58,0,0,0-.31,0l-4.17,2.33a.12.12,0,0,0-.07.17.45.45,0,0,0,.22.18l1.72.8-5.47,3a.12.12,0,0,0-.07.17.44.44,0,0,0,.22.18l4.43,2.05a1.11,1.11,0,0,0,.38.1.59.59,0,0,0,.32,0l9.91-5.53a.12.12,0,0,0,.06-.17.44.44,0,0,0-.23-.19Z"/><path class="cls-4" d="M771.4,200h-.07l-5-2.33s0,0,0,0l.3-.17h.07l5,2.33s0,0,0,0Z"/><path class="cls-38" d="M798.76,235.83,774.69,225c-.28-.13-.28-.35,0-.5l9.78-5.44a1.26,1.26,0,0,1,1,0l24.06,10.82c.28.13.28.35,0,.5l-9.78,5.44A1.26,1.26,0,0,1,798.76,235.83Z"/><path class="cls-39" d="M892.3,237.24a1.14,1.14,0,0,1-1.27.82,1,1,0,0,1-.55-1.3,1.14,1.14,0,0,1,1.27-.82A1,1,0,0,1,892.3,237.24Z"/><path class="cls-22" d="M909.62,154.48h0s0-.07,0-.1v-.1h0v-.07l0-.1V154l0-.1,0-.09h0l0-.1,0-.1v0l0-.05,0-.09,0-.07h0l0-.09,0-.09,0,0v0l0,0,0-.09-.05-.09h0l-.06-.09-.06-.08,0-.06,0,0-.1-.13,0,0h0l-.14-.16,0,0,0,0-.05-.05-.09-.09,0,0,0,0,0,0-.09-.08-.07-.06h0l-.1-.08-.1-.08h0l-.1-.07-.11-.07h0l-.08,0-.11-.06,0,0h0l-.06,0-.11-.05-2.58-1.19-3,1.76,2.75,1.15.11.06.11.06.11.07,0,0,.17.11h0l.16.13,0,0,.15.13,0,0,.14.13,0,0,.13.14.06.07.08.09.08.11.05.07,0,.06.08.11,0,0,.1.16h0l.09.17v0l.08.17v0l.07.17v0l.06.17v0l0,.17v0l0,.17v0q0,.09,0,.17V156s0,.07,0,.1,0,.07,0,.11,0,.07,0,.11,0,.08,0,.11v.09l0,.16-8.24,59.51c0,.28-1.19,2.13-.92,2l2.87-2.32a3,3,0,0,0,1.09-1.88l8.08-58.39.1-.71v-.16h0v0s0-.07,0-.11,0-.06,0-.08Z"/><path class="cls-22" d="M906.76,151,801.27,102.12h0l-.16-.07h0l-.28-.13-.11,0-.11,0-.11,0-.11,0-.11,0-.12,0h0l-.1,0h-.6l-.11,0h-.07l-.2.06h0l-.24.11-3,1.66.24-.11.1,0,.12,0,.15,0h.06l.21,0H797l.24,0h0l.24.06h0l.26.09.11,0,.08,0,.58.27h0l105.65,49a.43.43,0,0,0,.38,0l2.22-1.24A.32.32,0,0,0,906.76,151Zm-106.5-48.69Z"/><path class="cls-4" d="M904.38,152.85,797.95,103.52c-1.44-.67-2.76-.13-2.95,1.2l-8.36,60.38a2.29,2.29,0,0,0,0,.24L785.7,172a3.84,3.84,0,0,0,2.28,3.62l106.43,49.33c1.44.67,2.76.13,2.95-1.2l8.36-60.38a2.28,2.28,0,0,0,0-.24l.92-6.63A3.84,3.84,0,0,0,904.38,152.85Z"/><path class="cls-8" d="M901,156.34,800.14,110.5c-1.37-.62-2.62-.22-2.79.9l-1.08,7.11a1.48,1.48,0,0,0-.07.26l-7.73,50.68a3.42,3.42,0,0,0,2.17,3.15l100.91,45.84c1.37.62,2.62.22,2.79-.9l1.08-7.11a1.48,1.48,0,0,0,.07-.26l7.73-50.68A3.42,3.42,0,0,0,901,156.34Z"/><line class="cls-40" x1="859.83" y1="254.34" x2="855.29" y2="256.91"/><line class="cls-40" x1="854.16" y1="257.63" x2="849.62" y2="260.2"/><polygon class="cls-41" points="805.56 261.38 805.56 261.38 805.64 261.42 805.56 261.38"/><polygon class="cls-41" points="803.59 264.76 803.58 264.76 803.58 264.76 803.59 264.76"/><path class="cls-34" d="M786.94,268.78l31.95,14.93a2.87,2.87,0,0,0,.69.21,3,3,0,0,0,2-.28l16.57-10.45c.67-.42.54-1.08-.29-1.47l-31.95-14.93a3.18,3.18,0,0,0-2.72.06l-.56.35-16,10.1C786,267.73,786.1,268.39,786.94,268.78Zm10.43-6.39.29.13L797,263l-.29-.14c-.22-.1-.25-.28-.08-.39l0,0A.84.84,0,0,1,797.36,262.38Z"/><path class="cls-42" d="M826.71,276.45l0,0a.84.84,0,0,1-.72,0l-29.27-13.67c-.22-.1-.25-.28-.08-.39l0,0a.84.84,0,0,1,.72,0l29.27,13.67C826.85,276.16,826.88,276.33,826.71,276.45Z"/><path class="cls-3" d="M831.37,271.61a1.65,1.65,0,0,1-.61.66l-3.31,2.06h0l.66-.41.18-.11h0l.07,0,.49-.3a1.26,1.26,0,0,0,.28-1.91l1.53-.89a.32.32,0,0,0,.12-.45.36.36,0,0,0-.48-.11l-1.59.92a1.37,1.37,0,0,0-1.76-.24l2-1.21a1.77,1.77,0,0,1,2.36.46A1.54,1.54,0,0,1,831.37,271.61Z"/><polygon class="cls-41" points="826.43 271.1 826.43 271.1 825.78 271.5 826.43 271.1"/><path class="cls-39" d="M825.26,273.75h0a1.77,1.77,0,0,0,2.36.46l.66-.41h0l-.18.11-.66.41-.07,0a1.77,1.77,0,0,1-2.36-.46h0a1.57,1.57,0,0,1-.16-.3,1.59,1.59,0,0,1,.66-1.95l.25-.15A1.58,1.58,0,0,0,825.26,273.75Z"/><path class="cls-4" d="M828.71,271l-1.95,1.13a.32.32,0,0,0-.12.45h0a.36.36,0,0,0,.48.11l2-1.16a1.26,1.26,0,0,1-.28,1.91l-.49.3-.07,0-.66.41a1.77,1.77,0,0,1-2.36-.46h0a1.58,1.58,0,0,1,.5-2.24h0l.65-.4.52-.32h0A1.37,1.37,0,0,1,828.71,271Z"/><path class="cls-3" d="M827.13,272.71a.36.36,0,0,1-.48-.11h0a.32.32,0,0,1,.12-.45l1.95-1.13,1.59-.92a.36.36,0,0,1,.48.11.32.32,0,0,1-.12.45l-1.53.89Z"/><path class="cls-3" d="M824,268.09a1.65,1.65,0,0,1-.61.66l-1.91,1.19a1.26,1.26,0,0,0,.28-1.91l1.53-.89a.32.32,0,0,0,.12-.45.36.36,0,0,0-.48-.11l-1.59.92a1.37,1.37,0,0,0-1.76-.24l2-1.21a1.77,1.77,0,0,1,2.36.46h0A1.54,1.54,0,0,1,824,268.09Z"/><polygon class="cls-43" points="820.09 270.81 820.26 270.7 820.26 270.7 821 270.25 821.38 270.01 820.09 270.81 820.09 270.81"/><polygon class="cls-41" points="819.07 267.59 819.07 267.59 818.43 267.99 819.07 267.59"/><path class="cls-39" d="M817.9,270.24h0a1.77,1.77,0,0,0,2.36.46l-.18.11-.07,0a1.77,1.77,0,0,1-2.36-.46h0a1.56,1.56,0,0,1-.16-.3,1.59,1.59,0,0,1,.66-1.95l.25-.15A1.58,1.58,0,0,0,817.9,270.24Z"/><path class="cls-4" d="M821.35,267.51l-1.95,1.13a.32.32,0,0,0-.12.45.36.36,0,0,0,.48.11l2-1.16a1.26,1.26,0,0,1-.28,1.91h0l-.11.07-.38.24-.74.46h0a1.77,1.77,0,0,1-2.36-.46h0a1.58,1.58,0,0,1,.5-2.24h0l0,0,.64-.4.52-.32h0A1.37,1.37,0,0,1,821.35,267.51Z"/><path class="cls-3" d="M819.76,269.19a.36.36,0,0,1-.48-.11.32.32,0,0,1,.12-.45l1.95-1.13,1.59-.92a.36.36,0,0,1,.48.11.32.32,0,0,1-.12.45l-1.53.89Z"/><polygon class="cls-43" points="810.86 264.6 810.91 264.57 810.86 264.6 810.86 264.6"/><path class="cls-3" d="M816.64,264.59a1.65,1.65,0,0,1-.61.66l-1.91,1.19a1.26,1.26,0,0,0,.28-1.91l1.53-.89a.32.32,0,0,0,.12-.45.36.36,0,0,0-.48-.11L814,264a1.37,1.37,0,0,0-1.76-.24l2-1.21a1.77,1.77,0,0,1,2.36.46h0A1.54,1.54,0,0,1,816.64,264.59Z"/><polygon class="cls-43" points="812.72 267.31 812.9 267.2 812.9 267.2 813.63 266.74 814.01 266.5 812.72 267.31 812.72 267.31"/><polygon class="cls-41" points="811.7 264.08 811.7 264.08 811.35 264.3 811.7 264.08"/><path class="cls-39" d="M810.53,266.74h0a1.77,1.77,0,0,0,2.36.46l-.18.11-.07,0a1.77,1.77,0,0,1-2.36-.46h0a1.56,1.56,0,0,1-.16-.3,1.59,1.59,0,0,1,.66-1.95l.07,0,0,0,.13-.08A1.58,1.58,0,0,0,810.53,266.74Z"/><path class="cls-4" d="M814,264,812,265.13a.32.32,0,0,0-.12.45.36.36,0,0,0,.48.11l2-1.16a1.26,1.26,0,0,1-.28,1.91h0l-.11.07-.38.24-.74.46h0a1.77,1.77,0,0,1-2.36-.46h0a1.58,1.58,0,0,1,.5-2.24h0l.31-.2.35-.22.52-.32h0A1.37,1.37,0,0,1,814,264Z"/><path class="cls-3" d="M812.4,265.69a.36.36,0,0,1-.48-.11.32.32,0,0,1,.12-.45L814,264l1.59-.92a.36.36,0,0,1,.48.11.32.32,0,0,1-.12.45l-1.53.89Z"/><path class="cls-3" d="M809.26,261.09a1.65,1.65,0,0,1-.61.66l-1.91,1.19A1.26,1.26,0,0,0,807,261l1.53-.89a.32.32,0,0,0,.12-.45h0a.36.36,0,0,0-.48-.11l-1.59.92a1.37,1.37,0,0,0-1.76-.24l-.2.12L806.8,259a1.77,1.77,0,0,1,2.36.46h0A1.54,1.54,0,0,1,809.26,261.09Z"/><polygon class="cls-43" points="805.35 263.8 805.52 263.69 805.52 263.69 805.66 263.61 805.35 263.8 805.35 263.8"/><path class="cls-39" d="M803.16,263.24h0a1.77,1.77,0,0,0,2.36.46l-.18.11-.07,0a1.77,1.77,0,0,1-2.36-.46h0a1.56,1.56,0,0,1-.16-.3,1.59,1.59,0,0,1,.66-1.95l.25-.15A1.58,1.58,0,0,0,803.16,263.24Z"/><path class="cls-4" d="M806.61,260.5l-1.95,1.13a.32.32,0,0,0-.12.45.36.36,0,0,0,.48.11l2-1.16a1.26,1.26,0,0,1-.28,1.91h0l-.49.3-.07,0h0l-.52.32-.14.09h0a1.77,1.77,0,0,1-2.36-.46h0a1.58,1.58,0,0,1,.5-2.24h0l.6-.38.06,0,.32-.2.2-.12A1.37,1.37,0,0,1,806.61,260.5Z"/><path class="cls-3" d="M805,262.19a.36.36,0,0,1-.48-.11.32.32,0,0,1,.12-.45l1.95-1.13,1.59-.92a.36.36,0,0,1,.48.11h0a.32.32,0,0,1-.12.45L807,261Z"/><polygon class="cls-43" points="809.24 274.44 809.38 274.35 809.24 274.44 809.24 274.44"/><path class="cls-3" d="M814.41,275.08l-3.31,2.06h0l.18-.11h0l.74-.46.49-.3a1.26,1.26,0,0,0,.28-1.91l1.53-.89a.32.32,0,0,0,.12-.45.36.36,0,0,0-.48-.11l-1.59.92a1.37,1.37,0,0,0-1.76-.24l2-1.21a1.77,1.77,0,0,1,2.36.46h0a1.54,1.54,0,0,1,.1,1.58A1.65,1.65,0,0,1,814.41,275.08Z"/><path class="cls-39" d="M809.17,274.48l.07,0,.14-.09,0,0a1.58,1.58,0,0,0-.5,2.24h0a1.77,1.77,0,0,0,2.36.46l-.18.11-.07,0a1.77,1.77,0,0,1-2.36-.46,1.56,1.56,0,0,1-.16-.3A1.59,1.59,0,0,1,809.17,274.48Z"/><path class="cls-4" d="M812.36,273.83,810.42,275a.32.32,0,0,0-.12.45.36.36,0,0,0,.48.11l2-1.16a1.26,1.26,0,0,1-.28,1.91l-.49.3-.74.46h0a1.77,1.77,0,0,1-2.36-.46h0a1.58,1.58,0,0,1,.5-2.24h0l1.18-.74h0A1.37,1.37,0,0,1,812.36,273.83Z"/><path class="cls-3" d="M810.78,275.52a.36.36,0,0,1-.48-.11.32.32,0,0,1,.12-.45l1.95-1.13,1.59-.92a.36.36,0,0,1,.48.11.32.32,0,0,1-.12.45l-1.53.89Z"/><path class="cls-3" d="M821.77,278.59l-3.31,2.06h0l.44-.27.37-.23,0,0h0l.07,0,.49-.3a1.26,1.26,0,0,0,.28-1.91l1.53-.89a.32.32,0,0,0,.12-.45.36.36,0,0,0-.48-.11l-1.59.92a1.37,1.37,0,0,0-1.76-.24l2-1.21a1.77,1.77,0,0,1,2.36.46,1.54,1.54,0,0,1,.1,1.58A1.65,1.65,0,0,1,821.77,278.59Z"/><path class="cls-39" d="M816.53,278l.91-.57h0l-.66.41a1.58,1.58,0,0,0-.5,2.24,1.77,1.77,0,0,0,2.36.46l.26-.16-.44.27-.07,0a1.77,1.77,0,0,1-2.36-.46h0a1.57,1.57,0,0,1-.16-.3A1.59,1.59,0,0,1,816.53,278Z"/><polygon class="cls-41" points="819.3 280.13 819.28 280.15 819.3 280.13 819.3 280.13"/><path class="cls-4" d="M819.73,277.34l-1.95,1.13a.32.32,0,0,0-.12.45.36.36,0,0,0,.48.11l2-1.16a1.26,1.26,0,0,1-.28,1.91l-.49.3-.07,0,0,0-.37.23-.26.16a1.77,1.77,0,0,1-2.36-.46,1.58,1.58,0,0,1,.5-2.24l.66-.41.52-.32h0A1.37,1.37,0,0,1,819.73,277.34Z"/><path class="cls-3" d="M818.14,279a.36.36,0,0,1-.48-.11.32.32,0,0,1,.12-.45l1.95-1.13,1.59-.92a.36.36,0,0,1,.48.11.32.32,0,0,1-.12.45l-1.53.89Z"/><polygon class="cls-43" points="802.05 270.83 802.05 270.83 801.88 270.94 801.88 270.94 802.13 270.78 802.12 270.78 802.05 270.83"/><path class="cls-3" d="M807,271.58l-3.31,2.06h0l.18-.11h0l.24-.15.25-.16.15-.1.1-.06.49-.3a1.26,1.26,0,0,0,.28-1.91L807,270a.32.32,0,0,0,.12-.45.36.36,0,0,0-.48-.11l-1.59.92a1.37,1.37,0,0,0-1.76-.24l2-1.21a1.77,1.77,0,0,1,2.36.46,1.54,1.54,0,0,1,.1,1.58A1.65,1.65,0,0,1,807,271.58Z"/><path class="cls-39" d="M801.8,271l.07,0,.18-.11a1.58,1.58,0,0,0-.5,2.24,1.77,1.77,0,0,0,2.36.46l-.18.11-.07,0a1.77,1.77,0,0,1-2.36-.46h0a1.56,1.56,0,0,1-.16-.3A1.59,1.59,0,0,1,801.8,271Z"/><polygon class="cls-41" points="802.12 270.78 802.13 270.78 802.72 270.42 802.72 270.42 802.12 270.78"/><polygon class="cls-41" points="804.4 273.23 804.15 273.38 804.55 273.13 804.4 273.23"/><path class="cls-4" d="M805,270.33l-1.95,1.13a.32.32,0,0,0-.12.45.36.36,0,0,0,.48.11l2-1.16a1.26,1.26,0,0,1-.28,1.91l-.49.3-.1.06-.4.25-.24.15h0a1.77,1.77,0,0,1-2.36-.46,1.58,1.58,0,0,1,.5-2.24h0l.07,0,.59-.37.52-.32h0A1.37,1.37,0,0,1,805,270.33Z"/><path class="cls-3" d="M803.41,272a.36.36,0,0,1-.48-.11.32.32,0,0,1,.12-.45l1.95-1.13,1.59-.92a.36.36,0,0,1,.48.11.32.32,0,0,1-.12.45l-1.53.89Z"/><path class="cls-3" d="M799.67,268.07l-2.2,1.37.29-.18a1.26,1.26,0,0,0,.28-1.91l1.53-.89a.32.32,0,0,0,.12-.45.36.36,0,0,0-.48-.11l-1.59.92a1.37,1.37,0,0,0-1.76-.24l2-1.21a1.77,1.77,0,0,1,2.36.46h0a1.54,1.54,0,0,1,.1,1.58A1.65,1.65,0,0,1,799.67,268.07Z"/><polygon class="cls-43" points="796.36 270.13 796.54 270.02 796.54 270.02 796.89 269.81 796.36 270.13 796.36 270.13"/><path class="cls-39" d="M794.17,269.56h0a1.77,1.77,0,0,0,2.36.46l-.18.11-.07,0a1.77,1.77,0,0,1-2.36-.46,1.56,1.56,0,0,1-.16-.3,1.59,1.59,0,0,1,.66-1.95l.67-.42-.42.26A1.58,1.58,0,0,0,794.17,269.56Z"/><polygon class="cls-44" points="797.2 269.61 797.2 269.61 797.2 269.61 797.2 269.61"/><path class="cls-4" d="M795.86,266.59a1.37,1.37,0,0,1,1.76.24L795.68,268a.32.32,0,0,0-.12.45.36.36,0,0,0,.48.11l2-1.16a1.26,1.26,0,0,1-.28,1.91l-.29.18-.19.12-.07,0h0l-.31.19-.35.22h0a1.77,1.77,0,0,1-2.36-.46h0a1.58,1.58,0,0,1,.5-2.24l.42-.26.76-.47Z"/><path class="cls-3" d="M799.22,265.9a.36.36,0,0,1,.48.11.32.32,0,0,1-.12.45l-1.53.89-2,1.16a.36.36,0,0,1-.48-.11.32.32,0,0,1,.12-.45l1.95-1.13Z"/><path class="cls-35" d="M774.84,202.38l-52.72,45.68,46.19,24.45L821,226.82Z"/><polygon class="cls-34" points="809.72 228.76 782.47 214.34 784.84 211.97 812.32 226.51 809.72 228.76"/><polygon class="cls-34" points="776.58 232.42 758.39 222.8 761 220.55 779.18 230.17 776.58 232.42"/><polygon class="cls-34" points="769.71 238.38 751.52 228.75 754.13 226.5 772.31 236.13 769.71 238.38"/><polygon class="cls-34" points="761.82 245.22 743.63 235.59 746.23 233.34 764.42 242.96 761.82 245.22"/><polygon class="cls-34" points="769.54 268.21 749.66 257.69 751.88 255.77 771.76 266.29 769.54 268.21"/><polygon class="cls-34" points="809.84 235.76 779.33 219.61 780.77 218.22 811.38 234.43 809.84 235.76"/><polygon class="cls-34" points="777.21 264.03 732.34 240.28 733.87 238.95 778.75 262.7 777.21 264.03"/><path class="cls-4" d="M772.87,217l6.82-2.09-1.41-.65-3.46,1.15c-.63.2-1.17.39-1.92.66l-.06,0,0-.09.16.07.57-2.88.24-.93-.06,0,.09-.44a5.05,5.05,0,0,0,4.66-.89c1.67-1.45.73-2.67-1.42-3.66l-3.28-1.51-8.07,7,1.33.61,3.41-2.95,1.9.88-.78,3.65-.3,1.35-7.23,2.2,1.41.65,3.7-1.18c.65-.22,1.33-.45,2.12-.73l.06,0c-.16.58-.27,1.06-.4,1.53l-.64,2.59,1.47.68Zm.21-6.58-1.76-.81,3-2.6,1.76.81c1.63.75,2.16,1.5,1.11,2.42S774.72,211.19,773.08,210.44Z"/><path class="cls-4" d="M793.28,170.63l37.78,17.31a1.4,1.4,0,0,0,1.85-1l7.85-51.44a1,1,0,0,0-.55-1l-37.74-17a1.4,1.4,0,0,0-1.85,1l-7.84,51.2A.85.85,0,0,0,793.28,170.63Z"/><path class="cls-45" d="M815.75,153.53l1.09.5c.8.37,1.58-.16,1.74-1.18l0-.23-3.77-1.73-.08.53A2,2,0,0,0,815.75,153.53Z"/><path class="cls-45" d="M815.15,157.47l1.09.5c.8.37,1.58-.16,1.74-1.18l0-.23-3.77-1.73-.08.53A2,2,0,0,0,815.15,157.47Z"/><path class="cls-45" d="M816.35,149.59l1.09.5c.8.37,1.58-.16,1.74-1.18l0-.23L815.45,147l-.08.53A2,2,0,0,0,816.35,149.59Z"/><path class="cls-45" d="M817,145.65l1.09.5c.8.37,1.58-.16,1.74-1.18l0-.23L816.05,143l-.08.53A2,2,0,0,0,817,145.65Z"/><path class="cls-45" d="M817.56,141.71l1.09.5c.8.37,1.58-.16,1.74-1.18l0-.23-3.77-1.73-.08.53A2,2,0,0,0,817.56,141.71Z"/><path class="cls-45" d="M818.07,138.12l1.09.5c.82.38,1.62-.16,1.78-1.21l.31-2-3.77-1.73-.37,2.41A2,2,0,0,0,818.07,138.12Z"/><path class="cls-45" d="M814.33,161.8l1.33.61c1,.45,1.92-.19,2.11-1.43l0-.28-4.58-2.1-.1.64A2.49,2.49,0,0,0,814.33,161.8Z"/><path class="cls-45" d="M813.59,166l1.48.68c1.09.5,2.14-.21,2.35-1.59l0-.31-5.1-2.34-.11.72A2.78,2.78,0,0,0,813.59,166Z"/><path class="cls-45" d="M812.92,170.38l1.48.68c1.09.5,2.14-.21,2.35-1.59l0-.31-5.1-2.34-.11.72A2.78,2.78,0,0,0,812.92,170.38Z"/><path class="cls-45" d="M812.06,174.66l1.79.82c1.32.6,2.59-.26,2.85-1.93l.06-.37-6.17-2.83-.13.87A3.36,3.36,0,0,0,812.06,174.66Z"/><path class="cls-45" d="M815.34,129.89a6.47,6.47,0,0,1-2.23-.48c-3.2-1.68-4.1-3.93-6.64-5.2a1,1,0,0,0-1.47.31,2.65,2.65,0,0,0-.28,2,2.39,2.39,0,0,0,.88,1.23h0a15.47,15.47,0,0,0,5.37,2.41,10.06,10.06,0,0,1,2.68,1.1c.48.32,1,1.25,1.65,1.1.31-.07.54-.47.64-1C816.13,130.53,815.78,129.9,815.34,129.89Z"/><path class="cls-45" d="M824.1,133.91a9,9,0,0,0,2.08,1.49c3.27,1.28,4.69.09,7.26,1.17a2,2,0,0,1,1.19,1.53,2.55,2.55,0,0,1-.34,2,1.14,1.14,0,0,1-1.12.32h0c-1.79-.24-3.58-1.44-5.36-2.5a10.77,10.77,0,0,0-2.64-1.34c-.51-.13-1.26.2-1.75-.46a2.11,2.11,0,0,1-.28-1.38C823.22,133.78,823.71,133.53,824.1,133.91Z"/><path class="cls-45" d="M809.27,133.12c-3.12,1.47-5.07,3.68-6,7.71a41.81,41.81,0,0,0-1,11.5,24,24,0,0,0,1.08,6.1c.56,1.81,1.89,3.74,3.83,3.07.77-.27,1-1.54,1.4-2.3.93-2,1.68-3.53,3.47-4.53.34-.19.71.51.38.7-2.15,1.2-2.55,3.41-3.83,5.53-.55.91-1.36,2-2.51,1.89-2.7-.21-3.55-4.75-4-7a38.18,38.18,0,0,1-.12-15.58c1-4.24,3.67-6.27,7-7.82.35-.16.73.54.38.7Z"/><path class="cls-45" d="M813.77,139.59c-3-.46-5-2.06-7.34-4.74-.33-.38.42-1.43.71-1,1.8,2.56,3.72,4.56,6.56,5,.42.06.48.82.07.75Z"/><path class="cls-45" d="M813.24,143.06a16.29,16.29,0,0,1-9.34-5.49c-.34-.37.51-1.63.79-1.21,1.64,2.51,5.26,5.41,8.48,5.94.42.07.48.82.07.75Z"/><path class="cls-45" d="M812.49,145.94a15.91,15.91,0,0,1-10.22-4.2c-.36-.33-.07-1.54.29-1.21,3,2.7,6.54,4.59,9.86,4.66.41,0,.47.76.07.75Z"/><path class="cls-45" d="M812.87,149.5c-3.64,0-8.09-1-11.16-4.65-.32-.38,0-1.82.35-1.44a15,15,0,0,0,10.74,5.33c.41,0,.47.76.07.75Z"/><path class="cls-45" d="M812.74,152.64a15.53,15.53,0,0,1-11.15-2.55c-.39-.26-.11-1.92.28-1.66,3.36,2.18,7.38,4.13,10.64,3.46.39-.08.61.67.23.75Z"/><path class="cls-45" d="M812.32,155.39a13,13,0,0,1-10.16-1.56c-.39-.25-.43-1.83,0-1.58,3.21,2.06,6.91,3.05,10,2.38.38-.08.61.67.23.75Z"/><path class="cls-45" d="M809.74,158.17a8.5,8.5,0,0,1-3.32.84,8.81,8.81,0,0,1-3.77-1.35c-.4-.22-.53-1.58-.12-1.36,1.08.59,2.33,1.58,3.45,1.67a7.72,7.72,0,0,0,3.39-.5c.36-.14.74.56.38.7Z"/><path class="cls-45" d="M828.4,141.88a19.46,19.46,0,0,1,3,11.85A37.49,37.49,0,0,1,829,164.59a13.71,13.71,0,0,1-2.69,4.37c-1,1.1-2.71,1.62-4.2-.61-.59-.89-.47-2.23-.56-3.2a16.55,16.55,0,0,0-1.72-6.91c-.24-.45-.77-.17-.53.29,1.52,2.89,1.24,5.14,1.74,8.08a6.59,6.59,0,0,0,1.64,3.79c2.4,2.13,4.44-1.09,5.47-2.62a29,29,0,0,0,4.57-13.43c.37-4.52-1.39-8.58-3.81-12.76-.26-.44-.78-.16-.53.29Z"/><path class="cls-45" d="M822.63,143.65a9.34,9.34,0,0,0,7.73,2.16c.4,0,0-1.6-.33-1.49a7.09,7.09,0,0,1-7.13-1.27c-.38-.3-.65.3-.27.6Z"/><path class="cls-45" d="M822.1,147.12a13.72,13.72,0,0,0,9.68,3.23c.4,0,0-1.86-.34-1.73-2.15.77-6.12.2-9.07-2.1-.38-.3-.65.3-.27.6Z"/><path class="cls-45" d="M821.93,150.26c3,2.87,6.6,4.87,10.08,5.1.41,0,.51-1.28.09-1.3a15.88,15.88,0,0,1-9.9-4.4c-.36-.34-.63.26-.27.6Z"/><path class="cls-45" d="M820.58,153c3.17,3.09,7.32,6.05,11,5.52.39-.06.5-1.61.1-1.55-3.54.51-7.83-1.62-10.86-4.56-.35-.34-.62.26-.27.6Z"/><path class="cls-45" d="M819.8,155.88a21.22,21.22,0,0,0,10.42,7.34c.42.12.65-1.57.23-1.68-3.54-1-7.59-2.73-10.24-6.11-.31-.4-.73.06-.41.46Z"/><path class="cls-45" d="M819.38,158.63C822,162,825.09,165,828.65,166c.42.12.89-1.23.48-1.34a18.62,18.62,0,0,1-9.34-6.46c-.31-.4-.72.06-.41.46Z"/><path class="cls-45" d="M820.82,163.25a18.46,18.46,0,0,0,2.65,3.57,10.14,10.14,0,0,0,3.66,2.05c.41.15.91-.92.49-1.08a10.16,10.16,0,0,1-3.47-1.5,15.78,15.78,0,0,1-2.8-3.34c-.27-.43-.8-.14-.53.29Z"/><path class="cls-45" d="M802.44,132.14a1.46,1.46,0,0,1-.37-.84,4.77,4.77,0,0,1,.15-1.78c.29-1,.73-1.16,1-1.09h0l2.39.53c.27.06,1.56.15.82,2.44-.39,1.21-1.74,1.25-2.12,1.33A1.87,1.87,0,0,1,802.44,132.14Z"/><path class="cls-45" d="M835.11,147.11a.67.67,0,0,0,.56-.41,4.19,4.19,0,0,0,.38-1.67c0-1.16-.3-1.63-.59-1.84h0l-2.22-1.59c-.25-.18-1.4-1.21-1.41,1.42a5.1,5.1,0,0,0,1.46,3A2.24,2.24,0,0,0,835.11,147.11Z"/><path class="cls-45" d="M816.12,139.45l4.68,2.14c.13.06.25,0,.27-.19h0a.39.39,0,0,0-.18-.39l-4.68-2.14c-.13-.06-.25,0-.27.18h0A.39.39,0,0,0,816.12,139.45Z"/><path class="cls-45" d="M819.13,131.45l1.09.5c.8.37,1.58-.16,1.74-1.18l0-.23-3.77-1.73-.08.53A2,2,0,0,0,819.13,131.45Z"/><path class="cls-45" d="M817.69,129.19l4.68,2.14c.13.06.25,0,.27-.18h0a.39.39,0,0,0-.18-.39l-4.68-2.14c-.13-.06-.25,0-.27.18h0A.39.39,0,0,0,817.69,129.19Z"/><path class="cls-45" d="M815.51,143.39l4.68,2.14c.13.06.25,0,.27-.18h0a.39.39,0,0,0-.18-.39l-4.68-2.14c-.13-.06-.25,0-.27.18h0A.39.39,0,0,0,815.51,143.39Z"/><path class="cls-45" d="M814.91,147.33l4.68,2.14c.13.06.25,0,.27-.19h0a.39.39,0,0,0-.18-.39L815,146.75c-.13-.06-.25,0-.27.19h0A.39.39,0,0,0,814.91,147.33Z"/><path class="cls-45" d="M814.31,151.27l4.68,2.14c.13.06.25,0,.27-.18h0a.39.39,0,0,0-.18-.39l-4.68-2.14c-.13-.06-.25,0-.27.18h0A.39.39,0,0,0,814.31,151.27Z"/><path class="cls-45" d="M813.7,155.21l4.68,2.14c.13.06.25,0,.27-.19h0a.39.39,0,0,0-.18-.39l-4.68-2.14c-.13-.06-.25,0-.27.19h0A.39.39,0,0,0,813.7,155.21Z"/><path class="cls-45" d="M813.1,159.16l4.68,2.14c.13.06.25,0,.27-.18h0a.39.39,0,0,0-.18-.39l-4.68-2.14c-.13-.06-.25,0-.27.18h0A.39.39,0,0,0,813.1,159.16Z"/><path class="cls-45" d="M812.11,162.92l5.45,2.5c.13.06.25,0,.27-.19h0a.39.39,0,0,0-.18-.39l-5.45-2.5c-.13-.06-.25,0-.27.19h0A.39.39,0,0,0,812.11,162.92Z"/><path class="cls-45" d="M810.87,166.57l6.58,3c.13.06.25,0,.27-.19h0a.39.39,0,0,0-.18-.39L811,166c-.13-.06-.25,0-.27.19h0A.39.39,0,0,0,810.87,166.57Z"/><path class="cls-45" d="M809.77,170.28l7.85,3.6c.13.06.25,0,.27-.18h0a.39.39,0,0,0-.18-.39l-7.85-3.6c-.13-.06-.25,0-.27.19h0A.39.39,0,0,0,809.77,170.28Z"/><path class="cls-45" d="M816.49,133.2a2.23,2.23,0,0,0,1.2,2.24,1.14,1.14,0,0,0,1.68-.92,2.23,2.23,0,0,0-1.2-2.24A1.14,1.14,0,0,0,816.49,133.2Z"/><path class="cls-45" d="M819.19,134.43a2.23,2.23,0,0,0,1.2,2.24,1.14,1.14,0,0,0,1.68-.92,2.23,2.23,0,0,0-1.2-2.24A1.14,1.14,0,0,0,819.19,134.43Z"/><path class="cls-3" d="M823.77,210.84c0-3.47.06-14.2.06-14.43a5.48,5.48,0,0,0-2.11-4.16c-.46-.4-1.85-.59-2-2.42,0,0-8.18-2.06-8-.39.12,1.41-2.42,2.06-3.15,2.81a5.48,5.48,0,0,0-2.11,4.16v15.74h0a4.72,4.72,0,0,0,0,.55c0,3.52,3.89,6.37,8.69,6.37l.62,0c4.51-.23,8.07-3,8.07-6.35,0-.1,0-.2,0-.31Z"/><path class="cls-2" d="M812.69,193.2q.45.08.92.13a12.06,12.06,0,0,0,2.69-.87,12.09,12.09,0,0,1-1.32.07c-3.44,0-6.23-1.42-6.23-3.17v-1a2.22,2.22,0,0,0-.66,1.5,1.85,1.85,0,0,0,0,.39C808.43,191.63,810.24,192.76,812.69,193.2Z"/><path class="cls-7" d="M821.22,189.36c0,1.52-2.1,2.79-4.91,3.1a12.06,12.06,0,0,1-2.69.87h0l1.37.07a13,13,0,0,0,2.3-.2c2.45-.44,4.26-1.57,4.55-2.94a1.79,1.79,0,0,0,0-.57v-.06s0-.08,0-.12l0-.07,0-.11,0-.08,0-.1,0-.08,0-.1,0-.08-.06-.1-.05-.08-.07-.09-.06-.07-.08-.09-.06-.07h0Z"/><path class="cls-7" d="M822.37,200.87c0,1.69-2.24,3.12-5.29,3.55h-3.85c-3-.43-5.28-1.86-5.28-3.55v9.21h0c0,.19,0,.37,0,.56,0,3.61,3.23,6.54,7.21,6.54s7.21-2.93,7.21-6.54a6,6,0,0,0-.05-.81S822.37,201.15,822.37,200.87Z"/><ellipse class="cls-46" cx="815.16" cy="201.17" rx="7.21" ry="3.95"/><path class="cls-7" d="M820.64,187s.38-.53.1-.27c.15-.27-.24.22-.1-.07-1,1.09-3.15,1.84-5.66,1.84-3.44,0-6.23-1.42-6.23-3.17v4c0,1.75,2.79,3.17,6.23,3.17.36-.14.85,0,1.19-.24l1.72-.59,2.42-1,.67-1v-2.44Z"/><path class="cls-2" d="M821.2,185.51a6,6,0,0,1-.36.89,2.68,2.68,0,0,1-.2.25c-1.35,3.4-5.18,5.69-5.66,5.89a12.1,12.1,0,0,0,1.32-.07c2.81-.31,4.91-1.58,4.91-3.1v-1h0v-3.06A1.62,1.62,0,0,1,821.2,185.51Z"/><ellipse class="cls-2" cx="815" cy="185.62" rx="6.22" ry="3.03"/><ellipse class="cls-7" cx="814.99" cy="185.62" rx="3.87" ry="1.89"/><path class="cls-2" d="M887.59,187.51,844.8,167.68a3.69,3.69,0,0,1-1.86-3.68l3.36-23.48a1.81,1.81,0,0,1,2.62-1.61l42.79,19.83a3.69,3.69,0,0,1,1.86,3.68l-3.36,23.48A1.81,1.81,0,0,1,887.59,187.51Z"/><path class="cls-2" d="M881.61,210.35c2.13,1,5.17-.5,5.49-2.68l1.49-10.37a3.69,3.69,0,0,0-1.86-3.68l-42.79-19.83a1.81,1.81,0,0,0-2.62,1.61l-1.87,13a3,3,0,0,0,1.86,3.23Z"/><path class="cls-3" d="M864.82,161.83c-.63,4.78-4.94,6.78-9.62,4.47s-8-8.07-7.34-12.85,4.94-6.78,9.62-4.47S865.46,157.05,864.82,161.83Z"/><path class="cls-4" d="M858.72,163.69c.74.37,1.78-.24,1.66-1a5,5,0,0,0-.52-1.68h0a3.51,3.51,0,0,0-.63-.65c-.22-.19-.49-.45-.76-.71l-.27-.26h0l-.54-.54-.24-.29-.06-.07a1,1,0,0,1,0-.11l.06-.7a1,1,0,0,0,.54-.7c.38.2.53-.25.61-.56s.16-.79-.13-1l0-.1a2.51,2.51,0,0,0,.16-.6,1.56,1.56,0,0,0-.07-.7.52.52,0,0,0-.08-.16.65.65,0,0,0,0-.25,3,3,0,0,0-1-1.63,2.7,2.7,0,0,0-1.44-.57c-.35,0-.83,0-.91.54a.45.45,0,0,0,0,.2.14.14,0,0,0-.16.06,1,1,0,0,0-.2.56,3.52,3.52,0,0,0,0,.69v.12c-.37-.19-.38.49-.37.77s.06.87.41,1.06a2.42,2.42,0,0,0,.06.47,2.2,2.2,0,0,0,.26.62h0l-.06.72a.78.78,0,0,1,0,.08s-.07,0-.08,0l-.18.07h0l-.16,0h0l-.32,0h-.42c-.25,0-.49,0-.73,0a2,2,0,0,0-1.73,1.66,1.19,1.19,0,0,0,.65,1.35Zm-.22-7.25,0,.08Z"/><polygon class="cls-3" points="880.97 163.31 869.07 157.43 868.6 161 880.5 166.88 880.97 163.31"/><polygon class="cls-3" points="868.25 163.65 867.78 167.22 885.84 176.14 886.31 172.57 868.25 163.65"/><polygon class="cls-3" points="857.71 188.34 857.24 191.91 875.3 200.83 875.77 197.26 857.71 188.34"/><path class="cls-4" d="M852.8,182.5a3.24,3.24,0,0,0-2.54.74c-.18.14-.5,0-.62-.29a6.54,6.54,0,0,0-2.07-2.87c-1.93-1.29-3.58-.17-3.28,2.09.28,2.72,4.56,8.71,4.56,8.71l.12.05s5.28-1.57,6.2-3.72A3.37,3.37,0,0,0,852.8,182.5Z"/><path class="cls-3" d="M849.88,188.35h0a.66.66,0,0,1-.34-.45l-.52-2.75-.58.93a.32.32,0,0,1-.42.09l-1.48-.69a.26.26,0,0,1-.16-.28h0a.47.47,0,0,1,.63-.31l.88.41.91-1.45a.32.32,0,0,1,.42-.09h0a.66.66,0,0,1,.35.46l.53,2.82.46-.65a.32.32,0,0,1,.41-.08l1.6.74a.26.26,0,0,1,.16.28h0a.47.47,0,0,1-.63.31l-1-.47-.78,1.11A.32.32,0,0,1,849.88,188.35Zm-2.11-2.88h0Zm3.42,1.53h0Z"/><path class="cls-35" d="M820.34,200.43l34.39,16.49a1.28,1.28,0,0,1,.44.37l.09-.06,13.87-8.43a.6.6,0,0,1,.78,0,.51.51,0,0,0-.33-.4L835.2,191.95a2.33,2.33,0,0,0-2,.2l-13.2,8a.86.86,0,0,0-.47.6A.51.51,0,0,1,820.34,200.43Z"/><path class="cls-47" d="M856.44,217.51v21.37l12.9-7.84a2.65,2.65,0,0,0,1-2.1l0-4.36-.15-14.93h0s-6.4,5.54-13.72,7.84A.22.22,0,0,1,856.44,217.51Z"/><path class="cls-4" d="M869.12,208.8l-13.87,8.43-.09.06a1.81,1.81,0,0,1,.2.33,1.2,1.2,0,0,1,.3-.06c.41,0,.74-.29.77-.08,7.32-2.3,13.69-7.81,13.72-7.84h0a1.15,1.15,0,0,0-.27-.82A.6.6,0,0,0,869.12,208.8Z"/><path class="cls-4" d="M856.44,238.88V217.51a.22.22,0,0,0,0,0c0-.21-.37.06-.77.08a1.2,1.2,0,0,0-.3.06,1.68,1.68,0,0,1,.17.71V239a.82.82,0,0,1-.16.53c.33-.16,1.06-.65,1.06-.65Z"/><path class="cls-48" d="M820.34,223.15l34.39,16.49a.52.52,0,0,0,.6,0l.06-.06a.82.82,0,0,0,.16-.53V218.33a1.68,1.68,0,0,0-.17-.71,1.81,1.81,0,0,0-.2-.33,1.28,1.28,0,0,0-.44-.37l-34.39-16.49a.51.51,0,0,0-.77.34,1,1,0,0,0,0,.29v20.67A1.68,1.68,0,0,0,820.34,223.15Zm2.17-3.89a.29.29,0,0,1-.17-.26.35.35,0,0,1,.5-.3l12.93,6.2a.29.29,0,0,1,.17.26.35.35,0,0,1-.5.3Zm2.06-11,22.94,11a1.28,1.28,0,0,1,.74,1.16v1.12a1.58,1.58,0,0,1-2.23,1.36l-22.94-11a1.28,1.28,0,0,1-.74-1.16V209.6A1.58,1.58,0,0,1,824.57,208.24Zm-2.23-3.12a.35.35,0,0,1,.5-.3l5,2.41a.29.29,0,0,1,.17.26.35.35,0,0,1-.5.3l-5-2.41A.29.29,0,0,1,822.34,205.13Zm1,10.1,15.2,7.29a.58.58,0,0,1,.34.53.72.72,0,0,1-1,.62l-15.2-7.29a.58.58,0,0,1-.34-.53A.72.72,0,0,1,823.36,215.23Z"/><path class="cls-4" d="M822.34,210.72a1.28,1.28,0,0,0,.74,1.16l22.94,11a1.58,1.58,0,0,0,2.23-1.36v-1.12a1.28,1.28,0,0,0-.74-1.16l-22.94-11a1.58,1.58,0,0,0-2.23,1.36Z"/><path class="cls-35" d="M822.68,216.37l15.2,7.29a.72.72,0,0,0,1-.62.58.58,0,0,0-.34-.53l-15.2-7.29a.72.72,0,0,0-1,.62A.58.58,0,0,0,822.68,216.37Z"/><path class="cls-35" d="M835.94,225.16a.29.29,0,0,0-.17-.26l-12.93-6.2a.35.35,0,0,0-.5.3.29.29,0,0,0,.17.26l12.93,6.2A.35.35,0,0,0,835.94,225.16Z"/><path class="cls-35" d="M827.55,207.8a.35.35,0,0,0,.5-.3.29.29,0,0,0-.17-.26l-5-2.41a.35.35,0,0,0-.5.3.29.29,0,0,0,.17.26Z"/><path class="cls-38" d="M718.65,246.37a2.5,2.5,0,0,1,3.49-.56,2.37,2.37,0,0,1,2.56,0L763,269.56l.34.22h0a4.3,4.3,0,0,1,.81.71,25.56,25.56,0,0,1,3,3.47l.44.8.48.9a.24.24,0,0,1-.23.36l-1-.06-1-.08h-.14a14.4,14.4,0,0,1-4.54-1.15h0a5.71,5.71,0,0,1-1.22-.56L724.1,253.62a4.19,4.19,0,0,0-.06,2.64,4.4,4.4,0,0,0,2,2.46L741.85,268a.84.84,0,0,1-.85,1.44l-15.91-9.33a5.85,5.85,0,0,1-2.76-3.75,6,6,0,0,1,.31-3.57l-1.84-1.05a2.32,2.32,0,0,1-1-2.15A2.56,2.56,0,0,1,718.65,246.37Z"/><path class="cls-4" d="M740.34,268.3h0a.84.84,0,0,0-.3-1.15l-15.79-9.26a4.4,4.4,0,0,1-2-2.46,4.19,4.19,0,0,1,.39-3.37l3-5.09-1.44-.85-2.89,4.93a6.12,6.12,0,0,0-.75,4.46,5.85,5.85,0,0,0,2.76,3.75l15.91,9.33A.84.84,0,0,0,740.34,268.3Z"/><path class="cls-4" d="M720.33,245l0,0h0l4.76,2.77a2.61,2.61,0,0,1,1.31,3.36,2.5,2.5,0,0,1-3.5.56l-4.76-2.77h0l0,0a2.62,2.62,0,0,1-1.31-3.36A2.5,2.5,0,0,1,720.33,245Z"/><path class="cls-4" d="M719,250.91l39.23,22.42c1.69,1,3.33,1.09,4.32-.61h0c1-1.68.34-3-1.33-4L722.88,245C719.95,243.05,716.06,249,719,250.91Z"/><path class="cls-22" d="M720.23,245.11c-.72,1.4-.77,3.06.54,3.92L760,271.45a3.32,3.32,0,0,0,3.29.45,3.88,3.88,0,0,1-.28.58c-1,1.7-2.63,1.62-4.32.61l-39.23-22.42C717.55,249.43,718.52,246.5,720.23,245.11Z"/><path class="cls-4" d="M761.56,268.94a21.39,21.39,0,0,1,3.83,4.19c.4.55-.59,2-1.26,1.92a14.82,14.82,0,0,1-4.68-1.17C757.32,272.81,761.56,268.94,761.56,268.94Z"/><path class="cls-49" d="M765.39,273.13l.44.8.48.9a.24.24,0,0,1-.23.36l-1-.06L764,275A4,4,0,0,1,765.39,273.13Z"/><path class="cls-8" d="M703.37,289.94a4.06,4.06,0,0,0-1-.68l-71.66-37.37c-2.58-1.34-7.11-1-10.12.69L547.25,294.5H702.12a4,4,0,0,0,2-2.73l0-1.77Z"/><path class="cls-33" d="M544.15,294.5l76.49-43.7c3-1.72,7.54-2,10.12-.69l71.66,37.37c2.58,1.34,2.22,3.83-.79,5.55l-2.57,1.47Z"/><polygon class="cls-3" points="552.51 294.74 627.29 253.07 696.18 289 686.31 294.5 552.51 294.74"/><path class="cls-8" d="M679.15,275.41l-2.36-1.23h0c2.78-1.55,2.78-4,0-5.42L664,262.1a11.82,11.82,0,0,0-10.06.18l-1.58-.83a12.3,12.3,0,0,0-10.47.19h0c-2.89,1.61-2.89,4.14,0,5.65l26.75,14a12.3,12.3,0,0,0,10.47-.19h0C682,279.44,682,276.91,679.15,275.41Z"/><path class="cls-50" d="M679.15,273.27,676.79,272h0c2.78-1.55,2.78-4,0-5.42L664,260a11.82,11.82,0,0,0-10.06.18l-1.58-.83a12.3,12.3,0,0,0-10.47.19h0c-2.89,1.61-2.89,4.14,0,5.65l26.75,14a12.3,12.3,0,0,0,10.47-.19h0C682,277.31,682,274.78,679.15,273.27Z"/><path class="cls-3" d="M671.84,272.9,652.3,262.41a1,1,0,0,1,0-1.72h0a1.15,1.15,0,0,1,1.14,0l19.53,10.49a1,1,0,0,1,0,1.72h0A1.15,1.15,0,0,1,671.84,272.9Z"/><path class="cls-33" d="M656.51,291.12a1,1,0,0,1-.45-.11l-18.83-10a1,1,0,0,1,.91-1.71l18.83,10a1,1,0,0,1-.45,1.83Z"/><path class="cls-33" d="M649.14,294.57l-18.82-9.82a1,1,0,0,1,.9-1.72l22.11,11.53Z"/><polygon class="cls-4" points="620.18 279.04 607.88 272.59 620.14 265.74 632.43 272.19 620.18 279.04"/><polyline class="cls-51" points="617.47 270.05 616.59 273.57 625.29 272.66"/><polygon class="cls-4" points="592.82 294.04 580.52 287.59 592.78 280.75 605.07 287.2 592.82 294.04"/><polyline class="cls-51" points="590.11 285.06 589.23 288.58 597.93 287.67"/><path class="cls-52" d="M642.85,181.31c-.08,6-4.41,8.41-9.67,5.4s-9.44-10.33-9.36-16.33,4.41-8.41,9.67-5.4S642.94,175.31,642.85,181.31Z"/><polyline class="cls-52" points="631.85 190.65 631.67 203.84 625.17 207.47"/><path class="cls-52" d="M635.24,173l1.08-.92a1.13,1.13,0,0,1,1.55.37h0a1.19,1.19,0,0,1,0,1.62l-1,.85"/><path class="cls-52" d="M633.92,174.12l-4,3.31a.9.9,0,0,0-.26.88l-.05,0-.66.54a.58.58,0,0,0,0,.79.55.55,0,0,0,.76.18l.66-.54,0,0a.87.87,0,0,0,1,0l4-3.31"/><path class="cls-52" d="M637.19,176.63h0a.86.86,0,0,1-1.2-.1l-2.86-3.4a.84.84,0,0,1,.12-1.19h0a.86.86,0,0,1,1.2.1l2.86,3.4A.84.84,0,0,1,637.19,176.63Z"/><path class="cls-53" d="M560.22,231.47,601.14,211c1.7-.84,5.26-.54,7.9.69l9.63,5.85c2.64,1.22,3.29,1.46,1.58,2.3l-2.45,1.22-41.5,21.6c-1.7.84-2.21-1.86-4.85-3.08l-3.94-1.83-5.88-3.28C559,233.3,558.52,232.31,560.22,231.47Z"/><polyline class="cls-54" points="620.87 199.42 620.87 218.85 606.64 210.72 606.64 192.07"/><path class="cls-54" d="M620.87,211.11l-41.82,21c-1.7.84-5.26.54-7.9-.69l-11.53-7.05"/><path class="cls-54" d="M610.87,190.37l-.68-.42a11.25,11.25,0,0,0-10-.57l-38.83,20.15c-2.73,1.42-2.67,4,.13,5.69l8.78,5.43a11.25,11.25,0,0,0,10,.57l38.83-20.15c2.73-1.42,2.67-4-.13-5.69l-8.1-5"/><line class="cls-54" x1="603.05" y1="200.35" x2="592.11" y2="206.13"/><line class="cls-54" x1="587.23" y1="209.32" x2="576.29" y2="215.09"/><path class="cls-55" d="M606.82,212.74H607a4,4,0,0,0,4-4V187.13a4.09,4.09,0,0,0-4-4.06h-.21a4,4,0,0,0-4,4v21.64A4.09,4.09,0,0,0,606.82,212.74Z"/><path class="cls-4" d="M606.87,210.57H607a2.45,2.45,0,0,0,2.48-2.44V194.79a2.52,2.52,0,0,0-2.48-2.5h-.13a2.45,2.45,0,0,0-2.48,2.44v13.33A2.52,2.52,0,0,0,606.87,210.57Z"/><path class="cls-55" d="M589.85,219.45h.21a4,4,0,0,0,4-4V193.84a4.09,4.09,0,0,0-4-4.06h-.21a4,4,0,0,0-4,4v21.64A4.09,4.09,0,0,0,589.85,219.45Z"/><path class="cls-55" d="M567.21,200.33c0,1.61,3,3,6.68,3s6.68-1.22,6.68-2.83-3-3-6.68-3S567.21,198.72,567.21,200.33Z"/><path class="cls-55" d="M582.92,191.8c0,1.61,3,3,6.68,3s6.68-1.22,6.68-2.83-3-3-6.68-3S582.92,190.19,582.92,191.8Z"/><path class="cls-55" d="M600.25,185.4c0,1.61,3,3,6.68,3s6.68-1.22,6.68-2.83-3-3-6.68-3S600.25,183.79,600.25,185.4Z"/><path class="cls-55" d="M573.79,227.67H574a4,4,0,0,0,4-4V202.06a4.09,4.09,0,0,0-4-4.06h-.21a4,4,0,0,0-4,4v21.64A4.09,4.09,0,0,0,573.79,227.67Z"/><path class="cls-56" d="M589.89,216.6H590a2.45,2.45,0,0,0,2.48-2.44V200.83a2.52,2.52,0,0,0-2.48-2.5h-.13a2.45,2.45,0,0,0-2.48,2.44V214.1A2.52,2.52,0,0,0,589.89,216.6Z"/><path class="cls-6" d="M573.83,225.55H574a2.45,2.45,0,0,0,2.48-2.44V209.77a2.52,2.52,0,0,0-2.48-2.5h-.13a2.45,2.45,0,0,0-2.48,2.44V223A2.52,2.52,0,0,0,573.83,225.55Z"/><path class="cls-57" d="M610.75,185.53s-.33-1.55-3.82-1.6-4.33,1.17-4.33,1.17"/><path class="cls-57" d="M593.68,192.37s-.33-1.55-3.82-1.6-4.33,1.17-4.33,1.17"/><path class="cls-57" d="M578,200.35s-.33-1.55-3.82-1.6-4.33,1.17-4.33,1.17"/><path class="cls-57" d="M610.75,187.92s-2.76,1.68-8,.14"/><path class="cls-57" d="M593.94,194.22s-2.76,1.68-8,.14"/><path class="cls-57" d="M577.87,203s-2.76,1.68-8,.14"/><polyline class="cls-54" points="576.29 222.25 576.29 243.24 559.82 233.29 559.36 212.74"/><path class="cls-54" d="M561.41,215.26l8.78,5.43a11.25,11.25,0,0,0,10,.57L619,201.11c2.73-1.42,2.67-4-.13-5.69"/><path class="cls-53" d="M670.9,239.29l-15.72-14.78c-3.29-1.81-2.91-5,.84-7.07L678.27,205c3.75-2.09,9.46-2.32,12.74-.51l24.58,13.56c3.29,1.81,2.91,5-.84,7.07L692.5,237.56C688.75,239.65,674.19,241.11,670.9,239.29Z"/><path class="cls-22" d="M695.76,209.15s27.78-35.47-.34-66.83L687,140.5l-8.34,17.25s16.49,6.25,4.39,30.65-11.77,20.88-11.77,20.88Z"/><path class="cls-58" d="M688.65,154.84s11,9.35,8.65,21.18c-3,15.17-3.34,16-3.34,16"/><path class="cls-8" d="M667.34,238.2l-24.58-13.56c-1.62-.9-2.35-2.12-2.22-3.39s0-6.53,0-6.53l25.31-9.58c3.75-2.09,9.46-2.32,12.74-.51l26.81,10s.14,5.71,0,7-1.18,2.6-3.06,3.64l-22.25,12.42C676.33,239.78,670.62,240,667.34,238.2Z"/><path class="cls-22" d="M667.34,231.74l-24.58-13.56c-3.29-1.81-2.91-5,.84-7.07l22.25-12.42c3.75-2.09,9.46-2.32,12.74-.51l24.58,13.56c3.29,1.81,2.91,5-.84,7.07l-22.25,12.42C676.33,233.32,670.62,233.55,667.34,231.74Z"/><path class="cls-4" d="M686.19,215.7c0,3.55-5.92,6.48-13.22,6.55s-13.22-2.75-13.22-6.29,5.92-6.48,13.22-6.55S686.19,212.16,686.19,215.7Z"/><path class="cls-8" d="M667.34,214.61l-24.58-13.56c-1.62-.9-2.35-2.12-2.22-3.39s0-5.73,0-5.73l25.3-10.38c3.75-2.09,9.46-2.32,12.74-.51l26.81,10.83s.12,4.83,0,6.09-1.16,2.64-3.07,3.7L680.08,214.1C676.33,216.19,670.62,216.42,667.34,214.61Z"/><path class="cls-8" d="M673,179.83a11.79,11.79,0,0,1,5.63,1.22l26.81,10.83s.12,4.83,0,6.09-1.16,2.64-3.07,3.7L680.08,214.1a15.17,15.17,0,0,1-7.11,1.73Z"/><path class="cls-4" d="M667.34,209l-24.58-13.56c-3.29-1.81-2.91-5,.84-7.07l22.25-12.42c3.75-2.09,9.46-2.32,12.74-.51L703.17,189c3.29,1.81,2.91,5-.84,7.07l-22.25,12.42C676.33,210.57,670.62,210.8,667.34,209Z"/><path class="cls-59" d="M680.81,191.73c0,2.19-3.51,4-7.85,4s-7.85-1.7-7.85-3.89,3.51-4,7.85-4S680.81,189.54,680.81,191.73Z"/><path class="cls-4" d="M673,191.28c3.11,0,5.8.86,7.07,2.17a2.53,2.53,0,0,0,.78-1.73c0-2.19-3.51-3.93-7.85-3.89s-7.85,1.85-7.85,4a2.48,2.48,0,0,0,.78,1.72C667.17,192.26,669.86,191.31,673,191.28Z"/><path class="cls-60" d="M681,191.89c0-2.19-3.51-3.93-7.85-3.89s-7.85,1.85-7.85,4"/><path class="cls-8" d="M712.68,164.11c0,4.13-3,8-6.79,8.66s-6.79-2.17-6.79-6.3,3-8,6.79-8.66S712.68,160,712.68,164.11Z"/><path class="cls-8" d="M709.33,165.49a2.71,2.71,0,0,1-2.07,2.64,1.79,1.79,0,0,1-2.07-1.93,2.71,2.71,0,0,1,2.07-2.64A1.79,1.79,0,0,1,709.33,165.49Z"/><path class="cls-61" d="M702.79,169.25a5,5,0,0,1-.91-3,6.35,6.35,0,0,1,4.86-6.2,4,4,0,0,1,4.44,2.4"/><path class="cls-3" d="M678.64,176c0,.19-.69,2-.76,2.17-.48,1.12-2.57,1.53-5.06.91-2.85-.71-5.17-2.5-5.17-4a14.12,14.12,0,0,1,.78-2.46c.65-1,2.06.44,4.39,1C675.68,174.36,678.64,174.5,678.64,176Z"/><path class="cls-22" d="M682.46,172.15c0,.26-.94,2.75-1,3-.66,1.53-3.51,2.1-6.92,1.25-3.9-1-7.06-3.42-7.06-5.48a19.32,19.32,0,0,1,1.06-3.36c.88-1.3,2.82.61,6,1.4C678.4,169.9,682.46,170.09,682.46,172.15Z"/><path class="cls-3" d="M668.34,164.09l9.86-25.29a9.07,9.07,0,0,1,11.5-5.13h0a8.52,8.52,0,0,1,5.16,11.13L685,170.09C683.25,174.58,666.59,168.58,668.34,164.09Z"/><path class="cls-3" d="M685.19,169.58c0,2.52-3.9,3.65-8.7,2.53s-8.7-4.07-8.7-6.59,3.9-3.65,8.7-2.53S685.19,167.07,685.19,169.58Z"/><path class="cls-62" d="M694.86,144.82a8.49,8.49,0,0,0-4-10.63l-14.28,35.66a2.21,2.21,0,0,0-.58,1.5,2.7,2.7,0,0,0,.09.68l.43.11c4.8,1.12,8.69,0,8.7-2.51Z"/><path class="cls-4" d="M686.82,140.57h0a5.31,5.31,0,0,1-3.22-6.94l6.14-15.76c1.09-2.8,11.47.94,10.38,3.74L694,137.38A5.65,5.65,0,0,1,686.82,140.57Z"/><path class="cls-8" d="M700.13,121.66c-.5,1.21-3.24,1.31-6.12.21s-4.81-3-4.31-4.19,3.24-1.31,6.12-.21S700.63,120.45,700.13,121.66Z"/><path class="cls-60" d="M692.3,118.92c.25-.61,1.62-.65,3.05-.1s2.4,1.48,2.15,2.09"/><path class="cls-60" d="M698.1,127c-.5,1.21-3.24,1.31-6.12.21s-4.81-3-4.31-4.19"/><path class="cls-58" d="M685.39,168.75c-1.32,1.33-4.41,1.75-8,.91-4.81-1.12-8.7-4.07-8.7-6.59"/><path class="cls-4" d="M696.52,140.06c0,2.52-3.9,3.65-8.7,2.53s-8.7-4.07-8.7-6.59,3.9-3.65,8.7-2.53S696.52,137.55,696.52,140.06Z"/><path class="cls-60" d="M702.75,196,680.5,208.47c-3.75,2.09-9.46,2.32-12.74.51l-24.58-13.56"/><path class="cls-60" d="M702.75,218.77,680.5,231.18c-3.75,2.09-9.46,2.32-12.74.51l-24.58-13.56"/><line class="cls-63" x1="693.69" y1="206.5" x2="702.75" y2="211.5"/><g id="character2"><path d="M445.76,119.16c.71-.17,2.38-1.27,3.13-1.14s2,1.38,2.66,1.69,1.89.11,2.45.52c1,.75,1.25,2.63,1.54,3.08.52.8,2.42,1.25,2.79,2.13s.58,2.46.83,3.32c.3,1,2,2.59,1.31,4.41-.27.74-2.93,1.12-3.38,1.39-.75.45-1.74,2.16-2.57,2.43-1.62.52-2.88-.24-3.77-.42a9.68,9.68,0,0,0-2.64-.21c-1.27.06-2.91,1.67-5.24.82-.85-.31-1.6-1.74-2.49-1.87-1.29-.18-2.65-.06-3-1.26-.41-1.61.37-2.12.7-3.21.54-1.77-.24-4,.12-4.76s2.23-2.25,2.5-2.83.61-2.49,1.54-3.16C442.94,119.63,444.22,119.52,445.76,119.16Z"/><path class="cls-64" d="M440.27,219.26c.33,2.61-1.92,13.2-1.22,18.13,2,14.27,5,24,6.3,31.38.14.79,3,1,3,.19.6-8.26,4.74-29.65,3.79-34.31a54.5,54.5,0,0,0-4.58-11.48C445.56,219.42,440.27,219.26,440.27,219.26Z"/><path class="cls-64" d="M452.31,221.95c.65,2.53-.49,12.55.81,17.33,3.76,13.82,9.1,23,10.76,29.68.2.78,3.06.81,3.06,0,0-6.56,1-29.86-.54-34.33-.71-2.11-3.8-6.45-6.35-9.95S452.31,221.95,452.31,221.95Z"/><path class="cls-4" d="M442.21,170.87c-1.47,4.47-6.85,11.66-6.85,21.79,0,7.76,2.8,20.53,3.55,35.58.16,3.27,23.67,2.12,24.35-.31.15-.54,4-29.23,3.44-36.46-.71-9.23-10.42-21.62-10.42-21.62Z"/><path class="cls-65" d="M465,174.19c-.77,3.54,1.08,8.68-.13,12.1-.15.42-1.77,1.71-2.17,2.21-.59.75-.7,1.91-1.32,2.77-.36.51-.61.52-1,.94s.72.88,1.72.3,1.45-1.95,1.69-1.26a4,4,0,0,1-.1,3.59c-.25.47-1.08.6-1.37.88s-.23.91,0,1c1.28.5,4.42,0,4.94-.63a8.3,8.3,0,0,0,1.06-3.23c.11-.82-.6-4.58-.42-5.32.38-1.6,4.37-11.36,4.37-15.45,0-2.18-2.64-7.48-4.1-7.17C467.28,165.11,465.43,172.21,465,174.19Z"/><path class="cls-65" d="M409.27,178.47c1-.75,1.64-1.6,2-1.72,1.55-.54,11.91-2.48,15.36-4.7,1.83-1.18,4.86-6.27,3.81-7.34-.65-.66-7.62,1.64-9.52,2.35-3.4,1.27-6.7,5.61-10.24,6.45a25.82,25.82,0,0,1-3-.63c-1.48-.15-2.79,1.09-3.82,1.5s-2.35-.28-2.44.26.71,1,.71,1a12.62,12.62,0,0,0-2.16,2c-.21.5,3.5,2.08,5,2.53C405.86,180.42,408.38,179.16,409.27,178.47Z"/><path class="cls-11" d="M437,142.5c-1.39-.24-5.41,10.45-13.41,21.9-1.29,1.85,8.83,8.49,12.83,6.16,2.69-1.56,5.07-17.4,3.84-23.62C439.69,144.11,440.09,143,437,142.5Z"/><path class="cls-22" d="M460.61,141.75c1.88.82,12.28,19,13.21,24.23.64,3.6-12.07,7.32-13.33,4.66-1-2.06-2.46-11.69-2.88-16.47C457.39,151.82,457.89,140.56,460.61,141.75Z"/><path class="cls-22" d="M454,140.08a24.39,24.39,0,0,1-1.77-2.08c-.56-.72-6.84-.3-7.38.18a28.31,28.31,0,0,1-1.71,2.35c-.25.12-5.05,1.43-6.32,2a32.49,32.49,0,0,0,.8,10.85c.36,1.46-1.26,3.19-.87,4.66.73,2.73,2.1,3.2,2.47,4.57,1.12,4.16,2,7.68,2,9.05,0,2,16.74.92,16.26-1.36s1.69-15.85,2-17c1.11-4.77,3.35-10.39,1.17-11.62C459.76,141.27,454.38,140.31,454,140.08Z"/><path class="cls-64" d="M445.48,133.76c.12.65-.11,3.9-.11,4.94,0,.46.72,1.06,1.72,1.06,1.88,0,4.68-.79,4.61-1.42-.23-2-1-5.42-.47-8C451.93,126.92,445.48,133.76,445.48,133.76Z"/><path class="cls-65" d="M441.67,127.5c-.13,3,1.62,7.94,3.4,8.06,3.46.24,6.85-3.59,6.12-8.73-1.25.06-1.14-1.33-2-1.58-1.06-.3-3.14.46-3.79,0-1.2-.86-1.79-1.74-2.13-1.67C442.17,123.82,441.73,126,441.67,127.5Z"/><path class="cls-66" d="M445.85,172.26a.29.29,0,0,1-.29-.28c0-.07-.28-7.41-.89-9.5a6,6,0,0,0-.33-.76,9.21,9.21,0,0,1-1.08-4.11,24,24,0,0,1,1.13-6,36.5,36.5,0,0,0,1.68-11.22.29.29,0,1,1,.58,0,35.73,35.73,0,0,1-1.7,11.39,23.61,23.61,0,0,0-1.11,5.85,8.69,8.69,0,0,0,1,3.86,6.31,6.31,0,0,1,.36.85c.63,2.16.9,9.34.91,9.65a.29.29,0,0,1-.28.3Z"/><path class="cls-66" d="M440.57,162.49a4.13,4.13,0,0,1-2.28-.67,5,5,0,0,1-2.15-3.82,14.34,14.34,0,0,1,1.83-6.54.29.29,0,0,1,.48.32,10.86,10.86,0,0,0-1.73,6.17,4.42,4.42,0,0,0,1.88,3.38,3.86,3.86,0,0,0,3.49.3.29.29,0,1,1,.19.55A5.2,5.2,0,0,1,440.57,162.49Z"/><path class="cls-67" d="M447.76,268.64a3.87,3.87,0,0,1,2.37,3,12.39,12.39,0,0,1-.19,2.49,32,32,0,0,0-.16,6.24.66.66,0,0,1-.66.69h-6.44c-.33,0-.81-1.51.26-2.22,1.27-.84,4.58-2.2,5.58-1.43a26.94,26.94,0,0,0,.31-3.5A26.19,26.19,0,0,0,447.76,268.64Z"/><path class="cls-64" d="M445.76,267.32c-.88,2.64-2.08,11.1-2.08,11.1s4.42-2,5.4.34c.7-2-.13-9.24-1.12-10.78S445.76,267.32,445.76,267.32Z"/><path class="cls-67" d="M466.33,268.64a3.41,3.41,0,0,1,2.11,2.88,18.12,18.12,0,0,1-.07,2.54,54.76,54.76,0,0,0,0,6.44.54.54,0,0,1-.54.57h-6.57c-.33,0-.53-2.6.54-3.31,1.27-.84,4.31-1.11,5.3-.34a26.93,26.93,0,0,0,.31-3.5A26.19,26.19,0,0,0,466.33,268.64Z"/><path class="cls-64" d="M464.33,267.32a89.22,89.22,0,0,0-1.89,10.11,5.67,5.67,0,0,1,5.17,1.72c.7-2-.09-9.63-1.08-11.17S464.33,267.32,464.33,267.32Z"/><path class="cls-65" d="M451.1,127.6c-.13-1.11.62-1.34,1-1.1.62.43-.16,3.3-.66,3.3s-.33-.94-.33-.94Z"/><path class="cls-66" d="M451.2,162.38a5,5,0,0,1-2.87-.83.29.29,0,0,1,.34-.47,5,5,0,0,0,4.76.25A3.93,3.93,0,0,0,455.8,158a.29.29,0,1,1,.58,0,4.49,4.49,0,0,1-2.71,3.85A6,6,0,0,1,451.2,162.38Z"/><path class="cls-66" d="M445.63,143a.29.29,0,0,1-.14,0,4.82,4.82,0,0,1-2.22-2,.29.29,0,0,1,.54-.22c.84,2,.37.91,2,1.76a.29.29,0,0,1-.14.55Z"/><path class="cls-66" d="M448.11,143.26a8.28,8.28,0,0,1-.94-.05.29.29,0,1,1,.07-.58,7.42,7.42,0,0,0,6.51-2.45.29.29,0,0,1,.45.37A7.77,7.77,0,0,1,448.11,143.26Z"/><path class="cls-66" d="M458.28,159.61a.29.29,0,0,1-.29-.25,73.68,73.68,0,0,1-.72-11.77.29.29,0,1,1,.58,0,73,73,0,0,0,.72,11.66.29.29,0,0,1-.25.33Z"/><path class="cls-68" d="M407.27,174.9c-2.71,0-9,1.33-14.4,2.82a49.27,49.27,0,0,1-8,1.72L395,184.15s6.26-6.7,8-7.09,7.42-1.16,7.42-1.16Z"/></g><g id="character1"><path d="M482.27,126.58c-1.06-.66-1.36-3-1.37-3.38,0-.56.88-.87.88-1.81,0-.39-.68-1.18-.41-1.73.44-.91,1.86-.73,2.15-1.11.45-.6-.11-1.69.78-2.34.7-.51,1.43.33,2.05.12.88-.3.88-1.43,2.27-1.78,1.11-.28,1.94.46,2.76.66,1.07.27,2.13-.85,3.62-.36.81.27.75,1.59,1.29,1.94.69.45,1.41-.27,2.13.27.47.35.48,1.51.74,2.1.55,1.26,1.38,1.12,1.66,2.38a3.45,3.45,0,0,1-.44,2c-.18.66.75,2.39,0,3.57-.4.65-1.13.49-1.56,1.26-.11.2,0,.76-.39,1.16-.84.95-2.23.62-2.89,1.19s.07,2.13-.88,2.48-2.45,0-3.28-2.5c-.64-1.9-3.43-3.18-5-4.06C485.42,126.16,482.52,126.74,482.27,126.58Z"/><path class="cls-11" d="M480.92,145.15c-1,2.72-2.61,21.49-3.14,23.19s-1.66,3.54-2.11,6.43c-1.14,7.18,0,10.11.27,16.26.05,1.06,3.68,1,4.08.16,3.9-8.16,10.58-23.88,10.58-23.88S481.87,142.53,480.92,145.15Z"/><path class="cls-67" d="M479.82,273.09c-2.7.89-7.9,2.86-7.51,3.83.27.68,15.54.08,16.18-.55.46-.45.27-5.38-.51-5.16C487.44,270.94,479.82,273.09,479.82,273.09Z"/><path class="cls-67" d="M511.17,270.44c-.82.3-4.2,4-4.32,6.13-.1,1.75,7.18,1,7.76.55,1.92-1.39.53-6.44,0-6.8A6,6,0,0,0,511.17,270.44Z"/><path class="cls-69" d="M482.34,221.51c1,8.7,3.13,46.91,2.2,49.21-.19.47-7.08,3-7.08,3.48,0,.79,4.72.43,7.68-.44,2.3-.67,2.57-1.6,2.74-2.14.41-1.33,8.89-28.57,8.7-38.19s-7.32-19-7.32-19S481.84,217.24,482.34,221.51Z"/><path class="cls-70" d="M492.82,223c3.9,8.25,15.11,28.49,18.51,46.51.07.35-.94,1.41-1.53,2.44s-.27,2.07.31,2.26c1.91.6,4.9-2.22,4.46-3.93-.65-2.53,1.08-29.82-2.21-38.86S496.73,215,496.73,215,489.94,216.88,492.82,223Z"/><path class="cls-71" d="M492.06,140.79c-3.71,0-9.83,1.38-11.15,4.37-1.06,2.41.65,7.09.5,10.3,0,.6-2.27,3.59-2.14,4.82a5.34,5.34,0,0,0,2.49,3.28c0,7,.85,11.31-1,18.36-3.82,14.55-1.87,26.95,1.6,41.58,6,.66,19.63-.33,23.62-1.45,1.67-7,4.38-26.2,3.67-31.91-.76-6.07-9.3-13.35-9.56-15.7-1.2-10.94,6.92-25.34,4.1-29.48C502.37,142.31,497.68,140.75,492.06,140.79Z"/><path class="cls-72" d="M489,129.81c-.6,10.05-1.93,12.44-1.84,13.88.05.84,7.2,1.44,7.64-1.34.24-1.49-1.47-9.7-1-15.22C491.34,127.57,489.14,127.14,489,129.81Z"/><path class="cls-70" d="M483.07,122.07c-1.44,3.88-1,11.65,1.66,13.41,1.79,1.19,7.88-1.24,9.23-6.94.6.4,1.53-1.47,1.42-2.89-.08-1.06-1.05-1.22-1.65-.38a1.32,1.32,0,0,1-1.66.11c-.75-.68-.49-2.32-1-2.81-.72-.65-1.77.2-2.56-.42s-.72-1.75-1.47-1.92c-.47-.11-1,.8-1.64.8s-.58-.73-.89-.72C484,120.31,483.49,120.93,483.07,122.07Z"/><path class="cls-11" d="M490.59,163.86a7,7,0,0,1-1.86-.24,3.36,3.36,0,0,1-2.15-1.54.36.36,0,0,1,.64-.35,2.62,2.62,0,0,0,1.7,1.18,7.72,7.72,0,0,0,5.2-.61.36.36,0,0,1,.37.63A8.31,8.31,0,0,1,490.59,163.86Z"/><path class="cls-71" d="M495.21,141.77c2.75,5.15,10.19,15.24,11,16.93.38.78-6.76,12.53-8.53,14.64-.58.69,2.15,2.44,2.79,2.25.88-.26,12.21-10.23,12.45-16,.16-3.75-5.86-14.89-7.42-15.8C502.4,142,494.14,139.79,495.21,141.77Z"/><path class="cls-70" d="M498.09,173.22a5.81,5.81,0,0,1-2.25,1.64c-.53.11-2.3,0-2.75.44s-1.12,1.53-1.63,2.13-1.12.75-1,1a1.15,1.15,0,0,0,1.3.12c.44-.28.9-1.75,1.62-1.36.52.28-4.41,5.13-4,5.58s2.88-2.69,3.27-2.69-3.15,3.56-2.85,4c.56.74,3.32-3.25,3.64-3s-2.93,3.07-2.71,3.34c.59.71,3.25-2.8,3.59-2.59.12.07-.14.73-.63,1.33s-1.05.81-.93,1.13.82-.08,1.35-.59.79-.91,1.34-1.48a25.07,25.07,0,0,0,2.67-2.77c.8-1.45.75-2.65,1.14-3.1s1.16-1.32,1-1.72C500.11,173.83,498.59,172.71,498.09,173.22Z"/><path class="cls-70" d="M478.91,190.68a6.1,6.1,0,0,0,.72,2.63c.32.4,1.64,1.36,1.73,2s0,1.89,0,2.67.39,1.26.16,1.35a1,1,0,0,1-1-.66c-.16-.49.31-1.94-.42-2-.52-.07-.58,8.22-1,8.37-.81.28-2-4.87-2.12-5.2-.6-1.44-.53-6.73-.56-7.33s-.11-1.74.2-2C477.13,190,478.83,190,478.91,190.68Z"/><path class="cls-11" d="M502,156.88a.36.36,0,0,1-.32-.19C501,155.53,500,153,500,152.94a.36.36,0,1,1,.67-.28s1.06,2.55,1.69,3.67a.36.36,0,0,1-.32.54Z"/><path class="cls-11" d="M492.21,221.55a.36.36,0,0,1-.34-.24c-1.94-5.42-1.38-24-1.36-24.77a.36.36,0,0,1,.36-.35h0a.36.36,0,0,1,.35.38c0,.19-.58,19.21,1.32,24.5a.36.36,0,0,1-.22.47Z"/></g><g id="_4" data-name="4"><path class="cls-73" d="M378.43,146.34c1.13.95,5.58,22.78,4.91,28.57-.94,8.13-6,19.78-6,19.78l-9.06,1.49S368.79,138.27,378.43,146.34Z"/><path class="cls-74" d="M356.36,271.52c-.72-.12-.62,1.63-.36,1.77,1.75.93,6,1,9.43,1.29,4,.28,7.14.39,8.36-.52.64-.48.71-1.58-.7-2.26-.65-.31-9.62-.87-9.82-.81S356.36,271.52,356.36,271.52Z"/><path class="cls-65" d="M364.23,259.3c.15,2.61-1.37,6.74-.91,7.71.18.38,1.62,3.2.56,4.33a4,4,0,0,1-6.76-2.12,52.07,52.07,0,0,0,1.61-9.3C358.74,258.63,364.15,257.92,364.23,259.3Z"/><path class="cls-75" d="M356.39,272.05c.28,1,14.64,2.62,16.7,1.28,1.09-.71.12-1.52-1.12-2-1.44-.6-5.5-3.2-6.83-3.8-1.1-.49-1.9-2.65-2.34-2.26s-.38,2.55-.19,3.42.06,1.58-.32,1.69c-2.11.64-4.32-2.92-4.89-2.75C356.66,267.82,356.1,271,356.39,272.05Z"/><path class="cls-65" d="M357.45,258.25c-1.32,3.44-.43,8.38,0,9.36.2.49,1.95,6-2.94,4.49-3.18-1-3.06-3.41-2.92-3.77,1.26-3.36-.05-8.62-.05-9.8S357.94,257,357.45,258.25Z"/><path class="cls-76" d="M350.29,271.72c-.62-.14-.39,2-.23,2.25a20.47,20.47,0,0,0,7.08.88c3.24-.08,5.29-.26,5.55-.86a2.48,2.48,0,0,0-.7-2.11c-.55-.35-5.9-.69-6.08-.64S350.29,271.72,350.29,271.72Z"/><path class="cls-77" d="M356.56,266c.71,0,1.74,1.6,2.3,3.26.66.7,1.87,1,2.5,1.89.44.65,1,1.79.75,2.1-.83,1.08-11.34.9-11.72-.07-.49-1.26.54-2.42.68-3.66s0-1.71.4-2.31c.12-.19.44-.07.43.28,0,.79-.14,2.18,1,2.34C353.88,266.92,355.39,265.94,356.56,266Z"/><path class="cls-78" d="M377,190.09s-6.58,63.12-8.49,72.37c-.35,1.67-10.42,1.1-10.65-.59-.9-6.6-5-20.26-4.19-26.36.34-2.72,2.4-7.59,3.78-10.89,1.72-4.13-6.53-27.34-.1-45.53C359,174.16,377,190.09,377,190.09Z"/><path class="cls-11" d="M366.82,184.38s-4.69,69-6.12,78.33c-.26,1.69-13.68,2.17-14.42-1.71-1.25-6.54-.94-18.8-.49-24.94.2-2.73,2-7.7,3.2-11.07,1.5-4.21-7.95-27-2.48-45.47C348,174.52,366.82,184.38,366.82,184.38Z"/><path class="cls-78" d="M374.91,189.54c-.25,2,1.31,4.86,2.42,5.14,0,1.85-1.8,4.9-2.75,7.37-1,2.69-5-5.27-5-5.27Z"/><path class="cls-7" d="M360.89,134c6.2.65,15.29,5.65,17.54,12.35,1.27,3.78-1.47,43.75-1.47,43.75l-33.29.83s2.28-10,2.52-12.61c.57-6.26-2.64-26.15-6.58-33.18C336.83,140.17,355.48,133.43,360.89,134Z"/><path class="cls-73" d="M364.49,125.39s1.66,11,1.58,11.3c-.15.59-1,6.81-2,7.4-1.47.85-9.81-6.09-10.35-7.4-.12-.29,1.43-12.59,1.43-12.59Z"/><path d="M366.69,122.37c1.08-6.34-.3-9.94-.91-10.81-.85-1.22-10.93-1.93-12.53.7s-.75,9.07-.09,10.1,8,2,8,2Z"/><path class="cls-65" d="M364.71,115.18c1,1.28,1.3,2.79,1.33,5.45,2.24-3.76,1.49,4.65-.18,3.82-.26,2.72-1.66,5.64-4,6.94a3.25,3.25,0,0,1-3.19.25c-2.92-1.36-4.29-4.56-4.58-6.89-.83,0-1.75-2.81-1.67-4.39.05-1.08.88-1.57,1.33-.09-.09-2.89.21-4.45.83-5.08.78-.79,3.12,1.6,6.34,1.61C363.93,116.8,364.08,114.38,364.71,115.18Z"/><path class="cls-79" d="M357.36,124.78a23.89,23.89,0,0,1-2.8-.14.68.68,0,0,1-.4-.44,7.64,7.64,0,0,1-.32-3.19c.07-.12.2-.18.52-.24.92-.18,4.09-.4,4.84.16.09.07.33.25.35,1.54,0,.19,0,1.82-.34,2.12A4.85,4.85,0,0,1,357.36,124.78Zm-2.65-.64a21.86,21.86,0,0,0,4.15,0,6.49,6.49,0,0,0,0-2.84c-.57-.41-4-.24-4.59,0A7.78,7.78,0,0,0,354.71,124.14Z"/><path class="cls-79" d="M362.81,124.78a4.85,4.85,0,0,1-1.83-.19c-.36-.3-.35-1.93-.34-2.12,0-1.29.26-1.47.35-1.54.75-.57,3.92-.34,4.84-.16.32.06.45.12.52.24a7.43,7.43,0,0,1-.32,3.19.68.68,0,0,1-.4.44A23.85,23.85,0,0,1,362.81,124.78Zm-1.5-.6a22,22,0,0,0,4.15,0,7.62,7.62,0,0,0,.43-2.83c-.64-.21-4-.38-4.59,0A6.49,6.49,0,0,0,361.31,124.18Z"/><path class="cls-73" d="M339.35,144.16c-5.28,8.45-6.52,29.78-5.29,33.91,2.23,7.48,14.38,19.84,14.38,19.84l2.23-4.82s-6.72-15.15-6.69-18.18,1.74-9.89,1.74-13.34S339.35,144.16,339.35,144.16Z"/><path class="cls-7" d="M333.08,166.7c.28-5.12,3.28-24.46,9.06-26.13,4.19-1.21,8.23,28.2,6.09,28.69S333.08,166.7,333.08,166.7Z"/><path class="cls-80" d="M375.49,141.5c4,2,8.88,19.06,7.91,23.05a36.72,36.72,0,0,1-7.1,1.67Z"/><path class="cls-81" d="M378.42,164.62a.19.19,0,0,1-.19-.19c.21-4.66,0-12.21,0-12.29a.19.19,0,0,1,.18-.19.17.17,0,0,1,.19.18c0,.08.21,7.64,0,12.32A.19.19,0,0,1,378.42,164.62Z"/><path class="cls-81" d="M348.83,168.83h0a.19.19,0,0,1-.17-.2c0-.11.78-10.8-.89-16.44a.19.19,0,0,1,.36-.11c1.69,5.71.91,16.46.91,16.57A.19.19,0,0,1,348.83,168.83Z"/><path class="cls-81" d="M351.21,152.74c1.21,0,8.52-.09,8.68,0a15,15,0,0,1,.12,2.6h-8.55Z"/><path class="cls-82" d="M363.33,169.63c0-.12.29-.14.31,0S363.35,169.74,363.33,169.63Z"/><path class="cls-82" d="M367.17,171.56c0-.11.32,0,.28.14S367.14,171.68,367.17,171.56Z"/></g></g></g></g></svg>