<svg xmlns="http://www.w3.org/2000/svg" viewBox="0 0 602.38 420.33"><defs><style>.cls-1{fill:#03567f;}.cls-2{fill:#11cca8;}.cls-3{fill:#069d88;}.cls-4{fill:#003c67;}.cls-5{fill:#357a5f;}.cls-6{fill:#3a3a3a;}.cls-7{fill:#2d2d2d;}.cls-8{fill:#f7b88d;}.cls-9{fill:#2f664e;}.cls-10{fill:#204f5e;}.cls-11{fill:#d5eaf5;}.cls-12{fill:#295a6e;}.cls-13{fill:#fff;}.cls-14{fill:#3b2b5b;}.cls-15{fill:#eaa475;}.cls-16{fill:none;stroke:#aacbe8;stroke-linecap:round;stroke-linejoin:round;stroke-width:0;}.cls-17{fill:#353535;}.cls-18{fill:#efefef;}.cls-19{fill:#aacbe8;}.cls-20{fill:#ff97a6;}.cls-21{fill:#30193b;}.cls-22{fill:#29684d;}.cls-23{fill:#022333;}.cls-24{fill:#032e49;}.cls-25{fill:#01314f;}.cls-26{fill:#ffe5b0;}.cls-27{fill:#f7d69c;}</style></defs><title>Asset 2</title><g id="Layer_2" data-name="Layer 2"><g id="Layer_1-2" data-name="Layer 1"><path class="cls-1" d="M223.7,0" transform="translate(0 -6.36)"/><path class="cls-2" d="M190.21,339.44h-5.44V322.3H149.9v14.19h-5.44V319.58a2.72,2.72,0,0,1,2.72-2.72h40.31a2.72,2.72,0,0,1,2.72,2.72Z" transform="translate(0 -6.36)"/><rect class="cls-2" x="119.34" y="328.21" width="98.68" height="74.49" rx="11.29" ry="11.29"/><rect class="cls-3" x="119.34" y="328.21" width="91.54" height="74.5" rx="11.29" ry="11.29"/><polygon class="cls-4" points="186.96 354.65 173.28 354.65 173.28 340.97 158.01 340.97 158.01 354.65 144.33 354.65 144.33 369.92 158.01 369.92 158.01 383.6 173.28 383.6 173.28 369.92 186.96 369.92 186.96 354.65"/><path class="cls-5" d="M486.05,39.69c0-13.51-28.66-8.49-47.66-27.4-17.72-17.63-50.07,36.66-101.65,37-51.58-.39-83.94-54.68-101.65-37-19,18.91-47.66,13.89-47.66,27.4s37.4,15.05,37.4,15.05-20.21,3.86-13.27,11.82S248.36,69,248.36,69s-13.57,13.12,0,14.66,41-14.28,41-14.28-8.14,8.49,1.51,11.58c5,1.61,17.25-2.33,27.81-6.48,0,.61-.06,1.22-.06,1.84,0,9.91,4.87,18.33,11.71,21.64l.6,59.1c-2.36-.33-4.71-.64-7-.95-7-.9-14-1.71-20.69-2.89a92.32,92.32,0,0,1-9.66-2.18,30.69,30.69,0,0,1-8-3.39,9.37,9.37,0,0,1-2.34-2.07,4.5,4.5,0,0,1-.9-2,7.59,7.59,0,0,1,.08-2.76,27.08,27.08,0,0,1,1.07-4.1,23,23,0,0,1,10.25-12.35,35.05,35.05,0,0,1,8-3.49,42.6,42.6,0,0,1,4.39-1.05c.74-.14,1.48-.25,2.21-.34l1.08-.12.51,0,.23,0h.12a7.33,7.33,0,1,0-.68-14.65l-.54,0-.43,0-.81.09-1.55.21c-1,.16-2,.34-3,.55a57,57,0,0,0-5.87,1.57,49.21,49.21,0,0,0-11.21,5.24,38.77,38.77,0,0,0-9.58,8.58,36.05,36.05,0,0,0-6.08,11.48,40.64,40.64,0,0,0-1.45,6.18,20.76,20.76,0,0,0,.18,7.76,17.86,17.86,0,0,0,3.65,7.45,22.47,22.47,0,0,0,5.64,4.83,43,43,0,0,0,11.53,4.66,104.67,104.67,0,0,0,11.06,2.2c3.43.51,6.81.91,10.17,1.28-.61.45-1.21.92-1.76,1.41-.76.68-1.52,1.38-2.25,2.18a24.72,24.72,0,0,0-2.15,2.58,17.74,17.74,0,0,0-1.89,3.23,13.74,13.74,0,0,0-1.15,4.14,12.12,12.12,0,0,0,.39,4.62,13.46,13.46,0,0,0,1.83,3.87,18.06,18.06,0,0,0,2.4,2.83,29.16,29.16,0,0,0,5.12,3.85,67.76,67.76,0,0,0,10.15,4.87l-3.39,1-2.53.78-1.27.39c-.42.13-.95.29-1.42.46a21.77,21.77,0,0,0-5.91,3,12.52,12.52,0,0,0-2.82,2.86,9.86,9.86,0,0,0-1.71,4.28,10.43,10.43,0,0,0,.34,4.38A14.21,14.21,0,0,0,304.9,221a24.12,24.12,0,0,0,4.08,4.92,42.57,42.57,0,0,0,4.54,3.7c1.56,1.11,3.15,2.12,4.76,3.06q1.21.7,2.44,1.36l2.4,1.26c1.89,1,3.79,1.92,5.69,2.84l0,0c-3.17,1.66-6.36,3.39-9.47,5.38a44.9,44.9,0,0,0-8.9,7.16,21.83,21.83,0,0,0-5.71,10.83,17.06,17.06,0,0,0,0,6.42,19.33,19.33,0,0,0,2.23,5.84,31.15,31.15,0,0,0,7.76,8.66,48.36,48.36,0,0,0,4.6,3.23q1.19.74,2.42,1.41c.84.45,1.61.86,2.56,1.3a2.71,2.71,0,0,0,2.33-4.89l-.07,0c-.65-.32-1.42-.74-2.13-1.15s-1.43-.86-2.13-1.32a42.8,42.8,0,0,1-4-3,25.44,25.44,0,0,1-6.14-7.15,11.69,11.69,0,0,1-1.35-8.16,15.39,15.39,0,0,1,4.32-7.51,38.49,38.49,0,0,1,7.76-5.84c2.84-1.71,5.87-3.25,8.95-4.75l.6,59.31a4.68,4.68,0,0,0,9.36,0l.6-59.31c3.08,1.5,6.11,3,8.95,4.75a38.49,38.49,0,0,1,7.76,5.84,15.39,15.39,0,0,1,4.32,7.51,11.69,11.69,0,0,1-1.35,8.16,25.44,25.44,0,0,1-6.14,7.15,42.79,42.79,0,0,1-4,3q-1,.69-2.13,1.32c-.7.41-1.48.84-2.13,1.15l-.07,0a2.71,2.71,0,0,0,2.33,4.89c.95-.44,1.73-.84,2.56-1.3s1.62-.92,2.42-1.41a48.38,48.38,0,0,0,4.6-3.23,31.15,31.15,0,0,0,7.76-8.66,19.32,19.32,0,0,0,2.23-5.84,17.06,17.06,0,0,0,0-6.42,21.83,21.83,0,0,0-5.71-10.83,44.9,44.9,0,0,0-8.9-7.16c-3.12-2-6.3-3.72-9.47-5.38l0,0c1.9-.92,3.8-1.86,5.69-2.84l2.4-1.26q1.22-.66,2.44-1.36c1.61-.94,3.2-2,4.76-3.06a42.56,42.56,0,0,0,4.54-3.7,24.12,24.12,0,0,0,4.08-4.92,14.21,14.21,0,0,0,1.52-3.41,10.43,10.43,0,0,0,.34-4.38,9.85,9.85,0,0,0-1.71-4.28,12.51,12.51,0,0,0-2.82-2.86,21.77,21.77,0,0,0-5.91-3c-.47-.17-1-.33-1.42-.46l-1.27-.39-2.53-.78-3.39-1a67.76,67.76,0,0,0,10.15-4.87,29.16,29.16,0,0,0,5.12-3.85,18.06,18.06,0,0,0,2.4-2.83,13.46,13.46,0,0,0,1.83-3.87,12.12,12.12,0,0,0,.39-4.62,13.73,13.73,0,0,0-1.15-4.14A17.74,17.74,0,0,0,369,173a24.73,24.73,0,0,0-2.15-2.58c-.74-.79-1.49-1.49-2.25-2.18-.55-.49-1.15-1-1.76-1.41,3.36-.36,6.75-.77,10.17-1.28a104.66,104.66,0,0,0,11.06-2.2,43,43,0,0,0,11.53-4.66,22.47,22.47,0,0,0,5.64-4.83,17.86,17.86,0,0,0,3.65-7.45,20.76,20.76,0,0,0,.18-7.76,40.64,40.64,0,0,0-1.45-6.18A36,36,0,0,0,397.58,121a38.77,38.77,0,0,0-9.58-8.58,49.22,49.22,0,0,0-11.21-5.24,57,57,0,0,0-5.87-1.57c-1-.21-2-.39-3-.55l-1.55-.21-.81-.09-.43,0-.54,0a7.33,7.33,0,1,0-.68,14.65h.12l.23,0,.51,0,1.08.12c.73.09,1.47.21,2.21.34a42.61,42.61,0,0,1,4.39,1.05,35.06,35.06,0,0,1,8,3.49,23,23,0,0,1,10.25,12.35,27.1,27.1,0,0,1,1.07,4.1,7.59,7.59,0,0,1,.08,2.76,4.5,4.5,0,0,1-.9,2,9.37,9.37,0,0,1-2.34,2.07,30.69,30.69,0,0,1-8,3.39,92.33,92.33,0,0,1-9.66,2.18c-6.69,1.18-13.65,2-20.69,2.89-2.34.3-4.69.61-7,.95l.61-59.48c6.43-3.55,10.93-11.73,10.93-21.26,0-.62,0-1.24-.06-1.84,10.56,4.14,22.79,8.08,27.81,6.48,9.65-3.09,1.51-11.58,1.51-11.58s27.45,15.82,41,14.28,0-14.66,0-14.66,29.86,5.51,36.8-2.46-13.27-11.82-13.27-11.82S486.05,53.19,486.05,39.69Zm-172,144.65a4.93,4.93,0,0,1-1.39-2.13,1.56,1.56,0,0,1,0-.62,3.42,3.42,0,0,1,.33-.92,11,11,0,0,1,2.13-2.75c.48-.49,1-1,1.6-1.45a14.1,14.1,0,0,1,1.57-1.14,23.9,23.9,0,0,1,3.83-1.92,54.3,54.3,0,0,1,9-2.58l.23,22.66c-1.81-.68-3.6-1.38-5.34-2.13a58.83,58.83,0,0,1-8.66-4.43A19.07,19.07,0,0,1,314.06,184.33Zm10.45,42.86q-1.09-.63-2.15-1.29c-1.41-.88-2.78-1.81-4.07-2.78A34.49,34.49,0,0,1,314.7,220a16,16,0,0,1-2.59-3.27,3.61,3.61,0,0,1-.65-2.28,1.34,1.34,0,0,1,.29-.57,4.15,4.15,0,0,1,.93-.84,13.51,13.51,0,0,1,3.58-1.62c.36-.12.69-.2,1.11-.33l1.28-.35,2.55-.71c3.41-.95,6.84-1.9,10.26-2.88l.24,23.93c-1.66-.87-3.31-1.75-4.94-2.65Zm31.1-16.42,1.28.35c.43.12.75.21,1.11.33a13.51,13.51,0,0,1,3.58,1.62,4.15,4.15,0,0,1,.93.84,1.34,1.34,0,0,1,.29.57,3.61,3.61,0,0,1-.65,2.28,16,16,0,0,1-2.59,3.27,34.5,34.5,0,0,1-3.58,3.09c-1.29,1-2.66,1.9-4.07,2.78q-1.06.66-2.15,1.29l-2.26,1.27c-1.63.9-3.28,1.78-4.94,2.65l.24-23.93c3.43,1,6.85,1.93,10.26,2.88Zm6-28.57a4.93,4.93,0,0,1-1.39,2.13,19.07,19.07,0,0,1-3.27,2.58,58.83,58.83,0,0,1-8.66,4.43c-1.74.74-3.53,1.45-5.34,2.13l.23-22.66a54.3,54.3,0,0,1,9,2.58,23.9,23.9,0,0,1,3.83,1.92,14.09,14.09,0,0,1,1.57,1.14c.57.48,1.12,1,1.6,1.45a11,11,0,0,1,2.13,2.75,3.43,3.43,0,0,1,.33.92A1.56,1.56,0,0,1,361.58,182.2Z" transform="translate(0 -6.36)"/><path class="cls-4" d="M486.05,39.69c0-13.51-28.66-8.49-47.66-27.4-17.72-17.63-50.07,36.66-101.65,37V308.52c.13,0,.25,0,.39,0a4.68,4.68,0,0,0,4.68-4.63l.6-59.31c3.08,1.5,6.11,3,8.95,4.75a38.49,38.49,0,0,1,7.76,5.84,15.39,15.39,0,0,1,4.32,7.51,11.69,11.69,0,0,1-1.35,8.16,25.44,25.44,0,0,1-6.14,7.15,42.79,42.79,0,0,1-4,3q-1,.69-2.13,1.32c-.7.41-1.48.84-2.13,1.15l-.07,0a2.71,2.71,0,0,0,2.33,4.89c.95-.44,1.73-.84,2.56-1.3s1.62-.92,2.42-1.41a48.38,48.38,0,0,0,4.6-3.23,31.15,31.15,0,0,0,7.76-8.66,19.32,19.32,0,0,0,2.23-5.84,17.06,17.06,0,0,0,0-6.42,21.83,21.83,0,0,0-5.71-10.83,44.9,44.9,0,0,0-8.9-7.16c-3.12-2-6.3-3.72-9.47-5.38l0,0c1.9-.92,3.8-1.86,5.69-2.84l2.4-1.26q1.22-.66,2.44-1.36c1.61-.94,3.2-2,4.76-3.06a42.56,42.56,0,0,0,4.54-3.7,24.12,24.12,0,0,0,4.08-4.92,14.21,14.21,0,0,0,1.52-3.41,10.43,10.43,0,0,0,.34-4.38,9.85,9.85,0,0,0-1.71-4.28,12.51,12.51,0,0,0-2.82-2.86,21.77,21.77,0,0,0-5.91-3c-.47-.17-1-.33-1.42-.46l-1.27-.39-2.53-.78-3.39-1a67.76,67.76,0,0,0,10.15-4.87,29.16,29.16,0,0,0,5.12-3.85,18.06,18.06,0,0,0,2.4-2.83,13.46,13.46,0,0,0,1.83-3.87,12.12,12.12,0,0,0,.39-4.62,13.73,13.73,0,0,0-1.15-4.14A17.74,17.74,0,0,0,369,173a24.73,24.73,0,0,0-2.15-2.58c-.74-.79-1.49-1.49-2.25-2.18-.55-.49-1.15-1-1.76-1.41,3.36-.36,6.75-.77,10.17-1.28a104.66,104.66,0,0,0,11.06-2.2,43,43,0,0,0,11.53-4.66,22.47,22.47,0,0,0,5.64-4.83,17.86,17.86,0,0,0,3.65-7.45,20.76,20.76,0,0,0,.18-7.76,40.64,40.64,0,0,0-1.45-6.18A36,36,0,0,0,397.58,121a38.77,38.77,0,0,0-9.58-8.58,49.22,49.22,0,0,0-11.21-5.24,57,57,0,0,0-5.87-1.57c-1-.21-2-.39-3-.55l-1.55-.21-.81-.09-.43,0-.54,0a7.33,7.33,0,1,0-.68,14.65h.12l.23,0,.51,0,1.08.12c.73.09,1.47.21,2.21.34a42.61,42.61,0,0,1,4.39,1.05,35.06,35.06,0,0,1,8,3.49,23,23,0,0,1,10.25,12.35,27.1,27.1,0,0,1,1.07,4.1,7.59,7.59,0,0,1,.08,2.76,4.5,4.5,0,0,1-.9,2,9.37,9.37,0,0,1-2.34,2.07,30.69,30.69,0,0,1-8,3.39,92.33,92.33,0,0,1-9.66,2.18c-6.69,1.18-13.65,2-20.69,2.89-2.34.3-4.69.61-7,.95l.61-59.48c6.43-3.55,10.93-11.73,10.93-21.26,0-.62,0-1.24-.06-1.84,10.56,4.14,22.79,8.08,27.81,6.48,9.65-3.09,1.51-11.58,1.51-11.58s27.45,15.82,41,14.28,0-14.66,0-14.66,29.86,5.51,36.8-2.46-13.27-11.82-13.27-11.82S486.05,53.19,486.05,39.69Zm-133,170.38,2.55.71,1.28.35c.43.12.75.21,1.11.33a13.51,13.51,0,0,1,3.58,1.62,4.15,4.15,0,0,1,.93.84,1.34,1.34,0,0,1,.29.57,3.61,3.61,0,0,1-.65,2.28,16,16,0,0,1-2.59,3.27,34.5,34.5,0,0,1-3.58,3.09c-1.29,1-2.66,1.9-4.07,2.78q-1.06.66-2.15,1.29l-2.26,1.27c-1.63.9-3.28,1.78-4.94,2.65l.24-23.93C346.22,208.17,349.64,209.12,353.05,210.07Zm-.91-36.67a23.9,23.9,0,0,1,3.83,1.92,14.09,14.09,0,0,1,1.57,1.14c.57.48,1.12,1,1.6,1.45a11,11,0,0,1,2.13,2.75,3.43,3.43,0,0,1,.33.92,1.56,1.56,0,0,1,0,.62,4.93,4.93,0,0,1-1.39,2.13,19.07,19.07,0,0,1-3.27,2.58,58.83,58.83,0,0,1-8.66,4.43c-1.74.74-3.53,1.45-5.34,2.13l.23-22.66A54.3,54.3,0,0,1,352.14,173.4Z" transform="translate(0 -6.36)"/><polygon class="cls-4" points="275.71 333.24 231.98 333.24 213.13 260.15 255.84 260.15 275.71 333.24"/><polygon class="cls-6" points="230.4 406.29 227.37 406.29 227.22 336.7 230.25 336.7 230.4 406.29"/><polygon class="cls-7" points="231.91 406.29 230.4 406.29 230.25 336.7 231.76 336.7 231.91 406.29"/><polygon class="cls-6" points="266.4 406.29 263.38 406.29 262.9 338.47 265.93 338.47 266.4 406.29"/><polygon class="cls-7" points="267.91 406.29 266.4 406.29 265.93 338.47 267.44 338.47 267.91 406.29"/><rect class="cls-6" x="271.81" y="334.6" width="3.03" height="71.86"/><rect class="cls-7" x="274.84" y="334.6" width="1.51" height="71.86"/><rect class="cls-6" x="300.65" y="334.08" width="3.03" height="71.86"/><rect class="cls-7" x="303.67" y="334.08" width="1.51" height="71.86"/><rect class="cls-7" x="259.65" y="333.24" width="49.34" height="6.04"/><polygon class="cls-6" points="212.56 260.15 227.29 339.27 270.43 339.27 270.43 333.24 231.98 333.24 217.94 260.17 212.56 260.15"/><path class="cls-7" d="M324.11,414.84c.44-2.32-2.82-1.74-4.69-2.3.56.35,1.12.85.24,1.11-1.28.37-4.11,0-5-.94a5.93,5.93,0,0,0-.37,2.32C314.35,415.88,323.8,416.45,324.11,414.84Z" transform="translate(0 -6.36)"/><path class="cls-8" d="M319.66,413.65c.88-.26.32-.76-.24-1.11-1.16-.35-2.14-.59-2.36-.69a1.37,1.37,0,0,1-.73-.77l-.59-.12s-.95,1.54-1,1.74C315.55,413.63,318.37,414,319.66,413.65Z" transform="translate(0 -6.36)"/><path class="cls-7" d="M287.51,416.52c.44-2.32-2.82-1.74-4.69-2.3.56.35,1.12.85.24,1.11-1.28.37-4.11,0-5-.94a5.94,5.94,0,0,0-.37,2.32C277.75,417.56,287.21,418.13,287.51,416.52Z" transform="translate(0 -6.36)"/><path class="cls-8" d="M283.06,415.33c.88-.26.32-.76-.24-1.11-1.16-.35-2.14-.59-2.36-.69a1.37,1.37,0,0,1-.73-.77l-.59-.12s-.95,1.54-1,1.74C278.95,415.31,281.78,415.7,283.06,415.33Z" transform="translate(0 -6.36)"/><path class="cls-5" d="M256.86,302.58c-2.48,11.57,2.13,10.5,1.73,22.74-.54,16.83,42.86,15.29,42.86,15.29s5.95,61.55,10.49,70.85c0,0,5.68.42,5.78-1.43.63-11.41,11.77-55.52,2.12-79.49-5.29-13.15-37.46-18-37.46-18l-7.16-13.26A87.94,87.94,0,0,1,256.86,302.58Z" transform="translate(0 -6.36)"/><path class="cls-9" d="M235.89,302.66C237,320.27,234.38,323,237,333c2.31,8.75,14.52,9,25.22,8.61,9-.35,16.78,0,16.78,0s-2.6,59.79-1.54,70.18c.17,1.62,4.87,2.1,5.4-.21,2.23-9.74,13.54-40,15.82-72.84,1.22-17.64-36.89-20.81-36.89-20.81l-4.92-15.29S245.61,302,235.89,302.66Z" transform="translate(0 -6.36)"/><path class="cls-10" d="M308.7,234.26c-3.26,3.51-17.11,21.53-17.11,21.53s-1.23,10.73,4,9.28c6.38-1.78,12.22-5,19.07-11.68,8.22-8,7.08-19.79,7.08-19.79S312,230.75,308.7,234.26Z" transform="translate(0 -6.36)"/><path class="cls-10" d="M295,255.64s-20.2-1-25.46-.91c-2.43.05-5.12.31-5.12.31-2.58.33-5.35,1.52-8.05,7.06,5.27,1.73,32.81,3.21,38.21,3.11C300.52,265.09,295,255.64,295,255.64Z" transform="translate(0 -6.36)"/><path class="cls-11" d="M269.42,262.6l.48,17.52,4.66,21.08s-8.4,5.76-16.43,6.85c-10.31,1.4-20.39-.46-20.78-.4-.7.12-12.89-39.66-7.52-44.82,4.18-4,11.78-6.9,23.57-8.22C259.39,253.94,267.87,256.91,269.42,262.6Z" transform="translate(0 -6.36)"/><path class="cls-10" d="M269,254.74s-9.73-1-13.75-.5c-.18,0-.52.65-.68.67l6.83,37.27L265,308.47a8.12,8.12,0,0,0,7,6.53,12.2,12.2,0,0,0,5.5-.41l6.25-1.83L276,301.22l-2.87-37.41Z" transform="translate(0 -6.36)"/><path class="cls-12" d="M251.68,253.6a1.74,1.74,0,0,1,1.48,1.43l7.64,33c.08.46.76-23.81.63-24.61s-2.77-1.18-2.77-1.18,2.92-2.63,2.55-2.88-3.19-4.52-5.66-6-6.53-.06-6.53-.06Z" transform="translate(0 -6.36)"/><path class="cls-12" d="M230.64,261.56s9.72-5.36,13.7-6.16c.18,0,1.45,2.16,1.61,2.14l4.92,37.57,1.5,16.62a10.41,10.41,0,0,1-8.11,11.09l-9.84,1.1,1.83-18.43-3.51-29.42Z" transform="translate(0 -6.36)"/><path class="cls-10" d="M247.52,254a2.54,2.54,0,0,0-.83,2.38l3.37,32.92c.08.46-8.72-22.17-8.87-23s2.21-2,2.21-2-3.64-1.5-3.37-1.86,1.48-5.33,3.31-7.57,6.13-2.26,6.13-2.26Z" transform="translate(0 -6.36)"/><path class="cls-12" d="M231.39,261.11c-4.13,2.38-7.55,5.87-7.19,13.11.44,8.65,2.95,21.41,11.34,27.36,6.2,4.4,6.78-11.92,6.78-11.92s-1.39.66-5.31-10.26C236.16,277,236.47,265.06,231.39,261.11Z" transform="translate(0 -6.36)"/><path class="cls-12" d="M235.54,301.59c6.2,4.4,39.15,1.71,42.14-9.37,1.11-4.12-1.06-5.94-1.06-5.94l-37.28,1.19S227.15,295.63,235.54,301.59Z" transform="translate(0 -6.36)"/><path d="M266.16,229.91c-2.15-2.63-6.35-2.75-9.37-.27-.17.14-.3.3-.45.44a4.41,4.41,0,0,0-3.53.6,4.31,4.31,0,0,0-.85.77,7,7,0,0,0-4.69-.85,6.47,6.47,0,0,0-5.65,7.18,5.64,5.64,0,0,0,.66,1.82,5.81,5.81,0,0,0-.6,3.79c.45,2.73,2.48,4.67,4.55,4.33,1.91-.31,8.59-1.77,11.12-2.18a4.64,4.64,0,0,0,3.87-4.78,7.82,7.82,0,0,0,3.36-1.6C267.6,236.67,268.31,232.54,266.16,229.91Z" transform="translate(0 -6.36)"/><path class="cls-13" d="M266.16,229.91a5.88,5.88,0,0,0-4.9-1.86,7.18,7.18,0,0,0-2.58.68,7.07,7.07,0,0,0-2.16,1.55.25.25,0,0,1-.24.07h0a4,4,0,0,0-4.08,1.3.3.3,0,0,1-.38.07h0a7,7,0,0,0-7.63.53,6.26,6.26,0,0,0-2.24,3.3,5.41,5.41,0,0,0,.46,4,.14.14,0,0,1,0,.13,5.78,5.78,0,0,0-.72,3.73,5.91,5.91,0,0,1,.48-3.86v.13a5.61,5.61,0,0,1-.67-4.21,6.4,6.4,0,0,1,2.33-3.64,7.57,7.57,0,0,1,4-1.59,7.16,7.16,0,0,1,4.25,1l-.39.06a4.47,4.47,0,0,1,2.14-1.39,4.78,4.78,0,0,1,2.54,0l-.26.07a7.15,7.15,0,0,1,2.35-1.57,7.58,7.58,0,0,1,2.75-.62A5.94,5.94,0,0,1,266.16,229.91Z" transform="translate(0 -6.36)"/><polygon class="cls-14" points="244.72 242 244.72 242 244.72 242 244.72 242"/><path class="cls-8" d="M246.92,248.35s-1,7.78-.11,8.56,3.8,1.62,5.29-.45-.73-8.56-.73-8.56Z" transform="translate(0 -6.36)"/><path class="cls-15" d="M246.47,254.52c1.76.49,4.13,1.17,6.12.25a34.68,34.68,0,0,0-.72-5.16l-5.14.52C246.62,251.25,246.5,253.22,246.47,254.52Z" transform="translate(0 -6.36)"/><path class="cls-8" d="M256.76,245.93c.5-.89.52-3.83.5-5.39a2.47,2.47,0,0,0-.85-1.91c-2.62-2.1-8.28-1.52-9.4-.85-1.38.83-1.49,2.76-1.61,4.19s.47,8.67,5.14,8.68C255.62,250.67,255.81,248.65,256.76,245.93Z" transform="translate(0 -6.36)"/><path class="cls-16" d="M245.18,243.21a0,0,0,0,0,0,0" transform="translate(0 -6.36)"/><path d="M245.42,242.15a11.57,11.57,0,0,0-1.78,7.18c.5,3.43,3.73,5.14,10,5.15a5.66,5.66,0,0,0,3.22-1,3.34,3.34,0,0,0,1.5-2.41c.24-2.58-1.12-8.89-1.12-8.89s0,4.64-2,6.21c-.87.67-1.73-.28-2.94-.21-1.64.09-3.52,1-4.68-.76C245.58,244.36,245.42,242.31,245.42,242.15Z" transform="translate(0 -6.36)"/><path class="cls-17" d="M247,247.19s1.25,3.17,4,2.07,1.12-2.46.44-2.49C250.55,246.71,247.4,248.23,247,247.19Z" transform="translate(0 -6.36)"/><path class="cls-17" d="M257.74,247.79s-1.71,2.93-4.26,1.41-.67-2.84-.07-2.53S257.23,248.76,257.74,247.79Z" transform="translate(0 -6.36)"/><path class="cls-13" d="M248.57,241.89a2.09,2.09,0,1,0,3.2,2.61,2,2,0,0,0-1.12-2.82c-1-.39-3-.11-2.61,1.42a.13.13,0,0,0,.25,0c0-1.37,1.74-1.4,2.62-.83a1.59,1.59,0,0,1,.19,2.5,1.72,1.72,0,0,1-2.36-.12,2.16,2.16,0,0,1-.09-2.66.05.05,0,0,0-.08-.06Z" transform="translate(0 -6.36)"/><path class="cls-13" d="M254.08,242.05a2.13,2.13,0,0,0,.15,3.2,2,2,0,0,0,2.93-.58,2,2,0,0,0-1.08-2.82c-1-.41-2.9-.07-2.51,1.42a.13.13,0,0,0,.25,0c0-1.32,1.63-1.43,2.51-.83a1.63,1.63,0,0,1,.18,2.5,1.6,1.6,0,0,1-2.25-.13,2.24,2.24,0,0,1-.09-2.66.05.05,0,0,0-.08-.06Z" transform="translate(0 -6.36)"/><path class="cls-13" d="M251.9,243.45a3,3,0,0,1,1.65.15c.16.06.24-.18.11-.27a1.71,1.71,0,0,0-1.83-.05.09.09,0,0,0,.07.17Z" transform="translate(0 -6.36)"/><path class="cls-13" d="M244.3,244.47c1.28-.28,2.52-.86,3.78-1.23A.12.12,0,0,0,248,243a14.8,14.8,0,0,0-3.74,1.41,0,0,0,0,0,0,.06Z" transform="translate(0 -6.36)"/><path class="cls-13" d="M244.2,244.7a12.61,12.61,0,0,0-.31,4.35,5,5,0,0,0,.67,2,5.17,5.17,0,0,0,1.47,1.46,11.1,11.1,0,0,0,4,1.58,19.56,19.56,0,0,0,4.39.36,13,13,0,0,1-4.48.17,9.89,9.89,0,0,1-4.28-1.53,5.67,5.67,0,0,1-1.63-1.69,5,5,0,0,1-.64-2.25A9.68,9.68,0,0,1,244.2,244.7Z" transform="translate(0 -6.36)"/><rect class="cls-18" x="279.05" y="212.09" width="40.28" height="60.96"/><rect class="cls-19" x="286.46" y="218.84" width="25.47" height="1.42"/><rect class="cls-19" x="283.76" y="226.16" width="30.86" height="0.85"/><rect class="cls-19" x="283.76" y="229.5" width="30.86" height="0.85"/><rect class="cls-19" x="283.76" y="232.83" width="30.86" height="0.85"/><rect class="cls-19" x="283.76" y="236.17" width="30.86" height="0.85"/><rect class="cls-19" x="283.76" y="239.51" width="30.86" height="0.85"/><rect class="cls-19" x="283.76" y="242.85" width="30.86" height="0.85"/><rect class="cls-19" x="283.76" y="246.19" width="30.86" height="0.85"/><path class="cls-20" d="M317.52,229.84c-.33-.22-.74-.55-.62-.78,0-.08.14-.08.25-.06v0c0-.15-.38-.66-.25-.76a1.35,1.35,0,0,1,.8-.16s0-.09,0-.11a2,2,0,0,1,1.52.24,1.28,1.28,0,0,1,.48.29l0,0h0c1.1,1,2.12,5,2,5.33-.18.67-1.36.24-1.36.24l-.52-1.31S318.56,232.7,317.52,229.84Z" transform="translate(0 -6.36)"/><path class="cls-21" d="M292.14,271.45l1-1.06a.07.07,0,0,0-.08-.11l-1.34.7Z" transform="translate(0 -6.36)"/><path class="cls-14" d="M274.4,286.69l-.73.54a.25.25,0,0,1-.25,0,1.83,1.83,0,0,1-.59-.52,2,2,0,0,1-.43-.78.25.25,0,0,1,.09-.25l.68-.55A6.22,6.22,0,0,0,274.4,286.69Z" transform="translate(0 -6.36)"/><path class="cls-14" d="M290.72,273.28s1.57-1.66,1.59-1.71a1.58,1.58,0,0,0-.49-.69.21.21,0,0,0-.24,0,12.55,12.55,0,0,0-1.93,1.14Z" transform="translate(0 -6.36)"/><path class="cls-19" d="M290.69,273.68c.17-.14.25-.32.15-.37a3.24,3.24,0,0,1-.65-.65,2.6,2.6,0,0,1-.46-.76c0-.11-.22-.08-.4.07L273.25,284.9a.5.5,0,0,0-.23.37,2.11,2.11,0,0,0,.35,1,1.35,1.35,0,0,0,.88.54.59.59,0,0,0,.35-.15Z" transform="translate(0 -6.36)"/><path class="cls-14" d="M280.84,281.74h0a3.33,3.33,0,0,1-1.5-1.74.14.14,0,0,1,.25-.12,3.14,3.14,0,0,0,1.35,1.6.14.14,0,0,1-.06.27Z" transform="translate(0 -6.36)"/><path class="cls-14" d="M274.94,286.51h-.06c-.08,0-.83-.25-1.49-1.65a.28.28,0,0,1,.51-.24c.54,1.15,1.12,1.34,1.13,1.35a.28.28,0,0,1,.19.35A.28.28,0,0,1,274.94,286.51Z" transform="translate(0 -6.36)"/><path class="cls-14" d="M280,282.6l-4.89,3.92.21.15,5.29-4.28a.07.07,0,0,0,0-.1l-.16-.19a.07.07,0,0,0-.1,0s-.47.32-.47.39S280,282.6,280,282.6Z" transform="translate(0 -6.36)"/><path class="cls-14" d="M274.58,285.76a10.66,10.66,0,0,0,.94.62l-.16.29s-.88-.45-1-.73S274.58,285.76,274.58,285.76Z" transform="translate(0 -6.36)"/><path class="cls-8" d="M275.67,285.58s1.06-2.32,2-2.86c1.6-.94,3.92-2.76,4.09-2.59.33.33-1.42,2.17-1.42,2.17s.57-.34.71-.17,0,.47,0,.47.08.07.07.46-.68,1-1,1.35a14.36,14.36,0,0,1-3.26,2.4A1.13,1.13,0,0,1,275.67,285.58Z" transform="translate(0 -6.36)"/><path class="cls-8" d="M276.75,283.76l.17-2s1.38-1.56,1.52-1.51c.58.24-.53,1.64-.53,1.64l.08.71Z" transform="translate(0 -6.36)"/><path class="cls-10" d="M249.85,287.28q-2.63.23-5.25.37c-1.75.08-3.5.2-5.25.24a.42.42,0,0,1-.42-.31h0c-.47-1.8-1-3.59-1.6-5.36s-1.17-3.54-1.85-5.28a52.69,52.69,0,0,0-2.29-5.08,12.68,12.68,0,0,0-3.41-4.35,13.1,13.1,0,0,1,1.18.78c.34.33.71.64,1,1l.91,1.1.79,1.19a34.6,34.6,0,0,1,2.59,5.05c.72,1.75,1.39,3.51,2,5.31s1.06,3.62,1.5,5.46l-.42-.32c1.75,0,3.51,0,5.26.05S248.09,287.18,249.85,287.28Z" transform="translate(0 -6.36)"/><rect class="cls-6" x="197.09" y="296.29" width="6.46" height="110.18"/><rect class="cls-7" x="203.56" y="296.29" width="1.57" height="110.18"/><rect class="cls-6" x="340.88" y="296.29" width="6.46" height="110.18"/><rect class="cls-7" x="347.34" y="296.29" width="1.57" height="110.18"/><rect class="cls-7" x="191.45" y="294.27" width="161.91" height="9.42"/><path class="cls-7" d="M411,413.65c-.4-1.42,3.93-2.82,6.4-3.29-.68.41-1.5,1-.46,1.31,1.52.47,4.9.06,5.92-1a7.08,7.08,0,0,1,.4,2.77C423.26,414.43,411.27,414.48,411,413.65Z" transform="translate(0 -6.36)"/><path class="cls-8" d="M417,411.67c-1-.32-1.35-1.06.26-1.28a9.48,9.48,0,0,0,2.87-.8c.94-.66,1.06-1.5,1-1.35h1.29s.44,2.18.55,2.42C421.88,411.73,418.5,412.14,417,411.67Z" transform="translate(0 -6.36)"/><path class="cls-8" d="M495.41,335.63c.55-6-10.25-20.91-10.25-20.91l-9.83,4.06s-.82,4.83-3,4.91c-37.56,1.24-46.41,4.55-52.76,10.91-9,9,.24,71.82,1.61,74.56.61,1.23,1,0,1,0,.9.47,10.24-56.74,10.24-56.74s30.64-.12,38.78-.72c2-.15,3.54,2,8.4,1.52C493.7,351.88,494.81,342.16,495.41,335.63Z" transform="translate(0 -6.36)"/><path class="cls-7" d="M395.23,419.13c-.4-1.42,3.93-2.82,6.4-3.29-.68.41-1.5,1-.46,1.31,1.52.47,4.9.06,5.92-1a7.08,7.08,0,0,1,.4,2.77C407.45,419.91,395.47,420,395.23,419.13Z" transform="translate(0 -6.36)"/><path class="cls-8" d="M401.17,417.15c-1-.32-1.35-1.06.26-1.28a11.93,11.93,0,0,0,2.87-.8c.68-.28,1-1.35,1-1.35h1.29s.44,2.18.55,2.42C406.07,417.21,402.69,417.62,401.17,417.15Z" transform="translate(0 -6.36)"/><path class="cls-8" d="M479.58,336.41c.55-6-2.07-20.68-2.07-20.68l-18,1.23s-.82,4.83-3,4.91c-37.56,1.24-46.41,4.55-52.76,10.91-9,9-.08,78.72,1.28,81.46.61,1.23,1.21,0,1.21,0,.9.47,10.4-63.65,10.4-63.65s34.25,3.43,42.4,3.94C477.12,355.67,478.92,343.71,479.58,336.41Z" transform="translate(0 -6.36)"/><path d="M473.37,296.82c-2.63-1.87-25.31-24.14-11.42-34.33,0,0-.64-4.71,5.72-6.79s10.41,4.78,10.71,5.81S473.37,296.82,473.37,296.82Z" transform="translate(0 -6.36)"/><polygon class="cls-14" points="471.53 268.01 471.53 268.01 471.53 268.01 471.53 268.01"/><path class="cls-8" d="M471.26,271.26s1,6.63.63,7.38-1.62,1.77-2.44.13-.25-7.47-.25-7.47Z" transform="translate(0 -6.36)"/><path class="cls-15" d="M471.66,274.1a2,2,0,0,1-2.65,1,13.11,13.11,0,0,1,.08-2.25l2.38-.06A13,13,0,0,1,471.66,274.1Z" transform="translate(0 -6.36)"/><path class="cls-8" d="M464.12,270.21c-.28-1.1.43-5.13,1.54-5.77,2.12-1.22,6.88.64,7.7,1.49s.58,2.46.37,3.59a8.33,8.33,0,0,1-1.87,3.89,5.26,5.26,0,0,1-3.8.84C465,273.51,464.29,272.52,464.12,270.21Z" transform="translate(0 -6.36)"/><path class="cls-5" d="M467.22,277.23s4.94-.48,6-1l1.52,1.68-8.8.83Z" transform="translate(0 -6.36)"/><path class="cls-5" d="M458.46,280.68s2.23,2.74.24,15.1c-2.34,14.58-2.85,21.17-7.49,20.31l-2.27-5.88s.06-16.76,1.06-21.58C451.13,283.26,458.46,280.68,458.46,280.68Z" transform="translate(0 -6.36)"/><path class="cls-22" d="M452.48,290a9.64,9.64,0,0,1,5.89-9.26,34,34,0,0,1,10.44-2.65,64.24,64.24,0,0,1,7.93-.12,24.81,24.81,0,0,1,9.94,2.71s.23,34.47.89,37.68c-6.81,2.27-7.17,2.36-12.79,2.17-9.34-.32-13.85-.86-15.75-1.53,0-1-5-12.68-5.75-18.75C452.8,296.31,452.58,292.77,452.48,290Z" transform="translate(0 -6.36)"/><path class="cls-5" d="M452.28,289.95a9.83,9.83,0,0,1,6-9.19,34.09,34.09,0,0,1,10.52-2.68c.35,0,3.85-1.39,4.57,0,1.54,2.88.74,10.55,2.07,16.84,2.49,11.74,3.27,25.7,3,25.7-1,0-2.15,0-3.71-.05-9.34-.32-13.85-.86-15.75-1.53,0-1-5.33-12.63-6.07-18.71A96.42,96.42,0,0,1,452.28,289.95Z" transform="translate(0 -6.36)"/><path d="M469.68,259.64c-.54,1.76-5.06,1.79-3.72,5.76,2,5.85,6.49,8.11,7.78,9.16,0,0-5.19,6.88-1.45,14.1s-2,11.92,5.12,17.52c15.89,12.57,31.89-7.13,29.78-18.38-.89-4.73-4.72-15-16.51-15.18,0,0,2-18.78-14.92-14.8C475.76,257.83,471.05,255.22,469.68,259.64Z" transform="translate(0 -6.36)"/><path class="cls-17" d="M502.44,302.44a20.26,20.26,0,0,0,4.43-12,15.29,15.29,0,0,0-1.2-6.25,20.5,20.5,0,0,0-1.42-2.86c-.54-.92-1.23-1.75-1.84-2.63h0l0,0a10.87,10.87,0,0,0-2.34-2.24,15.75,15.75,0,0,0-2.89-1.63,18.38,18.38,0,0,0-3.18-1,25.7,25.7,0,0,0-3.32-.49.65.65,0,0,1-.59-.7v0a20,20,0,0,0-.28-6.19,12.66,12.66,0,0,0-2.56-5.52,10.62,10.62,0,0,0-2.28-2,10.11,10.11,0,0,0-2.88-1,13.41,13.41,0,0,0-6.19.29.34.34,0,0,1-.35-.12,6.75,6.75,0,0,0-1.68-1.52,6.65,6.65,0,0,0-2.12-.91,7,7,0,0,0-2.33-.15,9.7,9.7,0,0,0-2.32.5,9.79,9.79,0,0,1,2.3-.7,7.19,7.19,0,0,1,2.43,0,7.07,7.07,0,0,1,2.31.83,7.25,7.25,0,0,1,1.94,1.56l-.35-.12a14.15,14.15,0,0,1,6.54-.55,11,11,0,0,1,3.2,1,10.42,10.42,0,0,1,2.64,2.13,13.8,13.8,0,0,1,2.89,6,21.12,21.12,0,0,1,.38,6.61l-.59-.72a21.69,21.69,0,0,1,3.52.5,19.67,19.67,0,0,1,3.4,1.12,17,17,0,0,1,3.1,1.81,11.83,11.83,0,0,1,2.6,2.57l0,0c.63.93,1.34,1.81,1.9,2.79a17.3,17.3,0,0,1,1.42,3.07,16.19,16.19,0,0,1,1,6.64,17.39,17.39,0,0,1-1.58,6.48A20.38,20.38,0,0,1,502.44,302.44Z" transform="translate(0 -6.36)"/><path class="cls-22" d="M477.38,312.29l-3.28,40.48A18.78,18.78,0,0,0,490.47,349c7.45-6.39,7.16-17.17,1.74-24.61s-5.66-10.72-5.66-10.72Z" transform="translate(0 -6.36)"/><path class="cls-22" d="M415.38,359.2a176.48,176.48,0,0,0,20.06,1.11l1.09-9.85-18.72-4.62Z" transform="translate(0 -6.36)"/><path class="cls-5" d="M459.53,315.44s-.35,6.33-3,6.43-35.38.44-46.53,6.4a15.48,15.48,0,0,0-9.69,10.7,67.15,67.15,0,0,0-1.89,18.36l17,1.87,1.78-9.65s11.37,6.32,37.08,5.77,25.64-2.9,27.89-9.12c2.55-7.05-4.13-34-4.13-34Z" transform="translate(0 -6.36)"/><path class="cls-20" d="M427,323.17a.77.77,0,0,0-.58-.72,12.77,12.77,0,0,0-5.11,0,6.58,6.58,0,0,0-3.85,2.29c-.25.34-.84,1.13-.52,1.56a3.86,3.86,0,0,0,3.22-.5c1-.67,1.56-.95,2.18-.67,0,0-1.44.93-1.21,1.35s3.11-.64,3.81-1.26c0,0,2.19-.75,2.73-.83C428,324.29,427,323.78,427,323.17Z" transform="translate(0 -6.36)"/><path class="cls-5" d="M426.2,322c-.18-.68,1.06-2,1.69-2.31,6.52-3.39,18.45-8.28,21-10.62,1.62-1.49,8.33.06,6.09,4.69a25.26,25.26,0,0,1-7.29,7.38C438.17,326.56,429.75,335.51,426.2,322Z" transform="translate(0 -6.36)"/><path class="cls-22" d="M455,313.8a17.89,17.89,0,0,1-2.76,3.89A25.54,25.54,0,0,1,448.7,321c-.67.5-1.36.88-2,1.29s-1.34.83-2,1.26l-4,2.6a37.91,37.91,0,0,1-4.22,2.32,9,9,0,0,1-4.81,1,5.39,5.39,0,0,1-3.9-2.88A15.08,15.08,0,0,1,426.2,322a16.82,16.82,0,0,0,2,4.27,4.78,4.78,0,0,0,3.58,2.39,9,9,0,0,0,4.35-1.06,37.72,37.72,0,0,0,4.07-2.34c2.66-1.66,5.38-3.43,8.1-4.94a25.62,25.62,0,0,0,3.6-3A20.55,20.55,0,0,0,455,313.8Z" transform="translate(0 -6.36)"/><path class="cls-8" d="M352.45,290s-3.51,1.49-5.4-1.4c-1-1.46-.86-3.58-.17-3.85s.92,1.5,1.63,2.16c1.07,1,4.72,1.07,5.27,2.52C354,289.95,353.13,290.52,352.45,290Z" transform="translate(0 -6.36)"/><path class="cls-8" d="M346.85,288.24c-.08-.17-2-2.51-1.64-2.65s1.84,1.33,1.84,1.33l-.08,1.3" transform="translate(0 -6.36)"/><path class="cls-8" d="M350.76,288.24c-.1-.09-1.74-1.43-1.6-2.08.19-.83,1.73.45,2.11.77.63.54,2.08,2,2.08,2Z" transform="translate(0 -6.36)"/><path class="cls-7" d="M381,418.26c-3.57-.9-1.29-4.74-.86-7.26.15.79.41,1.78,1.09.9,1-1.28,1.8-4.64,1.12-6a7.19,7.19,0,0,1,2.78.61C386.07,406.91,381.85,418.48,381,418.26Z" transform="translate(0 -6.36)"/><path class="cls-8" d="M381.22,411.91c-.68.88-1.49.91-1.13-.7a12.1,12.1,0,0,0,.25-3c0-.75-.95-1.39-.95-1.39l.45-1.23s2.23.35,2.5.34C383,407.27,382.21,410.62,381.22,411.91Z" transform="translate(0 -6.36)"/><path class="cls-23" d="M422.66,335.63c.55-6.11-10.41-21.24-10.41-21.24l-10,4.12s-.83,4.91-3,5c-38.16,1.26-35.3,4.63-41.75,11.08-9.14,9.14,8.85,69.41,19.36,74.31,2.18,1,3.71-3.31,3.71-3.31.91.48-10-52.9-10-52.9s19.27-.13,27.55-.73c2-.15,3.6,2,8.53,1.54C420.93,352.14,422.06,342.27,422.66,335.63Z" transform="translate(0 -6.36)"/><path class="cls-7" d="M332.74,420.47c0-3.66,4-2.86,6.5-3.34-.69.41-1.52,1-.47,1.33,1.55.48,5,.06,6-1a7.19,7.19,0,0,1,.4,2.81C345.15,421.27,332.74,421.35,332.74,420.47Z" transform="translate(0 -6.36)"/><path class="cls-8" d="M338.77,418.46c-1.06-.33-1.37-1.08.26-1.3a12.12,12.12,0,0,0,2.92-.82c.69-.29,1-1.37,1-1.37h1.31s.45,2.21.56,2.46C343.75,418.52,340.32,418.94,338.77,418.46Z" transform="translate(0 -6.36)"/><path class="cls-24" d="M406.58,336.43c.55-6.11-2.11-21-2.11-21l-18.27,1.25s-.83,4.91-3,5c-38.16,1.26-35.3,4.63-41.75,11.08-9.14,9.14-2.31,79.77-.93,82.55.62,1.25,5,0,5,0,.91.48,9-64.45,9-64.45s22.94,3.48,31.22,4C404.08,356,405.91,343.85,406.58,336.43Z" transform="translate(0 -6.36)"/><path class="cls-4" d="M356.83,286.85c.64-.31,2.19.65,2.64,1.21,4.69,5.81,12,16.69,14.82,18.76,1.81,1.31,1.3,8.71-3.76,7.41-1.94-.5-5.51-3.38-8.5-6.17C353.92,300.5,344.14,293.11,356.83,286.85Z" transform="translate(0 -6.36)"/><polygon class="cls-14" points="398.41 267.03 398.41 267.03 398.41 267.03 398.41 267.03"/><path class="cls-8" d="M398.13,270.23s1,6.73.65,7.5-1.65,1.8-2.48.14-.25-7.59-.25-7.59Z" transform="translate(0 -6.36)"/><path class="cls-15" d="M398.54,273.11a2.08,2.08,0,0,1-2.7,1,13.33,13.33,0,0,1,.08-2.28l2.42-.06A13.34,13.34,0,0,1,398.54,273.11Z" transform="translate(0 -6.36)"/><path class="cls-8" d="M390.88,269.08c-.28-1.12.43-5.21,1.56-5.86,2.15-1.24,7,.65,7.82,1.51s.59,2.49.38,3.65a8.46,8.46,0,0,1-1.9,4,5.34,5.34,0,0,1-3.86.86C391.76,272.44,391.05,271.43,390.88,269.08Z" transform="translate(0 -6.36)"/><path class="cls-25" d="M394,276.3s5-.49,6.13-1L401.7,277l-8.94.85Z" transform="translate(0 -6.36)"/><path class="cls-4" d="M387.15,279s1.27,5.46-4,17c-6.17,13.68-8.42,20-12.74,17.93l-.66-6.37s5.28-17,7.95-21.28C382.3,279.11,387.15,279,387.15,279Z" transform="translate(0 -6.36)"/><path class="cls-25" d="M381,289a9.69,9.69,0,0,1,5.6-9.37,31,31,0,0,1,10-2.62,58.37,58.37,0,0,1,7.62-.07,23.16,23.16,0,0,1,9.57,2.81s.43,35,1.08,38.26c-6.53,2.26-6.87,2.35-12.28,2.13-9-.38-13.32-1-15.15-1.65,0-1-4.89-12.9-5.63-19.08C381.33,295.47,381.1,291.87,381,289Z" transform="translate(0 -6.36)"/><path class="cls-4" d="M380.54,287.61c0-4.07,1.4-6.52,5.08-8.26,4.47-2.11,12.52-2.39,12.52-2.39s4,10.89,4.24,17.25c.41,12.19,3.32,26.11,3.09,26.12-1,0-2.19,0-3.77-.05-9.49-.32-14.07-.87-16-1.55,0-1-3.11-12.51-3.86-18.69C381.35,296,380.57,290.47,380.54,287.61Z" transform="translate(0 -6.36)"/><path d="M399.28,259.82a10.61,10.61,0,0,0-5.75-6.29.42.42,0,0,0-.56.57,9.15,9.15,0,0,1,1.54,2.9c-.76-.89-3.84-3.68-5.22-5.33-.28-.34-.76,0-.69.4.17.83.33,1.66.5,2.49-1.19-.79-1.73-2.36-2.65-3.44a.5.5,0,0,0-.82.22c-.61,3.5-1.63,6.64,1.88,11.29,2.14,2.83,5.51,2.52,8.9,3.16,0,.1.57,3.93,1.28,5.14a1.1,1.1,0,0,0,1.08.6c1.61-.08,2.45-2,3-3.29a6.77,6.77,0,0,0,2-4.13C403.93,262.34,400.92,259.64,399.28,259.82Z" transform="translate(0 -6.36)"/><path class="cls-17" d="M394.51,257c-1.3-1.31-2.72-2.49-4-3.79-.33-.33-.66-.65-1-1l-.24-.26a1.17,1.17,0,0,0-.19-.19s-.2,0-.24.16.05.33.09.55l.15.68.29,1.35a.27.27,0,0,1-.21.33.28.28,0,0,1-.21,0,8.69,8.69,0,0,1-2.16-2.71,7.27,7.27,0,0,0-.48-.66c-.11-.14-.09-.12-.15-.14a.24.24,0,0,0-.17,0l0,0s0,0,0,.11l-.07.42-.15.83a19.17,19.17,0,0,0-.37,3.3,9.2,9.2,0,0,0,.58,3.2,13.12,13.12,0,0,0,1.58,2.9,5.84,5.84,0,0,0,2.4,2.15c2,.93,4.34,1,6.53,1.51-2.21-.37-4.53-.21-6.69-1.14a6.32,6.32,0,0,1-2.66-2.21,12.54,12.54,0,0,1-1.7-3,11.69,11.69,0,0,1-.29-6.82l.16-.83.08-.41a.94.94,0,0,1,.09-.29.77.77,0,0,1,.24-.26.85.85,0,0,1,.63-.13.82.82,0,0,1,.51.35,7.88,7.88,0,0,1,.51.72,8.32,8.32,0,0,0,2,2.57l-.42.28-.25-1.36-.12-.68-.06-.34a.76.76,0,0,1,0-.47.64.64,0,0,1,.87-.37,1.27,1.27,0,0,1,.3.3l.22.26c.3.35.61.68.92,1l1.91,2C393.26,255.63,393.91,256.28,394.51,257Z" transform="translate(0 -6.36)"/><rect class="cls-26" x="432.26" y="345.96" width="2.87" height="67.33"/><rect class="cls-27" x="435.13" y="345.96" width="1.43" height="67.33"/><rect class="cls-6" x="466.66" y="345.96" width="2.87" height="67.33"/><rect class="cls-7" x="469.53" y="345.96" width="1.43" height="67.33"/><rect class="cls-6" x="455.65" y="345.96" width="2.87" height="67.33"/><rect class="cls-7" x="458.52" y="345.96" width="1.43" height="67.33"/><rect class="cls-6" x="499.72" y="345.96" width="2.87" height="67.33"/><rect class="cls-7" x="502.59" y="345.96" width="1.43" height="67.33"/><path class="cls-6" d="M430.8,351.64h42.87a1.06,1.06,0,0,1,1.06,1.06v4.66a0,0,0,0,1,0,0H430.8a0,0,0,0,1,0,0v-5.72A0,0,0,0,1,430.8,351.64Z" transform="translate(905.53 702.63) rotate(180)"/><path class="cls-1" d="M430.8,345.92h43.93a0,0,0,0,1,0,0v3a2.75,2.75,0,0,1-2.75,2.75H430.8a0,0,0,0,1,0,0v-5.72A0,0,0,0,1,430.8,345.92Z" transform="translate(905.53 691.2) rotate(180)"/><path class="cls-7" d="M503.36,357.35H464.51v-5.72h40.87l.05,3.62A2.07,2.07,0,0,1,503.36,357.35Z" transform="translate(0 -6.36)"/><path class="cls-1" d="M460,351.64h40.26L504,283.48a4.21,4.21,0,0,0-4-4.49l-32.67-1.44a4.19,4.19,0,0,0-4.33,4Z" transform="translate(0 -6.36)"/><path class="cls-4" d="M464.51,351.64h40.84l3.88-67.76a4.21,4.21,0,0,0-4-4.47L472.06,278a4.21,4.21,0,0,0-4.39,4Z" transform="translate(0 -6.36)"/><rect class="cls-6" x="361.32" y="349.79" width="3" height="70.54"/><rect class="cls-7" x="364.32" y="349.79" width="1.5" height="70.54"/><rect class="cls-6" x="397.35" y="349.79" width="3" height="70.54"/><rect class="cls-7" x="400.36" y="349.79" width="1.5" height="70.54"/><rect class="cls-6" x="385.82" y="349.79" width="3" height="70.54"/><rect class="cls-7" x="388.82" y="349.79" width="1.5" height="70.54"/><rect class="cls-6" x="431.99" y="349.79" width="3" height="70.54"/><rect class="cls-7" x="434.99" y="349.79" width="1.5" height="70.54"/><path class="cls-6" d="M359.79,355.43h45a1.06,1.06,0,0,1,1.06,1.06v4.94a0,0,0,0,1,0,0h-46a0,0,0,0,1,0,0v-6A0,0,0,0,1,359.79,355.43Z" transform="translate(765.6 710.5) rotate(180)"/><path class="cls-1" d="M359.79,349.44h46a0,0,0,0,1,0,0v3.11a2.88,2.88,0,0,1-2.88,2.88H359.79a0,0,0,0,1,0,0v-6A0,0,0,0,1,359.79,349.44Z" transform="translate(765.6 698.52) rotate(180)"/><path class="cls-7" d="M435.8,361.42H395.1v-6h42.81l.05,3.79A2.17,2.17,0,0,1,435.8,361.42Z" transform="translate(0 -6.36)"/><path class="cls-1" d="M390.33,355.43H432.5l4-71.4a4.41,4.41,0,0,0-4.15-4.71l-34.23-1.51a4.39,4.39,0,0,0-4.53,4.22Z" transform="translate(0 -6.36)"/><path class="cls-4" d="M395.1,355.43h42.78l4.07-71a4.41,4.41,0,0,0-4.21-4.68L403,278.26a4.41,4.41,0,0,0-4.6,4.2Z" transform="translate(0 -6.36)"/><g id="_Group_" data-name="&lt;Group&gt;"><path class="cls-11" d="M481.07,124.35a.42.42,0,0,0,.45.45l0,.44c-11-.42-22-.25-33-.23-5.53,0-11.06,0-16.59,0l-8.29,0c-2.18,0-4.46-.11-6.65.13v-.11a.23.23,0,0,0,.25-.22,8.8,8.8,0,0,1,4.56-8,8.3,8.3,0,0,1,9.06,1.28l.22.2a.45.45,0,0,0,.75-.31c1-9.39,5.5-19.71,15.37-22.54,4.57-1.31,10-.53,13.57,2.77a11.65,11.65,0,0,1,3.36,12c-.11.35.35.76.67.51l.27-.19a4.34,4.34,0,0,1,6.71,4.5.47.47,0,0,0,.45.59h.44A8.38,8.38,0,0,1,481.07,124.35Z" transform="translate(0 -6.36)"/><path class="cls-11" d="M472.72,114.7a9.3,9.3,0,0,1,9.28,9.65.46.46,0,0,1-.48.45.42.42,0,0,1-.45-.45,8.38,8.38,0,0,0-8.44-8.73v-.33C472.67,115.1,472.7,114.9,472.72,114.7Z" transform="translate(0 -6.36)"/><path class="cls-11" d="M472.19,114.71h.53c0,.2,0,.39-.08.59Z" transform="translate(0 -6.36)"/><path class="cls-11" d="M465.28,109.36a5.26,5.26,0,0,1,7.44,5.34h-.53l.44.58v.33h-.44a.47.47,0,0,1-.45-.59,4.34,4.34,0,0,0-6.71-4.5l-.06-.08A11.24,11.24,0,0,0,465.28,109.36Z" transform="translate(0 -6.36)"/><path class="cls-11" d="M465.28,109.36a11.24,11.24,0,0,1-.3,1.11l-.67-.51A5.54,5.54,0,0,1,465.28,109.36Z" transform="translate(0 -6.36)"/><path class="cls-11" d="M431.68,117.68l-.75.31q0-.43.09-.86C431.24,117.31,431.46,117.49,431.68,117.68Z" transform="translate(0 -6.36)"/><path class="cls-11" d="M454.63,94.25c7,1.36,12.2,8.09,10.65,15.12a5.54,5.54,0,0,0-1,.59l.67.51.06.08-.27.19c-.32.24-.78-.16-.67-.51a11.65,11.65,0,0,0-3.36-12c-3.58-3.29-9-4.07-13.57-2.77C437.3,98.28,432.81,108.6,431.8,118a.45.45,0,0,1-.75.31l-.22-.2.1-.11.75-.31c-.21-.19-.44-.38-.66-.55a31.65,31.65,0,0,1,4.31-13.36C439.39,97.25,446.79,92.71,454.63,94.25Z" transform="translate(0 -6.36)"/><path class="cls-11" d="M431,117.13q-.05.43-.09.86l-.1.11a8.3,8.3,0,0,0-9.06-1.28,8.8,8.8,0,0,0-4.56,8,.23.23,0,0,1-.25.22.18.18,0,0,1-.2-.16,8.77,8.77,0,0,1,4.83-8.84A9.19,9.19,0,0,1,431,117.13Z" transform="translate(0 -6.36)"/><path class="cls-11" d="M448.49,125c11,0,22-.19,33,.23h.16a.13.13,0,0,1,0,.27c-11,.43-22.12.26-33.17.24-5.53,0-11.06,0-16.59,0l-8.29,0a48.87,48.87,0,0,1-7.71-.27,0,0,0,0,1,0-.07c.35-.06.7-.11,1.06-.14,2.19-.23,4.47-.11,6.65-.13l8.29,0C437.43,125,443,125,448.49,125Z" transform="translate(0 -6.36)"/></g><path class="cls-11" d="M472.24,72.94c-2.62-5.14,2-11.47,9.46-13.07s16.39,1.87,18.35,7.14c0-4.13.05-8.43,2.71-12.12s8.78-6.52,14.47-5.34c7.38,1.53,9.25,8.08,9.81,13.42-1.22-10.49,1.83-21.21,8.69-30.59,3.33-4.55,9-9.32,16.35-8.8,6.83.49,11.06,5.33,13.62,9.76,7.08,12.29,9.72,25.8,7.6,39-4-6.66,5.47-15.15,15.75-14.11s15.85,11.07,9.27,16.66Z" transform="translate(0 -6.36)"/><path class="cls-11" d="M471.87,73.16c-3.12-6.58,3.2-12.37,9.19-13.86,6.67-1.66,16.68.34,19.72,7.3l-1.55.42c0-4.68.24-9.65,3.42-13.39a16.11,16.11,0,0,1,12.07-5.28c8.73,0,12.59,6.81,13.5,14.62h-2.33a44.55,44.55,0,0,1,7.53-29.29c4.65-7,12.08-12.81,21-11s13.46,11,16.52,18.66a59.76,59.76,0,0,1,3.53,31.22,1.17,1.17,0,0,1-2.12.28C567.56,64,579.19,57.24,586.66,57s18.33,6,15.15,14.89c-.6,1.68-1.92,3.81-3.74,4.14a13.68,13.68,0,0,1-2.49,0l-12.1-.18-86.7-1.31-24.55-.37a1.15,1.15,0,0,1,0-2.3l54.46.83,68.46,1a10.26,10.26,0,0,0,2.81,0c.7-.23-.38.26.32-.42a6.45,6.45,0,0,0,1-7.28c-2.58-5.71-9.92-7.59-15.57-6.35-5,1.1-12.66,6-9.44,12.07l-2.12.28a57.14,57.14,0,0,0-2.55-27.32c-2.56-7.38-6.69-17.11-15-19.47-9-2.57-16.25,4.56-20.47,11.59a42.25,42.25,0,0,0-6,26.18c.15,1.5-2.16,1.47-2.33,0-.73-6.41-3.88-12.54-11.17-12.74a14.16,14.16,0,0,0-10.52,4.34c-3.08,3.46-3.26,8-3.3,12.44,0,.76-1.21,1.22-1.55.42C497,61.87,489.52,59.8,484,60.27c-5.85.5-14.34,5.4-11.36,12.44C472.84,73.22,472.11,73.67,471.87,73.16Z" transform="translate(0 -6.36)"/><path class="cls-11" d="M161.73,63.32a18,18,0,0,0-31.85-7.22,14.72,14.72,0,0,0-29-3c.91-5.54.47-11.81-3.4-15.88s-11.92-4-14.24,1.07C82.15,29.52,77,9.84,65.91,7.63,58.55,6.16,49.55,10.28,43,19.38,31,36,32,49.75,28.67,58c-1.41-7.39-9.6-12.73-16.93-11S-.59,57,1.4,64.29Z" transform="translate(0 -6.36)"/><path class="cls-11" d="M162.07,63.23c-3.24-15.35-22.9-19.56-32.71-7.65l1.27.53c-.47-7.45-6.27-14.16-13.86-15S102.05,45.71,100,52.92l1.66.46c1-6.28.53-14.49-5.49-18.27-4.46-2.8-11.17-2.19-13.77,2.76l1.7.46a65.52,65.52,0,0,0-4.7-17.59C77.11,15.33,73.54,9.22,67.66,7.15,61.23,4.89,54,7.79,48.92,11.77c-7.36,5.77-12.31,14.82-15.38,23.51-2.58,7.3-3,15.24-5.81,22.42h1.88c-1.81-8-10.42-13.81-18.54-11.63C3.23,48.19-1.43,56.83.39,64.57a1.06,1.06,0,0,0,1,.77q27.09-.11,54.19-.29l86.35-.53,19.8-.12a1.08,1.08,0,0,0,0-2.15l-54.19.32q-43.17.26-86.35.53l-19.8.15,1,.77c-1.6-6.67,2.46-14.15,9.2-16,7.11-2,14.54,3.3,16.12,10.21.23,1,1.56.82,1.88,0,2.69-6.9,3.1-14.53,5.47-21.56,3.41-10.12,9.62-21.4,19.54-26.31,3.84-1.9,8.71-2.94,12.83-1.3,3.57,1.42,6.12,4.68,8,7.88a57.05,57.05,0,0,1,6.84,21.4c.1.81,1.23,1.35,1.7.46,2.35-4.5,8.74-4.44,12.29-1.41,4.34,3.71,4.48,10.35,3.73,15.53-.15,1.06,1.36,1.56,1.66.46,1.71-6.33,7.87-11.15,14.54-10.68,6.94.49,12.45,6.61,12.92,13.41,0,.58.83,1.07,1.27.53,9.33-11.45,27.09-7.22,31,6.78A.35.35,0,0,0,162.07,63.23Z" transform="translate(0 -6.36)"/><path class="cls-11" d="M218,106.14a3.47,3.47,0,0,0-.09-1c-1.23-4.95-5.46-8.15-10.38-8.95-4.4-.71-8.56.75-12.41,2.77a13.61,13.61,0,0,0-11.84-9.67c-5.86-.48-11,2.8-14.08,7.46-1.89-4.16-2.68-8.93-5.06-12.87-2.72-4.5-7.07-8.06-12.58-7.77-9.94.52-16.32,11.68-20,20.9a20.06,20.06,0,0,0-12.79-3.82,33.84,33.84,0,0,0-11.59,2.8c-3,1.22-7.47,2.45-8.94,5.55a4.3,4.3,0,0,0-.45,2.1c-2.53,1.43-2,6.19,1.61,6.19H214.84A3.15,3.15,0,0,0,218,106.14Z" transform="translate(0 -6.36)"/></g></g></svg>