<svg xmlns="http://www.w3.org/2000/svg" xmlns:xlink="http://www.w3.org/1999/xlink" viewBox="0 0 791.92 332.79"><defs><style>.cls-1{isolation:isolate;}.cls-2{fill:#b0d9c8;}.cls-3{fill:#fff;}.cls-4{fill:#043c5e;}.cls-5{fill:#00666a;}.cls-6{fill:#63c1c5;}.cls-26,.cls-7{fill:#01898c;}.cls-25,.cls-8{fill:#146088;}.cls-9{fill:#d4e2f5;}.cls-10{fill:#8aaedc;}.cls-11,.cls-29{fill:#a0c6ea;}.cls-12{fill:#5b8fcb;}.cls-13{fill:#6d99d1;}.cls-14{fill:#161731;}.cls-15{fill:#363636;}.cls-16{fill:#80aadb;}.cls-17,.cls-24{fill:#fbd9d7;}.cls-18{fill:#f8c5cd;}.cls-19{fill:#e7effa;}.cls-20{fill:#2d305b;}.cls-21{fill:#3b4271;}.cls-22{fill:#cee0f5;}.cls-23{fill:#4c84c4;}.cls-24,.cls-25,.cls-26,.cls-28,.cls-29{fill-rule:evenodd;}.cls-27{fill:#006c6c;}.cls-28,.cls-71{fill:#dbe8f8;}.cls-30{fill:#c4d8f2;}.cls-31{fill:#5289c7;}.cls-32,.cls-51,.cls-52,.cls-54,.cls-57,.cls-58,.cls-60,.cls-61,.cls-63{fill:none;}.cls-32,.cls-51,.cls-52,.cls-60,.cls-61{stroke:#fff;}.cls-32,.cls-51,.cls-52,.cls-54,.cls-57,.cls-58,.cls-60,.cls-61{stroke-linecap:round;stroke-linejoin:round;}.cls-33{fill:#d7e1f4;}.cls-34{fill:#a4bce3;}.cls-35{fill:#f0f5fc;}.cls-36{fill:#83a0d3;}.cls-37{fill:#bacdeb;}.cls-38{fill:#d3d1d4;}.cls-39{fill:#2b307e;}.cls-40{fill:#4b494a;}.cls-41{fill:#1f345b;}.cls-42{fill:#7c9ad0;}.cls-43{fill:#e5e5e4;}.cls-44{fill:#136aab;}.cls-45{fill:#8aced7;}.cls-46{fill:#089999;}.cls-47{fill:#1f90ca;}.cls-48{fill:#d1ddf2;}.cls-49{fill:#f8f7f7;}.cls-50{fill:#b7caea;}.cls-51{stroke-width:2.48px;}.cls-52{stroke-width:0.95px;}.cls-53{fill:#a9b2db;opacity:0.4;mix-blend-mode:multiply;}.cls-54{stroke:#073c5d;stroke-width:1.88px;}.cls-55{fill:#f6fbfe;}.cls-56{fill:#7a4e1e;}.cls-57{stroke:#afcfed;stroke-width:1.06px;}.cls-58,.cls-63{stroke:#36529d;}.cls-58{stroke-width:1.09px;}.cls-59{fill:#a9bfe5;}.cls-60,.cls-63{stroke-width:0.77px;}.cls-61{stroke-width:1.1px;}.cls-62{fill:#e4edf9;}.cls-63{stroke-miterlimit:10;}.cls-64{fill:#f49e87;}.cls-65{fill:#f6b68f;}.cls-66{fill:#baccdd;}.cls-67{fill:#232c54;}.cls-68{fill:#f5f5f0;}.cls-69{fill:url(#Áåçûìÿííûé_ãðàäèåíò_15);}.cls-70{fill:#f5b68f;}.cls-72{fill:#f4a086;}.cls-73{fill:#f4a088;}.cls-74{fill:#131c31;}.cls-75{fill:#182b48;}.cls-76{fill:#112c44;}.cls-77{fill:#0a3c5f;}.cls-78{fill:#96bad8;}.cls-79{fill:#242d58;}.cls-80{fill:#007575;}.cls-81{fill:#0c5454;}.cls-82{fill:#2e6e9f;}</style><radialGradient id="Áåçûìÿííûé_ãðàäèåíò_15" cx="372.94" cy="210.86" r="17.53" gradientUnits="userSpaceOnUse"><stop offset="0" stop-color="#f5a680"/><stop offset="1" stop-color="#f5b68f"/></radialGradient></defs><title>Asset 1</title><g class="cls-1"><g id="Layer_2" data-name="Layer 2"><g id="Ñëîé_1" data-name="Ñëîé 1"><path class="cls-2" d="M549.23,82.53S509.89,39.67,523.25,1c48.46-8.7,66.37,43.87,66.37,43.87l-3.34,50.77Z"/><path class="cls-3" d="M526.57,46.26l25.8-.2L523,1.89c.1-.31.19-.61.3-.92l.57-.09,15.75,23.66,6.19-23.15.66.17.58.16L540.52,26l26.25,39.42,12.17-40.29.94,1.32L567.7,66.76l18.64,28-.06.86-1.19-.42L553.22,47.34l-26.12.2Z"/><path class="cls-4" d="M577,80.87S571,32.69,599.66,17.18c57.77,33.13,19.7,109,19.7,109Z"/><path class="cls-5" d="M599.66,17.18l.66.39,3.16,65.69L630.34,59.6q.14.74.26,1.48l-27,23.82,1.23,25.66-1.35-1.45-2.4-50L581,40.75q.23-.65.48-1.3l19.49,17.89L599,17.54l.62-.35Z"/><path class="cls-6" d="M182.83,252.38s-46.84,3.17-57.57,35.85c45.82,37.46,82.54-7.7,82.54-7.7Z"/><path class="cls-3" d="M125.26,288.23l.48.38,52.51-17.4L164.92,303l1.15-.07,13.49-32.18,15.15-5-.74-.84-30.21,10h0L148,262.64l-1,.55,15.58,12.14-37.1,12.29c-.07.21-.15.41-.21.61Z"/><path class="cls-7" d="M177.81,267.52s-34.49,31.66-26.44,63.6c38.25,10.31,56.24-30.61,56.24-30.61l.81-40.94Z"/><path class="cls-5" d="M157.14,295,177.82,297l-26.63,33.39c.06.25.11.51.18.76l.45.11,14.26-17.88,3.37,19,.54-.09.48-.08-3.53-19.89,23.77-29.8,7,33.14.84-1-7-33.19,16.88-21.16v-.69l-1,.26L178.58,296l-20.93-2Z"/><path class="cls-2" d="M236.57,255.76a65.26,65.26,0,0,0-5-13.46L200,270.76S191.8,309,213.74,323.39c29.41-13.67,31.76-42.29,29-62.76C240,260.29,237.28,258.53,236.57,255.76Z"/><path class="cls-3" d="M213.74,323.38l.56-.26,7.06-52.45,19.91,20.82q.16-.58.31-1.17l-20-21,2.76-20.49-1.18,1.07-5.37,39.89L200.39,303.2q.14.54.29,1.08l16.86-13-4.27,31.78.48.33Z"/><path class="cls-6" d="M395,101.44v55.5c6.06-6,14.69-11.16,24.11-10.22,13.8,1.38,25,10.76,26.56,24.55A29.84,29.84,0,0,1,416,204.54c-8.2,0-15.63-8.1-21-13.46v64.33a25.45,25.45,0,0,0,25.45,25.45H568.63a25.45,25.45,0,0,0,25.45-25.45v-154A25.45,25.45,0,0,0,568.63,76H420.44A25.45,25.45,0,0,0,395,101.44Z"/><path class="cls-4" d="M0,101.44v154a25.45,25.45,0,0,0,25.45,25.45H173.64a25.45,25.45,0,0,0,25.45-25.45V200.59a29.68,29.68,0,1,1,0-38.91V101.44A25.45,25.45,0,0,0,173.64,76H25.45A25.45,25.45,0,0,0,0,101.44Z"/><path class="cls-7" d="M592.71,101.44v58.27a30.13,30.13,0,1,0,0,45.61v50.09a25.45,25.45,0,0,0,25.45,25.45H766.47a25.45,25.45,0,0,0,25.45-25.45v-154A25.45,25.45,0,0,0,766.47,76H618.16A25.45,25.45,0,0,0,592.71,101.44Z"/><path class="cls-8" d="M448.41,172.18c-1.42-13-13.67-25.07-26.7-26.33a29.71,29.71,0,0,0-23.33,7.95V101.44A25.45,25.45,0,0,0,372.92,76H224.68a25.45,25.45,0,0,0-25.45,25.4l-.14,60.29a29.68,29.68,0,1,0,0,38.91l.13,54.89a25.45,25.45,0,0,0,25.45,25.39H372.92a25.45,25.45,0,0,0,25.45-25.45V197.28a29.81,29.81,0,0,0,50-25.1Z"/><rect class="cls-9" x="15.3" y="103.03" width="123.51" height="76.39" transform="translate(154.12 282.45) rotate(180)"/><rect class="cls-3" x="17.19" y="103.03" width="119.74" height="76.39" transform="translate(154.12 282.45) rotate(180)"/><path class="cls-8" d="M15.64,106H138.48a3,3,0,0,0,3-3h0a3,3,0,0,0-3-3H15.64a3,3,0,0,0-3,3h0A3,3,0,0,0,15.64,106Z"/><path class="cls-8" d="M15.64,182.69H138.48a3,3,0,0,0,3-3h0a3,3,0,0,0-3-3H15.64a3,3,0,0,0-3,3h0A3,3,0,0,0,15.64,182.69Z"/><path class="cls-9" d="M104.87,111.57h26.5a1.46,1.46,0,0,0,1.46-1.46h0a1.46,1.46,0,0,0-1.46-1.46h-26.5a1.46,1.46,0,0,0-1.46,1.46h0A1.46,1.46,0,0,0,104.87,111.57Z"/><path class="cls-9" d="M97.77,111.57h1.9a1.46,1.46,0,0,0,1.46-1.46h0a1.46,1.46,0,0,0-1.46-1.46h-1.9a1.46,1.46,0,0,0-1.46,1.46h0A1.46,1.46,0,0,0,97.77,111.57Z"/><path class="cls-9" d="M81.61,111.57h8.53a1.46,1.46,0,0,0,1.46-1.46h0a1.46,1.46,0,0,0-1.46-1.46H81.61a1.46,1.46,0,0,0-1.46,1.46h0A1.46,1.46,0,0,0,81.61,111.57Z"/><path class="cls-10" d="M115.77,149.08a2.38,2.38,0,0,0-.35,2.28c.49.43.2-1.15.86-.06a.27.27,0,0,0,.38.09.28.28,0,0,0,0-.46c-.55-.5-.2-1,.08-1.56-.84.27-.84.27-1-.3.46-.08,1,.1,1.52-.19C116.25,148.56,116.25,148.56,115.77,149.08Zm2.85,6.75c-.82-.61-1.38-.26-2.08.33s-1.2,1.91-2.53,2.07c-2,.23-2.31,1.94-1.87,3.54a4.93,4.93,0,0,1,0,1.95c0,.28-.59.51-.18.83s.68,0,1-.14a23.61,23.61,0,0,1,4.27-1.17,3.74,3.74,0,0,1,2.51,1.64c.32,1.23,1.15,1.6,2.38,1.16,1.56-.56,2.41-1.91,3.36-3.1a3.17,3.17,0,0,0,.1-4c-.38-.62-1.22-1.1-1.09-2s-.74-1.61-.82-2.67c-.58.75-.45,1.47-.7,2.07-.13.31-.22.64-.65.6a1.73,1.73,0,0,1-1.1-1.83c.08-.22.17-.36-.11-.52A1.86,1.86,0,0,0,118.62,155.83Zm1.59-6.52c-.1.09-.51.18-.32.35.56.53.56,1.64,1.65,1.62.61,0,.82.33.81.91s1,1.33,1.45,1c.78-.62,1.19-.46,1.63.31a.49.49,0,0,0,.69.1c.16-.1.07-.24,0-.38a3.87,3.87,0,0,0-2.36-2.74c-.75-.24-1.47-.87-2.29-.05-.34.34-.58,0-.65-.39S120.7,149.37,120.2,149.31Zm-5-2.4c0-.33-.35-.44-.58-.58a.46.46,0,0,0-.71.27,3.49,3.49,0,0,1-1.73,1.72c-.63.39-.54.68-.41,1.2.26,1.11,1.19,1.15,2,1.24s.47-.82.86-1.18C115.38,148.85,114.45,147.71,115.16,146.91Zm-28.31,12c0,.84.06,1.53.77,1.7.45.11.75-.4.93-.79a19.1,19.1,0,0,0,1.11-4c.06-.28.17-.73-.23-.87s-.49.32-.63.59-.13.46-.36.52C86.71,156.4,87.8,158.28,86.85,158.88Zm19.64-12a18.2,18.2,0,0,1,2,3,2.41,2.41,0,0,0,.89,1.31c.27.16.65.53.79.1s.72-.95,0-1.38c-.92-.54-1-.83-.48-1.61,0-.05.06-.16,0-.2-.47-.57-.22-1.66-1.31-1.79-.3.64.41,1.15.21,1.79C107.75,148,107.65,146.71,106.49,146.85Zm10.31-1.54c.74-1.34.79-1.39,0-2.14-.54-.5-1.11-.89-.83-1.76a.3.3,0,0,0-.28-.39c-.29,0-.35.22-.35.44a7.31,7.31,0,0,0,1.73,4.78c.18.21.27.44.58.28s.3-.39.31-.65C118,145.13,117.46,145.16,116.8,145.31Zm2.59-14.2c.13,1.33-.15,1.81-1.4,2.39a1.62,1.62,0,0,0-.79.72c-.17.33.07.62.23.9s.32.14.36,0c.23-.77,1.1-.64,1.53-1.1s1.4-.17.94-1.19C120,132.29,120.27,131.5,119.39,131.11Zm-30.48-14.3a4.72,4.72,0,0,0-2.08.27,1.33,1.33,0,0,0-.82,1.17c0,.5.56.56,1,.5C86.65,117.16,88,117.25,88.91,116.81Zm24.48,35.93c-.68-1-1.78-.28-2.55-.79-.1-.06-.28.07-.28.24s.08.27.11.27C111.57,152.39,112.38,153.35,113.38,152.74Zm5.95-22.31c.32,0,.77,0,.71-.44s-.52-.33-.82-.4-.44.23-.48.47C118.67,130.55,119.07,130.39,119.33,130.43Zm-17.88,15.51c-.11-.24-.07-.63-.37-.69s-.36.28-.38.51a.5.5,0,0,0,.36.57C101.33,146.4,101.43,146.19,101.45,145.95Zm13.29,7c-.06,0-.11-.09-.17-.1s-.11.05-.17.08.11.09.16.1S114.67,153,114.74,152.93Z"/><path class="cls-10" d="M117.08,126.92A13.22,13.22,0,0,1,117,129c-.1.51,0,1.3-1,1.14-.47-.07-.8,1.57-.4,2a2.88,2.88,0,0,1,.74.93.43.43,0,0,1-.22.64c-.32.15-.43-.07-.56-.32-.45-.87-.9-1.77-2.13-1.66-.35,0-.27-.84-.79-.43a1.41,1.41,0,0,0-.5.81c0,.33.35.46.61.51.47.09.8.19.52.76a.44.44,0,0,0,.13.58c1.2,1-.27,3.68.66,4a2.74,2.74,0,0,1-2.88,1.79,1.14,1.14,0,0,0-1.26.57c-.4.52.23.67.35,1s.37.43.59.62a2,2,0,0,1,0,2.74c-.54.55-.95.68-1.47-.08-.26-.38-.67-1.14-1.19-.75a1.09,1.09,0,0,0,0,1.66c.06.06,0,.2.06.36-.64.06-.88-.24-.82-.82a4.49,4.49,0,0,0-.3-1.93c-.15-.43-.16-1.17-1-.91-.28.08-.35-.27-.44-.52a9.5,9.5,0,0,0-.65-1.6,1.22,1.22,0,0,0-2.25,0,4.19,4.19,0,0,1-.85,1.12,3,3,0,0,0-1.29,2.63c0,.18,0,.43-.09.52-.35.33-.18,1.15-.88,1.1s-.46-.71-.64-1.11c-.67-1.5-1.45-3-1.23-4.83-.67.43-.95.25-1.39-.27a3.18,3.18,0,0,0-2.66-1.4,4.92,4.92,0,0,1-4.37-1.79c-.14-.18-.29-.35-.54-.21a.4.4,0,0,0-.18.56c.46.69.93,1.38,1.45,2a.54.54,0,0,0,.72,0c.91-1,1.25.21,1.76.5.71.39,0,.88-.1,1.3-.44,1.41-1.81,1.75-2.87,2.42-.31.2-.76.21-1.05.52a1.1,1.1,0,0,1-1.31.18,6.56,6.56,0,0,0-.46-1.88c-.84-1.45-1.69-2.9-2.55-4.34-.14-.24-.25-.62-.62-.44s-.16.56,0,.82c.51.95.9,1.94,1.33,2.92.49,1.13.89,2.48,2.33,2.91-.08,1,.38,1.28,1.27,1,.47-.15,1-.06,1.48-.45a6.35,6.35,0,0,1-1.7,4.21c-.61.63-1.18,1.28-1.77,1.93A3.36,3.36,0,0,0,86,153.7a2.73,2.73,0,0,1-1,3.44c-.59.49-1.36.93-.86,1.94.08.16,0,.55-.07.62-1.12.73-1.11,2.12-1.86,3.08a4.71,4.71,0,0,1-3.55,1.6c-.52.06-.72-.36-.79-.75a4.75,4.75,0,0,0-1-2.49.75.75,0,0,1-.14-.51,6,6,0,0,0-1-3.41,2,2,0,0,1,.18-1.89c.9-1.75.29-3.29-.69-4.64a2.16,2.16,0,0,1-.44-2.15c.28-.88.12-1.46-1-1.33-.1,0-.26,0-.3-.05-.76-1.17-1.64-.65-2.58-.26a3.56,3.56,0,0,1-4.63-1.75,3,3,0,0,0-.65-.87,1.58,1.58,0,0,1-.49-1.88c.39-1,1.2-5.52,2.41-6.09a.59.59,0,0,0,.34-.53,1.94,1.94,0,0,1,.94-1.61c.49-.36.8-1,0-1.36-.47-.23-.46-.61-.4-1a8.58,8.58,0,0,0,.17-1.07c0-.8.36-1.05,1.11-.83a3.13,3.13,0,0,0,.64.09c.86.06,1.2-.66.8-1.09-1.09-1.17-.27-1.4.79-1.68-.59-.52-1.13-.18-1.76-.16.14-.48.23-.89.37-1.28.07-.19.31-.39,0-.53a.37.37,0,0,0-.52.26,1,1,0,0,1-1.11.95c-.18,0-.23-.14-.21-.3.09-.61.28-1.13,1-1.2.42,0,.45-.34.35-.64s-.5-.6.17-.64c.47,0,1.1-.07,1.08.56,0,.93.8,1.33,1.07,2.05.12.33.45.23.62,0a1.89,1.89,0,0,1,1.17-.73c.42-.07.33-.4.22-.69a.51.51,0,0,1,.27-.73c.35-.14.44.06.45.38s.19.18.32.11.21-.38.13-.58-.17-.58-.54-.61a.54.54,0,0,0-.3.1c-.36.24-.78.47-1-.07s-.5-1.15.2-1.56a11.67,11.67,0,0,0,2.54-2.31,3.56,3.56,0,0,1,3.49-.75c.87.23,1.76.45,2.61.76.34.12.73.14.9.54.27.63.7.32,1.09.18a13.29,13.29,0,0,1,1.65-.58,19.84,19.84,0,0,0,3.86-.52c0-.41-.19-1,.29-1.19.72-.36,1.31.46,1.33.46,1.18.13,1.93-.68,2.81-1.25a3.36,3.36,0,0,1,1.24-.36c.33-.06.74.29,1-.15s-.67-.32-.43-.82c.27-.25.56,0,.78.08.68.34,1.32.78,2.15.48a.48.48,0,0,1,.39.14c1.45,1.47,3.4.94,5.13,1.27.18,0,.44,0,.52.09.75.88,1.73.52,2.54.33a5.26,5.26,0,0,1,3,0c1.34.51,2.78,0,4.1.78.65.39,1.71.1,2.58.13l.34.18.06-.13-.41,0c.73-.57,1.47,0,2.2,0,1.66.07,3.17.82,4.77,1.19.23.05.29.31.3.54l0,0a4.31,4.31,0,0,1-1.59-.35c-.21-.05-.46-.15-.62,0s0,.4.12.59a1,1,0,0,1-.79,1.47,5.54,5.54,0,0,0-.75.11c-.54.18-.77.59-.26.95,1,.69.85,1.66.88,2.74a6.79,6.79,0,0,1-2.12-2.08c-.34-.44.1-1,.13-1.47.05-.8.1-.8-.62-.55-.24.09-.41-.09-.61-.16s-.5-.2-.59,0c-.5,1.31-1.62.8-2.52.87s-1.64.76-1.53,1.56c.07.57.67.67,1.15.74a2.69,2.69,0,0,1,1.86.74l0,0c-.19,0-.38.09-.29.33a.49.49,0,0,0,.53.3Zm-39.8,4.42a3.45,3.45,0,0,1-1.9-1c-.54-.63-2-.43-2.63,0-1.18.83-1.16,2.76-3,3a1.9,1.9,0,0,0,1.54.05,7.47,7.47,0,0,1,2.88-.52c.7,0,1.15.09,1,.93-.06.47.15.82.65.82s.76.38,1.14.55,1.22,1.18,1.6-.22a.53.53,0,0,1,.84-.21,6.11,6.11,0,0,0,3.1.63c1.27.11,1.31-.58,1.43-1.39.16-1.14-.7-.89-1.29-.88-1.06,0-1.88-.21-2.14-1.39-.06-.27-.1-.65-.53-.53s-.49.4-.32.78a.55.55,0,0,1-.31.8c-.33.1-.55-.26-.6-.52-.28-1.36-1.34-2.11-2.27-3-.19-.17-.37-.41-.64-.16s0,.44.09.66C76.16,130.36,76.85,130.55,77.28,131.34Zm7.39-.27c.47,0,.81,0,.92-.32s-.21-.5-.39-.72-.95-.3-1-.9c0-.22.29-.52-.13-.63a.59.59,0,0,0-.75.45c-.12.36-.38.54-.61.18s-.61-.65-.93-.27-1,.95-.77,1.69c.06.24.32.5.57.42A4,4,0,0,1,84.67,131.07Zm4.8,1.94c.66-.09.73-.5.53-1a6,6,0,0,0-1.06-2c-.27-.27-.47-.53-.07-.91.56-.54.06-.63-.36-.68s-.81.28-1.08.62-.05.8.19,1.08a2.38,2.38,0,0,1,.77,1.82C88.34,132.64,89,132.75,89.47,133Zm-10.31-9.93c-1-.39-1.15-.74-.55-1.66.1-.15.28-.27.21-.47a.32.32,0,0,0-.26-.14c-.38,0-1.53,1.52-1.31,1.73.56.54,0,.88-.1,1.33-.21.64-.95.75-1.22,1.32,1.57.36,2.3,0,2.55-1.34C78.56,123.43,78.85,123.28,79.16,123.09Z"/><path class="cls-10" d="M29.3,119c1.61-1,3.26-.11,4.84.07s3-.09,4.56.08c1,.11,2,0,2.74.75a.43.43,0,0,0,.41,0c.33-.21,1,.45,1-.18s-.6-.06-.88-.26a8.34,8.34,0,0,0-.76-.4l1-.19c-.7-.17-1.22-.94-2.22-.26,1-1.27,1.85-1.49,3-.95a1.75,1.75,0,0,0,2.67-1c.06-.18-.09-.46.24-.5a.21.21,0,0,1,.24.28c-.11.27.46.49.05.76A2.52,2.52,0,0,0,45.12,119c-.12.65-.81.33-1.23.7a1.44,1.44,0,0,0,1.64,0,.79.79,0,0,1,1.18-.15c.62-.65-1-1-.07-1.72.58-.44,1.25,0,1.83-.46-.4-.06-.8-.1-1.19-.18a.32.32,0,0,1-.27-.41c.05-.2.23-.35.41-.22.6.44.52-.08.63-.4a.46.46,0,0,1,.69-.3c.39.22.32.43-.1.57-.2.07-.1.23,0,.35s.2.07.34,0c.43-.19.73-1.12,1.38-.26.08.11.3-.16.27-.35-.07-.56.32-.73.71-.78,2.68-.31,5.34-.83,8.07-.37a16.78,16.78,0,0,0,4.79-.23,5.49,5.49,0,0,1,3.72.36c.6.37,1.21-.28,2,.11-2,.4-2.21,2.3-3.26,3.47a2.57,2.57,0,0,1-1.79.92c-1.39.08-2.44,1.06-3.78,1.29-.47.08-.82.87-1.2,1.35s-.56.67-1.08.58a1.29,1.29,0,0,1-1.19-.95,2.88,2.88,0,0,1,.06-2.12,5,5,0,0,0,.37-1.13c.33-1.52,0-1.84-1.51-1.67-.33,0-.78.13-.89-.22-.43-1.45-1.28-.39-1.65-.15a7,7,0,0,1-1.83.92c.86.55,2,.7,2.26,1.9,0,.15.25.25.37.38s.63.26.53.61-.53.33-.85.33-1-.45-.82.58c.09.47-1.38.86-1.79.4a1.78,1.78,0,0,0-1.54-.57c.4-.67,1.12-.19,1.48-.62.22-.26.84-.28.68-.72a1.29,1.29,0,0,0-.9-.71c-.42,0-1-.05-1.29.41a2.23,2.23,0,0,1-1.81,1c.1.36.63.31.61.79-.76.49-1.53-.37-2.36,0a10.37,10.37,0,0,0-2.27,1.29.87.87,0,0,0,.16,1.56c.81.38,1.86.57,1.69,1.86,0,.09.14.27.24.3a.41.41,0,0,0,.51-.3,1.9,1.9,0,0,1,1.25-1.39c.37-.15.35-.58.4-1,.14-1,1.12-1.88,1.88-1.66.4.11,1,.1.88,1-.12.67.45.62.86.27.76-.64.95-.2,1,.49,0,.54,0,1,.6,1.27a.56.56,0,0,1,.25.46,3.64,3.64,0,0,0,.42,2.29c.21.4,0,.89-.68.64a14.85,14.85,0,0,0-1.51-.37c.06-.59.9-.66.83-1.42-.54.25-1,.47-1.53.73s-1,.28-.88.91.78.06,1.31.4a4.36,4.36,0,0,1-2.46.91c-.72,0-1.4,0-1.83.83-.33.63-1.22.69-1.69,1.29a12.54,12.54,0,0,1-3,3.29c-.64.4-.24,1.23-.32,1.86,0,.32.2.86-.36.86s-.44-.5-.49-.86a1.31,1.31,0,0,0-2.1-.95,1,1,0,0,1-1,.2,1.91,1.91,0,0,0-2.35,1.52,4.88,4.88,0,0,0-.29,2.15c.08.47.18,1,.77,1.07s1.19.14,1.5-.57c.12-.26.22-.56.53-.66a.77.77,0,0,1,.74,0c.23.18,0,.4,0,.59s-.24.45-.32.69c-.2.57-.46,1.17.6,1.05.7-.07.84.39.82,1,0,1.69,0,1.68,1.53,1.93.1,0,.16.22.24.33l-.05.05c-1.79.32-1.79.32-2.88-1.41a1.62,1.62,0,0,0-1.1-.82c-.44-.09-1-.14-1.13-.71a.36.36,0,0,0-.42-.28c-1.11.32-1.94-.4-2.87-.75-.51-.19-.92-.65-.9-1,.08-1.28-.71-2.19-1.2-3.2-.32-.66-.31-1.47-.83-2-.46.17-.15.65-.46.85-.42-.09-.26-.45-.28-.7a1.89,1.89,0,0,0-.58-1.35,2.26,2.26,0,0,1-.43-2.87,10,10,0,0,1,1.38-2.18c.56-.53.24-1.32.3-2h0a4.57,4.57,0,0,0-.41-3.63,1.74,1.74,0,0,0-1.81-.62c-1.08.41-2.46-.17-3.32,1.2-.34.54-1.09-.2-1.53-.67s-.13-.82.32-1.16c.67-.5,1.59-.18,2.25-.74-.21-.44-.91.23-.91-.41C25.68,120.43,28.62,119.46,29.3,119Zm26.6-3.25c.51.1,1,.3,1.37-.21Zm-5.18,11.57.17-.1c-.05,0-.11-.1-.16-.1s-.12.06-.18.09Z"/><path class="cls-10" d="M42.53,145.32a.78.78,0,0,0,.82-.39,1.85,1.85,0,0,1,2.64-.76c.3.14.59.38.91.29a2.1,2.1,0,0,1,2.52,1,2.28,2.28,0,0,0,1.79,1.06,1.35,1.35,0,0,1,1.2,1.13c.34,1.58,1.71,2.11,3,2.45A10.77,10.77,0,0,1,58,151.39a1.25,1.25,0,0,1,.45,1.55,3.9,3.9,0,0,1-.65,1.13,2.91,2.91,0,0,0-.76,2.2,6.86,6.86,0,0,1-.46,2.34c-.18.72-2.56,1.85-2.52,2.69A5.39,5.39,0,0,1,52.87,164c-.35.6-1.22.87-1,1.8,0,.18-.28.37-.49.36-.89-.05-.88,1.07-1.62,1.21-.14,0-.07.25,0,.37a1,1,0,0,1-.07,1.29c-.08.1-.15.35-.1.39.92.85.19,1.92.41,2.85l0,0c-.54.47-1,.37-1.43-.18a5.15,5.15,0,0,1-1.66-3.5,14.46,14.46,0,0,0-.74-2.5,1.5,1.5,0,0,1,.14-1.35,1.32,1.32,0,0,0,.12-1.27c-.65-1.41-.35-2.87-.36-4.31a2.89,2.89,0,0,0-2-3.1,1.32,1.32,0,0,1-.92-1.19,5.16,5.16,0,0,0-1.53-2.79c-.16-.15-.43-.31-.36-.5.32-.92-.45-2,.67-2.86s.88-2.19.58-3.41Z"/><path class="cls-10" d="M118.62,155.83a1.86,1.86,0,0,1,2.55-1.26c.28.16.19.3.11.52a1.73,1.73,0,0,0,1.1,1.83c.43,0,.52-.28.65-.6.25-.6.12-1.32.7-2.07.08,1.06,1,1.66.82,2.67s.71,1.4,1.09,2a3.17,3.17,0,0,1-.1,4c-.95,1.19-1.79,2.53-3.36,3.1-1.23.44-2.06.07-2.38-1.16a3.74,3.74,0,0,0-2.51-1.64,23.61,23.61,0,0,0-4.27,1.17c-.34.1-.7.4-1,.14s.14-.54.18-.83a4.93,4.93,0,0,0,0-1.95c-.44-1.59-.1-3.3,1.87-3.54,1.33-.16,1.7-1.37,2.53-2.07S117.79,155.22,118.62,155.83Z"/><path class="cls-10" d="M120.2,149.31c.49.06.58.37.64.71s.3.73.65.39c.82-.82,1.54-.19,2.29.05a3.87,3.87,0,0,1,2.36,2.74c0,.14.13.29,0,.38a.49.49,0,0,1-.69-.1c-.44-.77-.85-.93-1.63-.31-.43.34-1.46-.41-1.45-1s-.19-.92-.81-.91c-1.09,0-1.09-1.09-1.65-1.62C119.69,149.49,120.11,149.4,120.2,149.31Z"/><path class="cls-10" d="M115.16,146.91c-.72.8.22,1.94-.57,2.67-.38.35-.07,1.27-.86,1.18s-1.74-.14-2-1.24c-.12-.53-.22-.81.41-1.2a3.49,3.49,0,0,0,1.73-1.72.46.46,0,0,1,.71-.27C114.81,146.47,115.12,146.58,115.16,146.91Z"/><path class="cls-10" d="M86.85,158.88c.95-.6-.14-2.48,1.6-2.9.23-.05.26-.33.36-.52s.18-.74.63-.59.29.59.23.87a19.1,19.1,0,0,1-1.11,4c-.18.39-.48.9-.93.79C86.91,160.41,86.86,159.71,86.85,158.88Z"/><path class="cls-10" d="M106.49,146.85c1.16-.15,1.26,1.18,2.16,1.23.2-.64-.52-1.15-.21-1.79,1.09.13.84,1.23,1.31,1.79,0,0,0,.15,0,.2-.52.78-.44,1.07.48,1.61.73.43.13,1,0,1.38s-.51.07-.79-.1a2.41,2.41,0,0,1-.89-1.31A18.2,18.2,0,0,0,106.49,146.85Z"/><path class="cls-10" d="M116.8,145.31c.66-.15,1.18-.18,1.14.58,0,.26,0,.52-.31.65s-.41-.07-.58-.28a7.31,7.31,0,0,1-1.73-4.78c0-.22.05-.46.35-.44a.3.3,0,0,1,.28.39c-.27.86.29,1.25.83,1.76C117.59,143.92,117.54,144,116.8,145.31Z"/><path class="cls-10" d="M119.39,131.11c.88.38.63,1.17.88,1.72.47,1-.59.82-.94,1.19s-1.3.33-1.53,1.1c0,.13-.28.13-.36,0s-.4-.57-.23-.9a1.62,1.62,0,0,1,.79-.72C119.24,132.92,119.52,132.45,119.39,131.11Z"/><path class="cls-10" d="M115.76,149.07c.19.58.19.58,1,.3-.28.55-.63,1.06-.08,1.56a.28.28,0,0,1,0,.46.27.27,0,0,1-.38-.09c-.66-1.09-.37.49-.86.06a2.38,2.38,0,0,1,.35-2.28Z"/><path class="cls-10" d="M88.91,116.81c-.87.43-2.25.34-1.88,2-.46.06-1,0-1-.5a1.33,1.33,0,0,1,.82-1.17A4.72,4.72,0,0,1,88.91,116.81Z"/><path class="cls-10" d="M113.38,152.74c-1,.61-1.81-.35-2.73-.28,0,0-.11-.18-.11-.27s.18-.31.28-.24C111.6,152.46,112.7,151.76,113.38,152.74Z"/><path class="cls-10" d="M119.33,130.43c-.26,0-.66.12-.58-.38,0-.23.15-.56.48-.47s.77.05.82.4S119.65,130.41,119.33,130.43Z"/><path class="cls-10" d="M50,172.32c.62,0,.7.74,1.22.9-.84.28-1.31.06-1.23-.88Z"/><path class="cls-10" d="M101.45,145.95c0,.25-.12.45-.39.4a.5.5,0,0,1-.36-.57c0-.23.06-.58.38-.51S101.34,145.71,101.45,145.95Z"/><path class="cls-10" d="M115.77,149.08c.48-.52.48-.52,1.51-.2-.55.29-1.06.11-1.52.19Z"/><path class="cls-10" d="M114.74,152.93c-.06,0-.12.08-.18.08s-.11-.06-.16-.1.11-.08.17-.08S114.68,152.89,114.74,152.93Z"/><path class="cls-10" d="M117.09,126.48c.25.15.25.3,0,.44h0c0-.15,0-.29,0-.44Z"/><path class="cls-10" d="M124.77,121l.08.11-.11-.08Z"/><path class="cls-10" d="M116.89,126.24l.2.24h0l-.23-.2Z"/><path class="cls-10" d="M31.1,126.92l-.09,0,.1,0Z"/><path class="cls-10" d="M116.84,126.29l.23.2c0,.15,0,.29,0,.44a.49.49,0,0,1-.53-.3C116.47,126.38,116.65,126.31,116.84,126.29Z"/><path class="cls-10" d="M117.51,119.25l.41,0-.06.13-.34-.18Z"/><path class="cls-10" d="M55.91,115.79l1.37-.21C56.9,116.09,56.41,115.89,55.91,115.79Z"/><path class="cls-10" d="M50.72,127.36l-.17-.11c.06,0,.12-.09.18-.09s.11.07.16.1Z"/><path class="cls-7" d="M50.09,117a9.27,9.27,0,1,0-18.54,0c0,5.12,9.27,16.73,9.27,16.73S50.09,122.13,50.09,117Z"/><circle class="cls-3" cx="40.82" cy="117.01" r="6.59"/><polygon class="cls-10" points="45.53 116.12 41.76 116.12 41.76 112.35 39.89 112.35 39.89 116.12 36.12 116.12 36.12 117.98 39.89 117.98 39.89 121.76 41.76 121.76 41.76 117.98 45.53 117.98 45.53 116.12"/><path class="cls-7" d="M91.56,141.52a9.27,9.27,0,1,0-18.54,0c0,5.12,9.27,16.73,9.27,16.73S91.56,146.64,91.56,141.52Z"/><circle class="cls-3" cx="82.29" cy="141.52" r="6.59"/><polygon class="cls-10" points="86.99 140.63 83.22 140.63 83.22 136.85 81.35 136.85 81.35 140.63 77.58 140.63 77.58 142.49 81.35 142.49 81.35 146.26 83.22 146.26 83.22 142.49 86.99 142.49 86.99 140.63"/><path class="cls-7" d="M121.95,118a9.27,9.27,0,0,0-18.54,0c0,5.12,9.27,16.73,9.27,16.73S121.95,123.15,121.95,118Z"/><circle class="cls-3" cx="112.68" cy="118.03" r="6.59"/><polygon class="cls-10" points="117.38 117.14 113.61 117.14 113.61 113.36 111.75 113.36 111.75 117.14 107.97 117.14 107.97 119 111.75 119 111.75 122.77 113.61 122.77 113.61 119 117.38 119 117.38 117.14"/><rect class="cls-8" x="51.21" y="233.61" width="4.47" height="10.27"/><path class="cls-8" d="M74.67,228.84a2.53,2.53,0,0,1-2.53,2.53H51.08l-1.51-.47c-3.8-1.21-13.51-4.37-14.16-5.39-.8-1.26-4.34-34.43-4.34-34.43H52.13a2.53,2.53,0,0,1,2.72,2.32L57,219.88a7,7,0,0,0,7,6.43h8.22A2.53,2.53,0,0,1,74.67,228.84Z"/><path class="cls-11" d="M62,234.58H47.32a3.91,3.91,0,0,1-3.91-3.91H65.94A3.91,3.91,0,0,1,62,234.58Z"/><path class="cls-12" d="M74.67,228.84a2.53,2.53,0,0,1-2.53,2.53H49.57v-5.06H72.14A2.53,2.53,0,0,1,74.67,228.84Z"/><path class="cls-11" d="M51.08,231.36H42.86a12.1,12.1,0,0,1-12-11.09l-2.1-26.48a2.53,2.53,0,0,1,5-.4l2.1,26.48a7,7,0,0,0,7,6.43h8.22a2.53,2.53,0,0,1,0,5.06Z"/><path class="cls-8" d="M51.67,252.08H55a0,0,0,0,1,0,0V258a1.66,1.66,0,0,1-1.66,1.66h0A1.66,1.66,0,0,1,51.67,258v-5.94a0,0,0,0,1,0,0Z"/><path class="cls-13" d="M73,259.84a3.23,3.23,0,0,0-2.06-4.07l-15.07-5V244h-5v6.84L36,255.77a3.23,3.23,0,0,0-2.06,4.07l19.53-6.42h0Z"/><circle class="cls-11" cx="71.61" cy="259.39" r="2.6"/><circle class="cls-11" cx="53.34" cy="260.58" r="2.34"/><path class="cls-13" d="M53.44,241.09h0A3.94,3.94,0,0,1,57.38,245v6.33a0,0,0,0,1,0,0H49.5a0,0,0,0,1,0,0V245A3.94,3.94,0,0,1,53.44,241.09Z"/><circle class="cls-11" cx="37.58" cy="259.39" r="2.6"/><path class="cls-14" d="M88.64,260.86c-2.69-.06-6.87-.41-10.2-.73l-.06-.05,0,0-3.74-.37-.05-3.14a17.3,17.3,0,0,0,5.66-.73s5.08,3.22,7,3.85A2,2,0,0,1,88.64,260.86Z"/><path class="cls-15" d="M78.36,260.13l-.61,1.16a11.41,11.41,0,0,1-3.1,0l0-1.55Z"/><path class="cls-14" d="M88.68,261.73a53.62,53.62,0,0,1-9-.37l-1.27-1.22c3.32.32,7.51.66,10.2.73A1.41,1.41,0,0,1,88.68,261.73Z"/><path class="cls-14" d="M78.58,261.06c-2.69-.06-6.87-.41-10.2-.73l-.06-.06,0,0-3.74-.37-.05-3.14a17.3,17.3,0,0,0,5.66-.73s5.08,3.22,7,3.85A2,2,0,0,1,78.58,261.06Z"/><path class="cls-14" d="M68.3,260.32l-.61,1.16a11.4,11.4,0,0,1-3.1,0l0-1.55Z"/><path class="cls-14" d="M78.62,261.92a53.69,53.69,0,0,1-9-.37l-1.27-1.22c3.32.32,7.51.66,10.2.73A1.41,1.41,0,0,1,78.62,261.92Z"/><path class="cls-11" d="M82.36,226.75c.77,8.71-1,25.94-1.59,30,0,0-3.45,1.21-6.26.21l-1.68-28.2a1.21,1.21,0,0,0-.9-1.1l-14.24-3.73H55.57l-2.68-10.59s14-1.93,14.36-.84C67.34,212.76,81.86,221.15,82.36,226.75Z"/><path class="cls-16" d="M73,231.22s-.08-2.78-.6-3.32-2.75-.5-2.75-.5l.93-3.15s-2.16-3.62-3.55-4a5,5,0,0,1-2.26-1.56L67,219s2.12,1.36,2.79,1.89a15.24,15.24,0,0,1,3.32,5.66c.83,2.6,1.45,9.15,1.52,12.22s1.26,18.62,1.26,18.62l-1.42-.4Z"/><path class="cls-11" d="M71.56,225.81c-.36,9.1-.26,26.88-.88,30.94,0,0-3.45,1.21-6.26.21L62,227.75a.86.86,0,0,0-.85-.8c-2.37,0-9.41-.31-11.7-2.54-2.72-2.64-2.2-11.11-2.2-11.11s9.47-1.88,9.87-.79C57.25,212.76,71.78,220.2,71.56,225.81Z"/><path class="cls-11" d="M64.27,183.36c6.33,2,4.36,21.63,3.69,22.13s-5.76-1.11-6-2.48S59.34,181.82,64.27,183.36Z"/><path class="cls-17" d="M65.14,206.55a49.24,49.24,0,0,0,16.23,1.29l-.28-2.78s-8.79-2-12.89-3.52C67.3,201.22,64.08,206.31,65.14,206.55Z"/><path class="cls-11" d="M64,206.62a39.5,39.5,0,0,0,15,1.91s.67-4,.3-4.6-10.29-2.8-14.52-3.48C63.38,200.21,59.85,205.24,64,206.62Z"/><path class="cls-7" d="M54.39,181.85a15.76,15.76,0,0,0-7.62,3.73s3.43,1.66.82,7.85L47.4,215a67.23,67.23,0,0,0,21.38-2.09s0-23.67-2.25-27.18C64,181.82,59.68,181.26,54.39,181.85Z"/><path class="cls-17" d="M56.34,179.12l-.7,3.78s1.09,2.68,3.08,2.68,2-2.68,2-2.68v-3.78Z"/><path class="cls-17" d="M64.71,172.08c0,4.7-1.55,8.5-6.24,8.5-3.45,0-6.24-3.81-6.24-8.5s2.79-8.5,6.24-8.5S64.71,167.39,64.71,172.08Z"/><path class="cls-17" d="M53.05,171s-1.73-.95-2.21,0,.72,3.92,2.21,3.29S53.05,171,53.05,171Z"/><path class="cls-14" d="M62.74,165.77a14.6,14.6,0,0,1,2,6.31,8.65,8.65,0,0,0-.26-8.21Z"/><path class="cls-18" d="M63.22,166.62s.56,1.29.66,1.58a32.59,32.59,0,0,1-6-.57c-1.89-.53-4.94.73-4.94.73l2.41-2.79Z"/><path class="cls-18" d="M60.71,180.23a4.49,4.49,0,0,1-2.57.34,5.82,5.82,0,0,0,2.57,1Z"/><path class="cls-14" d="M52.43,171s.48-3.92,2.45-4.24,5.6.16,7.46,0c3.46-.29,3.57-3.84,2.77-4.56-1.57-1.42-6.29-.62-8.37-.12s-6.62,1.75-5.88,8.88C50.84,171,51.83,170,52.43,171Z"/><path class="cls-14" d="M51.42,173.57a7.69,7.69,0,0,0,2.2,3.88s-1-2.56-1.16-3.1A1.46,1.46,0,0,1,51.42,173.57Z"/><path class="cls-16" d="M62.88,214.39s6.21,4.38,7.46,4.65l2.81-2.53-2.81-2S63.28,213.06,62.88,214.39Z"/><path class="cls-3" d="M55.87,181.65a55,55,0,0,1,4.19,9s3.33,23.77,3.49,24.88,5.22,3.64,5.22,3.64-7.24,8.31-10.6,8.9a24.19,24.19,0,0,0-8.61-1.74c-1.64,0-3.49-9.87-3.37-14.14s1.38-27.54,3.37-28.9A9.2,9.2,0,0,1,55.87,181.65Z"/><path class="cls-19" d="M49.87,184a7.82,7.82,0,0,1,3,5.48c.43,3.78.22,11,.75,11.61s8,3.48,8,3.48L51,203Z"/><path class="cls-11" d="M48.59,183.89c-6.09,2.62-2.53,21.74-2,22.38,2.14,2.6,5.57-.38,5.7-1.78S53.34,181.85,48.59,183.89Z"/><path class="cls-3" d="M60.71,181.92s-.3,6.58-.65,8.7c0,0,3,22.75,3.29,23.45s7,4.2,7,4.2a10.59,10.59,0,0,1,2.76-2.33s-3.08-2.46-3.77-3.08c0,0,.94-26.2-4.57-29.33C64,183.06,62.11,181.84,60.71,181.92Z"/><path class="cls-17" d="M49.18,207.49a44.12,44.12,0,0,0,15.39.86l-.35-2.77s-8.38-1.81-12.3-3.18C51.06,202.1,48.18,207.27,49.18,207.49Z"/><path class="cls-11" d="M48.13,207.58a47,47,0,0,0,14.92,2.07s.28-4.58-.09-5.12S52.73,202,48.72,201.39C47.33,201.2,44.14,206.32,48.13,207.58Z"/><path class="cls-17" d="M69.37,205.67a4.13,4.13,0,0,0-2.65-.8c-1.33,0-4,.92-3.38,2.66a1.18,1.18,0,0,0,1.76.71c.34-.15.93-.79,1.28-.9a1.47,1.47,0,0,1,1.29.07,7,7,0,0,0,1.74.56c.48.08,1.37.26,1.54-.44S69.9,206,69.37,205.67Z"/><path class="cls-2" d="M101.21,204.29l-.05,0-.7-.4-.19-.11-.09-.05c-.5-.3-1-.61-1.45-.93l-.18-.13-.07-.05a16.35,16.35,0,0,1,.55-4l1.61,1.83-1.28-2.76a7.62,7.62,0,0,1,1.68-2.51l1.27,1.54-.57-2.15a9.7,9.7,0,0,1,3-1.51,8.07,8.07,0,0,1,.64,4.66l-1.64.36,1.55.19a12,12,0,0,1-.95,2.91A6.19,6.19,0,0,1,101.21,204.29Z"/><path class="cls-3" d="M103.9,195.83c0,.05-1.46,4-3.44,8.09l-.19-.11c2-4.08,3.41-8,3.43-8.06a.11.11,0,0,1,.14-.06A.11.11,0,0,1,103.9,195.83Z"/><path class="cls-7" d="M99.8,204.36h0l-.6.18-.16,0-.08,0c-.44.12-.88.23-1.31.32l-.17,0h-.07a12.5,12.5,0,0,1-1.82-2.53l1.88.09-2.2-.8a6.18,6.18,0,0,1-.41-2.37l1.53.12-1.47-.87a8.32,8.32,0,0,1,.84-2.56,5.92,5.92,0,0,1,2.85,2.23l-.72,1.15,1-.79a9.37,9.37,0,0,1,1,2.16A5.25,5.25,0,0,1,99.8,204.36Z"/><path class="cls-3" d="M96.78,198s1.33,3.07,2.42,6.5l-.16,0c-1.09-3.41-2.4-6.43-2.41-6.48a.09.09,0,0,1,0-.12A.08.08,0,0,1,96.78,198Z"/><polygon class="cls-20" points="102.22 209.06 97.4 209.06 96.89 204.03 102.73 204.03 102.22 209.06"/><path class="cls-21" d="M103.05,204.58H96.57c-.22,0-.39-.24-.39-.55h0c0-.3.17-.55.39-.55h6.49c.22,0,.39.24.39.55h0C103.45,204.33,103.27,204.58,103.05,204.58Z"/><path class="cls-3" d="M95,208.75H74.6l3.15-16.41a.81.81,0,0,1,.79-.66h18.8a.81.81,0,0,1,.79,1Z"/><polygon class="cls-12" points="74.73 208.04 65.7 208.73 74.6 208.75 74.73 208.04"/><polygon class="cls-19" points="65.7 208.73 65.7 209.34 74.6 209.34 74.6 208.75 65.7 208.73"/><polygon class="cls-12" points="95.04 208.75 74.6 208.75 74.6 209.34 95.04 209.21 95.04 208.75"/><rect class="cls-10" x="43.35" y="210.12" width="3.73" height="52.21" transform="translate(90.44 472.45) rotate(180)"/><rect class="cls-10" x="58.6" y="210.12" width="3.73" height="52.21" transform="translate(120.93 472.45) rotate(180)"/><rect class="cls-13" x="107.01" y="210.12" width="3.73" height="51.48" transform="translate(217.75 471.71) rotate(180)"/><rect class="cls-13" x="122.25" y="210.12" width="3.73" height="51.48" transform="translate(248.24 471.71) rotate(180)"/><rect class="cls-13" x="97.14" y="209.06" width="32.83" height="2.11" transform="translate(227.11 420.24) rotate(180)"/><rect class="cls-10" x="36.28" y="209.06" width="62.2" height="2.11" transform="translate(134.77 420.24) rotate(180)"/><path class="cls-11" d="M183.36,261.73h0a1.45,1.45,0,0,0,1-1.73l-7.94-33.86-4.56,1.2,9.69,33.4A1.45,1.45,0,0,0,183.36,261.73Z"/><path class="cls-8" d="M169.93,262h0a1.45,1.45,0,0,0,1.24-1.6l-4-34.54-4.67.67,5.82,34.28A1.45,1.45,0,0,0,169.93,262Z"/><path class="cls-11" d="M134.86,260.18l6.83-30.66c1.53,0,3.2,0,4.78-.24l-8.79,31.6a1.45,1.45,0,0,1-2.82-.71Z"/><path class="cls-8" d="M151.07,232a.75.75,0,0,0,.31,0,13.17,13.17,0,0,0,4.75-3.83L151,260.83a1.45,1.45,0,0,1-2.88-.38Z"/><path class="cls-22" d="M139.47,231.31a2.38,2.38,0,0,0,2.38,2.39h19.87l1.43-.45c3.59-1.14,12.75-4.12,13.36-5.08.76-1.19,4.09-32.48,4.09-32.48H160.73a2.38,2.38,0,0,0-2.57,2.19l-2,25a6.62,6.62,0,0,1-6.57,6.07h-7.75A2.38,2.38,0,0,0,139.47,231.31Z"/><path class="cls-23" d="M139.47,231.31a2.38,2.38,0,0,0,2.38,2.39h21.29v-4.77H141.86A2.38,2.38,0,0,0,139.47,231.31Z"/><path class="cls-8" d="M161.73,233.69h7.75a11.42,11.42,0,0,0,11.32-10.46l2-25a2.38,2.38,0,0,0-4.75-.38l-2,25a6.62,6.62,0,0,1-6.57,6.07h-7.75a2.39,2.39,0,1,0,0,4.77Z"/><path class="cls-17" d="M122.72,256.37h0s-1.18-24.26-1.11-27.59S138,221,138,221c1.39-8,3.45-.56,3.71.85s-11.81,4.73-12.63,6.88c-.62,1.62-1.65,16.62-2.12,23.9h0l-.35,5.83-3.87-.22Z"/><path class="cls-17" d="M134.73,258.27s-4.48-20.56-4.71-23.89,13.23-12.46,13.23-12.46c.64-8.08,7.79-3.43,8.18-2.06s-13.36,11.53-14,13.75c-.47,1.67.24,12.67.72,19.21.11,1.46.44,5.31.44,5.31Z"/><path class="cls-14" d="M154.84,188.18c-1.91,1-2.46-1.89-2.42-3.26s.26-2.74.19-4.11c-.1-2.2-1-4.24-3-5a11.09,11.09,0,0,0-6.26-.23c-1.67.41-4,1.38-4.76,3.16-.1.22.1.29.22.17a14.73,14.73,0,0,0-.13,5.51c.33,1.9,1.93,5.29-.41,6.44-.11.05-.21.28-.07.35a12.11,12.11,0,0,0,4.67.75,25.58,25.58,0,0,0,5.2,0,22.32,22.32,0,0,0,4.48-1.48A4.27,4.27,0,0,0,155,188.4C155.07,188.25,155,188.11,154.84,188.18Z"/><path class="cls-24" d="M148.9,192.36c-.67-.62-.44-3.69-.44-3.69s-5.23-1.84-4.48-.26a6,6,0,0,1,.25,3.76c-.19.53-1.81.68-1.81.68s-1,4.05,2.2,4.24,8.21-3.69,8.21-3.69a3,3,0,0,0-2.08-.57,2.84,2.84,0,0,1-1.85-.47Z"/><path class="cls-24" d="M151.41,179.52s.63,9.7-4.77,11-7.89-7.39-7.72-10.88,9.84-8.24,12.49-.13Z"/><path class="cls-24" d="M144,193.76s-2.89-.45-5.31,4.67c-1.59,3.36-5.46,12.08-6.07,12.83s-5.19,2.49-5.19,2.49l1,2.12s6.9-1.47,7.7-2.49S144.42,196.26,144,193.76Z"/><polygon class="cls-18" points="121.61 233.64 121.79 235.28 128.14 236.31 128.14 234.41 121.61 233.64"/><polygon class="cls-18" points="130.08 234.97 130.28 236.31 137.29 235.86 137.35 234.23 130.08 234.97"/><path class="cls-25" d="M155.67,205.12a20.07,20.07,0,0,1,3.63,9.44c.32,2.92.92,14.36-1.14,14.36-7.42,0-19-1-18.31,4.77-6.16,2.74-16.68,1.65-20.22-1.18-.94-13,18.89-11.08,20-15.23a59.19,59.19,0,0,0,1.36-11.9S152.44,206.16,155.67,205.12Z"/><path class="cls-26" d="M137.4,217.73c.29-1.56,2.76-10.81,2.66-11.17a13.41,13.41,0,0,0-1-2.23l0,0a9.72,9.72,0,0,1-1.14-3.95c-.13-2.62,1.15-4.23,2.58-5.93l2-1.59s-.82,1.69,1.28,3.11c3.77,2.54,6.93-3.12,6.93-3.12l2.66.35c-2.62,3.21.17,8.39.17,8.39,2.17,4,2.9,6.52,5.44,14.37C159.2,221.33,136.6,222,137.4,217.73Z"/><path class="cls-27" d="M150.37,205.23s-5.58,2-10.3,1.34a13.41,13.41,0,0,0-1-2.23C139.34,204.55,141.31,206.11,150.37,205.23Z"/><path class="cls-28" d="M149.94,192.61s-.95,19.9,1.74,29.19c0,0,6.19-.66,8.42-5.37-3.84-8.15-7.81-23.61-7.81-23.61Z"/><path class="cls-24" d="M150.44,182.13s2.5-1.33,2.07,1.45c-.3,1.91-1.68,1.76-2.46.54a1.4,1.4,0,0,1,.39-2Z"/><path class="cls-24" d="M149.68,217.59s-3.6,1.74-4.4,1.73a1.42,1.42,0,0,1-1.21-1.35s-.65-.68-.6-1.2a.94.94,0,0,1-.36-.88c0-.23.64-.28.86-.24.64.11,1.56.78,1.85.41s-.37-.91-.84-.87-2.25-.09-2-.84,2.11-.3,2.63-.33,2.89-.33,3.76.68S149.68,217.59,149.68,217.59Z"/><path class="cls-3" d="M147.17,220.54l-.48,0c0-.33.82-8,4.47-7.8,2.74.13,5.15,7.35,5.25,7.65l-.46.15c-.66-2-2.82-7.23-4.82-7.32C147.93,213,147.18,220.46,147.17,220.54Z"/><path class="cls-14" d="M116.59,261.07s.08.53.16.58a23.65,23.65,0,0,0,9.44-.86.84.84,0,0,0,.56-.71l0-.26Z"/><path class="cls-14" d="M126.63,258s.41,1.61.06,1.94-8.36,1.66-9.89,1.22,5.94-3,5.94-3Z"/><path class="cls-17" d="M122.74,258.2s-3.33,1.18-3,1.62,6.18-.14,6.91-1.4S122.74,258.2,122.74,258.2Z"/><path class="cls-14" d="M128.56,261.13s.08.52.16.58a23.65,23.65,0,0,0,9.44-.87.84.84,0,0,0,.56-.71l0-.26Z"/><path class="cls-14" d="M138.59,258.07s.41,1.61.06,1.94-8.36,1.67-9.89,1.23,5.94-3,5.94-3Z"/><path class="cls-17" d="M134.71,258.25s-3.33,1.18-3,1.62,6.18-.15,6.91-1.41S134.71,258.25,134.71,258.25Z"/><path class="cls-18" d="M139.34,183.27s2.34-4.39,2.94-4.66,7,2.37,8.9,3.36l-2.48-3.72-6.42-1.64L139,179.15S138.87,182.6,139.34,183.27Z"/><path class="cls-18" d="M144.42,190.51s2.13.34,3.13-.31a7.94,7.94,0,0,1-3.19,1.37Z"/><path class="cls-14" d="M152.51,176a5.32,5.32,0,0,0-4.43-3.36,8.15,8.15,0,0,0-2.94,0,4.23,4.23,0,0,0-2.25,1.19,4.33,4.33,0,0,0-4.25.21,4.67,4.67,0,0,0-1.53,3.58c-.08,2.16,1,4.14.79,6.32a.12.12,0,0,0,.15.14c1-.42,1.24-1.43,1.47-2.5a6.85,6.85,0,0,1,2.84-3.93.21.21,0,0,0,.11,0,3.68,3.68,0,0,0,.93.7,17.82,17.82,0,0,0,2.5.87c.9.3,1.81.61,2.68,1s2,.78,2.47,1.79a.11.11,0,0,0,.13.05,3.42,3.42,0,0,1,1.09,0c.07,0,.16-.07.19-.14a8.58,8.58,0,0,0,.42-3.07A7.92,7.92,0,0,0,152.51,176Z"/><path class="cls-24" d="M154,193.35a6.89,6.89,0,0,1,3.61,3c1.39,3,4.45,13.06,3.61,15.36-1.22,3.34-11.52,5.87-11.52,5.87l-1.4-3.43s5.88-2.3,8.32-4.43a27.74,27.74,0,0,0-4.3-9.65C151.18,198.89,151.65,193.65,154,193.35Z"/><path class="cls-29" d="M141.71,193.41s-1.77.44-3.66,4.54-5.06,12.58-6.31,13.23a11.63,11.63,0,0,1-1.8.81l1.52,3.5s4-.39,5.11-1.44,5.2-12,5.63-13S141.71,193.41,141.71,193.41Z"/><path class="cls-29" d="M152,212.06a40.72,40.72,0,0,1,1.78,5s6.76-2.88,7.35-4.35.48-5.74-.9-9.89-2.6-10-8-10c0,0-2.23,4.14,0,8s4.11,7,3.75,8.49S152,212.06,152,212.06Z"/><path class="cls-28" d="M142.55,192.83s0,19.86-4.54,28.13a9.92,9.92,0,0,1-2.36-2.29s4-9.63,3.84-11.46-2.26-4.73-.63-9.65A8.49,8.49,0,0,1,142.55,192.83Z"/><path class="cls-3" d="M146.93,220.12c-.78.37-.72,7,.42,7.56s8.63.31,9.24,0,.36-7,0-7.56S148,219.63,146.93,220.12Z"/><path class="cls-30" d="M147.77,221.38s.12,3.86.6,4.83,5.87.36,6.62,0,1-4.41.56-4.83S148.2,220.78,147.77,221.38Z"/><circle class="cls-3" cx="151.78" cy="225.22" r="0.64"/><path class="cls-3" d="M150.07,212.9c-2.72,1.2-3.35,7.3-3.38,7.59l.48,0c0-.07.59-5.84,2.93-7.11C150.09,213.25,150.08,213.07,150.07,212.9Z"/><path class="cls-17" d="M128.27,216.41a6.31,6.31,0,0,1-3.45-.3c-.38-.21-.51-.48-.39-.64-.44-.1-1-.26-1.22-.66-.11-.21-.09-.35,0-.43-.42-.25-1-.65-.88-1.1.05-.26.35-.25.65-.18a.52.52,0,0,1,.07-.6,1.23,1.23,0,0,1,1.05-.1,8.67,8.67,0,0,1,1,.18c.21.08,1.24.36,1.32.17s-.75-.29-1-.36a1,1,0,0,1-.37-.22c-.26-.23-.4-.54-.24-.77.42-.57,3.65,1,3.66,1a2,2,0,0,1,1,1.77C129.48,215.17,129.48,216,128.27,216.41Z"/><path class="cls-31" d="M158.16,228.92s-11.23-.22-13.35.36-5.33,2-5,4.41l-2,.71s-.4-3.16,2.16-4.62,16-1.63,17.21-1.79a3.69,3.69,0,0,0,2-.94A2,2,0,0,1,158.16,228.92Z"/><path class="cls-32" d="M749.09,97.49"/><path class="cls-32" d="M749.09,89"/><polygon class="cls-33" points="664.04 206.46 605.09 232.62 641.64 258.29 703.09 224.57 664.04 206.46"/><path class="cls-34" d="M781.14,154.09h0s0-.07,0-.1v-.1h0v-.07l0-.1v-.1l0-.1,0-.09h0l0-.1,0-.1v0l0-.05,0-.09,0-.07h0l0-.09,0-.09,0,0v0l0,0,0-.09-.05-.09h0l-.06-.09-.06-.08,0-.06,0,0-.1-.13,0,0h0l-.14-.16,0,0,0,0-.05-.05-.09-.09,0,0,0,0,0,0-.09-.08-.07-.06h0l-.1-.08-.1-.08h0l-.1-.07-.11-.07h0l-.08,0-.11-.06,0,0h0l-.06,0-.11-.05-.59-.27-3.07,1.61.8.38.11.06.11.06.11.07,0,0,.17.11h0l.16.13,0,0,.15.13,0,0,.14.13,0,0,.13.14.06.07.08.09.08.11.05.07,0,.06.08.11,0,0,.1.16h0l.09.17v0l.08.17v0l.07.17v0l.06.17v0l0,.17v0l0,.17v0c0,.06,0,.11,0,.17v.09s0,.07,0,.1,0,.07,0,.11,0,.07,0,.11,0,.08,0,.11v.09l0,.16-8.24,59.51c0,.28-1.19,2.13-.92,2l2.87-2.32a3,3,0,0,0,1.09-1.88L781,155.21l.1-.71v-.16h0v0s0-.07,0-.11,0-.06,0-.08Z"/><path class="cls-35" d="M775.92,152.54a3.84,3.84,0,0,1,2.28,3.62l-8.36,60.38c-.18,1.33-1.5,1.87-2.95,1.2L660.47,168.41a3.84,3.84,0,0,1-2.28-3.62l8.36-60.38c.18-1.33,1.5-1.87,2.95-1.2Z"/><path class="cls-36" d="M768.35,222l-.2-3.77-4,2.52-.95-1.74L659.12,170.72a6.67,6.67,0,0,0-5.07.36L610.92,195l0-.62-6.57,3.11-1-.3.25,2.72a1.29,1.29,0,0,0,.82,1l108.36,50.36a6,6,0,0,0,4.8-.28l49.64-27.65c.76-.42,1.13-.92,1.11-1.41Z"/><path class="cls-37" d="M659.12,170.72a6.67,6.67,0,0,0-5.07.36L610.92,195l0-.62-6.57,3.11-1-1,.25,3.41a1.29,1.29,0,0,0,.82,1l108.36,50.36a4.81,4.81,0,0,0,1.89.38L712.91,224C713.67,223.6,659.12,170.72,659.12,170.72Z"/><path class="cls-22" d="M712.57,247.66,604.22,197.44c-1.25-.58-1.15-1.69.24-2.46l49.64-27.69a6,6,0,0,1,4.8-.35l108.35,50.22c1.25.58,1.15,1.69-.24,2.46l-49.64,27.69A6,6,0,0,1,712.57,247.66Z"/><path class="cls-4" d="M660.88,176.89a.91.91,0,0,1-.7,0l-6.58-3c-.24-.11-.31-.27-.16-.35l4.17-2.32a.91.91,0,0,1,.7,0l6.58,3c.24.11.31.27.16.35Z"/><path class="cls-4" d="M668.78,186.41a.9.9,0,0,1-.71,0l-6.58-3c-.24-.11-.31-.27-.15-.35l4.17-2.33a.9.9,0,0,1,.7,0l6.58,3c.24.11.31.27.16.35Z"/><path class="cls-4" d="M665.18,190.61a.9.9,0,0,1-.7,0l-6.58-3c-.23-.11-.31-.27-.16-.35l4.17-2.33a.92.92,0,0,1,.7,0l6.58,3c.24.11.31.27.16.35Z"/><path class="cls-4" d="M655,191.76a.91.91,0,0,1-.7,0l-6.58-3c-.23-.11-.31-.27-.16-.35l4.17-2.33a.91.91,0,0,1,.7,0l6.58,3c.24.11.3.27.15.35Z"/><path class="cls-4" d="M637.2,190.11a.91.91,0,0,1-.7,0l-6.58-3c-.24-.11-.31-.27-.16-.35l4.89-2.73a.92.92,0,0,1,.7,0l6.58,3c.24.11.3.27.16.35Z"/><path class="cls-4" d="M648.54,195.36a1.16,1.16,0,0,1-.84-.11l-8.62-4c-.31-.14-.44-.33-.29-.41l4.89-2.73a1.18,1.18,0,0,1,.83.11l8.62,4c.31.14.44.33.29.41Z"/><path class="cls-4" d="M705.16,221.63a.89.89,0,0,1-.66-.07l-6.57-3c-.24-.11-.33-.26-.21-.33l1.81-1a.9.9,0,0,1,.66.07l6.57,3c.24.11.33.26.2.33Z"/><path class="cls-4" d="M714,225.81a.89.89,0,0,1-.66-.07l-6.57-3c-.24-.11-.33-.26-.21-.33l1.81-1a.9.9,0,0,1,.66.07l6.57,3c.24.11.33.26.2.33Z"/><path class="cls-4" d="M723.27,230a.89.89,0,0,1-.65-.08l-6.58-3c-.24-.11-.34-.26-.21-.32l1.74-1a.9.9,0,0,1,.65.08l6.58,3c.24.11.33.25.21.32Z"/><path class="cls-4" d="M717.39,224a.89.89,0,0,1-.65-.08l-6.58-3c-.24-.11-.34-.26-.21-.32l1.74-1a.9.9,0,0,1,.65.08l6.58,3c.24.11.33.25.21.32Z"/><path class="cls-4" d="M693.79,216.32a.91.91,0,0,1-.71,0l-42.8-19.83c-.23-.11-.31-.27-.16-.35l4.89-2.73a.93.93,0,0,1,.7,0l42.8,19.83c.24.11.31.27.16.35Z"/><path class="cls-4" d="M647.33,194h-.07l-5-2.33s0,0,0,0l.3-.17h.07l5,2.33s0,0,0,0Z"/><path class="cls-4" d="M634.42,187.54h0l-2.13-1s0,0,0,0l.3-.17h0l2.13,1s0,0,0,0Z"/><path class="cls-4" d="M664,195.93a.91.91,0,0,1-.7,0l-6.58-3c-.23-.11-.31-.27-.16-.35l4.17-2.33a.92.92,0,0,1,.7,0l6.58,3c.24.11.31.27.16.35Z"/><path class="cls-4" d="M673.08,200.12a.91.91,0,0,1-.7,0l-6.58-3c-.24-.11-.31-.27-.16-.35l4.17-2.33a.92.92,0,0,1,.7,0l6.58,3c.23.11.3.27.15.35Z"/><path class="cls-4" d="M682.14,204.32a.91.91,0,0,1-.7,0l-6.58-3c-.23-.11-.3-.27-.16-.35l4.17-2.33a.91.91,0,0,1,.7,0l6.58,3c.23.11.3.27.15.35Z"/><path class="cls-4" d="M691.2,208.52a.91.91,0,0,1-.7,0l-6.58-3c-.24-.11-.31-.27-.16-.35l4.17-2.33a.91.91,0,0,1,.7,0l6.58,3c.24.11.3.27.16.35Z"/><path class="cls-4" d="M700.25,212.71a.92.92,0,0,1-.71,0l-6.58-3c-.23-.11-.3-.27-.16-.35l4.17-2.33a.91.91,0,0,1,.7,0l6.58,3c.24.11.31.27.16.35Z"/><path class="cls-4" d="M709.31,216.91a.91.91,0,0,1-.7,0l-6.58-3c-.24-.11-.31-.27-.16-.35l4.17-2.33a.91.91,0,0,1,.7,0l6.58,3c.24.11.31.27.16.35Z"/><path class="cls-4" d="M729.71,226.36a.91.91,0,0,1-.7,0L711.09,218c-.24-.11-.31-.27-.16-.35l4.17-2.33a.91.91,0,0,1,.7,0l17.92,8.3c.24.11.31.27.16.35Z"/><path class="cls-4" d="M674.2,194.78a.89.89,0,0,1-.7,0l-6.58-3c-.24-.11-.31-.27-.16-.35l4.17-2.33a.91.91,0,0,1,.7,0l6.58,3c.24.11.3.27.16.35Z"/><path class="cls-4" d="M683.25,199a.9.9,0,0,1-.7,0l-6.58-3c-.23-.11-.31-.26-.15-.35l4.17-2.33a.91.91,0,0,1,.7,0l6.58,3c.23.11.31.27.16.35Z"/><path class="cls-4" d="M692.31,203.17a.91.91,0,0,1-.7,0l-6.58-3c-.23-.11-.31-.27-.16-.35L689,197.4a.92.92,0,0,1,.7,0l6.58,3c.23.11.31.27.16.35Z"/><path class="cls-4" d="M701.37,207.37a.9.9,0,0,1-.7,0l-6.58-3c-.24-.11-.31-.27-.16-.35l4.17-2.33a.91.91,0,0,1,.7,0l6.58,3c.24.11.31.27.16.35Z"/><path class="cls-4" d="M710.43,211.56a.9.9,0,0,1-.7,0l-6.58-3c-.24-.11-.31-.27-.16-.35l4.17-2.33a.9.9,0,0,1,.7,0l6.58,3c.23.11.31.27.16.35Z"/><path class="cls-4" d="M719.48,215.76a.9.9,0,0,1-.7,0l-6.58-3c-.24-.11-.31-.27-.16-.35l4.17-2.33a.91.91,0,0,1,.7,0l6.58,3c.24.11.3.27.16.35Z"/><path class="cls-4" d="M728.54,220a.9.9,0,0,1-.7,0l-6.58-3c-.23-.11-.31-.26-.15-.35l4.17-2.33a.9.9,0,0,1,.7,0l6.58,3c.23.11.3.27.16.35Z"/><path class="cls-4" d="M677.79,190.58a.91.91,0,0,1-.7,0l-6.58-3c-.23-.11-.3-.27-.15-.35l4.17-2.33a.91.91,0,0,1,.7,0l6.58,3c.24.11.31.27.16.35Z"/><path class="cls-4" d="M686.85,194.78a.91.91,0,0,1-.7,0l-6.58-3c-.24-.11-.31-.27-.16-.35l4.17-2.33a.91.91,0,0,1,.7,0l6.58,3c.23.11.3.27.16.35Z"/><path class="cls-4" d="M695.9,199a.91.91,0,0,1-.71,0l-6.58-3c-.23-.11-.31-.27-.15-.35l4.17-2.33a.91.91,0,0,1,.7,0l6.58,3c.24.11.31.27.16.35Z"/><path class="cls-4" d="M705,203.17a.9.9,0,0,1-.7,0l-6.58-3c-.24-.11-.31-.27-.16-.35l4.17-2.33a.91.91,0,0,1,.7,0l6.58,3c.24.11.3.27.16.35Z"/><path class="cls-4" d="M714,207.36a.9.9,0,0,1-.7,0l-6.58-3c-.24-.11-.31-.27-.15-.35l4.17-2.33a.91.91,0,0,1,.7,0l6.58,3c.23.11.3.27.16.35Z"/><path class="cls-4" d="M723.08,211.56a.91.91,0,0,1-.71,0l-6.58-3c-.23-.11-.31-.27-.15-.35l4.17-2.33a.91.91,0,0,1,.7,0l6.58,3c.24.11.31.27.16.35Z"/><path class="cls-4" d="M732.13,215.75a.9.9,0,0,1-.7,0l-6.58-3c-.24-.11-.31-.27-.15-.35l4.17-2.33a.91.91,0,0,1,.7,0l6.58,3c.23.11.3.27.16.35Z"/><path class="cls-4" d="M659.72,182.22a.91.91,0,0,1-.7,0L647.86,177c-.24-.11-.31-.27-.16-.35l4.17-2.33a.91.91,0,0,1,.7,0l11.15,5.17c.24.11.31.27.16.35Z"/><path class="cls-4" d="M746.93,216.75a.91.91,0,0,1-.7,0l-11.15-5.17c-.23-.11-.31-.27-.16-.35l4.17-2.32a.91.91,0,0,1,.7,0l11.15,5.17c.24.11.31.27.16.35Z"/><path class="cls-4" d="M656.12,186.41a.9.9,0,0,1-.7,0l-13.3-6.16c-.24-.11-.31-.27-.16-.35l4.17-2.33a.91.91,0,0,1,.7,0l13.3,6.16c.24.11.31.27.16.35Z"/><path class="cls-4" d="M646,187.56a.91.91,0,0,1-.7,0l-8.87-4.11c-.24-.11-.31-.27-.16-.35l4.17-2.33a.91.91,0,0,1,.7,0l8.87,4.11c.24.11.31.27.16.35Z"/><path class="cls-4" d="M669.94,181.09a.91.91,0,0,1-.7,0l-6.57-3c-.24-.11-.31-.27-.16-.35l4.17-2.32a.91.91,0,0,1,.7,0l6.57,3c.24.11.31.27.16.35Z"/><path class="cls-4" d="M679,185.26a.91.91,0,0,1-.7,0l-6.58-3c-.24-.11-.31-.27-.16-.35l4.17-2.32a.91.91,0,0,1,.7,0l6.58,3c.24.11.31.27.16.35Z"/><path class="cls-4" d="M688,189.46a.9.9,0,0,1-.7,0l-6.58-3c-.24-.11-.31-.27-.16-.35l4.17-2.32a.9.9,0,0,1,.7,0l6.58,3c.24.11.31.27.15.35Z"/><path class="cls-4" d="M697.07,193.65a.91.91,0,0,1-.7,0l-6.57-3c-.24-.11-.31-.27-.16-.35l4.17-2.32a.91.91,0,0,1,.7,0l6.57,3c.24.11.31.27.16.35Z"/><path class="cls-4" d="M706.12,197.85a.9.9,0,0,1-.7,0l-6.58-3c-.24-.11-.31-.27-.16-.35l4.17-2.32a.91.91,0,0,1,.7,0l6.58,3c.24.11.3.27.15.35Z"/><path class="cls-4" d="M715.18,202a.91.91,0,0,1-.7,0l-6.58-3c-.23-.11-.3-.27-.15-.35l4.17-2.32a.9.9,0,0,1,.7,0l6.58,3c.23.11.31.27.15.35Z"/><path class="cls-4" d="M724.24,206.24a.91.91,0,0,1-.7,0l-6.58-3c-.24-.11-.31-.27-.16-.35l4.17-2.32a.91.91,0,0,1,.7,0l6.58,3c.24.11.31.27.16.35Z"/><path class="cls-4" d="M733.29,210.43a.9.9,0,0,1-.7,0l-6.58-3c-.23-.11-.3-.27-.15-.35l4.17-2.32a.9.9,0,0,1,.7,0l6.58,3c.23.11.3.27.15.35Z"/><path class="cls-4" d="M738.62,214.23a1.08,1.08,0,0,0-.38-.1.58.58,0,0,0-.31,0l-4.17,2.33a.12.12,0,0,0-.07.17.45.45,0,0,0,.22.18l1.72.8-5.47,3a.12.12,0,0,0-.07.17.44.44,0,0,0,.22.18l4.43,2.05a1.11,1.11,0,0,0,.38.1.59.59,0,0,0,.32,0l9.91-5.53a.12.12,0,0,0,.06-.17.44.44,0,0,0-.23-.19Z"/><path class="cls-4" d="M644.72,185.77h-.07l-5-2.33s0,0,0,0l.3-.17H640l5,2.33s0,0,0,0Z"/><path class="cls-38" d="M672.08,221.61,648,210.8c-.28-.13-.28-.35,0-.5l9.78-5.44a1.26,1.26,0,0,1,1,0l24.06,10.82c.28.13.28.35,0,.5l-9.78,5.44A1.26,1.26,0,0,1,672.08,221.61Z"/><path class="cls-39" d="M765.62,223a1.14,1.14,0,0,1-1.27.82,1,1,0,0,1-.55-1.3,1.14,1.14,0,0,1,1.27-.82A1,1,0,0,1,765.62,223Z"/><path class="cls-22" d="M782.94,140.26h0s0-.07,0-.1V140h0v-.07l0-.1v-.1l0-.1,0-.09h0l0-.1,0-.1v0l0-.05,0-.09,0-.07h0l0-.09,0-.09,0,0v0l0,0,0-.09-.05-.09h0l-.06-.09-.06-.08,0-.06,0,0-.1-.13,0,0h0l-.14-.16,0,0,0,0-.05-.05-.09-.09,0,0,0,0,0,0-.09-.08-.07-.06h0l-.1-.08-.1-.08h0l-.1-.07-.11-.07h0l-.08,0-.11-.06,0,0h0l-.06,0-.11-.05-2.58-1.19-3,1.76,2.75,1.15.11.06.11.06.11.07,0,0,.17.11h0l.16.13,0,0,.15.13,0,0,.14.13,0,0,.13.14.06.07.08.09.08.11.05.07,0,.06.08.11,0,0,.1.16h0l.09.17v0l.08.17v0l.07.17v0l.06.17v0l0,.17v0l0,.17v0q0,.09,0,.17v.09s0,.07,0,.1,0,.07,0,.11,0,.07,0,.11,0,.08,0,.11v.09l0,.16L771.7,202c0,.28-1.19,2.13-.92,2l2.87-2.32a3,3,0,0,0,1.09-1.88l8.08-58.39.1-.71v-.16h0v0s0-.07,0-.11,0-.06,0-.08Z"/><path class="cls-22" d="M780.09,136.8,674.6,87.91h0l-.16-.07h0l-.28-.13-.11,0-.11,0-.11,0-.11,0-.11,0-.12,0h0l-.1,0h-.6l-.11,0h-.07l-.2.06h0l-.24.11-3,1.66.24-.11.1,0,.12,0,.15,0h.06l.21,0h.28l.24,0h0l.24.06h0l.26.09.11,0,.08,0,.58.27h0l105.65,49a.43.43,0,0,0,.38,0l2.22-1.24A.32.32,0,0,0,780.09,136.8ZM673.58,88.11Z"/><path class="cls-4" d="M777.7,138.63,671.27,89.3c-1.44-.67-2.76-.13-2.95,1.2L660,150.88a2.29,2.29,0,0,0,0,.24l-.92,6.63a3.84,3.84,0,0,0,2.28,3.62L767.74,210.7c1.44.67,2.76.13,2.95-1.2L779,149.13a2.28,2.28,0,0,0,0-.24l.92-6.63A3.84,3.84,0,0,0,777.7,138.63Z"/><path class="cls-8" d="M774.37,142.13,673.46,96.28c-1.37-.62-2.62-.22-2.79.9l-1.08,7.11a1.48,1.48,0,0,0-.07.26l-7.73,50.68a3.42,3.42,0,0,0,2.17,3.15l100.91,45.84c1.37.62,2.62.22,2.79-.9l1.08-7.11a1.48,1.48,0,0,0,.07-.26l7.73-50.68A3.42,3.42,0,0,0,774.37,142.13Z"/><line class="cls-40" x1="733.15" y1="240.13" x2="728.62" y2="242.7"/><line class="cls-40" x1="727.48" y1="243.42" x2="722.94" y2="245.99"/><polygon class="cls-41" points="678.89 247.17 678.89 247.17 678.96 247.21 678.89 247.17"/><polygon class="cls-41" points="676.91 250.55 676.91 250.54 676.91 250.54 676.91 250.55"/><path class="cls-34" d="M660.26,254.56l31.95,14.93a2.87,2.87,0,0,0,.69.21,3,3,0,0,0,2-.28L711.5,259c.67-.42.54-1.08-.29-1.47l-31.95-14.93a3.18,3.18,0,0,0-2.72.06L676,243l-16,10.1C659.3,253.52,659.43,254.18,660.26,254.56Zm10.43-6.39.29.13-.69.44-.29-.14c-.22-.1-.25-.28-.08-.39l0,0A.84.84,0,0,1,670.69,248.17Z"/><path class="cls-42" d="M700,262.23l0,0a.84.84,0,0,1-.72,0L670,248.61c-.22-.1-.25-.28-.08-.39l0,0a.84.84,0,0,1,.72,0L700,261.84C700.17,261.95,700.21,262.12,700,262.23Z"/><path class="cls-3" d="M704.69,257.39a1.65,1.65,0,0,1-.61.66l-3.31,2.06h0l.66-.41.18-.11h0l.07,0,.49-.3a1.26,1.26,0,0,0,.28-1.91l1.53-.89a.32.32,0,0,0,.12-.45.36.36,0,0,0-.48-.11l-1.59.92a1.37,1.37,0,0,0-1.76-.24l2-1.21a1.77,1.77,0,0,1,2.36.46A1.54,1.54,0,0,1,704.69,257.39Z"/><polygon class="cls-41" points="699.75 256.89 699.75 256.89 699.11 257.29 699.75 256.89"/><path class="cls-39" d="M698.59,259.54h0A1.77,1.77,0,0,0,701,260l.66-.41h0l-.18.11-.66.41-.07,0a1.77,1.77,0,0,1-2.36-.46h0a1.57,1.57,0,0,1-.16-.3,1.59,1.59,0,0,1,.66-1.95l.25-.15A1.58,1.58,0,0,0,698.59,259.54Z"/><path class="cls-4" d="M702,256.8l-1.95,1.13a.32.32,0,0,0-.12.45h0a.36.36,0,0,0,.48.11l2-1.16a1.26,1.26,0,0,1-.28,1.91l-.49.3-.07,0L701,260a1.77,1.77,0,0,1-2.36-.46h0a1.58,1.58,0,0,1,.5-2.24h0l.65-.4.52-.32h0A1.37,1.37,0,0,1,702,256.8Z"/><path class="cls-3" d="M700.45,258.49a.36.36,0,0,1-.48-.11h0a.32.32,0,0,1,.12-.45L702,256.8l1.59-.92a.36.36,0,0,1,.48.11.32.32,0,0,1-.12.45l-1.53.89Z"/><path class="cls-3" d="M697.33,253.88a1.65,1.65,0,0,1-.61.66l-1.91,1.19a1.26,1.26,0,0,0,.28-1.91l1.53-.89a.32.32,0,0,0,.12-.45.36.36,0,0,0-.48-.11l-1.59.92a1.37,1.37,0,0,0-1.76-.24l2-1.21a1.77,1.77,0,0,1,2.36.46h0A1.54,1.54,0,0,1,697.33,253.88Z"/><polygon class="cls-43" points="693.41 256.6 693.59 256.49 693.59 256.49 694.32 256.03 694.7 255.79 693.41 256.6 693.41 256.6"/><polygon class="cls-41" points="692.39 253.38 692.39 253.38 691.75 253.77 692.39 253.38"/><path class="cls-39" d="M691.22,256h0a1.77,1.77,0,0,0,2.36.46l-.18.11-.07,0a1.77,1.77,0,0,1-2.36-.46h0a1.56,1.56,0,0,1-.16-.3,1.59,1.59,0,0,1,.66-1.95l.25-.15A1.58,1.58,0,0,0,691.22,256Z"/><path class="cls-4" d="M694.67,253.29l-1.95,1.13a.32.32,0,0,0-.12.45.36.36,0,0,0,.48.11l2-1.16a1.26,1.26,0,0,1-.28,1.91h0l-.11.07-.38.24-.74.46h0a1.77,1.77,0,0,1-2.36-.46h0a1.58,1.58,0,0,1,.5-2.24h0l0,0,.64-.4.52-.32h0A1.37,1.37,0,0,1,694.67,253.29Z"/><path class="cls-3" d="M693.09,255a.36.36,0,0,1-.48-.11.32.32,0,0,1,.12-.45l1.95-1.13,1.59-.92a.36.36,0,0,1,.48.11.32.32,0,0,1-.12.45l-1.53.89Z"/><polygon class="cls-43" points="684.18 250.39 684.23 250.36 684.18 250.39 684.18 250.39"/><path class="cls-3" d="M690,250.37a1.65,1.65,0,0,1-.61.66l-1.91,1.19a1.26,1.26,0,0,0,.28-1.91l1.53-.89a.32.32,0,0,0,.12-.45.36.36,0,0,0-.48-.11l-1.59.92a1.37,1.37,0,0,0-1.76-.24l2-1.21a1.77,1.77,0,0,1,2.36.46h0A1.54,1.54,0,0,1,690,250.37Z"/><polygon class="cls-43" points="686.04 253.09 686.22 252.98 686.22 252.98 686.96 252.53 687.34 252.29 686.04 253.09 686.04 253.09"/><polygon class="cls-41" points="685.02 249.87 685.02 249.87 684.67 250.09 685.02 249.87"/><path class="cls-39" d="M683.86,252.52h0a1.77,1.77,0,0,0,2.36.46l-.18.11-.07,0a1.77,1.77,0,0,1-2.36-.46h0a1.56,1.56,0,0,1-.16-.3,1.59,1.59,0,0,1,.66-1.95l.07,0,0,0,.13-.08A1.58,1.58,0,0,0,683.86,252.52Z"/><path class="cls-4" d="M687.31,249.78l-1.95,1.13a.32.32,0,0,0-.12.45.36.36,0,0,0,.48.11l2-1.16a1.26,1.26,0,0,1-.28,1.91h0l-.11.07-.38.24-.74.46h0a1.77,1.77,0,0,1-2.36-.46h0a1.58,1.58,0,0,1,.5-2.24h0l.31-.2.35-.22.52-.32h0A1.37,1.37,0,0,1,687.31,249.78Z"/><path class="cls-3" d="M685.72,251.47a.36.36,0,0,1-.48-.11.32.32,0,0,1,.12-.45l1.95-1.13,1.59-.92a.36.36,0,0,1,.48.11.32.32,0,0,1-.12.45l-1.53.89Z"/><path class="cls-3" d="M682.59,246.87a1.65,1.65,0,0,1-.61.66l-1.91,1.19a1.26,1.26,0,0,0,.28-1.91l1.53-.89a.32.32,0,0,0,.12-.45h0a.36.36,0,0,0-.48-.11l-1.59.92a1.37,1.37,0,0,0-1.76-.24l-.2.12,2.15-1.34a1.77,1.77,0,0,1,2.36.46h0A1.54,1.54,0,0,1,682.59,246.87Z"/><polygon class="cls-43" points="678.67 249.59 678.85 249.48 678.85 249.48 678.99 249.39 678.67 249.59 678.67 249.59"/><path class="cls-39" d="M676.48,249h0a1.77,1.77,0,0,0,2.36.46l-.18.11-.07,0a1.77,1.77,0,0,1-2.36-.46h0a1.56,1.56,0,0,1-.16-.3,1.59,1.59,0,0,1,.66-1.95l.25-.15A1.58,1.58,0,0,0,676.48,249Z"/><path class="cls-4" d="M679.93,246.28,678,247.41a.32.32,0,0,0-.12.45.36.36,0,0,0,.48.11l2-1.16a1.26,1.26,0,0,1-.28,1.91h0l-.49.3-.07,0h0l-.52.32-.14.09h0a1.77,1.77,0,0,1-2.36-.46h0a1.58,1.58,0,0,1,.5-2.24h0l.6-.38.06,0,.32-.2.2-.12A1.37,1.37,0,0,1,679.93,246.28Z"/><path class="cls-3" d="M678.35,248a.36.36,0,0,1-.48-.11.32.32,0,0,1,.12-.45l1.95-1.13,1.59-.92a.36.36,0,0,1,.48.11h0a.32.32,0,0,1-.12.45l-1.53.89Z"/><polygon class="cls-43" points="682.56 260.22 682.7 260.14 682.56 260.22 682.56 260.22"/><path class="cls-3" d="M687.73,260.87l-3.31,2.06h0l.18-.11h0l.74-.46.49-.3a1.26,1.26,0,0,0,.28-1.91l1.53-.89a.32.32,0,0,0,.12-.45.36.36,0,0,0-.48-.11l-1.59.92a1.37,1.37,0,0,0-1.76-.24l2-1.21a1.77,1.77,0,0,1,2.36.46h0a1.54,1.54,0,0,1,.1,1.58A1.65,1.65,0,0,1,687.73,260.87Z"/><path class="cls-39" d="M682.49,260.27l.07,0,.14-.09,0,0a1.58,1.58,0,0,0-.5,2.24h0a1.77,1.77,0,0,0,2.36.46l-.18.11-.07,0a1.77,1.77,0,0,1-2.36-.46,1.56,1.56,0,0,1-.16-.3A1.59,1.59,0,0,1,682.49,260.27Z"/><path class="cls-4" d="M685.69,259.62l-1.95,1.13a.32.32,0,0,0-.12.45.36.36,0,0,0,.48.11l2-1.16a1.26,1.26,0,0,1-.28,1.91l-.49.3-.74.46h0a1.77,1.77,0,0,1-2.36-.46h0a1.58,1.58,0,0,1,.5-2.24h0l1.18-.74h0A1.37,1.37,0,0,1,685.69,259.62Z"/><path class="cls-3" d="M684.1,261.31a.36.36,0,0,1-.48-.11.32.32,0,0,1,.12-.45l1.95-1.13,1.59-.92a.36.36,0,0,1,.48.11.32.32,0,0,1-.12.45l-1.53.89Z"/><path class="cls-3" d="M695.1,264.38l-3.31,2.06h0l.44-.27.37-.23,0,0h0l.07,0,.49-.3a1.26,1.26,0,0,0,.28-1.91l1.53-.89a.32.32,0,0,0,.12-.45.36.36,0,0,0-.48-.11l-1.59.92a1.37,1.37,0,0,0-1.76-.24l2-1.21a1.77,1.77,0,0,1,2.36.46,1.54,1.54,0,0,1,.1,1.58A1.65,1.65,0,0,1,695.1,264.38Z"/><path class="cls-39" d="M689.85,263.78l.91-.57h0l-.66.41a1.58,1.58,0,0,0-.5,2.24,1.77,1.77,0,0,0,2.36.46l.26-.16-.44.27-.07,0a1.77,1.77,0,0,1-2.36-.46h0a1.57,1.57,0,0,1-.16-.3A1.59,1.59,0,0,1,689.85,263.78Z"/><polygon class="cls-41" points="692.63 265.92 692.6 265.93 692.63 265.92 692.63 265.92"/><path class="cls-4" d="M693.05,263.13l-1.95,1.13a.32.32,0,0,0-.12.45.36.36,0,0,0,.48.11l2-1.16a1.26,1.26,0,0,1-.28,1.91l-.49.3-.07,0,0,0-.37.23-.26.16a1.77,1.77,0,0,1-2.36-.46,1.58,1.58,0,0,1,.5-2.24l.66-.41.52-.32h0A1.37,1.37,0,0,1,693.05,263.13Z"/><path class="cls-3" d="M691.46,264.82a.36.36,0,0,1-.48-.11.32.32,0,0,1,.12-.45l1.95-1.13,1.59-.92a.36.36,0,0,1,.48.11.32.32,0,0,1-.12.45l-1.53.89Z"/><polygon class="cls-43" points="675.38 256.61 675.38 256.61 675.2 256.72 675.2 256.72 675.45 256.57 675.45 256.57 675.38 256.61"/><path class="cls-3" d="M680.37,257.37l-3.31,2.06h0l.18-.11h0l.24-.15.25-.16.15-.1.1-.06.49-.3a1.26,1.26,0,0,0,.28-1.91l1.53-.89a.32.32,0,0,0,.12-.45.36.36,0,0,0-.48-.11l-1.59.92a1.37,1.37,0,0,0-1.76-.24l2-1.21a1.77,1.77,0,0,1,2.36.46,1.54,1.54,0,0,1,.1,1.58A1.65,1.65,0,0,1,680.37,257.37Z"/><path class="cls-39" d="M675.13,256.77l.07,0,.18-.11a1.58,1.58,0,0,0-.5,2.24,1.77,1.77,0,0,0,2.36.46l-.18.11-.07,0a1.77,1.77,0,0,1-2.36-.46h0a1.56,1.56,0,0,1-.16-.3A1.59,1.59,0,0,1,675.13,256.77Z"/><polygon class="cls-41" points="675.45 256.57 675.45 256.57 676.04 256.2 676.04 256.2 675.45 256.57"/><polygon class="cls-41" points="677.72 259.01 677.47 259.17 677.88 258.92 677.72 259.01"/><path class="cls-4" d="M678.32,256.12l-1.95,1.13a.32.32,0,0,0-.12.45.36.36,0,0,0,.48.11l2-1.16a1.26,1.26,0,0,1-.28,1.91l-.49.3-.1.06-.4.25-.24.15h0a1.77,1.77,0,0,1-2.36-.46,1.58,1.58,0,0,1,.5-2.24h0l.07,0,.59-.37.52-.32h0A1.37,1.37,0,0,1,678.32,256.12Z"/><path class="cls-3" d="M676.74,257.81a.36.36,0,0,1-.48-.11.32.32,0,0,1,.12-.45l1.95-1.13,1.59-.92a.36.36,0,0,1,.48.11.32.32,0,0,1-.12.45l-1.53.89Z"/><path class="cls-3" d="M673,253.86l-2.2,1.37.29-.18a1.26,1.26,0,0,0,.28-1.91l1.53-.89a.32.32,0,0,0,.12-.45.36.36,0,0,0-.48-.11l-1.59.92a1.37,1.37,0,0,0-1.76-.24l2-1.21a1.77,1.77,0,0,1,2.36.46h0a1.54,1.54,0,0,1,.1,1.58A1.65,1.65,0,0,1,673,253.86Z"/><polygon class="cls-43" points="669.69 255.92 669.86 255.81 669.86 255.81 670.21 255.59 669.69 255.92 669.69 255.92"/><path class="cls-39" d="M667.5,255.35h0a1.77,1.77,0,0,0,2.36.46l-.18.11-.07,0a1.77,1.77,0,0,1-2.36-.46,1.56,1.56,0,0,1-.16-.3,1.59,1.59,0,0,1,.66-1.95l.67-.42-.42.26A1.58,1.58,0,0,0,667.5,255.35Z"/><polygon class="cls-44" points="670.52 255.4 670.52 255.4 670.52 255.4 670.52 255.4"/><path class="cls-4" d="M669.18,252.37a1.37,1.37,0,0,1,1.76.24L669,253.74a.32.32,0,0,0-.12.45.36.36,0,0,0,.48.11l2-1.16a1.26,1.26,0,0,1-.28,1.91l-.29.18-.19.12-.07,0h0l-.31.19-.35.22h0a1.77,1.77,0,0,1-2.36-.46h0a1.58,1.58,0,0,1,.5-2.24l.42-.26.76-.47Z"/><path class="cls-3" d="M672.54,251.69a.36.36,0,0,1,.48.11.32.32,0,0,1-.12.45l-1.53.89-2,1.16a.36.36,0,0,1-.48-.11.32.32,0,0,1,.12-.45l1.95-1.13Z"/><path class="cls-35" d="M648.17,188.16l-52.72,45.68,46.19,24.45,52.72-45.68Z"/><polygon class="cls-34" points="683.04 214.55 655.8 200.13 658.16 197.75 685.64 212.29 683.04 214.55"/><polygon class="cls-34" points="649.9 218.21 631.72 208.59 634.32 206.33 652.5 215.96 649.9 218.21"/><polygon class="cls-34" points="643.03 224.16 624.85 214.54 627.45 212.29 645.63 221.91 643.03 224.16"/><polygon class="cls-34" points="635.14 231 616.96 221.38 619.56 219.13 637.74 228.75 635.14 231"/><polygon class="cls-34" points="642.86 254 622.98 243.48 625.2 241.56 645.08 252.08 642.86 254"/><polygon class="cls-34" points="683.16 221.54 652.65 205.39 654.09 204.01 684.7 220.21 683.16 221.54"/><polygon class="cls-34" points="650.54 249.82 605.66 226.07 607.2 224.74 652.07 248.49 650.54 249.82"/><path class="cls-4" d="M646.2,202.8l6.82-2.09-1.41-.65-3.46,1.15c-.63.2-1.17.39-1.92.66l-.06,0,0-.09.16.07.57-2.88.24-.93-.06,0,.09-.44a5.05,5.05,0,0,0,4.66-.89c1.67-1.45.73-2.67-1.42-3.66l-3.28-1.51-8.07,7,1.33.61,3.41-2.95,1.9.88-.78,3.65-.3,1.35-7.23,2.2,1.41.65,3.7-1.18c.65-.22,1.33-.45,2.12-.73l.06,0c-.16.58-.27,1.06-.4,1.53l-.64,2.59,1.47.68Zm.21-6.58-1.76-.81,3-2.6,1.76.81c1.63.75,2.16,1.5,1.11,2.42S648,197,646.41,196.22Z"/><path class="cls-4" d="M666.61,156.42l37.78,17.31a1.4,1.4,0,0,0,1.85-1l7.85-51.44a1,1,0,0,0-.55-1l-37.74-17a1.4,1.4,0,0,0-1.85,1l-7.84,51.2A.85.85,0,0,0,666.61,156.42Z"/><path class="cls-45" d="M689.07,139.32l1.09.5c.8.37,1.58-.16,1.74-1.18l0-.23-3.77-1.73-.08.53A2,2,0,0,0,689.07,139.32Z"/><path class="cls-45" d="M688.47,143.26l1.09.5c.8.37,1.58-.16,1.74-1.18l0-.23-3.77-1.73-.08.53A2,2,0,0,0,688.47,143.26Z"/><path class="cls-45" d="M689.68,135.38l1.09.5c.8.37,1.58-.16,1.74-1.18l0-.23-3.77-1.73-.08.53A2,2,0,0,0,689.68,135.38Z"/><path class="cls-45" d="M690.28,131.44l1.09.5c.8.37,1.58-.16,1.74-1.18l0-.23-3.77-1.73-.08.53A2,2,0,0,0,690.28,131.44Z"/><path class="cls-45" d="M690.88,127.49l1.09.5c.8.37,1.58-.16,1.74-1.18l0-.23L690,124.86l-.08.53A2,2,0,0,0,690.88,127.49Z"/><path class="cls-45" d="M691.39,123.91l1.09.5c.82.38,1.62-.16,1.78-1.21l.31-2-3.77-1.73-.37,2.41A2,2,0,0,0,691.39,123.91Z"/><path class="cls-45" d="M687.65,147.58l1.33.61c1,.45,1.92-.19,2.11-1.43l0-.28-4.58-2.1-.1.64A2.49,2.49,0,0,0,687.65,147.58Z"/><path class="cls-45" d="M686.91,151.77l1.48.68c1.09.5,2.14-.21,2.35-1.59l0-.31-5.1-2.34-.11.72A2.78,2.78,0,0,0,686.91,151.77Z"/><path class="cls-45" d="M686.24,156.16l1.48.68c1.09.5,2.14-.21,2.35-1.59l0-.31L685,152.6l-.11.72A2.78,2.78,0,0,0,686.24,156.16Z"/><path class="cls-45" d="M685.39,160.44l1.79.82c1.32.6,2.59-.26,2.85-1.93l.06-.37-6.17-2.83-.13.87A3.36,3.36,0,0,0,685.39,160.44Z"/><path class="cls-45" d="M688.66,115.68a6.47,6.47,0,0,1-2.23-.48c-3.2-1.68-4.1-3.93-6.64-5.2a1,1,0,0,0-1.47.31,2.65,2.65,0,0,0-.28,2,2.39,2.39,0,0,0,.88,1.23h0a15.47,15.47,0,0,0,5.37,2.41,10.06,10.06,0,0,1,2.68,1.1c.48.32,1,1.25,1.65,1.1.31-.07.54-.47.64-1C689.46,116.31,689.1,115.69,688.66,115.68Z"/><path class="cls-45" d="M697.42,119.69a9,9,0,0,0,2.08,1.49c3.27,1.28,4.69.09,7.26,1.17a2,2,0,0,1,1.19,1.53,2.55,2.55,0,0,1-.34,2,1.14,1.14,0,0,1-1.12.32h0c-1.79-.24-3.58-1.44-5.36-2.5a10.77,10.77,0,0,0-2.64-1.34c-.51-.13-1.26.2-1.75-.46a2.11,2.11,0,0,1-.28-1.38C696.55,119.56,697,119.32,697.42,119.69Z"/><path class="cls-45" d="M682.59,118.9c-3.12,1.47-5.07,3.68-6,7.71a41.81,41.81,0,0,0-1,11.5,24,24,0,0,0,1.08,6.1c.56,1.81,1.89,3.74,3.83,3.07.77-.27,1-1.54,1.4-2.3.93-2,1.68-3.53,3.47-4.53.34-.19.71.51.38.7-2.15,1.2-2.55,3.41-3.83,5.53-.55.91-1.36,2-2.51,1.89-2.7-.21-3.55-4.75-4-7a38.18,38.18,0,0,1-.12-15.58c1-4.24,3.67-6.27,7-7.82.35-.16.73.54.38.7Z"/><path class="cls-45" d="M687.1,125.37c-3-.46-5-2.06-7.34-4.74-.33-.38.42-1.43.71-1,1.8,2.56,3.72,4.56,6.56,5,.42.06.48.82.07.75Z"/><path class="cls-45" d="M686.56,128.85a16.29,16.29,0,0,1-9.34-5.49c-.34-.37.51-1.63.79-1.21,1.64,2.51,5.26,5.41,8.48,5.94.42.07.48.82.07.75Z"/><path class="cls-45" d="M685.82,131.72a15.91,15.91,0,0,1-10.22-4.2c-.36-.33-.07-1.54.29-1.21,3,2.7,6.54,4.59,9.86,4.66.41,0,.47.76.07.75Z"/><path class="cls-45" d="M686.2,135.29c-3.64,0-8.09-1-11.16-4.65-.32-.38,0-1.82.35-1.44a15,15,0,0,0,10.74,5.33c.41,0,.47.76.07.75Z"/><path class="cls-45" d="M686.06,138.43a15.53,15.53,0,0,1-11.15-2.55c-.39-.26-.11-1.92.28-1.66,3.36,2.18,7.38,4.13,10.64,3.46.39-.08.61.67.23.75Z"/><path class="cls-45" d="M685.64,141.18a13,13,0,0,1-10.16-1.56c-.39-.25-.43-1.83,0-1.58,3.21,2.06,6.91,3.05,10,2.38.38-.08.61.67.23.75Z"/><path class="cls-45" d="M683.06,144a8.5,8.5,0,0,1-3.32.84,8.81,8.81,0,0,1-3.77-1.35c-.4-.22-.53-1.58-.12-1.36,1.08.59,2.33,1.58,3.45,1.67a7.72,7.72,0,0,0,3.39-.5c.36-.14.74.56.38.7Z"/><path class="cls-45" d="M701.73,127.67a19.46,19.46,0,0,1,3,11.85,37.49,37.49,0,0,1-2.41,10.86,13.71,13.71,0,0,1-2.69,4.37c-1,1.1-2.71,1.62-4.2-.61-.59-.89-.47-2.23-.56-3.2a16.55,16.55,0,0,0-1.72-6.91c-.24-.45-.77-.17-.53.29,1.52,2.89,1.24,5.14,1.74,8.08A6.59,6.59,0,0,0,696,156.2c2.4,2.13,4.44-1.09,5.47-2.62a29,29,0,0,0,4.57-13.43c.37-4.52-1.39-8.58-3.81-12.76-.26-.44-.78-.16-.53.29Z"/><path class="cls-45" d="M696,129.43a9.34,9.34,0,0,0,7.73,2.16c.4,0,0-1.6-.33-1.49a7.09,7.09,0,0,1-7.13-1.27c-.38-.3-.65.3-.27.6Z"/><path class="cls-45" d="M695.42,132.91a13.72,13.72,0,0,0,9.68,3.23c.4,0,0-1.86-.34-1.73-2.15.77-6.12.2-9.07-2.1-.38-.3-.65.3-.27.6Z"/><path class="cls-45" d="M695.25,136c3,2.87,6.6,4.87,10.08,5.1.41,0,.51-1.28.09-1.3a15.88,15.88,0,0,1-9.9-4.4c-.36-.34-.63.26-.27.6Z"/><path class="cls-45" d="M693.9,138.82c3.17,3.09,7.32,6.05,11,5.52.39-.06.5-1.61.1-1.55-3.54.51-7.83-1.62-10.86-4.56-.35-.34-.62.26-.27.6Z"/><path class="cls-45" d="M693.12,141.66A21.22,21.22,0,0,0,703.54,149c.42.12.65-1.57.23-1.68-3.54-1-7.59-2.73-10.24-6.11-.31-.4-.73.06-.41.46Z"/><path class="cls-45" d="M692.7,144.41c2.61,3.38,5.72,6.34,9.27,7.34.42.12.89-1.23.48-1.34a18.62,18.62,0,0,1-9.34-6.46c-.31-.4-.72.06-.41.46Z"/><path class="cls-45" d="M694.15,149a18.46,18.46,0,0,0,2.65,3.57,10.14,10.14,0,0,0,3.66,2.05c.41.15.91-.92.49-1.08a10.16,10.16,0,0,1-3.47-1.5,15.78,15.78,0,0,1-2.8-3.34c-.27-.43-.8-.14-.53.29Z"/><path class="cls-45" d="M675.76,117.93a1.46,1.46,0,0,1-.37-.84,4.77,4.77,0,0,1,.15-1.78c.29-1,.73-1.16,1-1.09h0l2.39.53c.27.06,1.56.15.82,2.44-.39,1.21-1.74,1.25-2.12,1.33A1.87,1.87,0,0,1,675.76,117.93Z"/><path class="cls-45" d="M708.43,132.9a.67.67,0,0,0,.56-.41,4.19,4.19,0,0,0,.38-1.67c0-1.16-.3-1.63-.59-1.84h0l-2.22-1.59c-.25-.18-1.4-1.21-1.41,1.42a5.1,5.1,0,0,0,1.46,3A2.24,2.24,0,0,0,708.43,132.9Z"/><path class="cls-45" d="M689.44,125.24l4.68,2.14c.13.06.25,0,.27-.19h0a.39.39,0,0,0-.18-.39l-4.68-2.14c-.13-.06-.25,0-.27.18h0A.39.39,0,0,0,689.44,125.24Z"/><path class="cls-45" d="M692.45,117.23l1.09.5c.8.37,1.58-.16,1.74-1.18l0-.23-3.77-1.73-.08.53A2,2,0,0,0,692.45,117.23Z"/><path class="cls-45" d="M691,115l4.68,2.14c.13.06.25,0,.27-.18h0a.39.39,0,0,0-.18-.39l-4.68-2.14c-.13-.06-.25,0-.27.18h0A.39.39,0,0,0,691,115Z"/><path class="cls-45" d="M688.84,129.18l4.68,2.14c.13.06.25,0,.27-.18h0a.39.39,0,0,0-.18-.39l-4.68-2.14c-.13-.06-.25,0-.27.18h0A.39.39,0,0,0,688.84,129.18Z"/><path class="cls-45" d="M688.23,133.12l4.68,2.14c.13.06.25,0,.27-.19h0a.39.39,0,0,0-.18-.39l-4.68-2.14c-.13-.06-.25,0-.27.19h0A.39.39,0,0,0,688.23,133.12Z"/><path class="cls-45" d="M687.63,137.06l4.68,2.14c.13.06.25,0,.27-.18h0a.39.39,0,0,0-.18-.39l-4.68-2.14c-.13-.06-.25,0-.27.18h0A.39.39,0,0,0,687.63,137.06Z"/><path class="cls-45" d="M687,141l4.68,2.14c.13.06.25,0,.27-.19h0a.39.39,0,0,0-.18-.39l-4.68-2.14c-.13-.06-.25,0-.27.19h0A.39.39,0,0,0,687,141Z"/><path class="cls-45" d="M686.42,144.94l4.68,2.14c.13.06.25,0,.27-.18h0a.39.39,0,0,0-.18-.39l-4.68-2.14c-.13-.06-.25,0-.27.18h0A.39.39,0,0,0,686.42,144.94Z"/><path class="cls-45" d="M685.43,148.7l5.45,2.5c.13.06.25,0,.27-.19h0a.39.39,0,0,0-.18-.39l-5.45-2.5c-.13-.06-.25,0-.27.19h0A.39.39,0,0,0,685.43,148.7Z"/><path class="cls-45" d="M684.19,152.35l6.58,3c.13.06.25,0,.27-.19h0a.39.39,0,0,0-.18-.39l-6.58-3c-.13-.06-.25,0-.27.19h0A.39.39,0,0,0,684.19,152.35Z"/><path class="cls-45" d="M683.09,156.07l7.85,3.6c.13.06.25,0,.27-.18h0a.39.39,0,0,0-.18-.39l-7.85-3.6c-.13-.06-.25,0-.27.19h0A.39.39,0,0,0,683.09,156.07Z"/><path class="cls-45" d="M689.82,119a2.23,2.23,0,0,0,1.2,2.24,1.14,1.14,0,0,0,1.68-.92,2.23,2.23,0,0,0-1.2-2.24A1.14,1.14,0,0,0,689.82,119Z"/><path class="cls-45" d="M692.51,120.22a2.23,2.23,0,0,0,1.2,2.24,1.14,1.14,0,0,0,1.68-.92,2.23,2.23,0,0,0-1.2-2.24A1.14,1.14,0,0,0,692.51,120.22Z"/><path class="cls-3" d="M697.1,196.63c0-3.47.06-14.2.06-14.43a5.48,5.48,0,0,0-2.11-4.16c-.46-.4-1.85-.59-2-2.42,0,0-8.18-2.06-8-.39.12,1.41-2.42,2.06-3.15,2.81a5.48,5.48,0,0,0-2.11,4.16v15.74h0a4.72,4.72,0,0,0,0,.55c0,3.52,3.89,6.37,8.69,6.37l.62,0c4.51-.23,8.07-3,8.07-6.35,0-.1,0-.2,0-.31Z"/><path class="cls-2" d="M686,179q.45.08.92.13a12.06,12.06,0,0,0,2.69-.87,12.09,12.09,0,0,1-1.32.07c-3.44,0-6.23-1.42-6.23-3.17v-1a2.22,2.22,0,0,0-.66,1.5,1.85,1.85,0,0,0,0,.39C681.75,177.42,683.57,178.55,686,179Z"/><path class="cls-7" d="M694.54,175.15c0,1.52-2.1,2.79-4.91,3.1a12.06,12.06,0,0,1-2.69.87h0l1.37.07a13,13,0,0,0,2.3-.2c2.45-.44,4.26-1.57,4.55-2.94a1.79,1.79,0,0,0,0-.57v-.06s0-.08,0-.12l0-.07,0-.11,0-.08,0-.1,0-.08,0-.1,0-.08-.06-.1-.05-.08-.07-.09-.06-.07-.08-.09-.06-.07h0Z"/><path class="cls-7" d="M695.69,186.66c0,1.69-2.24,3.12-5.29,3.55h-3.85c-3-.43-5.28-1.86-5.28-3.55v9.21h0c0,.19,0,.37,0,.56,0,3.61,3.23,6.54,7.21,6.54s7.21-2.93,7.21-6.54a6,6,0,0,0-.05-.81S695.69,186.93,695.69,186.66Z"/><ellipse class="cls-46" cx="688.49" cy="186.96" rx="7.21" ry="3.95"/><path class="cls-7" d="M694,172.78s.38-.53.1-.27c.15-.27-.24.22-.1-.07-1,1.09-3.15,1.84-5.66,1.84-3.44,0-6.23-1.42-6.23-3.17v4c0,1.75,2.79,3.17,6.23,3.17.36-.14.85,0,1.19-.24l1.72-.59,2.42-1,.67-1v-2.44Z"/><path class="cls-2" d="M694.52,171.29a6,6,0,0,1-.36.89,2.68,2.68,0,0,1-.2.25c-1.35,3.4-5.18,5.69-5.66,5.89a12.1,12.1,0,0,0,1.32-.07c2.81-.31,4.91-1.58,4.91-3.1v-1h0v-3.06A1.62,1.62,0,0,1,694.52,171.29Z"/><ellipse class="cls-2" cx="688.32" cy="171.41" rx="6.22" ry="3.03"/><ellipse class="cls-7" cx="688.31" cy="171.41" rx="3.87" ry="1.89"/><path class="cls-2" d="M760.91,173.3l-42.79-19.83a3.69,3.69,0,0,1-1.86-3.68l3.36-23.48a1.81,1.81,0,0,1,2.62-1.61L765,144.53a3.69,3.69,0,0,1,1.86,3.68l-3.36,23.48A1.81,1.81,0,0,1,760.91,173.3Z"/><path class="cls-2" d="M754.93,196.13c2.13,1,5.17-.5,5.49-2.68l1.49-10.37A3.69,3.69,0,0,0,760,179.4l-42.79-19.83a1.81,1.81,0,0,0-2.62,1.61l-1.87,13a3,3,0,0,0,1.86,3.23Z"/><path class="cls-3" d="M738.15,147.62c-.63,4.78-4.94,6.78-9.62,4.47s-8-8.07-7.34-12.85,4.94-6.78,9.62-4.47S738.78,142.84,738.15,147.62Z"/><path class="cls-4" d="M732,149.48c.74.37,1.78-.24,1.66-1a5,5,0,0,0-.52-1.68h0a3.51,3.51,0,0,0-.63-.65c-.22-.19-.49-.45-.76-.71l-.27-.26h0l-.54-.54-.24-.29-.06-.07a1,1,0,0,1,0-.11l.06-.7a1,1,0,0,0,.54-.7c.38.2.53-.25.61-.56s.16-.79-.13-1l0-.1a2.51,2.51,0,0,0,.16-.6,1.56,1.56,0,0,0-.07-.7.52.52,0,0,0-.08-.16.65.65,0,0,0,0-.25,3,3,0,0,0-1-1.63,2.7,2.7,0,0,0-1.44-.57c-.35,0-.83,0-.91.54a.45.45,0,0,0,0,.2.14.14,0,0,0-.16.06,1,1,0,0,0-.2.56,3.52,3.52,0,0,0,0,.69v.12c-.37-.19-.38.49-.37.77s.06.87.41,1.06a2.42,2.42,0,0,0,.06.47,2.2,2.2,0,0,0,.26.62h0l-.06.72a.78.78,0,0,1,0,.08s-.07,0-.08,0l-.18.07h0l-.16,0h0l-.32,0h-.42c-.25,0-.49,0-.73,0a2,2,0,0,0-1.73,1.66,1.19,1.19,0,0,0,.65,1.35Zm-.22-7.25,0,.08Z"/><polygon class="cls-3" points="754.3 149.09 742.4 143.21 741.93 146.78 753.83 152.66 754.3 149.09"/><polygon class="cls-3" points="741.58 149.43 741.11 153 759.16 161.92 759.63 158.35 741.58 149.43"/><polygon class="cls-3" points="731.04 174.13 730.57 177.69 748.62 186.62 749.09 183.05 731.04 174.13"/><path class="cls-4" d="M726.13,168.28a3.24,3.24,0,0,0-2.54.74c-.18.14-.5,0-.62-.29a6.54,6.54,0,0,0-2.07-2.87c-1.93-1.29-3.58-.17-3.28,2.09.28,2.72,4.56,8.71,4.56,8.71l.12.05s5.28-1.57,6.2-3.72A3.37,3.37,0,0,0,726.13,168.28Z"/><path class="cls-3" d="M723.2,174.13h0a.66.66,0,0,1-.34-.45l-.52-2.75-.58.93a.32.32,0,0,1-.42.09l-1.48-.69a.26.26,0,0,1-.16-.28h0a.47.47,0,0,1,.63-.31l.88.41.91-1.45a.32.32,0,0,1,.42-.09h0a.66.66,0,0,1,.35.46l.53,2.82.46-.65a.32.32,0,0,1,.41-.08l1.6.74a.26.26,0,0,1,.16.28h0a.47.47,0,0,1-.63.31l-1-.47-.78,1.11A.32.32,0,0,1,723.2,174.13Zm-2.11-2.88h0Zm3.42,1.53h0Z"/><path class="cls-35" d="M693.66,186.21,728,202.7a1.28,1.28,0,0,1,.44.37l.09-.06,13.87-8.43a.6.6,0,0,1,.78,0,.51.51,0,0,0-.33-.4l-34.37-16.48a2.33,2.33,0,0,0-2,.2l-13.2,8a.86.86,0,0,0-.47.6A.51.51,0,0,1,693.66,186.21Z"/><path class="cls-47" d="M729.77,203.3v21.37l12.9-7.84a2.65,2.65,0,0,0,1-2.1l0-4.36-.15-14.93h0s-6.4,5.54-13.72,7.84A.22.22,0,0,1,729.77,203.3Z"/><path class="cls-4" d="M742.44,194.58,728.57,203l-.09.06a1.81,1.81,0,0,1,.2.33,1.2,1.2,0,0,1,.3-.06c.41,0,.74-.29.77-.08,7.32-2.3,13.69-7.81,13.72-7.84h0a1.15,1.15,0,0,0-.27-.82A.6.6,0,0,0,742.44,194.58Z"/><path class="cls-4" d="M729.77,224.67V203.3a.22.22,0,0,0,0,0c0-.21-.37.06-.77.08a1.2,1.2,0,0,0-.3.06,1.68,1.68,0,0,1,.17.71v20.67a.82.82,0,0,1-.16.53c.33-.16,1.06-.65,1.06-.65Z"/><path class="cls-48" d="M693.66,208.93,728,225.42a.52.52,0,0,0,.6,0l.06-.06a.82.82,0,0,0,.16-.53V204.12a1.68,1.68,0,0,0-.17-.71,1.81,1.81,0,0,0-.2-.33,1.28,1.28,0,0,0-.44-.37l-34.39-16.49a.51.51,0,0,0-.77.34,1,1,0,0,0,0,.29v20.67A1.68,1.68,0,0,0,693.66,208.93Zm2.17-3.89a.29.29,0,0,1-.17-.26.35.35,0,0,1,.5-.3l12.93,6.2a.29.29,0,0,1,.17.26.35.35,0,0,1-.5.3Zm2.06-11,22.94,11a1.28,1.28,0,0,1,.74,1.16v1.12a1.58,1.58,0,0,1-2.23,1.36l-22.94-11a1.28,1.28,0,0,1-.74-1.16v-1.12A1.58,1.58,0,0,1,697.9,194Zm-2.23-3.12a.35.35,0,0,1,.5-.3l5,2.41a.29.29,0,0,1,.17.26.35.35,0,0,1-.5.3l-5-2.41A.29.29,0,0,1,695.67,190.91Zm1,10.1,15.2,7.29a.58.58,0,0,1,.34.53.72.72,0,0,1-1,.62L696,202.16a.58.58,0,0,1-.34-.53A.72.72,0,0,1,696.68,201Z"/><path class="cls-4" d="M695.67,196.5a1.28,1.28,0,0,0,.74,1.16l22.94,11a1.58,1.58,0,0,0,2.23-1.36v-1.12a1.28,1.28,0,0,0-.74-1.16L697.9,194a1.58,1.58,0,0,0-2.23,1.36Z"/><path class="cls-35" d="M696,202.16l15.2,7.29a.72.72,0,0,0,1-.62.58.58,0,0,0-.34-.53L696.68,201a.72.72,0,0,0-1,.62A.58.58,0,0,0,696,202.16Z"/><path class="cls-35" d="M709.26,210.94a.29.29,0,0,0-.17-.26l-12.93-6.2a.35.35,0,0,0-.5.3.29.29,0,0,0,.17.26l12.93,6.2A.35.35,0,0,0,709.26,210.94Z"/><path class="cls-35" d="M700.87,193.59a.35.35,0,0,0,.5-.3.29.29,0,0,0-.17-.26l-5-2.41a.35.35,0,0,0-.5.3.29.29,0,0,0,.17.26Z"/><path class="cls-38" d="M592,232.16a2.5,2.5,0,0,1,3.49-.56,2.37,2.37,0,0,1,2.56,0l38.33,23.75.34.22h0a4.3,4.3,0,0,1,.81.71,25.56,25.56,0,0,1,3,3.47l.44.8.48.9a.24.24,0,0,1-.23.36l-1-.06-1-.08h-.14a14.4,14.4,0,0,1-4.54-1.15h0a5.71,5.71,0,0,1-1.22-.56l-35.94-20.54a4.19,4.19,0,0,0-.06,2.64,4.4,4.4,0,0,0,2,2.46l15.79,9.26a.84.84,0,0,1-.85,1.44l-15.91-9.33a5.85,5.85,0,0,1-2.76-3.75,6,6,0,0,1,.31-3.57l-1.84-1.05a2.32,2.32,0,0,1-1-2.15A2.56,2.56,0,0,1,592,232.16Z"/><path class="cls-4" d="M613.66,254.08h0a.84.84,0,0,0-.3-1.15l-15.79-9.26a4.4,4.4,0,0,1-2-2.46,4.19,4.19,0,0,1,.39-3.37l3-5.09-1.44-.85-2.89,4.93a6.12,6.12,0,0,0-.75,4.46,5.85,5.85,0,0,0,2.76,3.75l15.91,9.33A.84.84,0,0,0,613.66,254.08Z"/><path class="cls-4" d="M593.66,230.76l0,0h0l4.76,2.77a2.61,2.61,0,0,1,1.31,3.36,2.5,2.5,0,0,1-3.5.56l-4.76-2.77h0l0,0a2.62,2.62,0,0,1-1.31-3.36A2.5,2.5,0,0,1,593.66,230.76Z"/><path class="cls-4" d="M592.32,236.69l39.23,22.42c1.69,1,3.33,1.09,4.32-.61h0c1-1.68.34-3-1.33-4l-38.33-23.75C593.27,228.84,589.38,234.77,592.32,236.69Z"/><path class="cls-22" d="M593.55,230.9c-.72,1.4-.77,3.06.54,3.92l39.23,22.42a3.32,3.32,0,0,0,3.29.45,3.88,3.88,0,0,1-.28.58c-1,1.7-2.63,1.62-4.32.61l-39.23-22.42C590.88,235.21,591.84,232.28,593.55,230.9Z"/><path class="cls-4" d="M634.88,254.73a21.39,21.39,0,0,1,3.83,4.19c.4.55-.59,2-1.26,1.92a14.82,14.82,0,0,1-4.68-1.17C630.65,258.6,634.88,254.73,634.88,254.73Z"/><path class="cls-49" d="M638.71,258.92l.44.8.48.9a.24.24,0,0,1-.23.36l-1-.06-1.1-.09A4,4,0,0,1,638.71,258.92Z"/><path class="cls-8" d="M576.7,275.72a4.06,4.06,0,0,0-1-.68l-71.66-37.37c-2.58-1.34-7.11-1-10.12.69l-73.39,41.93H575.44a4,4,0,0,0,2-2.73l0-1.77Z"/><path class="cls-33" d="M417.47,280.29,494,236.58c3-1.72,7.54-2,10.12-.69l71.66,37.37c2.58,1.34,2.22,3.83-.79,5.55l-2.57,1.47Z"/><polygon class="cls-3" points="425.83 280.52 500.61 238.86 569.5 274.79 559.63 280.29 425.83 280.52"/><path class="cls-8" d="M552.47,261.19,550.12,260h0c2.78-1.55,2.78-4,0-5.42l-12.76-6.65a11.82,11.82,0,0,0-10.06.18l-1.58-.83a12.3,12.3,0,0,0-10.47.19h0c-2.89,1.61-2.89,4.14,0,5.65L542,267a12.3,12.3,0,0,0,10.47-.19h0C555.36,265.23,555.36,262.7,552.47,261.19Z"/><path class="cls-50" d="M552.47,259.06l-2.36-1.23h0c2.78-1.55,2.78-4,0-5.42l-12.76-6.65a11.82,11.82,0,0,0-10.06.18l-1.58-.83a12.3,12.3,0,0,0-10.47.19h0c-2.89,1.61-2.89,4.14,0,5.65l26.75,14a12.3,12.3,0,0,0,10.47-.19h0C555.36,263.1,555.36,260.57,552.47,259.06Z"/><path class="cls-3" d="M545.16,258.69,525.63,248.2a1,1,0,0,1,0-1.72h0a1.15,1.15,0,0,1,1.14,0l19.53,10.49a1,1,0,0,1,0,1.72h0A1.15,1.15,0,0,1,545.16,258.69Z"/><path class="cls-33" d="M529.83,276.91a1,1,0,0,1-.45-.11l-18.83-10a1,1,0,0,1,.91-1.71l18.83,10a1,1,0,0,1-.45,1.83Z"/><path class="cls-33" d="M522.47,280.35l-18.82-9.82a1,1,0,1,1,.9-1.72l22.11,11.53Z"/><polygon class="cls-4" points="493.5 264.82 481.2 258.37 493.46 251.53 505.76 257.98 493.5 264.82"/><polyline class="cls-51" points="490.79 255.84 489.91 259.36 498.61 258.45"/><polygon class="cls-4" points="466.14 279.83 453.85 273.38 466.1 266.53 478.4 272.99 466.14 279.83"/><polyline class="cls-51" points="463.44 270.84 462.55 274.36 471.25 273.46"/><path class="cls-52" d="M516.18,167.09c-.08,6-4.41,8.41-9.67,5.4s-9.44-10.33-9.36-16.33,4.41-8.41,9.67-5.4S516.26,161.09,516.18,167.09Z"/><polyline class="cls-52" points="505.18 176.43 504.99 189.63 498.49 193.25"/><path class="cls-52" d="M508.57,158.76l1.08-.92a1.13,1.13,0,0,1,1.55.37h0a1.19,1.19,0,0,1,0,1.62l-1,.85"/><path class="cls-52" d="M507.25,159.91l-4,3.31a.9.9,0,0,0-.26.88l-.05,0-.66.54a.58.58,0,0,0,0,.79.55.55,0,0,0,.76.18l.66-.54,0,0a.87.87,0,0,0,1,0l4-3.31"/><path class="cls-52" d="M510.52,162.41h0a.86.86,0,0,1-1.2-.1l-2.86-3.4a.84.84,0,0,1,.12-1.19h0a.86.86,0,0,1,1.2.1l2.86,3.4A.84.84,0,0,1,510.52,162.41Z"/><path class="cls-53" d="M433.55,217.25l40.91-20.42c1.7-.84,5.26-.54,7.9.69l9.63,5.85c2.64,1.22,3.29,1.46,1.58,2.3l-2.45,1.22-41.5,21.6c-1.7.84-2.21-1.86-4.85-3.08l-3.94-1.83-5.88-3.28C432.29,219.08,431.85,218.1,433.55,217.25Z"/><polyline class="cls-54" points="494.2 185.21 494.2 204.64 479.97 196.5 479.97 177.86"/><path class="cls-54" d="M494.2,196.89l-41.82,21c-1.7.84-5.26.54-7.9-.69L433,210.12"/><path class="cls-54" d="M484.2,176.15l-.68-.42a11.25,11.25,0,0,0-10-.57l-38.83,20.15c-2.73,1.42-2.67,4,.13,5.69l8.78,5.43a11.25,11.25,0,0,0,10,.57l38.83-20.15c2.73-1.42,2.67-4-.13-5.69l-8.1-5"/><line class="cls-54" x1="476.37" y1="186.13" x2="465.43" y2="191.91"/><line class="cls-54" x1="460.56" y1="195.1" x2="449.61" y2="200.88"/><path class="cls-55" d="M480.15,198.52h.21a4,4,0,0,0,4-4V172.92a4.09,4.09,0,0,0-4-4.06h-.21a4,4,0,0,0-4,4v21.64A4.09,4.09,0,0,0,480.15,198.52Z"/><path class="cls-4" d="M480.19,196.35h.13a2.45,2.45,0,0,0,2.48-2.44V180.58a2.52,2.52,0,0,0-2.48-2.5h-.13a2.45,2.45,0,0,0-2.48,2.44v13.33A2.52,2.52,0,0,0,480.19,196.35Z"/><path class="cls-55" d="M463.18,205.23h.21a4,4,0,0,0,4-4V179.63a4.09,4.09,0,0,0-4-4.06h-.21a4,4,0,0,0-4,4v21.64A4.09,4.09,0,0,0,463.18,205.23Z"/><path class="cls-55" d="M440.54,186.12c0,1.61,3,3,6.68,3s6.68-1.22,6.68-2.83-3-3-6.68-3S440.54,184.51,440.54,186.12Z"/><path class="cls-55" d="M456.25,177.59c0,1.61,3,3,6.68,3s6.68-1.22,6.68-2.83-3-3-6.68-3S456.25,176,456.25,177.59Z"/><path class="cls-55" d="M473.57,171.19c0,1.61,3,3,6.68,3s6.68-1.22,6.68-2.83-3-3-6.68-3S473.57,169.58,473.57,171.19Z"/><path class="cls-55" d="M447.11,213.45h.21a4,4,0,0,0,4-4V187.85a4.09,4.09,0,0,0-4-4.06h-.21a4,4,0,0,0-4,4v21.64A4.09,4.09,0,0,0,447.11,213.45Z"/><path class="cls-56" d="M463.22,202.39h.13a2.45,2.45,0,0,0,2.48-2.44V186.62a2.52,2.52,0,0,0-2.48-2.5h-.13a2.45,2.45,0,0,0-2.48,2.44v13.33A2.52,2.52,0,0,0,463.22,202.39Z"/><path class="cls-6" d="M447.15,211.33h.13a2.45,2.45,0,0,0,2.48-2.44V195.56a2.52,2.52,0,0,0-2.48-2.5h-.13a2.45,2.45,0,0,0-2.48,2.44v13.33A2.52,2.52,0,0,0,447.15,211.33Z"/><path class="cls-57" d="M484.08,171.32s-.33-1.55-3.82-1.6-4.33,1.17-4.33,1.17"/><path class="cls-57" d="M467,178.16s-.33-1.55-3.82-1.6-4.33,1.17-4.33,1.17"/><path class="cls-57" d="M451.29,186.13s-.33-1.55-3.82-1.6-4.33,1.17-4.33,1.17"/><path class="cls-57" d="M484.08,173.71s-2.76,1.68-8,.14"/><path class="cls-57" d="M467.26,180s-2.76,1.68-8,.14"/><path class="cls-57" d="M451.2,188.74s-2.76,1.68-8,.14"/><polyline class="cls-54" points="449.61 208.03 449.61 229.03 433.15 219.08 432.68 198.53"/><path class="cls-54" d="M434.74,201l8.78,5.43a11.25,11.25,0,0,0,10,.57l38.83-20.15c2.73-1.42,2.67-4-.13-5.69"/><path class="cls-53" d="M544.22,225.08,528.5,210.3c-3.29-1.81-2.91-5,.84-7.07l22.25-12.42c3.75-2.09,9.46-2.32,12.74-.51l24.58,13.56c3.29,1.81,2.91,5-.84,7.07l-22.25,12.42C562.07,225.44,547.51,226.89,544.22,225.08Z"/><path class="cls-22" d="M569.09,194.93s27.78-35.47-.34-66.83l-8.39-1.81L552,143.54s16.49,6.25,4.39,30.65-11.77,20.88-11.77,20.88Z"/><path class="cls-58" d="M562,140.62s11,9.35,8.65,21.18c-3,15.17-3.34,16-3.34,16"/><path class="cls-8" d="M540.66,224l-24.58-13.56c-1.62-.9-2.35-2.12-2.22-3.39s0-6.53,0-6.53l25.31-9.58c3.75-2.09,9.46-2.32,12.74-.51l26.81,10s.14,5.71,0,7-1.18,2.6-3.06,3.64l-22.25,12.42C549.65,225.57,543.95,225.8,540.66,224Z"/><path class="cls-22" d="M540.66,217.52,516.08,204c-3.29-1.81-2.91-5,.84-7.07l22.25-12.42c3.75-2.09,9.46-2.32,12.74-.51l24.58,13.56c3.29,1.81,2.91,5-.84,7.07L553.41,217C549.65,219.11,543.95,219.34,540.66,217.52Z"/><path class="cls-4" d="M559.51,201.49c0,3.55-5.92,6.48-13.22,6.55s-13.22-2.75-13.22-6.29,5.92-6.48,13.22-6.55S559.51,197.94,559.51,201.49Z"/><path class="cls-8" d="M540.66,200.4l-24.58-13.56c-1.62-.9-2.35-2.12-2.22-3.39s0-5.73,0-5.73l25.3-10.38c3.75-2.09,9.46-2.32,12.74-.51l26.81,10.83s.12,4.83,0,6.09-1.16,2.64-3.07,3.7l-22.25,12.42C549.65,202,543.95,202.21,540.66,200.4Z"/><path class="cls-8" d="M546.29,165.61a11.79,11.79,0,0,1,5.63,1.22l26.81,10.83s.12,4.83,0,6.09-1.16,2.64-3.07,3.7l-22.25,12.42a15.17,15.17,0,0,1-7.11,1.73Z"/><path class="cls-4" d="M540.66,194.77l-24.58-13.56c-3.29-1.81-2.91-5,.84-7.07l22.25-12.42c3.75-2.09,9.46-2.32,12.74-.51l24.58,13.56c3.29,1.81,2.91,5-.84,7.07l-22.25,12.42C549.65,196.35,543.95,196.58,540.66,194.77Z"/><path class="cls-59" d="M554.14,177.51c0,2.19-3.51,4-7.85,4s-7.85-1.7-7.85-3.89,3.51-4,7.85-4S554.14,175.32,554.14,177.51Z"/><path class="cls-4" d="M546.29,177.07c3.11,0,5.8.86,7.07,2.17a2.53,2.53,0,0,0,.78-1.73c0-2.19-3.51-3.93-7.85-3.89s-7.85,1.85-7.85,4a2.48,2.48,0,0,0,.78,1.72C540.49,178,543.18,177.1,546.29,177.07Z"/><path class="cls-60" d="M554.32,177.68c0-2.19-3.51-3.93-7.85-3.89s-7.85,1.85-7.85,4"/><path class="cls-8" d="M586,149.9c0,4.13-3,8-6.79,8.66s-6.79-2.17-6.79-6.3,3-8,6.79-8.66S586,145.76,586,149.9Z"/><path class="cls-8" d="M582.66,151.28a2.71,2.71,0,0,1-2.07,2.64,1.79,1.79,0,0,1-2.07-1.93,2.71,2.71,0,0,1,2.07-2.64A1.79,1.79,0,0,1,582.66,151.28Z"/><path class="cls-61" d="M576.12,155a5,5,0,0,1-.91-3,6.35,6.35,0,0,1,4.86-6.2,4,4,0,0,1,4.44,2.4"/><path class="cls-3" d="M552,161.79c0,.19-.69,2-.76,2.17-.48,1.12-2.57,1.53-5.06.91-2.85-.71-5.17-2.5-5.17-4a14.12,14.12,0,0,1,.78-2.46c.65-1,2.06.44,4.39,1C549,160.15,552,160.29,552,161.79Z"/><path class="cls-22" d="M555.78,157.93c0,.26-.94,2.75-1,3-.66,1.53-3.51,2.1-6.92,1.25-3.9-1-7.06-3.42-7.06-5.48a19.32,19.32,0,0,1,1.06-3.36c.88-1.3,2.82.61,6,1.4C551.73,155.69,555.78,155.88,555.78,157.93Z"/><path class="cls-3" d="M541.66,149.88l9.86-25.29a9.07,9.07,0,0,1,11.5-5.13h0a8.52,8.52,0,0,1,5.16,11.13l-9.86,25.29C556.57,160.37,539.91,154.37,541.66,149.88Z"/><path class="cls-3" d="M558.52,155.37c0,2.52-3.9,3.65-8.7,2.53s-8.7-4.07-8.7-6.59,3.9-3.65,8.7-2.53S558.52,152.85,558.52,155.37Z"/><path class="cls-62" d="M568.18,130.61a8.49,8.49,0,0,0-4-10.63l-14.28,35.66a2.21,2.21,0,0,0-.58,1.5,2.7,2.7,0,0,0,.09.68l.43.11c4.8,1.12,8.69,0,8.7-2.51Z"/><path class="cls-4" d="M560.15,126.36h0a5.31,5.31,0,0,1-3.22-6.94l6.14-15.76c1.09-2.8,11.47.94,10.38,3.74l-6.14,15.76A5.65,5.65,0,0,1,560.15,126.36Z"/><path class="cls-8" d="M573.45,107.45c-.5,1.21-3.24,1.31-6.12.21s-4.81-3-4.31-4.19,3.24-1.31,6.12-.21S574,106.23,573.45,107.45Z"/><path class="cls-60" d="M565.62,104.7c.25-.61,1.62-.65,3.05-.1s2.4,1.48,2.15,2.09"/><path class="cls-60" d="M571.42,112.79c-.5,1.21-3.24,1.31-6.12.21s-4.81-3-4.31-4.19"/><path class="cls-58" d="M558.71,154.54c-1.32,1.33-4.41,1.75-8,.91-4.81-1.12-8.7-4.07-8.7-6.59"/><path class="cls-4" d="M569.84,125.85c0,2.52-3.9,3.65-8.7,2.53s-8.7-4.07-8.7-6.59,3.9-3.65,8.7-2.53S569.84,123.33,569.84,125.85Z"/><path class="cls-60" d="M576.08,181.84l-22.25,12.42c-3.75,2.09-9.46,2.32-12.74.51l-24.58-13.56"/><path class="cls-60" d="M576.08,204.55,553.83,217c-3.75,2.09-9.46,2.32-12.74.51l-24.58-13.56"/><line class="cls-63" x1="567.02" y1="192.29" x2="576.08" y2="197.29"/><g id="character2"><path d="M319.09,104.95c.71-.17,2.38-1.27,3.13-1.14s2,1.38,2.66,1.69,1.89.11,2.45.52c1,.75,1.25,2.63,1.54,3.08.52.8,2.42,1.25,2.79,2.13s.58,2.46.83,3.32c.3,1,2,2.59,1.31,4.41-.27.74-2.93,1.12-3.38,1.39-.75.45-1.74,2.16-2.57,2.43-1.62.52-2.88-.24-3.77-.42a9.68,9.68,0,0,0-2.64-.21c-1.27.06-2.91,1.67-5.24.82-.85-.31-1.6-1.74-2.49-1.87-1.29-.18-2.65-.06-3-1.26-.41-1.61.37-2.12.7-3.21.54-1.77-.24-4,.12-4.76s2.23-2.25,2.5-2.83.61-2.49,1.54-3.16C316.26,105.42,317.55,105.31,319.09,104.95Z"/><path class="cls-64" d="M313.59,205c.33,2.61-1.92,13.2-1.22,18.13,2,14.27,5,24,6.3,31.38.14.79,3,1,3,.19.6-8.26,4.74-29.65,3.79-34.31A54.5,54.5,0,0,0,320.92,209C318.88,205.21,313.59,205,313.59,205Z"/><path class="cls-64" d="M325.64,207.73c.65,2.53-.49,12.55.81,17.33,3.76,13.82,9.1,23,10.76,29.68.2.78,3.06.81,3.06,0,0-6.56,1-29.86-.54-34.33-.71-2.11-3.8-6.45-6.35-9.95S325.64,207.73,325.64,207.73Z"/><path class="cls-4" d="M315.53,156.65c-1.47,4.47-6.85,11.66-6.85,21.79,0,7.76,2.8,20.53,3.55,35.58.16,3.27,23.67,2.12,24.35-.31.15-.54,4-29.23,3.44-36.46-.71-9.23-10.42-21.62-10.42-21.62Z"/><path class="cls-65" d="M338.33,160c-.77,3.54,1.08,8.68-.13,12.1-.15.42-1.77,1.71-2.17,2.21-.59.75-.7,1.91-1.32,2.77-.36.51-.61.52-1,.94s.72.88,1.72.3,1.45-1.95,1.69-1.26a4,4,0,0,1-.1,3.59c-.25.47-1.08.6-1.37.88s-.23.91,0,1c1.28.5,4.42,0,4.94-.63a8.3,8.3,0,0,0,1.06-3.23c.11-.82-.6-4.58-.42-5.32.38-1.6,4.37-11.36,4.37-15.45,0-2.18-2.64-7.48-4.1-7.17C340.61,150.9,338.76,158,338.33,160Z"/><path class="cls-65" d="M282.6,164.25c1-.75,1.64-1.6,2-1.72,1.55-.54,11.91-2.48,15.36-4.7,1.83-1.18,4.86-6.27,3.81-7.34-.65-.66-7.62,1.64-9.52,2.35-3.4,1.27-6.7,5.61-10.24,6.45a25.82,25.82,0,0,1-3-.63c-1.48-.15-2.79,1.09-3.82,1.5s-2.35-.28-2.44.26.71,1,.71,1a12.62,12.62,0,0,0-2.16,2c-.21.5,3.5,2.08,5,2.53C279.18,166.21,281.7,165,282.6,164.25Z"/><path class="cls-11" d="M310.31,128.28c-1.39-.24-5.41,10.45-13.41,21.9-1.29,1.85,8.83,8.49,12.83,6.16,2.69-1.56,5.07-17.4,3.84-23.62C313,129.9,313.41,128.82,310.31,128.28Z"/><path class="cls-22" d="M333.93,127.53c1.88.82,12.28,19,13.21,24.23.64,3.6-12.07,7.32-13.33,4.66-1-2.06-2.46-11.69-2.88-16.47C330.72,137.6,331.21,126.34,333.93,127.53Z"/><path class="cls-22" d="M327.33,125.87a24.39,24.39,0,0,1-1.77-2.08c-.56-.72-6.84-.3-7.38.18a28.31,28.31,0,0,1-1.71,2.35c-.25.12-5.05,1.43-6.32,2a32.49,32.49,0,0,0,.8,10.85c.36,1.46-1.26,3.19-.87,4.66.73,2.73,2.1,3.2,2.47,4.57,1.12,4.16,2,7.68,2,9.05,0,2,16.74.92,16.26-1.36s1.69-15.85,2-17c1.11-4.77,3.35-10.39,1.17-11.62C333.08,127.05,327.7,126.1,327.33,125.87Z"/><path class="cls-64" d="M318.8,119.54c.12.65-.11,3.9-.11,4.94,0,.46.72,1.06,1.72,1.06,1.88,0,4.68-.79,4.61-1.42-.23-2-1-5.42-.47-8C325.25,112.7,318.8,119.54,318.8,119.54Z"/><path class="cls-65" d="M315,113.28c-.13,3,1.62,7.94,3.4,8.06,3.46.24,6.85-3.59,6.12-8.73-1.25.06-1.14-1.33-2-1.58-1.06-.3-3.14.46-3.79,0-1.2-.86-1.79-1.74-2.13-1.67C315.49,109.61,315.05,111.81,315,113.28Z"/><path class="cls-66" d="M319.17,158a.29.29,0,0,1-.29-.28c0-.07-.28-7.41-.89-9.5a6,6,0,0,0-.33-.76,9.21,9.21,0,0,1-1.08-4.11,24,24,0,0,1,1.13-6,36.5,36.5,0,0,0,1.68-11.22.29.29,0,1,1,.58,0,35.73,35.73,0,0,1-1.7,11.39,23.61,23.61,0,0,0-1.11,5.85,8.69,8.69,0,0,0,1,3.86,6.31,6.31,0,0,1,.36.85c.63,2.16.9,9.34.91,9.65a.29.29,0,0,1-.28.3Z"/><path class="cls-66" d="M313.89,148.27a4.13,4.13,0,0,1-2.28-.67,5,5,0,0,1-2.15-3.82,14.34,14.34,0,0,1,1.83-6.54.29.29,0,0,1,.48.32,10.86,10.86,0,0,0-1.73,6.17,4.42,4.42,0,0,0,1.88,3.38,3.86,3.86,0,0,0,3.49.3.29.29,0,1,1,.19.55A5.2,5.2,0,0,1,313.89,148.27Z"/><path class="cls-67" d="M321.08,254.43a3.87,3.87,0,0,1,2.37,3,12.39,12.39,0,0,1-.19,2.49,32,32,0,0,0-.16,6.24.66.66,0,0,1-.66.69H316c-.33,0-.81-1.51.26-2.22,1.27-.84,4.58-2.2,5.58-1.43a26.94,26.94,0,0,0,.31-3.5A26.19,26.19,0,0,0,321.08,254.43Z"/><path class="cls-64" d="M319.08,253.1c-.88,2.64-2.08,11.1-2.08,11.1s4.42-2,5.4.34c.7-2-.13-9.24-1.12-10.78S319.08,253.1,319.08,253.1Z"/><path class="cls-67" d="M339.65,254.43a3.41,3.41,0,0,1,2.11,2.88,18.12,18.12,0,0,1-.07,2.54,54.76,54.76,0,0,0,0,6.44.54.54,0,0,1-.54.57h-6.57c-.33,0-.53-2.6.54-3.31,1.27-.84,4.31-1.11,5.3-.34a26.93,26.93,0,0,0,.31-3.5A26.19,26.19,0,0,0,339.65,254.43Z"/><path class="cls-64" d="M337.65,253.1a89.22,89.22,0,0,0-1.89,10.11,5.67,5.67,0,0,1,5.17,1.72c.7-2-.09-9.63-1.08-11.17S337.65,253.1,337.65,253.1Z"/><path class="cls-65" d="M324.42,113.38c-.13-1.11.62-1.34,1-1.1.62.43-.16,3.3-.66,3.3s-.33-.94-.33-.94Z"/><path class="cls-66" d="M324.53,148.16a5,5,0,0,1-2.87-.83.29.29,0,0,1,.34-.47,5,5,0,0,0,4.76.25,3.93,3.93,0,0,0,2.37-3.37.29.29,0,1,1,.58,0,4.49,4.49,0,0,1-2.71,3.85A6,6,0,0,1,324.53,148.16Z"/><path class="cls-66" d="M319,128.8a.29.29,0,0,1-.14,0,4.82,4.82,0,0,1-2.22-2,.29.29,0,0,1,.54-.22c.84,2,.37.91,2,1.76a.29.29,0,0,1-.14.55Z"/><path class="cls-66" d="M321.43,129a8.28,8.28,0,0,1-.94-.05.29.29,0,1,1,.07-.58,7.42,7.42,0,0,0,6.51-2.45.29.29,0,0,1,.45.37A7.77,7.77,0,0,1,321.43,129Z"/><path class="cls-66" d="M331.61,145.39a.29.29,0,0,1-.29-.25,73.68,73.68,0,0,1-.72-11.77.29.29,0,1,1,.58,0,73,73,0,0,0,.72,11.66.29.29,0,0,1-.25.33Z"/><path class="cls-68" d="M280.59,160.68c-2.71,0-9,1.33-14.4,2.82a49.27,49.27,0,0,1-8,1.72l10.14,4.71s6.26-6.7,8-7.09,7.42-1.16,7.42-1.16Z"/></g><g id="character1"><path d="M355.59,112.37c-1.06-.66-1.36-3-1.37-3.38,0-.56.88-.87.88-1.81,0-.39-.68-1.18-.41-1.73.44-.91,1.86-.73,2.15-1.11.45-.6-.11-1.69.78-2.34.7-.51,1.43.33,2.05.12.88-.3.88-1.43,2.27-1.78,1.11-.28,1.94.46,2.76.66,1.07.27,2.13-.85,3.62-.36.81.27.75,1.59,1.29,1.94.69.45,1.41-.27,2.13.27.47.35.48,1.51.74,2.1.55,1.26,1.38,1.12,1.66,2.38a3.45,3.45,0,0,1-.44,2c-.18.66.75,2.39,0,3.57-.4.65-1.13.49-1.56,1.26-.11.2,0,.76-.39,1.16-.84.95-2.23.62-2.89,1.19s.07,2.13-.88,2.48-2.45,0-3.28-2.5c-.64-1.9-3.43-3.18-5-4.06C358.74,112,355.84,112.52,355.59,112.37Z"/><path class="cls-11" d="M354.24,130.94c-1,2.72-2.61,21.49-3.14,23.19s-1.66,3.54-2.11,6.43c-1.14,7.18,0,10.11.27,16.26.05,1.06,3.68,1,4.08.16,3.9-8.16,10.58-23.88,10.58-23.88S355.2,128.32,354.24,130.94Z"/><path class="cls-67" d="M353.14,258.87c-2.7.89-7.9,2.86-7.51,3.83.27.68,15.54.08,16.18-.55.46-.45.27-5.38-.51-5.16C360.76,256.72,353.14,258.87,353.14,258.87Z"/><path class="cls-67" d="M384.49,256.23c-.82.3-4.2,4-4.32,6.13-.1,1.75,7.18,1,7.76.55,1.92-1.39.53-6.44,0-6.8A6,6,0,0,0,384.49,256.23Z"/><path class="cls-69" d="M355.66,207.29c1,8.7,3.13,46.91,2.2,49.21-.19.47-7.08,3-7.08,3.48,0,.79,4.72.43,7.68-.44,2.3-.67,2.57-1.6,2.74-2.14.41-1.33,8.89-28.57,8.7-38.19s-7.32-19-7.32-19S355.17,203,355.66,207.29Z"/><path class="cls-70" d="M366.15,208.78c3.9,8.25,15.11,28.49,18.51,46.51.07.35-.94,1.41-1.53,2.44s-.27,2.07.31,2.26c1.91.6,4.9-2.22,4.46-3.93-.65-2.53,1.08-29.82-2.21-38.86s-15.63-16.45-15.63-16.45S363.26,202.66,366.15,208.78Z"/><path class="cls-71" d="M365.39,126.57c-3.71,0-9.83,1.38-11.15,4.37-1.06,2.41.65,7.09.5,10.3,0,.6-2.27,3.59-2.14,4.82a5.34,5.34,0,0,0,2.49,3.28c0,7,.85,11.31-1,18.36-3.82,14.55-1.87,26.95,1.6,41.58,6,.66,19.63-.33,23.62-1.45,1.67-7,4.38-26.2,3.67-31.91-.76-6.07-9.3-13.35-9.56-15.7-1.2-10.94,6.92-25.34,4.1-29.48C375.69,128.1,371,126.53,365.39,126.57Z"/><path class="cls-72" d="M362.31,115.59c-.6,10.05-1.93,12.44-1.84,13.88.05.84,7.2,1.44,7.64-1.34.24-1.49-1.47-9.7-1-15.22C364.67,113.36,362.46,112.92,362.31,115.59Z"/><path class="cls-70" d="M356.39,107.85c-1.44,3.88-1,11.65,1.66,13.41,1.79,1.19,7.88-1.24,9.23-6.94.6.4,1.53-1.47,1.42-2.89-.08-1.06-1.05-1.22-1.65-.38a1.32,1.32,0,0,1-1.66.11c-.75-.68-.49-2.32-1-2.81-.72-.65-1.77.2-2.56-.42s-.72-1.75-1.47-1.92c-.47-.11-1,.8-1.64.8s-.58-.73-.89-.72C357.3,106.1,356.81,106.71,356.39,107.85Z"/><path class="cls-11" d="M363.91,149.64a7,7,0,0,1-1.86-.24,3.36,3.36,0,0,1-2.15-1.54.36.36,0,0,1,.64-.35,2.62,2.62,0,0,0,1.7,1.18,7.72,7.72,0,0,0,5.2-.61.36.36,0,0,1,.37.63A8.31,8.31,0,0,1,363.91,149.64Z"/><path class="cls-71" d="M368.53,127.56c2.75,5.15,10.19,15.24,11,16.93.38.78-6.76,12.53-8.53,14.64-.58.69,2.15,2.44,2.79,2.25.88-.26,12.21-10.23,12.45-16,.16-3.75-5.86-14.89-7.42-15.8C375.73,127.79,367.47,125.58,368.53,127.56Z"/><path class="cls-70" d="M371.41,159a5.81,5.81,0,0,1-2.25,1.64c-.53.11-2.3,0-2.75.44s-1.12,1.53-1.63,2.13-1.12.75-1,1a1.15,1.15,0,0,0,1.3.12c.44-.28.9-1.75,1.62-1.36.52.28-4.41,5.13-4,5.58s2.88-2.69,3.27-2.69-3.15,3.56-2.85,4c.56.74,3.32-3.25,3.64-3s-2.93,3.07-2.71,3.34c.59.71,3.25-2.8,3.59-2.59.12.07-.14.73-.63,1.33s-1.05.81-.93,1.13.82-.08,1.35-.59.79-.91,1.34-1.48a25.07,25.07,0,0,0,2.67-2.77c.8-1.45.75-2.65,1.14-3.1s1.16-1.32,1-1.72C373.43,159.62,371.91,158.49,371.41,159Z"/><path class="cls-70" d="M352.23,176.47a6.1,6.1,0,0,0,.72,2.63c.32.4,1.64,1.36,1.73,2s0,1.89,0,2.67.39,1.26.16,1.35a1,1,0,0,1-1-.66c-.16-.49.31-1.94-.42-2-.52-.07-.58,8.22-1,8.37-.81.28-2-4.87-2.12-5.2-.6-1.44-.53-6.73-.56-7.33s-.11-1.74.2-2C350.45,175.8,352.15,175.77,352.23,176.47Z"/><path class="cls-11" d="M375.33,142.66a.36.36,0,0,1-.32-.19c-.65-1.16-1.68-3.64-1.72-3.75a.36.36,0,1,1,.67-.28s1.06,2.55,1.69,3.67a.36.36,0,0,1-.32.54Z"/><path class="cls-11" d="M365.53,207.33a.36.36,0,0,1-.34-.24c-1.94-5.42-1.38-24-1.36-24.77a.36.36,0,0,1,.36-.35h0a.36.36,0,0,1,.35.38c0,.19-.58,19.21,1.32,24.5a.36.36,0,0,1-.22.47Z"/></g><g id="_4" data-name="4"><path class="cls-73" d="M251.76,132.13c1.13.95,5.58,22.78,4.91,28.57-.94,8.13-6,19.78-6,19.78L241.59,182S242.12,124.06,251.76,132.13Z"/><path class="cls-74" d="M229.68,257.31c-.72-.12-.62,1.63-.36,1.77,1.75.93,6,1,9.43,1.29,4,.28,7.14.39,8.36-.52.64-.48.71-1.58-.7-2.26-.65-.31-9.62-.87-9.82-.81S229.68,257.31,229.68,257.31Z"/><path class="cls-65" d="M237.55,245.09c.15,2.61-1.37,6.74-.91,7.71.18.38,1.62,3.2.56,4.33a4,4,0,0,1-6.76-2.12,52.07,52.07,0,0,0,1.61-9.3C232.06,244.42,237.48,243.71,237.55,245.09Z"/><path class="cls-75" d="M229.71,257.84c.28,1,14.64,2.62,16.7,1.28,1.09-.71.12-1.52-1.12-2-1.44-.6-5.5-3.2-6.83-3.8-1.1-.49-1.9-2.65-2.34-2.26s-.38,2.55-.19,3.42.06,1.58-.32,1.69c-2.11.64-4.32-2.92-4.89-2.75C230,253.61,229.42,256.83,229.71,257.84Z"/><path class="cls-65" d="M230.78,244c-1.32,3.44-.43,8.38,0,9.36.2.49,1.95,6-2.94,4.49-3.18-1-3.06-3.41-2.92-3.77,1.26-3.36-.05-8.62-.05-9.8S231.27,242.76,230.78,244Z"/><path class="cls-76" d="M223.61,257.51c-.62-.14-.39,2-.23,2.25a20.47,20.47,0,0,0,7.08.88c3.24-.08,5.29-.26,5.55-.86a2.48,2.48,0,0,0-.7-2.11c-.55-.35-5.9-.69-6.08-.64S223.61,257.51,223.61,257.51Z"/><path class="cls-77" d="M229.88,251.77c.71,0,1.74,1.6,2.3,3.26.66.7,1.87,1,2.5,1.89.44.65,1,1.79.75,2.1-.83,1.08-11.34.9-11.72-.07-.49-1.26.54-2.42.68-3.66s0-1.71.4-2.31c.12-.19.44-.07.43.28,0,.79-.14,2.18,1,2.34C227.2,252.7,228.72,251.73,229.88,251.77Z"/><path class="cls-78" d="M250.28,175.88s-6.58,63.12-8.49,72.37c-.35,1.67-10.42,1.1-10.65-.59-.9-6.6-5-20.26-4.19-26.36.34-2.72,2.4-7.59,3.78-10.89,1.72-4.13-6.53-27.34-.1-45.53C232.36,160,250.28,175.88,250.28,175.88Z"/><path class="cls-11" d="M240.15,170.17s-4.69,69-6.12,78.33c-.26,1.69-13.68,2.17-14.42-1.71-1.25-6.54-.94-18.8-.49-24.94.2-2.73,2-7.7,3.2-11.07,1.5-4.21-7.95-27-2.48-45.47C221.32,160.31,240.15,170.17,240.15,170.17Z"/><path class="cls-78" d="M248.24,175.33c-.25,2,1.31,4.86,2.42,5.14,0,1.85-1.8,4.9-2.75,7.37-1,2.69-5-5.27-5-5.27Z"/><path class="cls-7" d="M234.21,119.78c6.2.65,15.29,5.65,17.54,12.35,1.27,3.78-1.47,43.75-1.47,43.75l-33.29.83s2.28-10,2.52-12.61c.57-6.26-2.64-26.15-6.58-33.18C210.15,126,228.81,119.22,234.21,119.78Z"/><path class="cls-73" d="M237.81,111.18s1.66,11,1.58,11.3c-.15.59-1,6.81-2,7.4-1.47.85-9.81-6.09-10.35-7.4-.12-.29,1.43-12.59,1.43-12.59Z"/><path d="M240,108.16c1.08-6.34-.3-9.94-.91-10.81-.85-1.22-10.93-1.93-12.53.7s-.75,9.07-.09,10.1,8,2,8,2Z"/><path class="cls-65" d="M238,101c1,1.28,1.3,2.79,1.33,5.45,2.24-3.76,1.49,4.65-.18,3.82-.26,2.72-1.66,5.64-4,6.94a3.25,3.25,0,0,1-3.19.25c-2.92-1.36-4.29-4.56-4.58-6.89-.83,0-1.75-2.81-1.67-4.39.05-1.08.88-1.57,1.33-.09-.09-2.89.21-4.45.83-5.08.78-.79,3.12,1.6,6.34,1.61C237.25,102.59,237.4,100.16,238,101Z"/><path class="cls-79" d="M230.69,110.57a23.89,23.89,0,0,1-2.8-.14.68.68,0,0,1-.4-.44,7.64,7.64,0,0,1-.32-3.19c.07-.12.2-.18.52-.24.92-.18,4.09-.4,4.84.16.09.07.33.25.35,1.54,0,.19,0,1.82-.34,2.12A4.85,4.85,0,0,1,230.69,110.57Zm-2.65-.64a21.86,21.86,0,0,0,4.15,0,6.49,6.49,0,0,0,0-2.84c-.57-.41-4-.24-4.59,0A7.78,7.78,0,0,0,228,109.93Z"/><path class="cls-79" d="M236.14,110.57a4.85,4.85,0,0,1-1.83-.19c-.36-.3-.35-1.93-.34-2.12,0-1.29.26-1.47.35-1.54.75-.57,3.92-.34,4.84-.16.32.06.45.12.52.24a7.43,7.43,0,0,1-.32,3.19.68.68,0,0,1-.4.44A23.85,23.85,0,0,1,236.14,110.57Zm-1.5-.6a22,22,0,0,0,4.15,0,7.62,7.62,0,0,0,.43-2.83c-.64-.21-4-.38-4.59,0A6.49,6.49,0,0,0,234.64,110Z"/><path class="cls-73" d="M212.67,129.94c-5.28,8.45-6.52,29.78-5.29,33.91,2.23,7.48,14.38,19.84,14.38,19.84l2.23-4.82s-6.72-15.15-6.69-18.18S219,150.8,219,147.35,212.67,129.94,212.67,129.94Z"/><path class="cls-7" d="M206.41,152.48c.28-5.12,3.28-24.46,9.06-26.13,4.19-1.21,8.23,28.2,6.09,28.69S206.41,152.48,206.41,152.48Z"/><path class="cls-80" d="M248.82,127.28c4,2,8.88,19.06,7.91,23.05a36.72,36.72,0,0,1-7.1,1.67Z"/><path class="cls-81" d="M251.74,150.41a.19.19,0,0,1-.19-.19c.21-4.66,0-12.21,0-12.29a.19.19,0,0,1,.18-.19.17.17,0,0,1,.19.18c0,.08.21,7.64,0,12.32A.19.19,0,0,1,251.74,150.41Z"/><path class="cls-81" d="M222.15,154.61h0a.19.19,0,0,1-.17-.2c0-.11.78-10.8-.89-16.44a.19.19,0,0,1,.36-.11c1.69,5.71.91,16.46.91,16.57A.19.19,0,0,1,222.15,154.61Z"/><path class="cls-81" d="M224.53,138.53c1.21,0,8.52-.09,8.68,0a15,15,0,0,1,.12,2.6h-8.55Z"/><path class="cls-82" d="M236.65,155.41c0-.12.29-.14.31,0S236.68,155.53,236.65,155.41Z"/><path class="cls-82" d="M240.5,157.35c0-.11.32,0,.28.14S240.47,157.46,240.5,157.35Z"/></g></g></g></g></svg>